M48
; DRILL file {KiCad 5.1.5+dfsg1-2build2} date Fri 16 Oct 2020 07:58:47 PM MDT
; FORMAT={-:-/ absolute / inch / decimal}
; #@! TF.CreationDate,2020-10-16T19:58:47-06:00
; #@! TF.GenerationSoftware,Kicad,Pcbnew,5.1.5+dfsg1-2build2
; #@! TF.FileFunction,Plated,1,2,PTH
FMAT,2
INCH
T1C0.0118
T2C0.0150
T3C0.0157
T4C0.0394
%
G90
G05
T1
X1.2992Y-2.6063
X1.3228Y-2.1969
X1.3543Y-2.0866
X1.3937Y-2.5984
X1.4016Y-2.1457
X1.4409Y-2.1772
X1.4567Y-3.5827
X1.4882Y-4.1811
X1.5118Y-4.0039
X1.5354Y-2.2205
X1.5945Y-3.2913
X1.6102Y-3.5827
X1.7323Y-2.6063
X1.7559Y-3.374
X1.8081Y-3.4498
X1.8189Y-3.252
X1.8268Y-2.4409
X1.8307Y-2.2205
X1.9055Y-3.252
X1.9055Y-3.5039
X1.9291Y-2.1299
X1.9291Y-3.1654
X1.9528Y-3.4843
X1.9843Y-2.1417
X1.9843Y-3.1378
X2.0079Y-3.2205
X2.0089Y-2.7441
X2.0866Y-2.748
X2.122Y-3.1929
X2.1535Y-2.1496
X2.1535Y-3.3071
X2.1811Y-2.2205
X2.2283Y-2.252
X2.2402Y-2.5354
X2.3031Y-2.7559
X2.3189Y-2.8543
X2.3465Y-2.5669
X2.361Y-3.4517
X2.3847Y-3.4213
X2.3898Y-3.3179
X2.4173Y-3.5787
X2.4213Y-3.1102
X2.4252Y-2.4173
X2.4409Y-3.2205
X2.4528Y-3.1339
X2.4645Y-3.1712
X2.4902Y-3.1929
X2.4921Y-3.4291
X2.5412Y-2.4574
X2.5591Y-3.4252
T2
X1.2283Y-4.2835
X1.2362Y-1.7165
X1.2362Y-1.874
X1.2362Y-2.0315
X1.2362Y-3.874
X1.2441Y-4.5827
X1.2913Y-2.4252
X1.2913Y-2.5118
X1.3937Y-1.7165
X1.3937Y-1.874
X1.3937Y-2.0157
X1.4961Y-2.378
X1.5039Y-2.4882
X1.5118Y-4.378
X1.5197Y-2.2913
X1.5354Y-4.1024
X1.5433Y-2.6299
X1.5512Y-1.7165
X1.5512Y-1.874
X1.5512Y-2.0157
X1.5827Y-3.8425
X1.5906Y-4.5984
X1.6142Y-1.2126
X1.6378Y-2.2992
X1.6378Y-2.378
X1.685Y-1.874
X1.6929Y-1.2126
X1.6929Y-1.4488
X1.7008Y-2.4882
X1.7008Y-2.5748
X1.7323Y-4.0945
X1.7559Y-1.7165
X1.7559Y-1.9291
X1.7717Y-1.2126
X1.7717Y-1.4488
X1.7953Y-2.2992
X1.7953Y-2.378
X1.8504Y-1.2126
X1.8504Y-1.4488
X1.8543Y-3.5945
X1.9134Y-1.7165
X1.9134Y-1.874
X1.9291Y-1.2126
X1.9291Y-1.4488
X1.9291Y-4.0945
X1.9291Y-4.5827
X1.9449Y-4.3307
X1.9843Y-3.9134
X2.0Y-3.7402
X2.0079Y-1.2126
X2.0079Y-1.4488
X2.0079Y-3.378
X2.0709Y-1.7165
X2.0709Y-1.9291
X2.0866Y-1.2126
X2.0866Y-1.4488
X2.126Y-3.378
X2.1535Y-4.0669
X2.1654Y-1.2126
X2.1654Y-1.4488
X2.2126Y-3.6457
X2.2283Y-1.7165
X2.2283Y-1.874
X2.2283Y-2.0315
X2.2441Y-1.2126
X2.2441Y-1.4488
X2.2441Y-4.5827
X2.2913Y-2.4409
X2.2913Y-2.685
X2.2992Y-2.2756
X2.3228Y-1.2126
X2.3228Y-1.4488
X2.3386Y-1.7165
X2.3701Y-3.6929
X2.3701Y-4.3622
X2.3858Y-2.0315
X2.3937Y-1.874
X2.4016Y-1.7323
X2.4252Y-2.6929
X2.4409Y-2.9921
X2.4409Y-3.8425
X2.4724Y-1.7165
X2.4803Y-3.5906
X2.4961Y-2.3937
X2.5197Y-2.2756
X2.5433Y-2.0315
X2.5512Y-1.874
X2.6063Y-3.4803
X2.622Y-4.5827
X2.6299Y-1.7165
X2.6299Y-1.874
X2.6299Y-2.0315
X2.6299Y-3.8425
X2.6299Y-4.2677
T3
X1.2165Y-3.0394
X1.3031Y-3.3307
X1.4685Y-3.8543
X1.5591Y-3.3701
X1.6732Y-2.1575
X1.7953Y-2.1575
X1.811Y-3.0551
X2.2008Y-3.0551
X2.2441Y-3.5512
X2.2835Y-3.937
X2.315Y-3.5551
X2.378Y-3.0551
X2.4252Y-3.937
T4
X2.5984Y-2.1654
X2.5984Y-2.2654
X2.5984Y-2.3654
X2.5984Y-2.4654
X2.5984Y-2.5654
X2.5984Y-2.7559
X2.5984Y-2.8559
X2.5984Y-2.9559
X2.5984Y-3.0559
T0
M30
