G04 #@! TF.GenerationSoftware,KiCad,Pcbnew,5.1.5+dfsg1-2build2*
G04 #@! TF.CreationDate,2020-10-16T19:58:43-06:00*
G04 #@! TF.ProjectId,remote,72656d6f-7465-42e6-9b69-6361645f7063,rev?*
G04 #@! TF.SameCoordinates,Original*
G04 #@! TF.FileFunction,Legend,Top*
G04 #@! TF.FilePolarity,Positive*
%FSLAX46Y46*%
G04 Gerber Fmt 4.6, Leading zero omitted, Abs format (unit mm)*
G04 Created by KiCad (PCBNEW 5.1.5+dfsg1-2build2) date 2020-10-16 19:58:43*
%MOMM*%
%LPD*%
G04 APERTURE LIST*
%ADD10C,0.150000*%
%ADD11C,0.120000*%
G04 APERTURE END LIST*
D10*
X60004761Y-75157142D02*
X60052380Y-75014285D01*
X60052380Y-74776190D01*
X60004761Y-74680952D01*
X59957142Y-74633333D01*
X59861904Y-74585714D01*
X59766666Y-74585714D01*
X59671428Y-74633333D01*
X59623809Y-74680952D01*
X59576190Y-74776190D01*
X59528571Y-74966666D01*
X59480952Y-75061904D01*
X59433333Y-75109523D01*
X59338095Y-75157142D01*
X59242857Y-75157142D01*
X59147619Y-75109523D01*
X59100000Y-75061904D01*
X59052380Y-74966666D01*
X59052380Y-74728571D01*
X59100000Y-74585714D01*
X59052380Y-74252380D02*
X60052380Y-74014285D01*
X59338095Y-73823809D01*
X60052380Y-73633333D01*
X59052380Y-73395238D01*
X60052380Y-73014285D02*
X59052380Y-73014285D01*
X59052380Y-72776190D01*
X59100000Y-72633333D01*
X59195238Y-72538095D01*
X59290476Y-72490476D01*
X59480952Y-72442857D01*
X59623809Y-72442857D01*
X59814285Y-72490476D01*
X59909523Y-72538095D01*
X60004761Y-72633333D01*
X60052380Y-72776190D01*
X60052380Y-73014285D01*
D11*
X60400000Y-68800000D02*
X60400000Y-79000000D01*
X60400000Y-66400000D02*
X60400000Y-54000000D01*
D10*
X60004761Y-62509523D02*
X60052380Y-62366666D01*
X60052380Y-62128571D01*
X60004761Y-62033333D01*
X59957142Y-61985714D01*
X59861904Y-61938095D01*
X59766666Y-61938095D01*
X59671428Y-61985714D01*
X59623809Y-62033333D01*
X59576190Y-62128571D01*
X59528571Y-62319047D01*
X59480952Y-62414285D01*
X59433333Y-62461904D01*
X59338095Y-62509523D01*
X59242857Y-62509523D01*
X59147619Y-62461904D01*
X59100000Y-62414285D01*
X59052380Y-62319047D01*
X59052380Y-62080952D01*
X59100000Y-61938095D01*
X59528571Y-61509523D02*
X59528571Y-61176190D01*
X60052380Y-61033333D02*
X60052380Y-61509523D01*
X59052380Y-61509523D01*
X59052380Y-61033333D01*
X60052380Y-60033333D02*
X59576190Y-60366666D01*
X60052380Y-60604761D02*
X59052380Y-60604761D01*
X59052380Y-60223809D01*
X59100000Y-60128571D01*
X59147619Y-60080952D01*
X59242857Y-60033333D01*
X59385714Y-60033333D01*
X59480952Y-60080952D01*
X59528571Y-60128571D01*
X59576190Y-60223809D01*
X59576190Y-60604761D01*
X60052380Y-59604761D02*
X59052380Y-59604761D01*
X59766666Y-59176190D02*
X59766666Y-58700000D01*
X60052380Y-59271428D02*
X59052380Y-58938095D01*
X60052380Y-58604761D01*
X60052380Y-57795238D02*
X60052380Y-58271428D01*
X59052380Y-58271428D01*
X63504761Y-64652380D02*
X63695238Y-64652380D01*
X63790476Y-64700000D01*
X63885714Y-64795238D01*
X63933333Y-64985714D01*
X63933333Y-65319047D01*
X63885714Y-65509523D01*
X63790476Y-65604761D01*
X63695238Y-65652380D01*
X63504761Y-65652380D01*
X63409523Y-65604761D01*
X63314285Y-65509523D01*
X63266666Y-65319047D01*
X63266666Y-64985714D01*
X63314285Y-64795238D01*
X63409523Y-64700000D01*
X63504761Y-64652380D01*
X61361904Y-59652380D02*
X61980952Y-59652380D01*
X61647619Y-60033333D01*
X61790476Y-60033333D01*
X61885714Y-60080952D01*
X61933333Y-60128571D01*
X61980952Y-60223809D01*
X61980952Y-60461904D01*
X61933333Y-60557142D01*
X61885714Y-60604761D01*
X61790476Y-60652380D01*
X61504761Y-60652380D01*
X61409523Y-60604761D01*
X61361904Y-60557142D01*
X62266666Y-59652380D02*
X62600000Y-60652380D01*
X62933333Y-59652380D01*
X63171428Y-59652380D02*
X63790476Y-59652380D01*
X63457142Y-60033333D01*
X63600000Y-60033333D01*
X63695238Y-60080952D01*
X63742857Y-60128571D01*
X63790476Y-60223809D01*
X63790476Y-60461904D01*
X63742857Y-60557142D01*
X63695238Y-60604761D01*
X63600000Y-60652380D01*
X63314285Y-60652380D01*
X63219047Y-60604761D01*
X63171428Y-60557142D01*
X61838095Y-54500000D02*
X61742857Y-54452380D01*
X61600000Y-54452380D01*
X61457142Y-54500000D01*
X61361904Y-54595238D01*
X61314285Y-54690476D01*
X61266666Y-54880952D01*
X61266666Y-55023809D01*
X61314285Y-55214285D01*
X61361904Y-55309523D01*
X61457142Y-55404761D01*
X61600000Y-55452380D01*
X61695238Y-55452380D01*
X61838095Y-55404761D01*
X61885714Y-55357142D01*
X61885714Y-55023809D01*
X61695238Y-55023809D01*
X62314285Y-55452380D02*
X62314285Y-54452380D01*
X62885714Y-55452380D01*
X62885714Y-54452380D01*
X63361904Y-55452380D02*
X63361904Y-54452380D01*
X63600000Y-54452380D01*
X63742857Y-54500000D01*
X63838095Y-54595238D01*
X63885714Y-54690476D01*
X63933333Y-54880952D01*
X63933333Y-55023809D01*
X63885714Y-55214285D01*
X63838095Y-55309523D01*
X63742857Y-55404761D01*
X63600000Y-55452380D01*
X63361904Y-55452380D01*
X61361904Y-77252380D02*
X61980952Y-77252380D01*
X61647619Y-77633333D01*
X61790476Y-77633333D01*
X61885714Y-77680952D01*
X61933333Y-77728571D01*
X61980952Y-77823809D01*
X61980952Y-78061904D01*
X61933333Y-78157142D01*
X61885714Y-78204761D01*
X61790476Y-78252380D01*
X61504761Y-78252380D01*
X61409523Y-78204761D01*
X61361904Y-78157142D01*
X62266666Y-77252380D02*
X62600000Y-78252380D01*
X62933333Y-77252380D01*
X63171428Y-77252380D02*
X63790476Y-77252380D01*
X63457142Y-77633333D01*
X63600000Y-77633333D01*
X63695238Y-77680952D01*
X63742857Y-77728571D01*
X63790476Y-77823809D01*
X63790476Y-78061904D01*
X63742857Y-78157142D01*
X63695238Y-78204761D01*
X63600000Y-78252380D01*
X63314285Y-78252380D01*
X63219047Y-78204761D01*
X63171428Y-78157142D01*
X61638095Y-74700000D02*
X61542857Y-74652380D01*
X61400000Y-74652380D01*
X61257142Y-74700000D01*
X61161904Y-74795238D01*
X61114285Y-74890476D01*
X61066666Y-75080952D01*
X61066666Y-75223809D01*
X61114285Y-75414285D01*
X61161904Y-75509523D01*
X61257142Y-75604761D01*
X61400000Y-75652380D01*
X61495238Y-75652380D01*
X61638095Y-75604761D01*
X61685714Y-75557142D01*
X61685714Y-75223809D01*
X61495238Y-75223809D01*
X62114285Y-75652380D02*
X62114285Y-74652380D01*
X62685714Y-75652380D01*
X62685714Y-74652380D01*
X63161904Y-75652380D02*
X63161904Y-74652380D01*
X63400000Y-74652380D01*
X63542857Y-74700000D01*
X63638095Y-74795238D01*
X63685714Y-74890476D01*
X63733333Y-75080952D01*
X63733333Y-75223809D01*
X63685714Y-75414285D01*
X63638095Y-75509523D01*
X63542857Y-75604761D01*
X63400000Y-75652380D01*
X63161904Y-75652380D01*
X62676190Y-73052380D02*
X62676190Y-72052380D01*
X63342857Y-72052380D02*
X63533333Y-72052380D01*
X63628571Y-72100000D01*
X63723809Y-72195238D01*
X63771428Y-72385714D01*
X63771428Y-72719047D01*
X63723809Y-72909523D01*
X63628571Y-73004761D01*
X63533333Y-73052380D01*
X63342857Y-73052380D01*
X63247619Y-73004761D01*
X63152380Y-72909523D01*
X63104761Y-72719047D01*
X63104761Y-72385714D01*
X63152380Y-72195238D01*
X63247619Y-72100000D01*
X63342857Y-72052380D01*
X62004761Y-70357142D02*
X61957142Y-70404761D01*
X61814285Y-70452380D01*
X61719047Y-70452380D01*
X61576190Y-70404761D01*
X61480952Y-70309523D01*
X61433333Y-70214285D01*
X61385714Y-70023809D01*
X61385714Y-69880952D01*
X61433333Y-69690476D01*
X61480952Y-69595238D01*
X61576190Y-69500000D01*
X61719047Y-69452380D01*
X61814285Y-69452380D01*
X61957142Y-69500000D01*
X62004761Y-69547619D01*
X62909523Y-70452380D02*
X62433333Y-70452380D01*
X62433333Y-69452380D01*
X63242857Y-70452380D02*
X63242857Y-69452380D01*
X63814285Y-70452380D02*
X63385714Y-69880952D01*
X63814285Y-69452380D02*
X63242857Y-70023809D01*
D11*
X32810000Y-95828733D02*
X32810000Y-96171267D01*
X31790000Y-95828733D02*
X31790000Y-96171267D01*
X31890000Y-59071267D02*
X31890000Y-58728733D01*
X32910000Y-59071267D02*
X32910000Y-58728733D01*
X31090000Y-69671267D02*
X31090000Y-69328733D01*
X32110000Y-69671267D02*
X32110000Y-69328733D01*
X32510000Y-87728733D02*
X32510000Y-88071267D01*
X31490000Y-87728733D02*
X31490000Y-88071267D01*
D10*
X64450000Y-88225000D02*
X64450000Y-83775000D01*
X57550000Y-89750000D02*
X57550000Y-83775000D01*
X46400000Y-50400000D02*
X46400000Y-47600000D01*
X51400000Y-51600000D02*
X46600000Y-51600000D01*
X51600000Y-47600000D02*
X51600000Y-50400000D01*
X46600000Y-46400000D02*
X51400000Y-46400000D01*
X46400000Y-67400000D02*
X46400000Y-64600000D01*
X51400000Y-68600000D02*
X46600000Y-68600000D01*
X51600000Y-64600000D02*
X51600000Y-67400000D01*
X46600000Y-63400000D02*
X51400000Y-63400000D01*
X46400000Y-83400000D02*
X46400000Y-80600000D01*
X51400000Y-84600000D02*
X46600000Y-84600000D01*
X51600000Y-80600000D02*
X51600000Y-83400000D01*
X46600000Y-79400000D02*
X51400000Y-79400000D01*
X51600000Y-102600000D02*
X51600000Y-105400000D01*
X46600000Y-101400000D02*
X51400000Y-101400000D01*
X46400000Y-105400000D02*
X46400000Y-102600000D01*
X51400000Y-106600000D02*
X46600000Y-106600000D01*
D11*
X36762779Y-53610000D02*
X36437221Y-53610000D01*
X36762779Y-52590000D02*
X36437221Y-52590000D01*
X35137221Y-59290000D02*
X35462779Y-59290000D01*
X35137221Y-60310000D02*
X35462779Y-60310000D01*
X34237221Y-70090000D02*
X34562779Y-70090000D01*
X34237221Y-71110000D02*
X34562779Y-71110000D01*
X34637221Y-88190000D02*
X34962779Y-88190000D01*
X34637221Y-89210000D02*
X34962779Y-89210000D01*
X34837221Y-95490000D02*
X35162779Y-95490000D01*
X34837221Y-96510000D02*
X35162779Y-96510000D01*
X36062779Y-65310000D02*
X35737221Y-65310000D01*
X36062779Y-64290000D02*
X35737221Y-64290000D01*
X38249721Y-83090000D02*
X38575279Y-83090000D01*
X38249721Y-84110000D02*
X38575279Y-84110000D01*
X39162779Y-91510000D02*
X38837221Y-91510000D01*
X39162779Y-90490000D02*
X38837221Y-90490000D01*
X36680000Y-56140000D02*
X35750000Y-56140000D01*
X33520000Y-56140000D02*
X34450000Y-56140000D01*
X33520000Y-56140000D02*
X33520000Y-58300000D01*
X36680000Y-56140000D02*
X36680000Y-57600000D01*
X35880000Y-66840000D02*
X34950000Y-66840000D01*
X32720000Y-66840000D02*
X33650000Y-66840000D01*
X32720000Y-66840000D02*
X32720000Y-69000000D01*
X35880000Y-66840000D02*
X35880000Y-68300000D01*
X36280000Y-85040000D02*
X35350000Y-85040000D01*
X33120000Y-85040000D02*
X34050000Y-85040000D01*
X33120000Y-85040000D02*
X33120000Y-87200000D01*
X36280000Y-85040000D02*
X36280000Y-86500000D01*
X36580000Y-92240000D02*
X35650000Y-92240000D01*
X33420000Y-92240000D02*
X34350000Y-92240000D01*
X33420000Y-92240000D02*
X33420000Y-94400000D01*
X36580000Y-92240000D02*
X36580000Y-93700000D01*
X64670000Y-56270000D02*
X67330000Y-56270000D01*
X64670000Y-56270000D02*
X64670000Y-66490000D01*
X64670000Y-66490000D02*
X67330000Y-66490000D01*
X67330000Y-56270000D02*
X67330000Y-66490000D01*
X67330000Y-53670000D02*
X67330000Y-55000000D01*
X66000000Y-53670000D02*
X67330000Y-53670000D01*
X64670000Y-71270000D02*
X67330000Y-71270000D01*
X64670000Y-71270000D02*
X64670000Y-78950000D01*
X64670000Y-78950000D02*
X67330000Y-78950000D01*
X67330000Y-71270000D02*
X67330000Y-78950000D01*
X67330000Y-68670000D02*
X67330000Y-70000000D01*
X66000000Y-68670000D02*
X67330000Y-68670000D01*
X62335000Y-66800000D02*
X62335000Y-64515000D01*
X62335000Y-64515000D02*
X60865000Y-64515000D01*
X60865000Y-64515000D02*
X60865000Y-66800000D01*
X33262779Y-77710000D02*
X32937221Y-77710000D01*
X33262779Y-76690000D02*
X32937221Y-76690000D01*
X33262779Y-75810000D02*
X32937221Y-75810000D01*
X33262779Y-74790000D02*
X32937221Y-74790000D01*
M02*
