G04 #@! TF.GenerationSoftware,KiCad,Pcbnew,5.1.8-db9833491~87~ubuntu20.04.1*
G04 #@! TF.CreationDate,2020-11-19T21:04:05-07:00*
G04 #@! TF.ProjectId,remote,72656d6f-7465-42e6-9b69-6361645f7063,rev?*
G04 #@! TF.SameCoordinates,Original*
G04 #@! TF.FileFunction,Paste,Top*
G04 #@! TF.FilePolarity,Positive*
%FSLAX46Y46*%
G04 Gerber Fmt 4.6, Leading zero omitted, Abs format (unit mm)*
G04 Created by KiCad (PCBNEW 5.1.8-db9833491~87~ubuntu20.04.1) date 2020-11-19 21:04:05*
%MOMM*%
%LPD*%
G01*
G04 APERTURE LIST*
%ADD10R,0.450000X1.450000*%
%ADD11R,2.000000X1.500000*%
G04 APERTURE END LIST*
G36*
G01*
X35640000Y-81785000D02*
X35640000Y-81415000D01*
G75*
G02*
X35775000Y-81280000I135000J0D01*
G01*
X36045000Y-81280000D01*
G75*
G02*
X36180000Y-81415000I0J-135000D01*
G01*
X36180000Y-81785000D01*
G75*
G02*
X36045000Y-81920000I-135000J0D01*
G01*
X35775000Y-81920000D01*
G75*
G02*
X35640000Y-81785000I0J135000D01*
G01*
G37*
G36*
G01*
X34620000Y-81785000D02*
X34620000Y-81415000D01*
G75*
G02*
X34755000Y-81280000I135000J0D01*
G01*
X35025000Y-81280000D01*
G75*
G02*
X35160000Y-81415000I0J-135000D01*
G01*
X35160000Y-81785000D01*
G75*
G02*
X35025000Y-81920000I-135000J0D01*
G01*
X34755000Y-81920000D01*
G75*
G02*
X34620000Y-81785000I0J135000D01*
G01*
G37*
G36*
G01*
X52850000Y-51015000D02*
X52850000Y-51385000D01*
G75*
G02*
X52715000Y-51520000I-135000J0D01*
G01*
X52445000Y-51520000D01*
G75*
G02*
X52310000Y-51385000I0J135000D01*
G01*
X52310000Y-51015000D01*
G75*
G02*
X52445000Y-50880000I135000J0D01*
G01*
X52715000Y-50880000D01*
G75*
G02*
X52850000Y-51015000I0J-135000D01*
G01*
G37*
G36*
G01*
X53870000Y-51015000D02*
X53870000Y-51385000D01*
G75*
G02*
X53735000Y-51520000I-135000J0D01*
G01*
X53465000Y-51520000D01*
G75*
G02*
X53330000Y-51385000I0J135000D01*
G01*
X53330000Y-51015000D01*
G75*
G02*
X53465000Y-50880000I135000J0D01*
G01*
X53735000Y-50880000D01*
G75*
G02*
X53870000Y-51015000I0J-135000D01*
G01*
G37*
G36*
G01*
X52560000Y-81015000D02*
X52560000Y-81385000D01*
G75*
G02*
X52425000Y-81520000I-135000J0D01*
G01*
X52155000Y-81520000D01*
G75*
G02*
X52020000Y-81385000I0J135000D01*
G01*
X52020000Y-81015000D01*
G75*
G02*
X52155000Y-80880000I135000J0D01*
G01*
X52425000Y-80880000D01*
G75*
G02*
X52560000Y-81015000I0J-135000D01*
G01*
G37*
G36*
G01*
X53580000Y-81015000D02*
X53580000Y-81385000D01*
G75*
G02*
X53445000Y-81520000I-135000J0D01*
G01*
X53175000Y-81520000D01*
G75*
G02*
X53040000Y-81385000I0J135000D01*
G01*
X53040000Y-81015000D01*
G75*
G02*
X53175000Y-80880000I135000J0D01*
G01*
X53445000Y-80880000D01*
G75*
G02*
X53580000Y-81015000I0J-135000D01*
G01*
G37*
G36*
G01*
X52760000Y-106015000D02*
X52760000Y-106385000D01*
G75*
G02*
X52625000Y-106520000I-135000J0D01*
G01*
X52355000Y-106520000D01*
G75*
G02*
X52220000Y-106385000I0J135000D01*
G01*
X52220000Y-106015000D01*
G75*
G02*
X52355000Y-105880000I135000J0D01*
G01*
X52625000Y-105880000D01*
G75*
G02*
X52760000Y-106015000I0J-135000D01*
G01*
G37*
G36*
G01*
X53780000Y-106015000D02*
X53780000Y-106385000D01*
G75*
G02*
X53645000Y-106520000I-135000J0D01*
G01*
X53375000Y-106520000D01*
G75*
G02*
X53240000Y-106385000I0J135000D01*
G01*
X53240000Y-106015000D01*
G75*
G02*
X53375000Y-105880000I135000J0D01*
G01*
X53645000Y-105880000D01*
G75*
G02*
X53780000Y-106015000I0J-135000D01*
G01*
G37*
G36*
G01*
X54800000Y-67630000D02*
X54800000Y-67970000D01*
G75*
G02*
X54660000Y-68110000I-140000J0D01*
G01*
X54380000Y-68110000D01*
G75*
G02*
X54240000Y-67970000I0J140000D01*
G01*
X54240000Y-67630000D01*
G75*
G02*
X54380000Y-67490000I140000J0D01*
G01*
X54660000Y-67490000D01*
G75*
G02*
X54800000Y-67630000I0J-140000D01*
G01*
G37*
G36*
G01*
X55760000Y-67630000D02*
X55760000Y-67970000D01*
G75*
G02*
X55620000Y-68110000I-140000J0D01*
G01*
X55340000Y-68110000D01*
G75*
G02*
X55200000Y-67970000I0J140000D01*
G01*
X55200000Y-67630000D01*
G75*
G02*
X55340000Y-67490000I140000J0D01*
G01*
X55620000Y-67490000D01*
G75*
G02*
X55760000Y-67630000I0J-140000D01*
G01*
G37*
G36*
G01*
X41800000Y-51370000D02*
X41800000Y-51030000D01*
G75*
G02*
X41940000Y-50890000I140000J0D01*
G01*
X42220000Y-50890000D01*
G75*
G02*
X42360000Y-51030000I0J-140000D01*
G01*
X42360000Y-51370000D01*
G75*
G02*
X42220000Y-51510000I-140000J0D01*
G01*
X41940000Y-51510000D01*
G75*
G02*
X41800000Y-51370000I0J140000D01*
G01*
G37*
G36*
G01*
X40840000Y-51370000D02*
X40840000Y-51030000D01*
G75*
G02*
X40980000Y-50890000I140000J0D01*
G01*
X41260000Y-50890000D01*
G75*
G02*
X41400000Y-51030000I0J-140000D01*
G01*
X41400000Y-51370000D01*
G75*
G02*
X41260000Y-51510000I-140000J0D01*
G01*
X40980000Y-51510000D01*
G75*
G02*
X40840000Y-51370000I0J140000D01*
G01*
G37*
G36*
G01*
X58349999Y-80600000D02*
X59250001Y-80600000D01*
G75*
G02*
X59500000Y-80849999I0J-249999D01*
G01*
X59500000Y-81550001D01*
G75*
G02*
X59250001Y-81800000I-249999J0D01*
G01*
X58349999Y-81800000D01*
G75*
G02*
X58100000Y-81550001I0J249999D01*
G01*
X58100000Y-80849999D01*
G75*
G02*
X58349999Y-80600000I249999J0D01*
G01*
G37*
G36*
G01*
X58349999Y-78600000D02*
X59250001Y-78600000D01*
G75*
G02*
X59500000Y-78849999I0J-249999D01*
G01*
X59500000Y-79550001D01*
G75*
G02*
X59250001Y-79800000I-249999J0D01*
G01*
X58349999Y-79800000D01*
G75*
G02*
X58100000Y-79550001I0J249999D01*
G01*
X58100000Y-78849999D01*
G75*
G02*
X58349999Y-78600000I249999J0D01*
G01*
G37*
G36*
G01*
X42090000Y-43772500D02*
X42090000Y-43427500D01*
G75*
G02*
X42237500Y-43280000I147500J0D01*
G01*
X42532500Y-43280000D01*
G75*
G02*
X42680000Y-43427500I0J-147500D01*
G01*
X42680000Y-43772500D01*
G75*
G02*
X42532500Y-43920000I-147500J0D01*
G01*
X42237500Y-43920000D01*
G75*
G02*
X42090000Y-43772500I0J147500D01*
G01*
G37*
G36*
G01*
X41120000Y-43772500D02*
X41120000Y-43427500D01*
G75*
G02*
X41267500Y-43280000I147500J0D01*
G01*
X41562500Y-43280000D01*
G75*
G02*
X41710000Y-43427500I0J-147500D01*
G01*
X41710000Y-43772500D01*
G75*
G02*
X41562500Y-43920000I-147500J0D01*
G01*
X41267500Y-43920000D01*
G75*
G02*
X41120000Y-43772500I0J147500D01*
G01*
G37*
G36*
G01*
X53000000Y-82770000D02*
X53000000Y-82430000D01*
G75*
G02*
X53140000Y-82290000I140000J0D01*
G01*
X53420000Y-82290000D01*
G75*
G02*
X53560000Y-82430000I0J-140000D01*
G01*
X53560000Y-82770000D01*
G75*
G02*
X53420000Y-82910000I-140000J0D01*
G01*
X53140000Y-82910000D01*
G75*
G02*
X53000000Y-82770000I0J140000D01*
G01*
G37*
G36*
G01*
X52040000Y-82770000D02*
X52040000Y-82430000D01*
G75*
G02*
X52180000Y-82290000I140000J0D01*
G01*
X52460000Y-82290000D01*
G75*
G02*
X52600000Y-82430000I0J-140000D01*
G01*
X52600000Y-82770000D01*
G75*
G02*
X52460000Y-82910000I-140000J0D01*
G01*
X52180000Y-82910000D01*
G75*
G02*
X52040000Y-82770000I0J140000D01*
G01*
G37*
D10*
X51875000Y-71050000D03*
X52525000Y-71050000D03*
X53175000Y-71050000D03*
X53825000Y-71050000D03*
X54475000Y-71050000D03*
X55125000Y-71050000D03*
X55775000Y-71050000D03*
X56425000Y-71050000D03*
X57075000Y-71050000D03*
X57725000Y-71050000D03*
X57725000Y-76950000D03*
X57075000Y-76950000D03*
X56425000Y-76950000D03*
X55775000Y-76950000D03*
X55125000Y-76950000D03*
X54475000Y-76950000D03*
X53825000Y-76950000D03*
X53175000Y-76950000D03*
X52525000Y-76950000D03*
X51875000Y-76950000D03*
D11*
X50500000Y-53250000D03*
X43500000Y-53250000D03*
X50500000Y-48750000D03*
X43500000Y-48750000D03*
X50500000Y-68250000D03*
X43500000Y-68250000D03*
X50500000Y-63750000D03*
X43500000Y-63750000D03*
X50500000Y-84250000D03*
X43500000Y-84250000D03*
X50500000Y-79750000D03*
X43500000Y-79750000D03*
X43500000Y-101750000D03*
X50500000Y-101750000D03*
X43500000Y-106250000D03*
X50500000Y-106250000D03*
G36*
G01*
X53410000Y-63027500D02*
X53410000Y-63372500D01*
G75*
G02*
X53262500Y-63520000I-147500J0D01*
G01*
X52967500Y-63520000D01*
G75*
G02*
X52820000Y-63372500I0J147500D01*
G01*
X52820000Y-63027500D01*
G75*
G02*
X52967500Y-62880000I147500J0D01*
G01*
X53262500Y-62880000D01*
G75*
G02*
X53410000Y-63027500I0J-147500D01*
G01*
G37*
G36*
G01*
X54380000Y-63027500D02*
X54380000Y-63372500D01*
G75*
G02*
X54232500Y-63520000I-147500J0D01*
G01*
X53937500Y-63520000D01*
G75*
G02*
X53790000Y-63372500I0J147500D01*
G01*
X53790000Y-63027500D01*
G75*
G02*
X53937500Y-62880000I147500J0D01*
G01*
X54232500Y-62880000D01*
G75*
G02*
X54380000Y-63027500I0J-147500D01*
G01*
G37*
G36*
G01*
X50372500Y-76610000D02*
X50027500Y-76610000D01*
G75*
G02*
X49880000Y-76462500I0J147500D01*
G01*
X49880000Y-76167500D01*
G75*
G02*
X50027500Y-76020000I147500J0D01*
G01*
X50372500Y-76020000D01*
G75*
G02*
X50520000Y-76167500I0J-147500D01*
G01*
X50520000Y-76462500D01*
G75*
G02*
X50372500Y-76610000I-147500J0D01*
G01*
G37*
G36*
G01*
X50372500Y-77580000D02*
X50027500Y-77580000D01*
G75*
G02*
X49880000Y-77432500I0J147500D01*
G01*
X49880000Y-77137500D01*
G75*
G02*
X50027500Y-76990000I147500J0D01*
G01*
X50372500Y-76990000D01*
G75*
G02*
X50520000Y-77137500I0J-147500D01*
G01*
X50520000Y-77432500D01*
G75*
G02*
X50372500Y-77580000I-147500J0D01*
G01*
G37*
G36*
G01*
X36150000Y-80056250D02*
X36150000Y-79543750D01*
G75*
G02*
X36368750Y-79325000I218750J0D01*
G01*
X36806250Y-79325000D01*
G75*
G02*
X37025000Y-79543750I0J-218750D01*
G01*
X37025000Y-80056250D01*
G75*
G02*
X36806250Y-80275000I-218750J0D01*
G01*
X36368750Y-80275000D01*
G75*
G02*
X36150000Y-80056250I0J218750D01*
G01*
G37*
G36*
G01*
X34575000Y-80056250D02*
X34575000Y-79543750D01*
G75*
G02*
X34793750Y-79325000I218750J0D01*
G01*
X35231250Y-79325000D01*
G75*
G02*
X35450000Y-79543750I0J-218750D01*
G01*
X35450000Y-80056250D01*
G75*
G02*
X35231250Y-80275000I-218750J0D01*
G01*
X34793750Y-80275000D01*
G75*
G02*
X34575000Y-80056250I0J218750D01*
G01*
G37*
G36*
G01*
X53190000Y-52772500D02*
X53190000Y-52427500D01*
G75*
G02*
X53337500Y-52280000I147500J0D01*
G01*
X53632500Y-52280000D01*
G75*
G02*
X53780000Y-52427500I0J-147500D01*
G01*
X53780000Y-52772500D01*
G75*
G02*
X53632500Y-52920000I-147500J0D01*
G01*
X53337500Y-52920000D01*
G75*
G02*
X53190000Y-52772500I0J147500D01*
G01*
G37*
G36*
G01*
X52220000Y-52772500D02*
X52220000Y-52427500D01*
G75*
G02*
X52367500Y-52280000I147500J0D01*
G01*
X52662500Y-52280000D01*
G75*
G02*
X52810000Y-52427500I0J-147500D01*
G01*
X52810000Y-52772500D01*
G75*
G02*
X52662500Y-52920000I-147500J0D01*
G01*
X52367500Y-52920000D01*
G75*
G02*
X52220000Y-52772500I0J147500D01*
G01*
G37*
G36*
G01*
X53790000Y-64772500D02*
X53790000Y-64427500D01*
G75*
G02*
X53937500Y-64280000I147500J0D01*
G01*
X54232500Y-64280000D01*
G75*
G02*
X54380000Y-64427500I0J-147500D01*
G01*
X54380000Y-64772500D01*
G75*
G02*
X54232500Y-64920000I-147500J0D01*
G01*
X53937500Y-64920000D01*
G75*
G02*
X53790000Y-64772500I0J147500D01*
G01*
G37*
G36*
G01*
X52820000Y-64772500D02*
X52820000Y-64427500D01*
G75*
G02*
X52967500Y-64280000I147500J0D01*
G01*
X53262500Y-64280000D01*
G75*
G02*
X53410000Y-64427500I0J-147500D01*
G01*
X53410000Y-64772500D01*
G75*
G02*
X53262500Y-64920000I-147500J0D01*
G01*
X52967500Y-64920000D01*
G75*
G02*
X52820000Y-64772500I0J147500D01*
G01*
G37*
G36*
G01*
X53190000Y-104972500D02*
X53190000Y-104627500D01*
G75*
G02*
X53337500Y-104480000I147500J0D01*
G01*
X53632500Y-104480000D01*
G75*
G02*
X53780000Y-104627500I0J-147500D01*
G01*
X53780000Y-104972500D01*
G75*
G02*
X53632500Y-105120000I-147500J0D01*
G01*
X53337500Y-105120000D01*
G75*
G02*
X53190000Y-104972500I0J147500D01*
G01*
G37*
G36*
G01*
X52220000Y-104972500D02*
X52220000Y-104627500D01*
G75*
G02*
X52367500Y-104480000I147500J0D01*
G01*
X52662500Y-104480000D01*
G75*
G02*
X52810000Y-104627500I0J-147500D01*
G01*
X52810000Y-104972500D01*
G75*
G02*
X52662500Y-105120000I-147500J0D01*
G01*
X52367500Y-105120000D01*
G75*
G02*
X52220000Y-104972500I0J147500D01*
G01*
G37*
G36*
G01*
X40827500Y-45390000D02*
X41172500Y-45390000D01*
G75*
G02*
X41320000Y-45537500I0J-147500D01*
G01*
X41320000Y-45832500D01*
G75*
G02*
X41172500Y-45980000I-147500J0D01*
G01*
X40827500Y-45980000D01*
G75*
G02*
X40680000Y-45832500I0J147500D01*
G01*
X40680000Y-45537500D01*
G75*
G02*
X40827500Y-45390000I147500J0D01*
G01*
G37*
G36*
G01*
X40827500Y-44420000D02*
X41172500Y-44420000D01*
G75*
G02*
X41320000Y-44567500I0J-147500D01*
G01*
X41320000Y-44862500D01*
G75*
G02*
X41172500Y-45010000I-147500J0D01*
G01*
X40827500Y-45010000D01*
G75*
G02*
X40680000Y-44862500I0J147500D01*
G01*
X40680000Y-44567500D01*
G75*
G02*
X40827500Y-44420000I147500J0D01*
G01*
G37*
G36*
G01*
X54190000Y-100172500D02*
X54190000Y-99827500D01*
G75*
G02*
X54337500Y-99680000I147500J0D01*
G01*
X54632500Y-99680000D01*
G75*
G02*
X54780000Y-99827500I0J-147500D01*
G01*
X54780000Y-100172500D01*
G75*
G02*
X54632500Y-100320000I-147500J0D01*
G01*
X54337500Y-100320000D01*
G75*
G02*
X54190000Y-100172500I0J147500D01*
G01*
G37*
G36*
G01*
X53220000Y-100172500D02*
X53220000Y-99827500D01*
G75*
G02*
X53367500Y-99680000I147500J0D01*
G01*
X53662500Y-99680000D01*
G75*
G02*
X53810000Y-99827500I0J-147500D01*
G01*
X53810000Y-100172500D01*
G75*
G02*
X53662500Y-100320000I-147500J0D01*
G01*
X53367500Y-100320000D01*
G75*
G02*
X53220000Y-100172500I0J147500D01*
G01*
G37*
G36*
G01*
X54810000Y-69027500D02*
X54810000Y-69372500D01*
G75*
G02*
X54662500Y-69520000I-147500J0D01*
G01*
X54367500Y-69520000D01*
G75*
G02*
X54220000Y-69372500I0J147500D01*
G01*
X54220000Y-69027500D01*
G75*
G02*
X54367500Y-68880000I147500J0D01*
G01*
X54662500Y-68880000D01*
G75*
G02*
X54810000Y-69027500I0J-147500D01*
G01*
G37*
G36*
G01*
X55780000Y-69027500D02*
X55780000Y-69372500D01*
G75*
G02*
X55632500Y-69520000I-147500J0D01*
G01*
X55337500Y-69520000D01*
G75*
G02*
X55190000Y-69372500I0J147500D01*
G01*
X55190000Y-69027500D01*
G75*
G02*
X55337500Y-68880000I147500J0D01*
G01*
X55632500Y-68880000D01*
G75*
G02*
X55780000Y-69027500I0J-147500D01*
G01*
G37*
G36*
G01*
X41810000Y-97827500D02*
X41810000Y-98172500D01*
G75*
G02*
X41662500Y-98320000I-147500J0D01*
G01*
X41367500Y-98320000D01*
G75*
G02*
X41220000Y-98172500I0J147500D01*
G01*
X41220000Y-97827500D01*
G75*
G02*
X41367500Y-97680000I147500J0D01*
G01*
X41662500Y-97680000D01*
G75*
G02*
X41810000Y-97827500I0J-147500D01*
G01*
G37*
G36*
G01*
X42780000Y-97827500D02*
X42780000Y-98172500D01*
G75*
G02*
X42632500Y-98320000I-147500J0D01*
G01*
X42337500Y-98320000D01*
G75*
G02*
X42190000Y-98172500I0J147500D01*
G01*
X42190000Y-97827500D01*
G75*
G02*
X42337500Y-97680000I147500J0D01*
G01*
X42632500Y-97680000D01*
G75*
G02*
X42780000Y-97827500I0J-147500D01*
G01*
G37*
M02*
