G04 #@! TF.GenerationSoftware,KiCad,Pcbnew,5.1.5+dfsg1-2build2*
G04 #@! TF.CreationDate,2020-10-16T19:58:43-06:00*
G04 #@! TF.ProjectId,remote,72656d6f-7465-42e6-9b69-6361645f7063,rev?*
G04 #@! TF.SameCoordinates,Original*
G04 #@! TF.FileFunction,Soldermask,Bot*
G04 #@! TF.FilePolarity,Negative*
%FSLAX46Y46*%
G04 Gerber Fmt 4.6, Leading zero omitted, Abs format (unit mm)*
G04 Created by KiCad (PCBNEW 5.1.5+dfsg1-2build2) date 2020-10-16 19:58:43*
%MOMM*%
%LPD*%
G04 APERTURE LIST*
%ADD10C,0.100000*%
G04 APERTURE END LIST*
D10*
G36*
X64642007Y-111883582D02*
G01*
X65042563Y-112049498D01*
X65042565Y-112049499D01*
X65403056Y-112290371D01*
X65709629Y-112596944D01*
X65950501Y-112957435D01*
X65950502Y-112957437D01*
X66116418Y-113357993D01*
X66201000Y-113783219D01*
X66201000Y-114216781D01*
X66116418Y-114642007D01*
X65950502Y-115042563D01*
X65950501Y-115042565D01*
X65709629Y-115403056D01*
X65403056Y-115709629D01*
X65042565Y-115950501D01*
X65042564Y-115950502D01*
X65042563Y-115950502D01*
X64642007Y-116116418D01*
X64216781Y-116201000D01*
X63783219Y-116201000D01*
X63357993Y-116116418D01*
X62957437Y-115950502D01*
X62957436Y-115950502D01*
X62957435Y-115950501D01*
X62596944Y-115709629D01*
X62290371Y-115403056D01*
X62049499Y-115042565D01*
X62049498Y-115042563D01*
X61883582Y-114642007D01*
X61799000Y-114216781D01*
X61799000Y-113783219D01*
X61883582Y-113357993D01*
X62049498Y-112957437D01*
X62049499Y-112957435D01*
X62290371Y-112596944D01*
X62596944Y-112290371D01*
X62957435Y-112049499D01*
X62957437Y-112049498D01*
X63357993Y-111883582D01*
X63783219Y-111799000D01*
X64216781Y-111799000D01*
X64642007Y-111883582D01*
G37*
G36*
X34642007Y-111883582D02*
G01*
X35042563Y-112049498D01*
X35042565Y-112049499D01*
X35403056Y-112290371D01*
X35709629Y-112596944D01*
X35950501Y-112957435D01*
X35950502Y-112957437D01*
X36116418Y-113357993D01*
X36201000Y-113783219D01*
X36201000Y-114216781D01*
X36116418Y-114642007D01*
X35950502Y-115042563D01*
X35950501Y-115042565D01*
X35709629Y-115403056D01*
X35403056Y-115709629D01*
X35042565Y-115950501D01*
X35042564Y-115950502D01*
X35042563Y-115950502D01*
X34642007Y-116116418D01*
X34216781Y-116201000D01*
X33783219Y-116201000D01*
X33357993Y-116116418D01*
X32957437Y-115950502D01*
X32957436Y-115950502D01*
X32957435Y-115950501D01*
X32596944Y-115709629D01*
X32290371Y-115403056D01*
X32049499Y-115042565D01*
X32049498Y-115042563D01*
X31883582Y-114642007D01*
X31799000Y-114216781D01*
X31799000Y-113783219D01*
X31883582Y-113357993D01*
X32049498Y-112957437D01*
X32049499Y-112957435D01*
X32290371Y-112596944D01*
X32596944Y-112290371D01*
X32957435Y-112049499D01*
X32957437Y-112049498D01*
X33357993Y-111883582D01*
X33783219Y-111799000D01*
X34216781Y-111799000D01*
X34642007Y-111883582D01*
G37*
G36*
X51931767Y-94335254D02*
G01*
X53760932Y-95092919D01*
X53760934Y-95092920D01*
X55407139Y-96192879D01*
X56807121Y-97592861D01*
X57907080Y-99239066D01*
X57907081Y-99239068D01*
X58664746Y-101068233D01*
X59051000Y-103010062D01*
X59051000Y-104989938D01*
X58664746Y-106931767D01*
X57907081Y-108760932D01*
X57907080Y-108760934D01*
X56807121Y-110407139D01*
X55407139Y-111807121D01*
X53760934Y-112907080D01*
X53760933Y-112907081D01*
X53760932Y-112907081D01*
X51931767Y-113664746D01*
X49989938Y-114051000D01*
X48010062Y-114051000D01*
X46068233Y-113664746D01*
X44239068Y-112907081D01*
X44239067Y-112907081D01*
X44239066Y-112907080D01*
X42592861Y-111807121D01*
X41192879Y-110407139D01*
X40092920Y-108760934D01*
X40092919Y-108760932D01*
X39335254Y-106931767D01*
X38949000Y-104989938D01*
X38949000Y-103010062D01*
X39335254Y-101068233D01*
X40092919Y-99239068D01*
X40092920Y-99239066D01*
X41192879Y-97592861D01*
X42592861Y-96192879D01*
X44239066Y-95092920D01*
X44239068Y-95092919D01*
X46068233Y-94335254D01*
X48010062Y-93949000D01*
X49989938Y-93949000D01*
X51931767Y-94335254D01*
G37*
G36*
X36751000Y-106801000D02*
G01*
X30649000Y-106801000D01*
X30649000Y-101199000D01*
X36751000Y-101199000D01*
X36751000Y-106801000D01*
G37*
G36*
X67351000Y-106801000D02*
G01*
X61249000Y-106801000D01*
X61249000Y-101199000D01*
X67351000Y-101199000D01*
X67351000Y-106801000D01*
G37*
G36*
X66113512Y-76723927D02*
G01*
X66262812Y-76753624D01*
X66426784Y-76821544D01*
X66574354Y-76920147D01*
X66699853Y-77045646D01*
X66798456Y-77193216D01*
X66866376Y-77357188D01*
X66901000Y-77531259D01*
X66901000Y-77708741D01*
X66866376Y-77882812D01*
X66798456Y-78046784D01*
X66699853Y-78194354D01*
X66574354Y-78319853D01*
X66426784Y-78418456D01*
X66262812Y-78486376D01*
X66113512Y-78516073D01*
X66088742Y-78521000D01*
X65911258Y-78521000D01*
X65886488Y-78516073D01*
X65737188Y-78486376D01*
X65573216Y-78418456D01*
X65425646Y-78319853D01*
X65300147Y-78194354D01*
X65201544Y-78046784D01*
X65133624Y-77882812D01*
X65099000Y-77708741D01*
X65099000Y-77531259D01*
X65133624Y-77357188D01*
X65201544Y-77193216D01*
X65300147Y-77045646D01*
X65425646Y-76920147D01*
X65573216Y-76821544D01*
X65737188Y-76753624D01*
X65886488Y-76723927D01*
X65911258Y-76719000D01*
X66088742Y-76719000D01*
X66113512Y-76723927D01*
G37*
G36*
X66113512Y-74183927D02*
G01*
X66262812Y-74213624D01*
X66426784Y-74281544D01*
X66574354Y-74380147D01*
X66699853Y-74505646D01*
X66798456Y-74653216D01*
X66866376Y-74817188D01*
X66901000Y-74991259D01*
X66901000Y-75168741D01*
X66866376Y-75342812D01*
X66798456Y-75506784D01*
X66699853Y-75654354D01*
X66574354Y-75779853D01*
X66426784Y-75878456D01*
X66262812Y-75946376D01*
X66113512Y-75976073D01*
X66088742Y-75981000D01*
X65911258Y-75981000D01*
X65886488Y-75976073D01*
X65737188Y-75946376D01*
X65573216Y-75878456D01*
X65425646Y-75779853D01*
X65300147Y-75654354D01*
X65201544Y-75506784D01*
X65133624Y-75342812D01*
X65099000Y-75168741D01*
X65099000Y-74991259D01*
X65133624Y-74817188D01*
X65201544Y-74653216D01*
X65300147Y-74505646D01*
X65425646Y-74380147D01*
X65573216Y-74281544D01*
X65737188Y-74213624D01*
X65886488Y-74183927D01*
X65911258Y-74179000D01*
X66088742Y-74179000D01*
X66113512Y-74183927D01*
G37*
G36*
X66113512Y-71643927D02*
G01*
X66262812Y-71673624D01*
X66426784Y-71741544D01*
X66574354Y-71840147D01*
X66699853Y-71965646D01*
X66798456Y-72113216D01*
X66866376Y-72277188D01*
X66901000Y-72451259D01*
X66901000Y-72628741D01*
X66866376Y-72802812D01*
X66798456Y-72966784D01*
X66699853Y-73114354D01*
X66574354Y-73239853D01*
X66426784Y-73338456D01*
X66262812Y-73406376D01*
X66113512Y-73436073D01*
X66088742Y-73441000D01*
X65911258Y-73441000D01*
X65886488Y-73436073D01*
X65737188Y-73406376D01*
X65573216Y-73338456D01*
X65425646Y-73239853D01*
X65300147Y-73114354D01*
X65201544Y-72966784D01*
X65133624Y-72802812D01*
X65099000Y-72628741D01*
X65099000Y-72451259D01*
X65133624Y-72277188D01*
X65201544Y-72113216D01*
X65300147Y-71965646D01*
X65425646Y-71840147D01*
X65573216Y-71741544D01*
X65737188Y-71673624D01*
X65886488Y-71643927D01*
X65911258Y-71639000D01*
X66088742Y-71639000D01*
X66113512Y-71643927D01*
G37*
G36*
X66901000Y-70901000D02*
G01*
X65099000Y-70901000D01*
X65099000Y-69099000D01*
X66901000Y-69099000D01*
X66901000Y-70901000D01*
G37*
G36*
X51648400Y-68298950D02*
G01*
X50347520Y-68298950D01*
X50347520Y-65197210D01*
X51648400Y-65197210D01*
X51648400Y-68298950D01*
G37*
G36*
X53649920Y-68298950D02*
G01*
X52349040Y-68298950D01*
X52349040Y-65197210D01*
X53649920Y-65197210D01*
X53649920Y-68298950D01*
G37*
G36*
X41650960Y-68298950D02*
G01*
X40350080Y-68298950D01*
X40350080Y-65197210D01*
X41650960Y-65197210D01*
X41650960Y-68298950D01*
G37*
G36*
X66113512Y-64263927D02*
G01*
X66262812Y-64293624D01*
X66426784Y-64361544D01*
X66574354Y-64460147D01*
X66699853Y-64585646D01*
X66798456Y-64733216D01*
X66866376Y-64897188D01*
X66901000Y-65071259D01*
X66901000Y-65248741D01*
X66866376Y-65422812D01*
X66798456Y-65586784D01*
X66699853Y-65734354D01*
X66574354Y-65859853D01*
X66426784Y-65958456D01*
X66262812Y-66026376D01*
X66113512Y-66056073D01*
X66088742Y-66061000D01*
X65911258Y-66061000D01*
X65886488Y-66056073D01*
X65737188Y-66026376D01*
X65573216Y-65958456D01*
X65425646Y-65859853D01*
X65300147Y-65734354D01*
X65201544Y-65586784D01*
X65133624Y-65422812D01*
X65099000Y-65248741D01*
X65099000Y-65071259D01*
X65133624Y-64897188D01*
X65201544Y-64733216D01*
X65300147Y-64585646D01*
X65425646Y-64460147D01*
X65573216Y-64361544D01*
X65737188Y-64293624D01*
X65886488Y-64263927D01*
X65911258Y-64259000D01*
X66088742Y-64259000D01*
X66113512Y-64263927D01*
G37*
G36*
X66113512Y-61723927D02*
G01*
X66262812Y-61753624D01*
X66426784Y-61821544D01*
X66574354Y-61920147D01*
X66699853Y-62045646D01*
X66798456Y-62193216D01*
X66866376Y-62357188D01*
X66901000Y-62531259D01*
X66901000Y-62708741D01*
X66866376Y-62882812D01*
X66798456Y-63046784D01*
X66699853Y-63194354D01*
X66574354Y-63319853D01*
X66426784Y-63418456D01*
X66262812Y-63486376D01*
X66113512Y-63516073D01*
X66088742Y-63521000D01*
X65911258Y-63521000D01*
X65886488Y-63516073D01*
X65737188Y-63486376D01*
X65573216Y-63418456D01*
X65425646Y-63319853D01*
X65300147Y-63194354D01*
X65201544Y-63046784D01*
X65133624Y-62882812D01*
X65099000Y-62708741D01*
X65099000Y-62531259D01*
X65133624Y-62357188D01*
X65201544Y-62193216D01*
X65300147Y-62045646D01*
X65425646Y-61920147D01*
X65573216Y-61821544D01*
X65737188Y-61753624D01*
X65886488Y-61723927D01*
X65911258Y-61719000D01*
X66088742Y-61719000D01*
X66113512Y-61723927D01*
G37*
G36*
X66113512Y-59183927D02*
G01*
X66262812Y-59213624D01*
X66426784Y-59281544D01*
X66574354Y-59380147D01*
X66699853Y-59505646D01*
X66798456Y-59653216D01*
X66866376Y-59817188D01*
X66901000Y-59991259D01*
X66901000Y-60168741D01*
X66866376Y-60342812D01*
X66798456Y-60506784D01*
X66699853Y-60654354D01*
X66574354Y-60779853D01*
X66426784Y-60878456D01*
X66262812Y-60946376D01*
X66113512Y-60976073D01*
X66088742Y-60981000D01*
X65911258Y-60981000D01*
X65886488Y-60976073D01*
X65737188Y-60946376D01*
X65573216Y-60878456D01*
X65425646Y-60779853D01*
X65300147Y-60654354D01*
X65201544Y-60506784D01*
X65133624Y-60342812D01*
X65099000Y-60168741D01*
X65099000Y-59991259D01*
X65133624Y-59817188D01*
X65201544Y-59653216D01*
X65300147Y-59505646D01*
X65425646Y-59380147D01*
X65573216Y-59281544D01*
X65737188Y-59213624D01*
X65886488Y-59183927D01*
X65911258Y-59179000D01*
X66088742Y-59179000D01*
X66113512Y-59183927D01*
G37*
G36*
X66113512Y-56643927D02*
G01*
X66262812Y-56673624D01*
X66426784Y-56741544D01*
X66574354Y-56840147D01*
X66699853Y-56965646D01*
X66798456Y-57113216D01*
X66866376Y-57277188D01*
X66901000Y-57451259D01*
X66901000Y-57628741D01*
X66866376Y-57802812D01*
X66798456Y-57966784D01*
X66699853Y-58114354D01*
X66574354Y-58239853D01*
X66426784Y-58338456D01*
X66262812Y-58406376D01*
X66113512Y-58436073D01*
X66088742Y-58441000D01*
X65911258Y-58441000D01*
X65886488Y-58436073D01*
X65737188Y-58406376D01*
X65573216Y-58338456D01*
X65425646Y-58239853D01*
X65300147Y-58114354D01*
X65201544Y-57966784D01*
X65133624Y-57802812D01*
X65099000Y-57628741D01*
X65099000Y-57451259D01*
X65133624Y-57277188D01*
X65201544Y-57113216D01*
X65300147Y-56965646D01*
X65425646Y-56840147D01*
X65573216Y-56741544D01*
X65737188Y-56673624D01*
X65886488Y-56643927D01*
X65911258Y-56639000D01*
X66088742Y-56639000D01*
X66113512Y-56643927D01*
G37*
G36*
X66901000Y-55901000D02*
G01*
X65099000Y-55901000D01*
X65099000Y-54099000D01*
X66901000Y-54099000D01*
X66901000Y-55901000D01*
G37*
G36*
X53649920Y-53302790D02*
G01*
X52349040Y-53302790D01*
X52349040Y-50201050D01*
X53649920Y-50201050D01*
X53649920Y-53302790D01*
G37*
G36*
X41650960Y-53302790D02*
G01*
X40350080Y-53302790D01*
X40350080Y-50201050D01*
X41650960Y-50201050D01*
X41650960Y-53302790D01*
G37*
G36*
X43652480Y-53302790D02*
G01*
X42351600Y-53302790D01*
X42351600Y-50201050D01*
X43652480Y-50201050D01*
X43652480Y-53302790D01*
G37*
G36*
X45651460Y-53302790D02*
G01*
X44350580Y-53302790D01*
X44350580Y-50201050D01*
X45651460Y-50201050D01*
X45651460Y-53302790D01*
G37*
G36*
X49649420Y-53302790D02*
G01*
X48348540Y-53302790D01*
X48348540Y-50201050D01*
X49649420Y-50201050D01*
X49649420Y-53302790D01*
G37*
G36*
X51648400Y-53302790D02*
G01*
X50347520Y-53302790D01*
X50347520Y-50201050D01*
X51648400Y-50201050D01*
X51648400Y-53302790D01*
G37*
G36*
X41364499Y-47553445D02*
G01*
X41401995Y-47564820D01*
X41436554Y-47583292D01*
X41466847Y-47608153D01*
X41491708Y-47638446D01*
X41510180Y-47673005D01*
X41521555Y-47710501D01*
X41526000Y-47755638D01*
X41526000Y-48494362D01*
X41521555Y-48539499D01*
X41510180Y-48576995D01*
X41491708Y-48611554D01*
X41466847Y-48641847D01*
X41436554Y-48666708D01*
X41401995Y-48685180D01*
X41364499Y-48696555D01*
X41319362Y-48701000D01*
X40680638Y-48701000D01*
X40635501Y-48696555D01*
X40598005Y-48685180D01*
X40563446Y-48666708D01*
X40533153Y-48641847D01*
X40508292Y-48611554D01*
X40489820Y-48576995D01*
X40478445Y-48539499D01*
X40474000Y-48494362D01*
X40474000Y-47755638D01*
X40478445Y-47710501D01*
X40489820Y-47673005D01*
X40508292Y-47638446D01*
X40533153Y-47608153D01*
X40563446Y-47583292D01*
X40598005Y-47564820D01*
X40635501Y-47553445D01*
X40680638Y-47549000D01*
X41319362Y-47549000D01*
X41364499Y-47553445D01*
G37*
G36*
X41364499Y-45803445D02*
G01*
X41401995Y-45814820D01*
X41436554Y-45833292D01*
X41466847Y-45858153D01*
X41491708Y-45888446D01*
X41510180Y-45923005D01*
X41521555Y-45960501D01*
X41526000Y-46005638D01*
X41526000Y-46744362D01*
X41521555Y-46789499D01*
X41510180Y-46826995D01*
X41491708Y-46861554D01*
X41466847Y-46891847D01*
X41436554Y-46916708D01*
X41401995Y-46935180D01*
X41364499Y-46946555D01*
X41319362Y-46951000D01*
X40680638Y-46951000D01*
X40635501Y-46946555D01*
X40598005Y-46935180D01*
X40563446Y-46916708D01*
X40533153Y-46891847D01*
X40508292Y-46861554D01*
X40489820Y-46826995D01*
X40478445Y-46789499D01*
X40474000Y-46744362D01*
X40474000Y-46005638D01*
X40478445Y-45960501D01*
X40489820Y-45923005D01*
X40508292Y-45888446D01*
X40533153Y-45858153D01*
X40563446Y-45833292D01*
X40598005Y-45814820D01*
X40635501Y-45803445D01*
X40680638Y-45799000D01*
X41319362Y-45799000D01*
X41364499Y-45803445D01*
G37*
G36*
X43189499Y-43728445D02*
G01*
X43226995Y-43739820D01*
X43261554Y-43758292D01*
X43291847Y-43783153D01*
X43316708Y-43813446D01*
X43335180Y-43848005D01*
X43346555Y-43885501D01*
X43351000Y-43930638D01*
X43351000Y-44569362D01*
X43346555Y-44614499D01*
X43335180Y-44651995D01*
X43316708Y-44686554D01*
X43291847Y-44716847D01*
X43261554Y-44741708D01*
X43226995Y-44760180D01*
X43189499Y-44771555D01*
X43144362Y-44776000D01*
X42405638Y-44776000D01*
X42360501Y-44771555D01*
X42323005Y-44760180D01*
X42288446Y-44741708D01*
X42258153Y-44716847D01*
X42233292Y-44686554D01*
X42214820Y-44651995D01*
X42203445Y-44614499D01*
X42199000Y-44569362D01*
X42199000Y-43930638D01*
X42203445Y-43885501D01*
X42214820Y-43848005D01*
X42233292Y-43813446D01*
X42258153Y-43783153D01*
X42288446Y-43758292D01*
X42323005Y-43739820D01*
X42360501Y-43728445D01*
X42405638Y-43724000D01*
X43144362Y-43724000D01*
X43189499Y-43728445D01*
G37*
G36*
X41439499Y-43728445D02*
G01*
X41476995Y-43739820D01*
X41511554Y-43758292D01*
X41541847Y-43783153D01*
X41566708Y-43813446D01*
X41585180Y-43848005D01*
X41596555Y-43885501D01*
X41601000Y-43930638D01*
X41601000Y-44569362D01*
X41596555Y-44614499D01*
X41585180Y-44651995D01*
X41566708Y-44686554D01*
X41541847Y-44716847D01*
X41511554Y-44741708D01*
X41476995Y-44760180D01*
X41439499Y-44771555D01*
X41394362Y-44776000D01*
X40655638Y-44776000D01*
X40610501Y-44771555D01*
X40573005Y-44760180D01*
X40538446Y-44741708D01*
X40508153Y-44716847D01*
X40483292Y-44686554D01*
X40464820Y-44651995D01*
X40453445Y-44614499D01*
X40449000Y-44569362D01*
X40449000Y-43930638D01*
X40453445Y-43885501D01*
X40464820Y-43848005D01*
X40483292Y-43813446D01*
X40508153Y-43783153D01*
X40538446Y-43758292D01*
X40573005Y-43739820D01*
X40610501Y-43728445D01*
X40655638Y-43724000D01*
X41394362Y-43724000D01*
X41439499Y-43728445D01*
G37*
G36*
X34642007Y-31883582D02*
G01*
X35042563Y-32049498D01*
X35042565Y-32049499D01*
X35403056Y-32290371D01*
X35709629Y-32596944D01*
X35950501Y-32957435D01*
X35950502Y-32957437D01*
X36116418Y-33357993D01*
X36201000Y-33783219D01*
X36201000Y-34216781D01*
X36116418Y-34642007D01*
X35950502Y-35042563D01*
X35950501Y-35042565D01*
X35709629Y-35403056D01*
X35403056Y-35709629D01*
X35042565Y-35950501D01*
X35042564Y-35950502D01*
X35042563Y-35950502D01*
X34642007Y-36116418D01*
X34216781Y-36201000D01*
X33783219Y-36201000D01*
X33357993Y-36116418D01*
X32957437Y-35950502D01*
X32957436Y-35950502D01*
X32957435Y-35950501D01*
X32596944Y-35709629D01*
X32290371Y-35403056D01*
X32049499Y-35042565D01*
X32049498Y-35042563D01*
X31883582Y-34642007D01*
X31799000Y-34216781D01*
X31799000Y-33783219D01*
X31883582Y-33357993D01*
X32049498Y-32957437D01*
X32049499Y-32957435D01*
X32290371Y-32596944D01*
X32596944Y-32290371D01*
X32957435Y-32049499D01*
X32957437Y-32049498D01*
X33357993Y-31883582D01*
X33783219Y-31799000D01*
X34216781Y-31799000D01*
X34642007Y-31883582D01*
G37*
G36*
X64642007Y-31883582D02*
G01*
X65042563Y-32049498D01*
X65042565Y-32049499D01*
X65403056Y-32290371D01*
X65709629Y-32596944D01*
X65950501Y-32957435D01*
X65950502Y-32957437D01*
X66116418Y-33357993D01*
X66201000Y-33783219D01*
X66201000Y-34216781D01*
X66116418Y-34642007D01*
X65950502Y-35042563D01*
X65950501Y-35042565D01*
X65709629Y-35403056D01*
X65403056Y-35709629D01*
X65042565Y-35950501D01*
X65042564Y-35950502D01*
X65042563Y-35950502D01*
X64642007Y-36116418D01*
X64216781Y-36201000D01*
X63783219Y-36201000D01*
X63357993Y-36116418D01*
X62957437Y-35950502D01*
X62957436Y-35950502D01*
X62957435Y-35950501D01*
X62596944Y-35709629D01*
X62290371Y-35403056D01*
X62049499Y-35042565D01*
X62049498Y-35042563D01*
X61883582Y-34642007D01*
X61799000Y-34216781D01*
X61799000Y-33783219D01*
X61883582Y-33357993D01*
X62049498Y-32957437D01*
X62049499Y-32957435D01*
X62290371Y-32596944D01*
X62596944Y-32290371D01*
X62957435Y-32049499D01*
X62957437Y-32049498D01*
X63357993Y-31883582D01*
X63783219Y-31799000D01*
X64216781Y-31799000D01*
X64642007Y-31883582D01*
G37*
M02*
