G04 #@! TF.GenerationSoftware,KiCad,Pcbnew,5.1.8-db9833491~87~ubuntu20.04.1*
G04 #@! TF.CreationDate,2020-11-19T21:04:05-07:00*
G04 #@! TF.ProjectId,remote,72656d6f-7465-42e6-9b69-6361645f7063,rev?*
G04 #@! TF.SameCoordinates,Original*
G04 #@! TF.FileFunction,Copper,L2,Bot*
G04 #@! TF.FilePolarity,Positive*
%FSLAX46Y46*%
G04 Gerber Fmt 4.6, Leading zero omitted, Abs format (unit mm)*
G04 Created by KiCad (PCBNEW 5.1.8-db9833491~87~ubuntu20.04.1) date 2020-11-19 21:04:05*
%MOMM*%
%LPD*%
G01*
G04 APERTURE LIST*
G04 #@! TA.AperFunction,ComponentPad*
%ADD10O,1.700000X1.700000*%
G04 #@! TD*
G04 #@! TA.AperFunction,ComponentPad*
%ADD11R,1.700000X1.700000*%
G04 #@! TD*
G04 #@! TA.AperFunction,SMDPad,CuDef*
%ADD12R,1.270000X5.080000*%
G04 #@! TD*
G04 #@! TA.AperFunction,SMDPad,CuDef*
%ADD13C,17.800000*%
G04 #@! TD*
G04 #@! TA.AperFunction,SMDPad,CuDef*
%ADD14R,1.198880X2.999740*%
G04 #@! TD*
G04 #@! TA.AperFunction,ViaPad*
%ADD15C,1.000000*%
G04 #@! TD*
G04 #@! TA.AperFunction,ViaPad*
%ADD16C,0.600000*%
G04 #@! TD*
G04 #@! TA.AperFunction,ViaPad*
%ADD17C,0.800000*%
G04 #@! TD*
G04 #@! TA.AperFunction,Conductor*
%ADD18C,1.000000*%
G04 #@! TD*
G04 #@! TA.AperFunction,Conductor*
%ADD19C,0.750000*%
G04 #@! TD*
G04 #@! TA.AperFunction,Conductor*
%ADD20C,0.200000*%
G04 #@! TD*
G04 #@! TA.AperFunction,Conductor*
%ADD21C,0.254000*%
G04 #@! TD*
G04 #@! TA.AperFunction,Conductor*
%ADD22C,0.100000*%
G04 #@! TD*
G04 APERTURE END LIST*
D10*
X35800000Y-71320000D03*
X35800000Y-73860000D03*
D11*
X35800000Y-76400000D03*
D12*
X57985000Y-107000000D03*
X36015000Y-107000000D03*
D13*
X47000000Y-107000000D03*
D14*
X41000520Y-63798080D03*
X50997960Y-63798080D03*
X52999480Y-63798080D03*
X52999480Y-48801920D03*
X50997960Y-48801920D03*
X48998980Y-48801920D03*
X45001020Y-48801920D03*
X43002040Y-48801920D03*
X41000520Y-48801920D03*
D10*
X51620000Y-94400000D03*
X49080000Y-94400000D03*
X46540000Y-94400000D03*
D11*
X44000000Y-94400000D03*
D15*
X59000000Y-43800000D03*
D16*
X43600000Y-100200000D03*
X47000000Y-100200000D03*
X39000000Y-104400000D03*
X43000000Y-104400000D03*
X47000000Y-104400000D03*
X51000000Y-104400000D03*
X55200000Y-108600000D03*
X51200000Y-108600000D03*
X47200000Y-108600000D03*
X43200000Y-108600000D03*
X39200000Y-108600000D03*
X40800000Y-112600000D03*
X44800000Y-112600000D03*
X48800000Y-112600000D03*
X52800000Y-112600000D03*
X55100000Y-72600000D03*
X50500000Y-100200000D03*
X54200000Y-101700000D03*
X35200000Y-43700000D03*
X39400000Y-43700000D03*
X43800000Y-43600000D03*
X47800000Y-43600000D03*
X51800000Y-43600000D03*
X55800000Y-43600000D03*
X43800000Y-46400000D03*
X47800000Y-46400000D03*
X51800000Y-46400000D03*
X54400000Y-46800000D03*
X35400000Y-116600000D03*
X39400000Y-116600000D03*
X43400000Y-116600000D03*
X47400000Y-116600000D03*
X51400000Y-116600000D03*
X55400000Y-116600000D03*
X58600000Y-116600000D03*
X58800000Y-112600000D03*
X56800000Y-112600000D03*
X36800000Y-112600000D03*
X35200000Y-112600000D03*
X56400000Y-104600000D03*
X35200000Y-102000000D03*
X35200000Y-97600000D03*
X39600000Y-97200000D03*
X40000000Y-93600000D03*
X35200000Y-93400000D03*
X35200000Y-89400000D03*
X35200000Y-85400000D03*
X35200000Y-83000000D03*
X40200000Y-89600000D03*
X40200000Y-85600000D03*
X40200000Y-81600000D03*
X40200000Y-76000000D03*
X37600000Y-78200000D03*
X40200000Y-72200000D03*
X40200000Y-68200000D03*
X39800000Y-64200000D03*
X40200000Y-60200000D03*
X40200000Y-56200000D03*
X40200000Y-52400000D03*
X35000000Y-66200000D03*
X35000000Y-62200000D03*
X35000000Y-58200000D03*
X35000000Y-54200000D03*
X35000000Y-50200000D03*
X59000000Y-48200000D03*
X59000000Y-52200000D03*
X59000000Y-56200000D03*
X59000000Y-57600000D03*
X54800000Y-53600000D03*
X54600000Y-50000000D03*
X43200000Y-72800000D03*
X43000000Y-70000000D03*
X48600000Y-69000000D03*
X43000000Y-66000000D03*
X48800000Y-65800000D03*
X48000000Y-61200000D03*
X43000000Y-61200000D03*
X43000000Y-57200000D03*
X48000000Y-57200000D03*
X48000000Y-53200000D03*
X45400000Y-53200000D03*
X46800000Y-50800000D03*
X53400000Y-72800000D03*
X53400000Y-75200000D03*
X48200000Y-73800000D03*
X48200000Y-77800000D03*
X48200000Y-81800000D03*
X51200000Y-81800000D03*
X51800000Y-86000000D03*
X47600000Y-88000000D03*
X47600000Y-92800000D03*
X51800000Y-90400000D03*
X51800000Y-92600000D03*
X48000000Y-85000000D03*
X51800000Y-96200000D03*
X47600000Y-96000000D03*
X43000000Y-96200000D03*
X59200000Y-102600000D03*
X56200000Y-97800000D03*
X59200000Y-96800000D03*
X59200000Y-94200000D03*
X56000000Y-93200000D03*
X59200000Y-90200000D03*
X59200000Y-86200000D03*
X59200000Y-82800000D03*
X56000000Y-89200000D03*
X56200000Y-85400000D03*
X57200000Y-80400000D03*
X55400000Y-75400000D03*
X57400000Y-73200000D03*
X59200000Y-67400000D03*
X59200000Y-62600000D03*
D17*
X58000000Y-103400000D03*
X36000000Y-103400000D03*
X43000000Y-51400000D03*
D16*
X54699999Y-94300001D03*
D15*
X41000000Y-30800000D03*
X59000000Y-30800000D03*
X59000000Y-36800000D03*
X57000000Y-30800000D03*
X57000000Y-36800000D03*
X55000000Y-30800000D03*
X55000000Y-36800000D03*
X53000000Y-30800000D03*
X53000000Y-36800000D03*
X51000000Y-30800000D03*
X51000000Y-36800000D03*
X49000000Y-30800000D03*
X49000000Y-36800000D03*
X47000000Y-30800000D03*
X47000000Y-36800000D03*
X45000000Y-30800000D03*
X45000000Y-36800000D03*
X43000000Y-30800000D03*
X43000000Y-36800000D03*
D16*
X42700000Y-74000000D03*
X40500000Y-74000000D03*
X53600000Y-78700000D03*
X56900000Y-78800000D03*
X53800000Y-68400000D03*
X56425000Y-69727657D03*
X56060010Y-66460010D03*
X57775010Y-69434406D03*
X56800000Y-67800000D03*
D17*
X41000000Y-46700000D03*
D16*
X55700000Y-84300000D03*
X53600000Y-84300000D03*
X53300000Y-80200000D03*
X56100019Y-80100000D03*
X59100000Y-75600000D03*
X56500000Y-75400000D03*
X53600000Y-53800000D03*
X57200000Y-74999990D03*
D18*
X57985000Y-103415000D02*
X58000000Y-103400000D01*
X57985000Y-107000000D02*
X57985000Y-103415000D01*
X36015000Y-103415000D02*
X36000000Y-103400000D01*
X36015000Y-107000000D02*
X36015000Y-103415000D01*
D19*
X43000000Y-48803960D02*
X43002040Y-48801920D01*
X43000000Y-51400000D02*
X43000000Y-48803960D01*
D20*
X54600000Y-94400000D02*
X54699999Y-94300001D01*
X51620000Y-94400000D02*
X54600000Y-94400000D01*
D18*
X41025000Y-31200000D02*
X41000000Y-31200000D01*
X59000000Y-36800000D02*
X58000000Y-35800000D01*
X58000000Y-35800000D02*
X58000000Y-31800000D01*
X57000000Y-30800000D02*
X58000000Y-31800000D01*
X57000000Y-36800000D02*
X56000000Y-35800000D01*
X56000000Y-35800000D02*
X56000000Y-31800000D01*
X55000000Y-30800000D02*
X56000000Y-31800000D01*
X55000000Y-36800000D02*
X54000000Y-35800000D01*
X54000000Y-35800000D02*
X54000000Y-31800000D01*
X53000000Y-30800000D02*
X54000000Y-31800000D01*
X53000000Y-36800000D02*
X52000000Y-35800000D01*
X52000000Y-35800000D02*
X52000000Y-31800000D01*
X51000000Y-30800000D02*
X52000000Y-31800000D01*
X51000000Y-36800000D02*
X50000000Y-35800000D01*
X50000000Y-35800000D02*
X50000000Y-31800000D01*
X49000000Y-30800000D02*
X50000000Y-31800000D01*
X49000000Y-36800000D02*
X48000000Y-35800000D01*
X48000000Y-35800000D02*
X48000000Y-31800000D01*
X47000000Y-30800000D02*
X48000000Y-31800000D01*
X47000000Y-36800000D02*
X46000000Y-35800000D01*
X46000000Y-35800000D02*
X46000000Y-31800000D01*
X45000000Y-30800000D02*
X46000000Y-31800000D01*
X45000000Y-36800000D02*
X44000000Y-35800000D01*
X44000000Y-35800000D02*
X44000000Y-31800000D01*
X43000000Y-30800000D02*
X44000000Y-31800000D01*
X42000000Y-35800000D02*
X43000000Y-36800000D01*
X42000000Y-31800000D02*
X42000000Y-35800000D01*
X41000000Y-30800000D02*
X42000000Y-31800000D01*
D20*
X42700000Y-74000000D02*
X40500000Y-74000000D01*
X56800000Y-78700000D02*
X56900000Y-78800000D01*
X53600000Y-78700000D02*
X56800000Y-78700000D01*
X50997960Y-63798080D02*
X50997960Y-65597960D01*
X50997960Y-65597960D02*
X53800000Y-68400000D01*
X54239653Y-69727657D02*
X56000736Y-69727657D01*
X48998980Y-48801920D02*
X48998980Y-64486984D01*
X48998980Y-64486984D02*
X54239653Y-69727657D01*
X56000736Y-69727657D02*
X56425000Y-69727657D01*
X53398080Y-63798080D02*
X56000000Y-66400000D01*
X52999480Y-63798080D02*
X53398080Y-63798080D01*
X56000000Y-66400000D02*
X56060010Y-66460010D01*
X57240603Y-68899999D02*
X57775010Y-69434406D01*
X51897401Y-49701361D02*
X51897401Y-65335313D01*
X50997960Y-48801920D02*
X51897401Y-49701361D01*
X55462087Y-68899999D02*
X57240603Y-68899999D01*
X51897401Y-65335313D02*
X55462087Y-68899999D01*
X52999480Y-48801920D02*
X52999480Y-60399480D01*
X52999480Y-60399480D02*
X56800000Y-64200000D01*
X56800000Y-67000000D02*
X56800000Y-67800000D01*
X56800000Y-64200000D02*
X56800000Y-67000000D01*
D18*
X41000520Y-48801920D02*
X41000520Y-46700520D01*
D20*
X55700000Y-84300000D02*
X53600000Y-84300000D01*
X53300000Y-80200000D02*
X56000019Y-80200000D01*
X56000019Y-80200000D02*
X56100019Y-80100000D01*
X59100000Y-75600000D02*
X56700000Y-75600000D01*
X56700000Y-75600000D02*
X56500000Y-75400000D01*
X58400000Y-73799990D02*
X57200000Y-74999990D01*
X53600000Y-53800000D02*
X58400000Y-58600000D01*
X58400000Y-58600000D02*
X58400000Y-73799990D01*
D21*
X57873000Y-43647993D02*
X57865000Y-43688212D01*
X57865000Y-43911788D01*
X57873000Y-43952007D01*
X57873000Y-44442462D01*
X57651925Y-44350890D01*
X57220128Y-44265000D01*
X56779872Y-44265000D01*
X56348075Y-44350890D01*
X55941331Y-44519369D01*
X55575271Y-44763962D01*
X55263962Y-45075271D01*
X55019369Y-45441331D01*
X54850890Y-45848075D01*
X54765000Y-46279872D01*
X54765000Y-46720128D01*
X54850890Y-47151925D01*
X55019369Y-47558669D01*
X55263962Y-47924729D01*
X55575271Y-48236038D01*
X55941331Y-48480631D01*
X56348075Y-48649110D01*
X56779872Y-48735000D01*
X57220128Y-48735000D01*
X57651925Y-48649110D01*
X58058669Y-48480631D01*
X58424729Y-48236038D01*
X58736038Y-47924729D01*
X58980631Y-47558669D01*
X59149110Y-47151925D01*
X59235000Y-46720128D01*
X59235000Y-46279872D01*
X59149110Y-45848075D01*
X58980631Y-45441331D01*
X58770602Y-45127000D01*
X59340000Y-45127000D01*
X59340001Y-74694422D01*
X59192089Y-74665000D01*
X59007911Y-74665000D01*
X58827271Y-74700932D01*
X58657111Y-74771414D01*
X58517049Y-74865000D01*
X58374437Y-74865000D01*
X58894193Y-74345244D01*
X58922238Y-74322228D01*
X59014087Y-74210310D01*
X59082337Y-74082623D01*
X59124365Y-73944075D01*
X59135000Y-73836095D01*
X59135000Y-73836086D01*
X59138555Y-73799991D01*
X59135000Y-73763896D01*
X59135000Y-58636096D01*
X59138555Y-58599999D01*
X59135000Y-58563902D01*
X59135000Y-58563895D01*
X59124365Y-58455915D01*
X59082337Y-58317367D01*
X59014087Y-58189680D01*
X58970117Y-58136103D01*
X58945253Y-58105806D01*
X58945250Y-58105803D01*
X58922237Y-58077762D01*
X58894197Y-58054751D01*
X54531932Y-53692486D01*
X54499068Y-53527271D01*
X54428586Y-53357111D01*
X54326262Y-53203972D01*
X54196028Y-53073738D01*
X54042889Y-52971414D01*
X53872729Y-52900932D01*
X53734480Y-52873432D01*
X53734480Y-50924242D01*
X53843100Y-50891292D01*
X53953414Y-50832327D01*
X54050105Y-50752975D01*
X54129457Y-50656284D01*
X54188422Y-50545970D01*
X54224732Y-50426272D01*
X54236992Y-50301790D01*
X54236992Y-47302050D01*
X54224732Y-47177568D01*
X54188422Y-47057870D01*
X54129457Y-46947556D01*
X54050105Y-46850865D01*
X53953414Y-46771513D01*
X53843100Y-46712548D01*
X53723402Y-46676238D01*
X53598920Y-46663978D01*
X52400040Y-46663978D01*
X52275558Y-46676238D01*
X52155860Y-46712548D01*
X52045546Y-46771513D01*
X51998720Y-46809942D01*
X51951894Y-46771513D01*
X51841580Y-46712548D01*
X51721882Y-46676238D01*
X51597400Y-46663978D01*
X50398520Y-46663978D01*
X50274038Y-46676238D01*
X50154340Y-46712548D01*
X50044026Y-46771513D01*
X49998470Y-46808900D01*
X49952914Y-46771513D01*
X49842600Y-46712548D01*
X49722902Y-46676238D01*
X49598420Y-46663978D01*
X48399540Y-46663978D01*
X48275058Y-46676238D01*
X48155360Y-46712548D01*
X48045046Y-46771513D01*
X47948355Y-46850865D01*
X47869003Y-46947556D01*
X47810038Y-47057870D01*
X47773728Y-47177568D01*
X47761468Y-47302050D01*
X47761468Y-50301790D01*
X47773728Y-50426272D01*
X47810038Y-50545970D01*
X47869003Y-50656284D01*
X47948355Y-50752975D01*
X48045046Y-50832327D01*
X48155360Y-50891292D01*
X48263980Y-50924242D01*
X48263981Y-64450869D01*
X48260424Y-64486984D01*
X48274615Y-64631069D01*
X48309253Y-64745253D01*
X48316644Y-64769617D01*
X48384894Y-64897304D01*
X48476743Y-65009222D01*
X48504788Y-65032238D01*
X53694399Y-70221850D01*
X53717415Y-70249895D01*
X53829333Y-70341744D01*
X53957020Y-70409994D01*
X54095568Y-70452022D01*
X54239653Y-70466213D01*
X54275758Y-70462657D01*
X55842049Y-70462657D01*
X55982111Y-70556243D01*
X56152271Y-70626725D01*
X56332911Y-70662657D01*
X56517089Y-70662657D01*
X56697729Y-70626725D01*
X56867889Y-70556243D01*
X57021028Y-70453919D01*
X57151262Y-70323685D01*
X57235122Y-70198179D01*
X57332121Y-70262992D01*
X57502281Y-70333474D01*
X57665001Y-70365841D01*
X57665001Y-73495542D01*
X57092485Y-74068058D01*
X56927271Y-74100922D01*
X56757111Y-74171404D01*
X56603972Y-74273728D01*
X56473738Y-74403962D01*
X56432954Y-74465000D01*
X56407911Y-74465000D01*
X56227271Y-74500932D01*
X56057111Y-74571414D01*
X55903972Y-74673738D01*
X55773738Y-74803972D01*
X55671414Y-74957111D01*
X55600932Y-75127271D01*
X55565000Y-75307911D01*
X55565000Y-75492089D01*
X55600932Y-75672729D01*
X55671414Y-75842889D01*
X55773738Y-75996028D01*
X55903972Y-76126262D01*
X56057111Y-76228586D01*
X56227271Y-76299068D01*
X56407911Y-76335000D01*
X56592089Y-76335000D01*
X56615869Y-76330270D01*
X56700000Y-76338556D01*
X56736105Y-76335000D01*
X58517049Y-76335000D01*
X58657111Y-76428586D01*
X58827271Y-76499068D01*
X59007911Y-76535000D01*
X59192089Y-76535000D01*
X59340001Y-76505578D01*
X59340001Y-115967711D01*
X59311375Y-116259660D01*
X59235965Y-116509429D01*
X59113477Y-116739794D01*
X58948579Y-116941979D01*
X58747546Y-117108288D01*
X58518046Y-117232378D01*
X58268805Y-117309531D01*
X57978911Y-117340000D01*
X36032279Y-117340000D01*
X35740340Y-117311375D01*
X35490571Y-117235965D01*
X35260206Y-117113477D01*
X35058021Y-116948579D01*
X34891712Y-116747546D01*
X34767622Y-116518046D01*
X34690469Y-116268805D01*
X34660000Y-115978911D01*
X34660000Y-104460000D01*
X34741928Y-104460000D01*
X34741928Y-109540000D01*
X34754188Y-109664482D01*
X34790498Y-109784180D01*
X34849463Y-109894494D01*
X34928815Y-109991185D01*
X35025506Y-110070537D01*
X35135820Y-110129502D01*
X35255518Y-110165812D01*
X35380000Y-110178072D01*
X36650000Y-110178072D01*
X36774482Y-110165812D01*
X36894180Y-110129502D01*
X37004494Y-110070537D01*
X37101185Y-109991185D01*
X37180537Y-109894494D01*
X37239502Y-109784180D01*
X37275812Y-109664482D01*
X37288072Y-109540000D01*
X37288072Y-104460000D01*
X56711928Y-104460000D01*
X56711928Y-109540000D01*
X56724188Y-109664482D01*
X56760498Y-109784180D01*
X56819463Y-109894494D01*
X56898815Y-109991185D01*
X56995506Y-110070537D01*
X57105820Y-110129502D01*
X57225518Y-110165812D01*
X57350000Y-110178072D01*
X58620000Y-110178072D01*
X58744482Y-110165812D01*
X58864180Y-110129502D01*
X58974494Y-110070537D01*
X59071185Y-109991185D01*
X59150537Y-109894494D01*
X59209502Y-109784180D01*
X59245812Y-109664482D01*
X59258072Y-109540000D01*
X59258072Y-104460000D01*
X59245812Y-104335518D01*
X59209502Y-104215820D01*
X59150537Y-104105506D01*
X59120000Y-104068296D01*
X59120000Y-103608050D01*
X59140490Y-103400001D01*
X59118577Y-103177502D01*
X59053675Y-102963554D01*
X58948283Y-102766378D01*
X58806448Y-102593552D01*
X58633622Y-102451717D01*
X58436446Y-102346325D01*
X58222498Y-102281423D01*
X57999999Y-102259510D01*
X57777501Y-102281423D01*
X57563554Y-102346325D01*
X57366378Y-102451717D01*
X57236857Y-102558012D01*
X57221860Y-102573009D01*
X57178552Y-102608551D01*
X57036717Y-102781377D01*
X56980384Y-102886770D01*
X56931324Y-102978554D01*
X56866423Y-103192502D01*
X56844509Y-103415000D01*
X56850001Y-103470761D01*
X56850001Y-104068295D01*
X56819463Y-104105506D01*
X56760498Y-104215820D01*
X56724188Y-104335518D01*
X56711928Y-104460000D01*
X37288072Y-104460000D01*
X37275812Y-104335518D01*
X37239502Y-104215820D01*
X37180537Y-104105506D01*
X37150000Y-104068296D01*
X37150000Y-103470743D01*
X37155490Y-103414999D01*
X37150000Y-103359255D01*
X37150000Y-103359248D01*
X37133577Y-103192501D01*
X37068676Y-102978553D01*
X36963284Y-102781377D01*
X36821449Y-102608551D01*
X36778135Y-102573004D01*
X36763143Y-102558012D01*
X36633622Y-102451717D01*
X36436446Y-102346324D01*
X36222498Y-102281423D01*
X36000000Y-102259509D01*
X35777502Y-102281423D01*
X35563554Y-102346324D01*
X35366378Y-102451717D01*
X35193552Y-102593552D01*
X35051717Y-102766378D01*
X34946324Y-102963554D01*
X34881423Y-103177502D01*
X34859509Y-103400000D01*
X34880001Y-103608059D01*
X34880001Y-104068295D01*
X34849463Y-104105506D01*
X34790498Y-104215820D01*
X34754188Y-104335518D01*
X34741928Y-104460000D01*
X34660000Y-104460000D01*
X34660000Y-95279872D01*
X34765000Y-95279872D01*
X34765000Y-95720128D01*
X34850890Y-96151925D01*
X35019369Y-96558669D01*
X35263962Y-96924729D01*
X35575271Y-97236038D01*
X35941331Y-97480631D01*
X36348075Y-97649110D01*
X36779872Y-97735000D01*
X37220128Y-97735000D01*
X37651925Y-97649110D01*
X38058669Y-97480631D01*
X38424729Y-97236038D01*
X38736038Y-96924729D01*
X38980631Y-96558669D01*
X39149110Y-96151925D01*
X39235000Y-95720128D01*
X39235000Y-95279872D01*
X39149110Y-94848075D01*
X38980631Y-94441331D01*
X38736038Y-94075271D01*
X38424729Y-93763962D01*
X38104512Y-93550000D01*
X42511928Y-93550000D01*
X42511928Y-95250000D01*
X42524188Y-95374482D01*
X42560498Y-95494180D01*
X42619463Y-95604494D01*
X42698815Y-95701185D01*
X42795506Y-95780537D01*
X42905820Y-95839502D01*
X43025518Y-95875812D01*
X43150000Y-95888072D01*
X44850000Y-95888072D01*
X44974482Y-95875812D01*
X45094180Y-95839502D01*
X45204494Y-95780537D01*
X45301185Y-95701185D01*
X45380537Y-95604494D01*
X45439502Y-95494180D01*
X45461513Y-95421620D01*
X45593368Y-95553475D01*
X45836589Y-95715990D01*
X46106842Y-95827932D01*
X46393740Y-95885000D01*
X46686260Y-95885000D01*
X46973158Y-95827932D01*
X47243411Y-95715990D01*
X47486632Y-95553475D01*
X47693475Y-95346632D01*
X47815195Y-95164466D01*
X47884822Y-95281355D01*
X48079731Y-95497588D01*
X48313080Y-95671641D01*
X48575901Y-95796825D01*
X48723110Y-95841476D01*
X48953000Y-95720155D01*
X48953000Y-94527000D01*
X48933000Y-94527000D01*
X48933000Y-94273000D01*
X48953000Y-94273000D01*
X48953000Y-93079845D01*
X49207000Y-93079845D01*
X49207000Y-94273000D01*
X49227000Y-94273000D01*
X49227000Y-94527000D01*
X49207000Y-94527000D01*
X49207000Y-95720155D01*
X49436890Y-95841476D01*
X49584099Y-95796825D01*
X49846920Y-95671641D01*
X50080269Y-95497588D01*
X50275178Y-95281355D01*
X50344805Y-95164466D01*
X50466525Y-95346632D01*
X50673368Y-95553475D01*
X50916589Y-95715990D01*
X51186842Y-95827932D01*
X51473740Y-95885000D01*
X51766260Y-95885000D01*
X52053158Y-95827932D01*
X52323411Y-95715990D01*
X52566632Y-95553475D01*
X52773475Y-95346632D01*
X52914883Y-95135000D01*
X54272592Y-95135000D01*
X54427270Y-95199069D01*
X54607910Y-95235001D01*
X54773925Y-95235001D01*
X54765000Y-95279872D01*
X54765000Y-95720128D01*
X54850890Y-96151925D01*
X55019369Y-96558669D01*
X55263962Y-96924729D01*
X55575271Y-97236038D01*
X55941331Y-97480631D01*
X56348075Y-97649110D01*
X56779872Y-97735000D01*
X57220128Y-97735000D01*
X57651925Y-97649110D01*
X58058669Y-97480631D01*
X58424729Y-97236038D01*
X58736038Y-96924729D01*
X58980631Y-96558669D01*
X59149110Y-96151925D01*
X59235000Y-95720128D01*
X59235000Y-95279872D01*
X59149110Y-94848075D01*
X58980631Y-94441331D01*
X58736038Y-94075271D01*
X58424729Y-93763962D01*
X58058669Y-93519369D01*
X57651925Y-93350890D01*
X57220128Y-93265000D01*
X56779872Y-93265000D01*
X56348075Y-93350890D01*
X55941331Y-93519369D01*
X55575271Y-93763962D01*
X55509974Y-93829259D01*
X55426261Y-93703973D01*
X55296027Y-93573739D01*
X55142888Y-93471415D01*
X54972728Y-93400933D01*
X54792088Y-93365001D01*
X54607910Y-93365001D01*
X54427270Y-93400933D01*
X54257110Y-93471415D01*
X54103971Y-93573739D01*
X54012710Y-93665000D01*
X52914883Y-93665000D01*
X52773475Y-93453368D01*
X52566632Y-93246525D01*
X52323411Y-93084010D01*
X52053158Y-92972068D01*
X51766260Y-92915000D01*
X51473740Y-92915000D01*
X51186842Y-92972068D01*
X50916589Y-93084010D01*
X50673368Y-93246525D01*
X50466525Y-93453368D01*
X50344805Y-93635534D01*
X50275178Y-93518645D01*
X50080269Y-93302412D01*
X49846920Y-93128359D01*
X49584099Y-93003175D01*
X49436890Y-92958524D01*
X49207000Y-93079845D01*
X48953000Y-93079845D01*
X48723110Y-92958524D01*
X48575901Y-93003175D01*
X48313080Y-93128359D01*
X48079731Y-93302412D01*
X47884822Y-93518645D01*
X47815195Y-93635534D01*
X47693475Y-93453368D01*
X47486632Y-93246525D01*
X47243411Y-93084010D01*
X46973158Y-92972068D01*
X46686260Y-92915000D01*
X46393740Y-92915000D01*
X46106842Y-92972068D01*
X45836589Y-93084010D01*
X45593368Y-93246525D01*
X45461513Y-93378380D01*
X45439502Y-93305820D01*
X45380537Y-93195506D01*
X45301185Y-93098815D01*
X45204494Y-93019463D01*
X45094180Y-92960498D01*
X44974482Y-92924188D01*
X44850000Y-92911928D01*
X43150000Y-92911928D01*
X43025518Y-92924188D01*
X42905820Y-92960498D01*
X42795506Y-93019463D01*
X42698815Y-93098815D01*
X42619463Y-93195506D01*
X42560498Y-93305820D01*
X42524188Y-93425518D01*
X42511928Y-93550000D01*
X38104512Y-93550000D01*
X38058669Y-93519369D01*
X37651925Y-93350890D01*
X37220128Y-93265000D01*
X36779872Y-93265000D01*
X36348075Y-93350890D01*
X35941331Y-93519369D01*
X35575271Y-93763962D01*
X35263962Y-94075271D01*
X35019369Y-94441331D01*
X34850890Y-94848075D01*
X34765000Y-95279872D01*
X34660000Y-95279872D01*
X34660000Y-84207911D01*
X52665000Y-84207911D01*
X52665000Y-84392089D01*
X52700932Y-84572729D01*
X52771414Y-84742889D01*
X52873738Y-84896028D01*
X53003972Y-85026262D01*
X53157111Y-85128586D01*
X53327271Y-85199068D01*
X53507911Y-85235000D01*
X53692089Y-85235000D01*
X53872729Y-85199068D01*
X54042889Y-85128586D01*
X54182951Y-85035000D01*
X55117049Y-85035000D01*
X55257111Y-85128586D01*
X55427271Y-85199068D01*
X55607911Y-85235000D01*
X55792089Y-85235000D01*
X55972729Y-85199068D01*
X56142889Y-85128586D01*
X56296028Y-85026262D01*
X56426262Y-84896028D01*
X56528586Y-84742889D01*
X56599068Y-84572729D01*
X56635000Y-84392089D01*
X56635000Y-84207911D01*
X56599068Y-84027271D01*
X56528586Y-83857111D01*
X56426262Y-83703972D01*
X56296028Y-83573738D01*
X56142889Y-83471414D01*
X55972729Y-83400932D01*
X55792089Y-83365000D01*
X55607911Y-83365000D01*
X55427271Y-83400932D01*
X55257111Y-83471414D01*
X55117049Y-83565000D01*
X54182951Y-83565000D01*
X54042889Y-83471414D01*
X53872729Y-83400932D01*
X53692089Y-83365000D01*
X53507911Y-83365000D01*
X53327271Y-83400932D01*
X53157111Y-83471414D01*
X53003972Y-83573738D01*
X52873738Y-83703972D01*
X52771414Y-83857111D01*
X52700932Y-84027271D01*
X52665000Y-84207911D01*
X34660000Y-84207911D01*
X34660000Y-80107911D01*
X52365000Y-80107911D01*
X52365000Y-80292089D01*
X52400932Y-80472729D01*
X52471414Y-80642889D01*
X52573738Y-80796028D01*
X52703972Y-80926262D01*
X52857111Y-81028586D01*
X53027271Y-81099068D01*
X53207911Y-81135000D01*
X53392089Y-81135000D01*
X53572729Y-81099068D01*
X53742889Y-81028586D01*
X53882951Y-80935000D01*
X55672615Y-80935000D01*
X55827290Y-80999068D01*
X56007930Y-81035000D01*
X56192108Y-81035000D01*
X56372748Y-80999068D01*
X56542908Y-80928586D01*
X56696047Y-80826262D01*
X56826281Y-80696028D01*
X56928605Y-80542889D01*
X56999087Y-80372729D01*
X57035019Y-80192089D01*
X57035019Y-80007911D01*
X56999087Y-79827271D01*
X56960867Y-79735000D01*
X56992089Y-79735000D01*
X57172729Y-79699068D01*
X57342889Y-79628586D01*
X57496028Y-79526262D01*
X57626262Y-79396028D01*
X57728586Y-79242889D01*
X57799068Y-79072729D01*
X57835000Y-78892089D01*
X57835000Y-78707911D01*
X57799068Y-78527271D01*
X57728586Y-78357111D01*
X57626262Y-78203972D01*
X57496028Y-78073738D01*
X57342889Y-77971414D01*
X57172729Y-77900932D01*
X56992089Y-77865000D01*
X56807911Y-77865000D01*
X56627271Y-77900932D01*
X56472596Y-77965000D01*
X54182951Y-77965000D01*
X54042889Y-77871414D01*
X53872729Y-77800932D01*
X53692089Y-77765000D01*
X53507911Y-77765000D01*
X53327271Y-77800932D01*
X53157111Y-77871414D01*
X53003972Y-77973738D01*
X52873738Y-78103972D01*
X52771414Y-78257111D01*
X52700932Y-78427271D01*
X52665000Y-78607911D01*
X52665000Y-78792089D01*
X52700932Y-78972729D01*
X52771414Y-79142889D01*
X52873738Y-79296028D01*
X52922174Y-79344464D01*
X52857111Y-79371414D01*
X52703972Y-79473738D01*
X52573738Y-79603972D01*
X52471414Y-79757111D01*
X52400932Y-79927271D01*
X52365000Y-80107911D01*
X34660000Y-80107911D01*
X34660000Y-77815010D01*
X34705820Y-77839502D01*
X34825518Y-77875812D01*
X34950000Y-77888072D01*
X36650000Y-77888072D01*
X36774482Y-77875812D01*
X36894180Y-77839502D01*
X37004494Y-77780537D01*
X37101185Y-77701185D01*
X37180537Y-77604494D01*
X37239502Y-77494180D01*
X37275812Y-77374482D01*
X37288072Y-77250000D01*
X37288072Y-75550000D01*
X37275812Y-75425518D01*
X37239502Y-75305820D01*
X37180537Y-75195506D01*
X37101185Y-75098815D01*
X37004494Y-75019463D01*
X36894180Y-74960498D01*
X36821620Y-74938487D01*
X36953475Y-74806632D01*
X37115990Y-74563411D01*
X37227932Y-74293158D01*
X37285000Y-74006260D01*
X37285000Y-73907911D01*
X39565000Y-73907911D01*
X39565000Y-74092089D01*
X39600932Y-74272729D01*
X39671414Y-74442889D01*
X39773738Y-74596028D01*
X39903972Y-74726262D01*
X40057111Y-74828586D01*
X40227271Y-74899068D01*
X40407911Y-74935000D01*
X40592089Y-74935000D01*
X40772729Y-74899068D01*
X40942889Y-74828586D01*
X41082951Y-74735000D01*
X42117049Y-74735000D01*
X42257111Y-74828586D01*
X42427271Y-74899068D01*
X42607911Y-74935000D01*
X42792089Y-74935000D01*
X42972729Y-74899068D01*
X43142889Y-74828586D01*
X43296028Y-74726262D01*
X43426262Y-74596028D01*
X43528586Y-74442889D01*
X43599068Y-74272729D01*
X43635000Y-74092089D01*
X43635000Y-73907911D01*
X43599068Y-73727271D01*
X43528586Y-73557111D01*
X43426262Y-73403972D01*
X43296028Y-73273738D01*
X43142889Y-73171414D01*
X42972729Y-73100932D01*
X42792089Y-73065000D01*
X42607911Y-73065000D01*
X42427271Y-73100932D01*
X42257111Y-73171414D01*
X42117049Y-73265000D01*
X41082951Y-73265000D01*
X40942889Y-73171414D01*
X40772729Y-73100932D01*
X40592089Y-73065000D01*
X40407911Y-73065000D01*
X40227271Y-73100932D01*
X40057111Y-73171414D01*
X39903972Y-73273738D01*
X39773738Y-73403972D01*
X39671414Y-73557111D01*
X39600932Y-73727271D01*
X39565000Y-73907911D01*
X37285000Y-73907911D01*
X37285000Y-73713740D01*
X37227932Y-73426842D01*
X37115990Y-73156589D01*
X36953475Y-72913368D01*
X36746632Y-72706525D01*
X36503411Y-72544010D01*
X36233158Y-72432068D01*
X35946260Y-72375000D01*
X35653740Y-72375000D01*
X35366842Y-72432068D01*
X35096589Y-72544010D01*
X34853368Y-72706525D01*
X34660000Y-72899893D01*
X34660000Y-65297950D01*
X39763008Y-65297950D01*
X39775268Y-65422432D01*
X39811578Y-65542130D01*
X39870543Y-65652444D01*
X39949895Y-65749135D01*
X40046586Y-65828487D01*
X40156900Y-65887452D01*
X40276598Y-65923762D01*
X40401080Y-65936022D01*
X40714770Y-65932950D01*
X40873520Y-65774200D01*
X40873520Y-63925080D01*
X41127520Y-63925080D01*
X41127520Y-65774200D01*
X41286270Y-65932950D01*
X41599960Y-65936022D01*
X41724442Y-65923762D01*
X41844140Y-65887452D01*
X41954454Y-65828487D01*
X42051145Y-65749135D01*
X42130497Y-65652444D01*
X42189462Y-65542130D01*
X42225772Y-65422432D01*
X42238032Y-65297950D01*
X42234960Y-64083830D01*
X42076210Y-63925080D01*
X41127520Y-63925080D01*
X40873520Y-63925080D01*
X39924830Y-63925080D01*
X39766080Y-64083830D01*
X39763008Y-65297950D01*
X34660000Y-65297950D01*
X34660000Y-62298210D01*
X39763008Y-62298210D01*
X39766080Y-63512330D01*
X39924830Y-63671080D01*
X40873520Y-63671080D01*
X40873520Y-61821960D01*
X41127520Y-61821960D01*
X41127520Y-63671080D01*
X42076210Y-63671080D01*
X42234960Y-63512330D01*
X42238032Y-62298210D01*
X42225772Y-62173728D01*
X42189462Y-62054030D01*
X42130497Y-61943716D01*
X42051145Y-61847025D01*
X41954454Y-61767673D01*
X41844140Y-61708708D01*
X41724442Y-61672398D01*
X41599960Y-61660138D01*
X41286270Y-61663210D01*
X41127520Y-61821960D01*
X40873520Y-61821960D01*
X40714770Y-61663210D01*
X40401080Y-61660138D01*
X40276598Y-61672398D01*
X40156900Y-61708708D01*
X40046586Y-61767673D01*
X39949895Y-61847025D01*
X39870543Y-61943716D01*
X39811578Y-62054030D01*
X39775268Y-62173728D01*
X39763008Y-62298210D01*
X34660000Y-62298210D01*
X34660000Y-46279872D01*
X34765000Y-46279872D01*
X34765000Y-46720128D01*
X34850890Y-47151925D01*
X35019369Y-47558669D01*
X35263962Y-47924729D01*
X35575271Y-48236038D01*
X35941331Y-48480631D01*
X36348075Y-48649110D01*
X36779872Y-48735000D01*
X37220128Y-48735000D01*
X37651925Y-48649110D01*
X38058669Y-48480631D01*
X38424729Y-48236038D01*
X38736038Y-47924729D01*
X38980631Y-47558669D01*
X39086926Y-47302050D01*
X39763008Y-47302050D01*
X39763008Y-50301790D01*
X39775268Y-50426272D01*
X39811578Y-50545970D01*
X39870543Y-50656284D01*
X39949895Y-50752975D01*
X40046586Y-50832327D01*
X40156900Y-50891292D01*
X40276598Y-50927602D01*
X40401080Y-50939862D01*
X41599960Y-50939862D01*
X41724442Y-50927602D01*
X41844140Y-50891292D01*
X41954454Y-50832327D01*
X41990000Y-50803155D01*
X41990000Y-51172376D01*
X41965000Y-51298061D01*
X41965000Y-51501939D01*
X42004774Y-51701898D01*
X42082795Y-51890256D01*
X42196063Y-52059774D01*
X42340226Y-52203937D01*
X42509744Y-52317205D01*
X42698102Y-52395226D01*
X42898061Y-52435000D01*
X43101939Y-52435000D01*
X43301898Y-52395226D01*
X43490256Y-52317205D01*
X43659774Y-52203937D01*
X43803937Y-52059774D01*
X43917205Y-51890256D01*
X43995226Y-51701898D01*
X44035000Y-51501939D01*
X44035000Y-51298061D01*
X44010000Y-51172377D01*
X44010000Y-50801891D01*
X44047086Y-50832327D01*
X44157400Y-50891292D01*
X44277098Y-50927602D01*
X44401580Y-50939862D01*
X44715270Y-50936790D01*
X44874020Y-50778040D01*
X44874020Y-48928920D01*
X45128020Y-48928920D01*
X45128020Y-50778040D01*
X45286770Y-50936790D01*
X45600460Y-50939862D01*
X45724942Y-50927602D01*
X45844640Y-50891292D01*
X45954954Y-50832327D01*
X46051645Y-50752975D01*
X46130997Y-50656284D01*
X46189962Y-50545970D01*
X46226272Y-50426272D01*
X46238532Y-50301790D01*
X46235460Y-49087670D01*
X46076710Y-48928920D01*
X45128020Y-48928920D01*
X44874020Y-48928920D01*
X44854020Y-48928920D01*
X44854020Y-48674920D01*
X44874020Y-48674920D01*
X44874020Y-46825800D01*
X45128020Y-46825800D01*
X45128020Y-48674920D01*
X46076710Y-48674920D01*
X46235460Y-48516170D01*
X46238532Y-47302050D01*
X46226272Y-47177568D01*
X46189962Y-47057870D01*
X46130997Y-46947556D01*
X46051645Y-46850865D01*
X45954954Y-46771513D01*
X45844640Y-46712548D01*
X45724942Y-46676238D01*
X45600460Y-46663978D01*
X45286770Y-46667050D01*
X45128020Y-46825800D01*
X44874020Y-46825800D01*
X44715270Y-46667050D01*
X44401580Y-46663978D01*
X44277098Y-46676238D01*
X44157400Y-46712548D01*
X44047086Y-46771513D01*
X44001530Y-46808900D01*
X43955974Y-46771513D01*
X43845660Y-46712548D01*
X43725962Y-46676238D01*
X43601480Y-46663978D01*
X42402600Y-46663978D01*
X42278118Y-46676238D01*
X42158420Y-46712548D01*
X42135520Y-46724788D01*
X42135520Y-46644768D01*
X42119097Y-46478021D01*
X42054196Y-46264073D01*
X41948804Y-46066897D01*
X41806969Y-45894071D01*
X41634143Y-45752236D01*
X41436967Y-45646844D01*
X41223019Y-45581943D01*
X41000520Y-45560029D01*
X40778022Y-45581943D01*
X40564074Y-45646844D01*
X40366898Y-45752236D01*
X40194072Y-45894071D01*
X40052237Y-46066897D01*
X39946845Y-46264073D01*
X39881944Y-46478021D01*
X39865521Y-46644768D01*
X39865521Y-46956952D01*
X39811578Y-47057870D01*
X39775268Y-47177568D01*
X39763008Y-47302050D01*
X39086926Y-47302050D01*
X39149110Y-47151925D01*
X39235000Y-46720128D01*
X39235000Y-46279872D01*
X39149110Y-45848075D01*
X38980631Y-45441331D01*
X38736038Y-45075271D01*
X38424729Y-44763962D01*
X38058669Y-44519369D01*
X37651925Y-44350890D01*
X37220128Y-44265000D01*
X36779872Y-44265000D01*
X36348075Y-44350890D01*
X35941331Y-44519369D01*
X35575271Y-44763962D01*
X35263962Y-45075271D01*
X35019369Y-45441331D01*
X34850890Y-45848075D01*
X34765000Y-46279872D01*
X34660000Y-46279872D01*
X34660000Y-43127000D01*
X57873000Y-43127000D01*
X57873000Y-43647993D01*
G04 #@! TA.AperFunction,Conductor*
D22*
G36*
X57873000Y-43647993D02*
G01*
X57865000Y-43688212D01*
X57865000Y-43911788D01*
X57873000Y-43952007D01*
X57873000Y-44442462D01*
X57651925Y-44350890D01*
X57220128Y-44265000D01*
X56779872Y-44265000D01*
X56348075Y-44350890D01*
X55941331Y-44519369D01*
X55575271Y-44763962D01*
X55263962Y-45075271D01*
X55019369Y-45441331D01*
X54850890Y-45848075D01*
X54765000Y-46279872D01*
X54765000Y-46720128D01*
X54850890Y-47151925D01*
X55019369Y-47558669D01*
X55263962Y-47924729D01*
X55575271Y-48236038D01*
X55941331Y-48480631D01*
X56348075Y-48649110D01*
X56779872Y-48735000D01*
X57220128Y-48735000D01*
X57651925Y-48649110D01*
X58058669Y-48480631D01*
X58424729Y-48236038D01*
X58736038Y-47924729D01*
X58980631Y-47558669D01*
X59149110Y-47151925D01*
X59235000Y-46720128D01*
X59235000Y-46279872D01*
X59149110Y-45848075D01*
X58980631Y-45441331D01*
X58770602Y-45127000D01*
X59340000Y-45127000D01*
X59340001Y-74694422D01*
X59192089Y-74665000D01*
X59007911Y-74665000D01*
X58827271Y-74700932D01*
X58657111Y-74771414D01*
X58517049Y-74865000D01*
X58374437Y-74865000D01*
X58894193Y-74345244D01*
X58922238Y-74322228D01*
X59014087Y-74210310D01*
X59082337Y-74082623D01*
X59124365Y-73944075D01*
X59135000Y-73836095D01*
X59135000Y-73836086D01*
X59138555Y-73799991D01*
X59135000Y-73763896D01*
X59135000Y-58636096D01*
X59138555Y-58599999D01*
X59135000Y-58563902D01*
X59135000Y-58563895D01*
X59124365Y-58455915D01*
X59082337Y-58317367D01*
X59014087Y-58189680D01*
X58970117Y-58136103D01*
X58945253Y-58105806D01*
X58945250Y-58105803D01*
X58922237Y-58077762D01*
X58894197Y-58054751D01*
X54531932Y-53692486D01*
X54499068Y-53527271D01*
X54428586Y-53357111D01*
X54326262Y-53203972D01*
X54196028Y-53073738D01*
X54042889Y-52971414D01*
X53872729Y-52900932D01*
X53734480Y-52873432D01*
X53734480Y-50924242D01*
X53843100Y-50891292D01*
X53953414Y-50832327D01*
X54050105Y-50752975D01*
X54129457Y-50656284D01*
X54188422Y-50545970D01*
X54224732Y-50426272D01*
X54236992Y-50301790D01*
X54236992Y-47302050D01*
X54224732Y-47177568D01*
X54188422Y-47057870D01*
X54129457Y-46947556D01*
X54050105Y-46850865D01*
X53953414Y-46771513D01*
X53843100Y-46712548D01*
X53723402Y-46676238D01*
X53598920Y-46663978D01*
X52400040Y-46663978D01*
X52275558Y-46676238D01*
X52155860Y-46712548D01*
X52045546Y-46771513D01*
X51998720Y-46809942D01*
X51951894Y-46771513D01*
X51841580Y-46712548D01*
X51721882Y-46676238D01*
X51597400Y-46663978D01*
X50398520Y-46663978D01*
X50274038Y-46676238D01*
X50154340Y-46712548D01*
X50044026Y-46771513D01*
X49998470Y-46808900D01*
X49952914Y-46771513D01*
X49842600Y-46712548D01*
X49722902Y-46676238D01*
X49598420Y-46663978D01*
X48399540Y-46663978D01*
X48275058Y-46676238D01*
X48155360Y-46712548D01*
X48045046Y-46771513D01*
X47948355Y-46850865D01*
X47869003Y-46947556D01*
X47810038Y-47057870D01*
X47773728Y-47177568D01*
X47761468Y-47302050D01*
X47761468Y-50301790D01*
X47773728Y-50426272D01*
X47810038Y-50545970D01*
X47869003Y-50656284D01*
X47948355Y-50752975D01*
X48045046Y-50832327D01*
X48155360Y-50891292D01*
X48263980Y-50924242D01*
X48263981Y-64450869D01*
X48260424Y-64486984D01*
X48274615Y-64631069D01*
X48309253Y-64745253D01*
X48316644Y-64769617D01*
X48384894Y-64897304D01*
X48476743Y-65009222D01*
X48504788Y-65032238D01*
X53694399Y-70221850D01*
X53717415Y-70249895D01*
X53829333Y-70341744D01*
X53957020Y-70409994D01*
X54095568Y-70452022D01*
X54239653Y-70466213D01*
X54275758Y-70462657D01*
X55842049Y-70462657D01*
X55982111Y-70556243D01*
X56152271Y-70626725D01*
X56332911Y-70662657D01*
X56517089Y-70662657D01*
X56697729Y-70626725D01*
X56867889Y-70556243D01*
X57021028Y-70453919D01*
X57151262Y-70323685D01*
X57235122Y-70198179D01*
X57332121Y-70262992D01*
X57502281Y-70333474D01*
X57665001Y-70365841D01*
X57665001Y-73495542D01*
X57092485Y-74068058D01*
X56927271Y-74100922D01*
X56757111Y-74171404D01*
X56603972Y-74273728D01*
X56473738Y-74403962D01*
X56432954Y-74465000D01*
X56407911Y-74465000D01*
X56227271Y-74500932D01*
X56057111Y-74571414D01*
X55903972Y-74673738D01*
X55773738Y-74803972D01*
X55671414Y-74957111D01*
X55600932Y-75127271D01*
X55565000Y-75307911D01*
X55565000Y-75492089D01*
X55600932Y-75672729D01*
X55671414Y-75842889D01*
X55773738Y-75996028D01*
X55903972Y-76126262D01*
X56057111Y-76228586D01*
X56227271Y-76299068D01*
X56407911Y-76335000D01*
X56592089Y-76335000D01*
X56615869Y-76330270D01*
X56700000Y-76338556D01*
X56736105Y-76335000D01*
X58517049Y-76335000D01*
X58657111Y-76428586D01*
X58827271Y-76499068D01*
X59007911Y-76535000D01*
X59192089Y-76535000D01*
X59340001Y-76505578D01*
X59340001Y-115967711D01*
X59311375Y-116259660D01*
X59235965Y-116509429D01*
X59113477Y-116739794D01*
X58948579Y-116941979D01*
X58747546Y-117108288D01*
X58518046Y-117232378D01*
X58268805Y-117309531D01*
X57978911Y-117340000D01*
X36032279Y-117340000D01*
X35740340Y-117311375D01*
X35490571Y-117235965D01*
X35260206Y-117113477D01*
X35058021Y-116948579D01*
X34891712Y-116747546D01*
X34767622Y-116518046D01*
X34690469Y-116268805D01*
X34660000Y-115978911D01*
X34660000Y-104460000D01*
X34741928Y-104460000D01*
X34741928Y-109540000D01*
X34754188Y-109664482D01*
X34790498Y-109784180D01*
X34849463Y-109894494D01*
X34928815Y-109991185D01*
X35025506Y-110070537D01*
X35135820Y-110129502D01*
X35255518Y-110165812D01*
X35380000Y-110178072D01*
X36650000Y-110178072D01*
X36774482Y-110165812D01*
X36894180Y-110129502D01*
X37004494Y-110070537D01*
X37101185Y-109991185D01*
X37180537Y-109894494D01*
X37239502Y-109784180D01*
X37275812Y-109664482D01*
X37288072Y-109540000D01*
X37288072Y-104460000D01*
X56711928Y-104460000D01*
X56711928Y-109540000D01*
X56724188Y-109664482D01*
X56760498Y-109784180D01*
X56819463Y-109894494D01*
X56898815Y-109991185D01*
X56995506Y-110070537D01*
X57105820Y-110129502D01*
X57225518Y-110165812D01*
X57350000Y-110178072D01*
X58620000Y-110178072D01*
X58744482Y-110165812D01*
X58864180Y-110129502D01*
X58974494Y-110070537D01*
X59071185Y-109991185D01*
X59150537Y-109894494D01*
X59209502Y-109784180D01*
X59245812Y-109664482D01*
X59258072Y-109540000D01*
X59258072Y-104460000D01*
X59245812Y-104335518D01*
X59209502Y-104215820D01*
X59150537Y-104105506D01*
X59120000Y-104068296D01*
X59120000Y-103608050D01*
X59140490Y-103400001D01*
X59118577Y-103177502D01*
X59053675Y-102963554D01*
X58948283Y-102766378D01*
X58806448Y-102593552D01*
X58633622Y-102451717D01*
X58436446Y-102346325D01*
X58222498Y-102281423D01*
X57999999Y-102259510D01*
X57777501Y-102281423D01*
X57563554Y-102346325D01*
X57366378Y-102451717D01*
X57236857Y-102558012D01*
X57221860Y-102573009D01*
X57178552Y-102608551D01*
X57036717Y-102781377D01*
X56980384Y-102886770D01*
X56931324Y-102978554D01*
X56866423Y-103192502D01*
X56844509Y-103415000D01*
X56850001Y-103470761D01*
X56850001Y-104068295D01*
X56819463Y-104105506D01*
X56760498Y-104215820D01*
X56724188Y-104335518D01*
X56711928Y-104460000D01*
X37288072Y-104460000D01*
X37275812Y-104335518D01*
X37239502Y-104215820D01*
X37180537Y-104105506D01*
X37150000Y-104068296D01*
X37150000Y-103470743D01*
X37155490Y-103414999D01*
X37150000Y-103359255D01*
X37150000Y-103359248D01*
X37133577Y-103192501D01*
X37068676Y-102978553D01*
X36963284Y-102781377D01*
X36821449Y-102608551D01*
X36778135Y-102573004D01*
X36763143Y-102558012D01*
X36633622Y-102451717D01*
X36436446Y-102346324D01*
X36222498Y-102281423D01*
X36000000Y-102259509D01*
X35777502Y-102281423D01*
X35563554Y-102346324D01*
X35366378Y-102451717D01*
X35193552Y-102593552D01*
X35051717Y-102766378D01*
X34946324Y-102963554D01*
X34881423Y-103177502D01*
X34859509Y-103400000D01*
X34880001Y-103608059D01*
X34880001Y-104068295D01*
X34849463Y-104105506D01*
X34790498Y-104215820D01*
X34754188Y-104335518D01*
X34741928Y-104460000D01*
X34660000Y-104460000D01*
X34660000Y-95279872D01*
X34765000Y-95279872D01*
X34765000Y-95720128D01*
X34850890Y-96151925D01*
X35019369Y-96558669D01*
X35263962Y-96924729D01*
X35575271Y-97236038D01*
X35941331Y-97480631D01*
X36348075Y-97649110D01*
X36779872Y-97735000D01*
X37220128Y-97735000D01*
X37651925Y-97649110D01*
X38058669Y-97480631D01*
X38424729Y-97236038D01*
X38736038Y-96924729D01*
X38980631Y-96558669D01*
X39149110Y-96151925D01*
X39235000Y-95720128D01*
X39235000Y-95279872D01*
X39149110Y-94848075D01*
X38980631Y-94441331D01*
X38736038Y-94075271D01*
X38424729Y-93763962D01*
X38104512Y-93550000D01*
X42511928Y-93550000D01*
X42511928Y-95250000D01*
X42524188Y-95374482D01*
X42560498Y-95494180D01*
X42619463Y-95604494D01*
X42698815Y-95701185D01*
X42795506Y-95780537D01*
X42905820Y-95839502D01*
X43025518Y-95875812D01*
X43150000Y-95888072D01*
X44850000Y-95888072D01*
X44974482Y-95875812D01*
X45094180Y-95839502D01*
X45204494Y-95780537D01*
X45301185Y-95701185D01*
X45380537Y-95604494D01*
X45439502Y-95494180D01*
X45461513Y-95421620D01*
X45593368Y-95553475D01*
X45836589Y-95715990D01*
X46106842Y-95827932D01*
X46393740Y-95885000D01*
X46686260Y-95885000D01*
X46973158Y-95827932D01*
X47243411Y-95715990D01*
X47486632Y-95553475D01*
X47693475Y-95346632D01*
X47815195Y-95164466D01*
X47884822Y-95281355D01*
X48079731Y-95497588D01*
X48313080Y-95671641D01*
X48575901Y-95796825D01*
X48723110Y-95841476D01*
X48953000Y-95720155D01*
X48953000Y-94527000D01*
X48933000Y-94527000D01*
X48933000Y-94273000D01*
X48953000Y-94273000D01*
X48953000Y-93079845D01*
X49207000Y-93079845D01*
X49207000Y-94273000D01*
X49227000Y-94273000D01*
X49227000Y-94527000D01*
X49207000Y-94527000D01*
X49207000Y-95720155D01*
X49436890Y-95841476D01*
X49584099Y-95796825D01*
X49846920Y-95671641D01*
X50080269Y-95497588D01*
X50275178Y-95281355D01*
X50344805Y-95164466D01*
X50466525Y-95346632D01*
X50673368Y-95553475D01*
X50916589Y-95715990D01*
X51186842Y-95827932D01*
X51473740Y-95885000D01*
X51766260Y-95885000D01*
X52053158Y-95827932D01*
X52323411Y-95715990D01*
X52566632Y-95553475D01*
X52773475Y-95346632D01*
X52914883Y-95135000D01*
X54272592Y-95135000D01*
X54427270Y-95199069D01*
X54607910Y-95235001D01*
X54773925Y-95235001D01*
X54765000Y-95279872D01*
X54765000Y-95720128D01*
X54850890Y-96151925D01*
X55019369Y-96558669D01*
X55263962Y-96924729D01*
X55575271Y-97236038D01*
X55941331Y-97480631D01*
X56348075Y-97649110D01*
X56779872Y-97735000D01*
X57220128Y-97735000D01*
X57651925Y-97649110D01*
X58058669Y-97480631D01*
X58424729Y-97236038D01*
X58736038Y-96924729D01*
X58980631Y-96558669D01*
X59149110Y-96151925D01*
X59235000Y-95720128D01*
X59235000Y-95279872D01*
X59149110Y-94848075D01*
X58980631Y-94441331D01*
X58736038Y-94075271D01*
X58424729Y-93763962D01*
X58058669Y-93519369D01*
X57651925Y-93350890D01*
X57220128Y-93265000D01*
X56779872Y-93265000D01*
X56348075Y-93350890D01*
X55941331Y-93519369D01*
X55575271Y-93763962D01*
X55509974Y-93829259D01*
X55426261Y-93703973D01*
X55296027Y-93573739D01*
X55142888Y-93471415D01*
X54972728Y-93400933D01*
X54792088Y-93365001D01*
X54607910Y-93365001D01*
X54427270Y-93400933D01*
X54257110Y-93471415D01*
X54103971Y-93573739D01*
X54012710Y-93665000D01*
X52914883Y-93665000D01*
X52773475Y-93453368D01*
X52566632Y-93246525D01*
X52323411Y-93084010D01*
X52053158Y-92972068D01*
X51766260Y-92915000D01*
X51473740Y-92915000D01*
X51186842Y-92972068D01*
X50916589Y-93084010D01*
X50673368Y-93246525D01*
X50466525Y-93453368D01*
X50344805Y-93635534D01*
X50275178Y-93518645D01*
X50080269Y-93302412D01*
X49846920Y-93128359D01*
X49584099Y-93003175D01*
X49436890Y-92958524D01*
X49207000Y-93079845D01*
X48953000Y-93079845D01*
X48723110Y-92958524D01*
X48575901Y-93003175D01*
X48313080Y-93128359D01*
X48079731Y-93302412D01*
X47884822Y-93518645D01*
X47815195Y-93635534D01*
X47693475Y-93453368D01*
X47486632Y-93246525D01*
X47243411Y-93084010D01*
X46973158Y-92972068D01*
X46686260Y-92915000D01*
X46393740Y-92915000D01*
X46106842Y-92972068D01*
X45836589Y-93084010D01*
X45593368Y-93246525D01*
X45461513Y-93378380D01*
X45439502Y-93305820D01*
X45380537Y-93195506D01*
X45301185Y-93098815D01*
X45204494Y-93019463D01*
X45094180Y-92960498D01*
X44974482Y-92924188D01*
X44850000Y-92911928D01*
X43150000Y-92911928D01*
X43025518Y-92924188D01*
X42905820Y-92960498D01*
X42795506Y-93019463D01*
X42698815Y-93098815D01*
X42619463Y-93195506D01*
X42560498Y-93305820D01*
X42524188Y-93425518D01*
X42511928Y-93550000D01*
X38104512Y-93550000D01*
X38058669Y-93519369D01*
X37651925Y-93350890D01*
X37220128Y-93265000D01*
X36779872Y-93265000D01*
X36348075Y-93350890D01*
X35941331Y-93519369D01*
X35575271Y-93763962D01*
X35263962Y-94075271D01*
X35019369Y-94441331D01*
X34850890Y-94848075D01*
X34765000Y-95279872D01*
X34660000Y-95279872D01*
X34660000Y-84207911D01*
X52665000Y-84207911D01*
X52665000Y-84392089D01*
X52700932Y-84572729D01*
X52771414Y-84742889D01*
X52873738Y-84896028D01*
X53003972Y-85026262D01*
X53157111Y-85128586D01*
X53327271Y-85199068D01*
X53507911Y-85235000D01*
X53692089Y-85235000D01*
X53872729Y-85199068D01*
X54042889Y-85128586D01*
X54182951Y-85035000D01*
X55117049Y-85035000D01*
X55257111Y-85128586D01*
X55427271Y-85199068D01*
X55607911Y-85235000D01*
X55792089Y-85235000D01*
X55972729Y-85199068D01*
X56142889Y-85128586D01*
X56296028Y-85026262D01*
X56426262Y-84896028D01*
X56528586Y-84742889D01*
X56599068Y-84572729D01*
X56635000Y-84392089D01*
X56635000Y-84207911D01*
X56599068Y-84027271D01*
X56528586Y-83857111D01*
X56426262Y-83703972D01*
X56296028Y-83573738D01*
X56142889Y-83471414D01*
X55972729Y-83400932D01*
X55792089Y-83365000D01*
X55607911Y-83365000D01*
X55427271Y-83400932D01*
X55257111Y-83471414D01*
X55117049Y-83565000D01*
X54182951Y-83565000D01*
X54042889Y-83471414D01*
X53872729Y-83400932D01*
X53692089Y-83365000D01*
X53507911Y-83365000D01*
X53327271Y-83400932D01*
X53157111Y-83471414D01*
X53003972Y-83573738D01*
X52873738Y-83703972D01*
X52771414Y-83857111D01*
X52700932Y-84027271D01*
X52665000Y-84207911D01*
X34660000Y-84207911D01*
X34660000Y-80107911D01*
X52365000Y-80107911D01*
X52365000Y-80292089D01*
X52400932Y-80472729D01*
X52471414Y-80642889D01*
X52573738Y-80796028D01*
X52703972Y-80926262D01*
X52857111Y-81028586D01*
X53027271Y-81099068D01*
X53207911Y-81135000D01*
X53392089Y-81135000D01*
X53572729Y-81099068D01*
X53742889Y-81028586D01*
X53882951Y-80935000D01*
X55672615Y-80935000D01*
X55827290Y-80999068D01*
X56007930Y-81035000D01*
X56192108Y-81035000D01*
X56372748Y-80999068D01*
X56542908Y-80928586D01*
X56696047Y-80826262D01*
X56826281Y-80696028D01*
X56928605Y-80542889D01*
X56999087Y-80372729D01*
X57035019Y-80192089D01*
X57035019Y-80007911D01*
X56999087Y-79827271D01*
X56960867Y-79735000D01*
X56992089Y-79735000D01*
X57172729Y-79699068D01*
X57342889Y-79628586D01*
X57496028Y-79526262D01*
X57626262Y-79396028D01*
X57728586Y-79242889D01*
X57799068Y-79072729D01*
X57835000Y-78892089D01*
X57835000Y-78707911D01*
X57799068Y-78527271D01*
X57728586Y-78357111D01*
X57626262Y-78203972D01*
X57496028Y-78073738D01*
X57342889Y-77971414D01*
X57172729Y-77900932D01*
X56992089Y-77865000D01*
X56807911Y-77865000D01*
X56627271Y-77900932D01*
X56472596Y-77965000D01*
X54182951Y-77965000D01*
X54042889Y-77871414D01*
X53872729Y-77800932D01*
X53692089Y-77765000D01*
X53507911Y-77765000D01*
X53327271Y-77800932D01*
X53157111Y-77871414D01*
X53003972Y-77973738D01*
X52873738Y-78103972D01*
X52771414Y-78257111D01*
X52700932Y-78427271D01*
X52665000Y-78607911D01*
X52665000Y-78792089D01*
X52700932Y-78972729D01*
X52771414Y-79142889D01*
X52873738Y-79296028D01*
X52922174Y-79344464D01*
X52857111Y-79371414D01*
X52703972Y-79473738D01*
X52573738Y-79603972D01*
X52471414Y-79757111D01*
X52400932Y-79927271D01*
X52365000Y-80107911D01*
X34660000Y-80107911D01*
X34660000Y-77815010D01*
X34705820Y-77839502D01*
X34825518Y-77875812D01*
X34950000Y-77888072D01*
X36650000Y-77888072D01*
X36774482Y-77875812D01*
X36894180Y-77839502D01*
X37004494Y-77780537D01*
X37101185Y-77701185D01*
X37180537Y-77604494D01*
X37239502Y-77494180D01*
X37275812Y-77374482D01*
X37288072Y-77250000D01*
X37288072Y-75550000D01*
X37275812Y-75425518D01*
X37239502Y-75305820D01*
X37180537Y-75195506D01*
X37101185Y-75098815D01*
X37004494Y-75019463D01*
X36894180Y-74960498D01*
X36821620Y-74938487D01*
X36953475Y-74806632D01*
X37115990Y-74563411D01*
X37227932Y-74293158D01*
X37285000Y-74006260D01*
X37285000Y-73907911D01*
X39565000Y-73907911D01*
X39565000Y-74092089D01*
X39600932Y-74272729D01*
X39671414Y-74442889D01*
X39773738Y-74596028D01*
X39903972Y-74726262D01*
X40057111Y-74828586D01*
X40227271Y-74899068D01*
X40407911Y-74935000D01*
X40592089Y-74935000D01*
X40772729Y-74899068D01*
X40942889Y-74828586D01*
X41082951Y-74735000D01*
X42117049Y-74735000D01*
X42257111Y-74828586D01*
X42427271Y-74899068D01*
X42607911Y-74935000D01*
X42792089Y-74935000D01*
X42972729Y-74899068D01*
X43142889Y-74828586D01*
X43296028Y-74726262D01*
X43426262Y-74596028D01*
X43528586Y-74442889D01*
X43599068Y-74272729D01*
X43635000Y-74092089D01*
X43635000Y-73907911D01*
X43599068Y-73727271D01*
X43528586Y-73557111D01*
X43426262Y-73403972D01*
X43296028Y-73273738D01*
X43142889Y-73171414D01*
X42972729Y-73100932D01*
X42792089Y-73065000D01*
X42607911Y-73065000D01*
X42427271Y-73100932D01*
X42257111Y-73171414D01*
X42117049Y-73265000D01*
X41082951Y-73265000D01*
X40942889Y-73171414D01*
X40772729Y-73100932D01*
X40592089Y-73065000D01*
X40407911Y-73065000D01*
X40227271Y-73100932D01*
X40057111Y-73171414D01*
X39903972Y-73273738D01*
X39773738Y-73403972D01*
X39671414Y-73557111D01*
X39600932Y-73727271D01*
X39565000Y-73907911D01*
X37285000Y-73907911D01*
X37285000Y-73713740D01*
X37227932Y-73426842D01*
X37115990Y-73156589D01*
X36953475Y-72913368D01*
X36746632Y-72706525D01*
X36503411Y-72544010D01*
X36233158Y-72432068D01*
X35946260Y-72375000D01*
X35653740Y-72375000D01*
X35366842Y-72432068D01*
X35096589Y-72544010D01*
X34853368Y-72706525D01*
X34660000Y-72899893D01*
X34660000Y-65297950D01*
X39763008Y-65297950D01*
X39775268Y-65422432D01*
X39811578Y-65542130D01*
X39870543Y-65652444D01*
X39949895Y-65749135D01*
X40046586Y-65828487D01*
X40156900Y-65887452D01*
X40276598Y-65923762D01*
X40401080Y-65936022D01*
X40714770Y-65932950D01*
X40873520Y-65774200D01*
X40873520Y-63925080D01*
X41127520Y-63925080D01*
X41127520Y-65774200D01*
X41286270Y-65932950D01*
X41599960Y-65936022D01*
X41724442Y-65923762D01*
X41844140Y-65887452D01*
X41954454Y-65828487D01*
X42051145Y-65749135D01*
X42130497Y-65652444D01*
X42189462Y-65542130D01*
X42225772Y-65422432D01*
X42238032Y-65297950D01*
X42234960Y-64083830D01*
X42076210Y-63925080D01*
X41127520Y-63925080D01*
X40873520Y-63925080D01*
X39924830Y-63925080D01*
X39766080Y-64083830D01*
X39763008Y-65297950D01*
X34660000Y-65297950D01*
X34660000Y-62298210D01*
X39763008Y-62298210D01*
X39766080Y-63512330D01*
X39924830Y-63671080D01*
X40873520Y-63671080D01*
X40873520Y-61821960D01*
X41127520Y-61821960D01*
X41127520Y-63671080D01*
X42076210Y-63671080D01*
X42234960Y-63512330D01*
X42238032Y-62298210D01*
X42225772Y-62173728D01*
X42189462Y-62054030D01*
X42130497Y-61943716D01*
X42051145Y-61847025D01*
X41954454Y-61767673D01*
X41844140Y-61708708D01*
X41724442Y-61672398D01*
X41599960Y-61660138D01*
X41286270Y-61663210D01*
X41127520Y-61821960D01*
X40873520Y-61821960D01*
X40714770Y-61663210D01*
X40401080Y-61660138D01*
X40276598Y-61672398D01*
X40156900Y-61708708D01*
X40046586Y-61767673D01*
X39949895Y-61847025D01*
X39870543Y-61943716D01*
X39811578Y-62054030D01*
X39775268Y-62173728D01*
X39763008Y-62298210D01*
X34660000Y-62298210D01*
X34660000Y-46279872D01*
X34765000Y-46279872D01*
X34765000Y-46720128D01*
X34850890Y-47151925D01*
X35019369Y-47558669D01*
X35263962Y-47924729D01*
X35575271Y-48236038D01*
X35941331Y-48480631D01*
X36348075Y-48649110D01*
X36779872Y-48735000D01*
X37220128Y-48735000D01*
X37651925Y-48649110D01*
X38058669Y-48480631D01*
X38424729Y-48236038D01*
X38736038Y-47924729D01*
X38980631Y-47558669D01*
X39086926Y-47302050D01*
X39763008Y-47302050D01*
X39763008Y-50301790D01*
X39775268Y-50426272D01*
X39811578Y-50545970D01*
X39870543Y-50656284D01*
X39949895Y-50752975D01*
X40046586Y-50832327D01*
X40156900Y-50891292D01*
X40276598Y-50927602D01*
X40401080Y-50939862D01*
X41599960Y-50939862D01*
X41724442Y-50927602D01*
X41844140Y-50891292D01*
X41954454Y-50832327D01*
X41990000Y-50803155D01*
X41990000Y-51172376D01*
X41965000Y-51298061D01*
X41965000Y-51501939D01*
X42004774Y-51701898D01*
X42082795Y-51890256D01*
X42196063Y-52059774D01*
X42340226Y-52203937D01*
X42509744Y-52317205D01*
X42698102Y-52395226D01*
X42898061Y-52435000D01*
X43101939Y-52435000D01*
X43301898Y-52395226D01*
X43490256Y-52317205D01*
X43659774Y-52203937D01*
X43803937Y-52059774D01*
X43917205Y-51890256D01*
X43995226Y-51701898D01*
X44035000Y-51501939D01*
X44035000Y-51298061D01*
X44010000Y-51172377D01*
X44010000Y-50801891D01*
X44047086Y-50832327D01*
X44157400Y-50891292D01*
X44277098Y-50927602D01*
X44401580Y-50939862D01*
X44715270Y-50936790D01*
X44874020Y-50778040D01*
X44874020Y-48928920D01*
X45128020Y-48928920D01*
X45128020Y-50778040D01*
X45286770Y-50936790D01*
X45600460Y-50939862D01*
X45724942Y-50927602D01*
X45844640Y-50891292D01*
X45954954Y-50832327D01*
X46051645Y-50752975D01*
X46130997Y-50656284D01*
X46189962Y-50545970D01*
X46226272Y-50426272D01*
X46238532Y-50301790D01*
X46235460Y-49087670D01*
X46076710Y-48928920D01*
X45128020Y-48928920D01*
X44874020Y-48928920D01*
X44854020Y-48928920D01*
X44854020Y-48674920D01*
X44874020Y-48674920D01*
X44874020Y-46825800D01*
X45128020Y-46825800D01*
X45128020Y-48674920D01*
X46076710Y-48674920D01*
X46235460Y-48516170D01*
X46238532Y-47302050D01*
X46226272Y-47177568D01*
X46189962Y-47057870D01*
X46130997Y-46947556D01*
X46051645Y-46850865D01*
X45954954Y-46771513D01*
X45844640Y-46712548D01*
X45724942Y-46676238D01*
X45600460Y-46663978D01*
X45286770Y-46667050D01*
X45128020Y-46825800D01*
X44874020Y-46825800D01*
X44715270Y-46667050D01*
X44401580Y-46663978D01*
X44277098Y-46676238D01*
X44157400Y-46712548D01*
X44047086Y-46771513D01*
X44001530Y-46808900D01*
X43955974Y-46771513D01*
X43845660Y-46712548D01*
X43725962Y-46676238D01*
X43601480Y-46663978D01*
X42402600Y-46663978D01*
X42278118Y-46676238D01*
X42158420Y-46712548D01*
X42135520Y-46724788D01*
X42135520Y-46644768D01*
X42119097Y-46478021D01*
X42054196Y-46264073D01*
X41948804Y-46066897D01*
X41806969Y-45894071D01*
X41634143Y-45752236D01*
X41436967Y-45646844D01*
X41223019Y-45581943D01*
X41000520Y-45560029D01*
X40778022Y-45581943D01*
X40564074Y-45646844D01*
X40366898Y-45752236D01*
X40194072Y-45894071D01*
X40052237Y-46066897D01*
X39946845Y-46264073D01*
X39881944Y-46478021D01*
X39865521Y-46644768D01*
X39865521Y-46956952D01*
X39811578Y-47057870D01*
X39775268Y-47177568D01*
X39763008Y-47302050D01*
X39086926Y-47302050D01*
X39149110Y-47151925D01*
X39235000Y-46720128D01*
X39235000Y-46279872D01*
X39149110Y-45848075D01*
X38980631Y-45441331D01*
X38736038Y-45075271D01*
X38424729Y-44763962D01*
X38058669Y-44519369D01*
X37651925Y-44350890D01*
X37220128Y-44265000D01*
X36779872Y-44265000D01*
X36348075Y-44350890D01*
X35941331Y-44519369D01*
X35575271Y-44763962D01*
X35263962Y-45075271D01*
X35019369Y-45441331D01*
X34850890Y-45848075D01*
X34765000Y-46279872D01*
X34660000Y-46279872D01*
X34660000Y-43127000D01*
X57873000Y-43127000D01*
X57873000Y-43647993D01*
G37*
G04 #@! TD.AperFunction*
M02*
