G04 #@! TF.GenerationSoftware,KiCad,Pcbnew,5.1.5+dfsg1-2build2*
G04 #@! TF.CreationDate,2020-10-16T19:58:43-06:00*
G04 #@! TF.ProjectId,remote,72656d6f-7465-42e6-9b69-6361645f7063,rev?*
G04 #@! TF.SameCoordinates,Original*
G04 #@! TF.FileFunction,Paste,Bot*
G04 #@! TF.FilePolarity,Positive*
%FSLAX46Y46*%
G04 Gerber Fmt 4.6, Leading zero omitted, Abs format (unit mm)*
G04 Created by KiCad (PCBNEW 5.1.5+dfsg1-2build2) date 2020-10-16 19:58:43*
%MOMM*%
%LPD*%
G04 APERTURE LIST*
%ADD10C,0.100000*%
%ADD11R,1.198880X2.999740*%
%ADD12R,6.000000X5.500000*%
G04 APERTURE END LIST*
D10*
G36*
X43085779Y-43776144D02*
G01*
X43108834Y-43779563D01*
X43131443Y-43785227D01*
X43153387Y-43793079D01*
X43174457Y-43803044D01*
X43194448Y-43815026D01*
X43213168Y-43828910D01*
X43230438Y-43844562D01*
X43246090Y-43861832D01*
X43259974Y-43880552D01*
X43271956Y-43900543D01*
X43281921Y-43921613D01*
X43289773Y-43943557D01*
X43295437Y-43966166D01*
X43298856Y-43989221D01*
X43300000Y-44012500D01*
X43300000Y-44487500D01*
X43298856Y-44510779D01*
X43295437Y-44533834D01*
X43289773Y-44556443D01*
X43281921Y-44578387D01*
X43271956Y-44599457D01*
X43259974Y-44619448D01*
X43246090Y-44638168D01*
X43230438Y-44655438D01*
X43213168Y-44671090D01*
X43194448Y-44684974D01*
X43174457Y-44696956D01*
X43153387Y-44706921D01*
X43131443Y-44714773D01*
X43108834Y-44720437D01*
X43085779Y-44723856D01*
X43062500Y-44725000D01*
X42487500Y-44725000D01*
X42464221Y-44723856D01*
X42441166Y-44720437D01*
X42418557Y-44714773D01*
X42396613Y-44706921D01*
X42375543Y-44696956D01*
X42355552Y-44684974D01*
X42336832Y-44671090D01*
X42319562Y-44655438D01*
X42303910Y-44638168D01*
X42290026Y-44619448D01*
X42278044Y-44599457D01*
X42268079Y-44578387D01*
X42260227Y-44556443D01*
X42254563Y-44533834D01*
X42251144Y-44510779D01*
X42250000Y-44487500D01*
X42250000Y-44012500D01*
X42251144Y-43989221D01*
X42254563Y-43966166D01*
X42260227Y-43943557D01*
X42268079Y-43921613D01*
X42278044Y-43900543D01*
X42290026Y-43880552D01*
X42303910Y-43861832D01*
X42319562Y-43844562D01*
X42336832Y-43828910D01*
X42355552Y-43815026D01*
X42375543Y-43803044D01*
X42396613Y-43793079D01*
X42418557Y-43785227D01*
X42441166Y-43779563D01*
X42464221Y-43776144D01*
X42487500Y-43775000D01*
X43062500Y-43775000D01*
X43085779Y-43776144D01*
G37*
G36*
X41335779Y-43776144D02*
G01*
X41358834Y-43779563D01*
X41381443Y-43785227D01*
X41403387Y-43793079D01*
X41424457Y-43803044D01*
X41444448Y-43815026D01*
X41463168Y-43828910D01*
X41480438Y-43844562D01*
X41496090Y-43861832D01*
X41509974Y-43880552D01*
X41521956Y-43900543D01*
X41531921Y-43921613D01*
X41539773Y-43943557D01*
X41545437Y-43966166D01*
X41548856Y-43989221D01*
X41550000Y-44012500D01*
X41550000Y-44487500D01*
X41548856Y-44510779D01*
X41545437Y-44533834D01*
X41539773Y-44556443D01*
X41531921Y-44578387D01*
X41521956Y-44599457D01*
X41509974Y-44619448D01*
X41496090Y-44638168D01*
X41480438Y-44655438D01*
X41463168Y-44671090D01*
X41444448Y-44684974D01*
X41424457Y-44696956D01*
X41403387Y-44706921D01*
X41381443Y-44714773D01*
X41358834Y-44720437D01*
X41335779Y-44723856D01*
X41312500Y-44725000D01*
X40737500Y-44725000D01*
X40714221Y-44723856D01*
X40691166Y-44720437D01*
X40668557Y-44714773D01*
X40646613Y-44706921D01*
X40625543Y-44696956D01*
X40605552Y-44684974D01*
X40586832Y-44671090D01*
X40569562Y-44655438D01*
X40553910Y-44638168D01*
X40540026Y-44619448D01*
X40528044Y-44599457D01*
X40518079Y-44578387D01*
X40510227Y-44556443D01*
X40504563Y-44533834D01*
X40501144Y-44510779D01*
X40500000Y-44487500D01*
X40500000Y-44012500D01*
X40501144Y-43989221D01*
X40504563Y-43966166D01*
X40510227Y-43943557D01*
X40518079Y-43921613D01*
X40528044Y-43900543D01*
X40540026Y-43880552D01*
X40553910Y-43861832D01*
X40569562Y-43844562D01*
X40586832Y-43828910D01*
X40605552Y-43815026D01*
X40625543Y-43803044D01*
X40646613Y-43793079D01*
X40668557Y-43785227D01*
X40691166Y-43779563D01*
X40714221Y-43776144D01*
X40737500Y-43775000D01*
X41312500Y-43775000D01*
X41335779Y-43776144D01*
G37*
G36*
X41260779Y-47601144D02*
G01*
X41283834Y-47604563D01*
X41306443Y-47610227D01*
X41328387Y-47618079D01*
X41349457Y-47628044D01*
X41369448Y-47640026D01*
X41388168Y-47653910D01*
X41405438Y-47669562D01*
X41421090Y-47686832D01*
X41434974Y-47705552D01*
X41446956Y-47725543D01*
X41456921Y-47746613D01*
X41464773Y-47768557D01*
X41470437Y-47791166D01*
X41473856Y-47814221D01*
X41475000Y-47837500D01*
X41475000Y-48412500D01*
X41473856Y-48435779D01*
X41470437Y-48458834D01*
X41464773Y-48481443D01*
X41456921Y-48503387D01*
X41446956Y-48524457D01*
X41434974Y-48544448D01*
X41421090Y-48563168D01*
X41405438Y-48580438D01*
X41388168Y-48596090D01*
X41369448Y-48609974D01*
X41349457Y-48621956D01*
X41328387Y-48631921D01*
X41306443Y-48639773D01*
X41283834Y-48645437D01*
X41260779Y-48648856D01*
X41237500Y-48650000D01*
X40762500Y-48650000D01*
X40739221Y-48648856D01*
X40716166Y-48645437D01*
X40693557Y-48639773D01*
X40671613Y-48631921D01*
X40650543Y-48621956D01*
X40630552Y-48609974D01*
X40611832Y-48596090D01*
X40594562Y-48580438D01*
X40578910Y-48563168D01*
X40565026Y-48544448D01*
X40553044Y-48524457D01*
X40543079Y-48503387D01*
X40535227Y-48481443D01*
X40529563Y-48458834D01*
X40526144Y-48435779D01*
X40525000Y-48412500D01*
X40525000Y-47837500D01*
X40526144Y-47814221D01*
X40529563Y-47791166D01*
X40535227Y-47768557D01*
X40543079Y-47746613D01*
X40553044Y-47725543D01*
X40565026Y-47705552D01*
X40578910Y-47686832D01*
X40594562Y-47669562D01*
X40611832Y-47653910D01*
X40630552Y-47640026D01*
X40650543Y-47628044D01*
X40671613Y-47618079D01*
X40693557Y-47610227D01*
X40716166Y-47604563D01*
X40739221Y-47601144D01*
X40762500Y-47600000D01*
X41237500Y-47600000D01*
X41260779Y-47601144D01*
G37*
G36*
X41260779Y-45851144D02*
G01*
X41283834Y-45854563D01*
X41306443Y-45860227D01*
X41328387Y-45868079D01*
X41349457Y-45878044D01*
X41369448Y-45890026D01*
X41388168Y-45903910D01*
X41405438Y-45919562D01*
X41421090Y-45936832D01*
X41434974Y-45955552D01*
X41446956Y-45975543D01*
X41456921Y-45996613D01*
X41464773Y-46018557D01*
X41470437Y-46041166D01*
X41473856Y-46064221D01*
X41475000Y-46087500D01*
X41475000Y-46662500D01*
X41473856Y-46685779D01*
X41470437Y-46708834D01*
X41464773Y-46731443D01*
X41456921Y-46753387D01*
X41446956Y-46774457D01*
X41434974Y-46794448D01*
X41421090Y-46813168D01*
X41405438Y-46830438D01*
X41388168Y-46846090D01*
X41369448Y-46859974D01*
X41349457Y-46871956D01*
X41328387Y-46881921D01*
X41306443Y-46889773D01*
X41283834Y-46895437D01*
X41260779Y-46898856D01*
X41237500Y-46900000D01*
X40762500Y-46900000D01*
X40739221Y-46898856D01*
X40716166Y-46895437D01*
X40693557Y-46889773D01*
X40671613Y-46881921D01*
X40650543Y-46871956D01*
X40630552Y-46859974D01*
X40611832Y-46846090D01*
X40594562Y-46830438D01*
X40578910Y-46813168D01*
X40565026Y-46794448D01*
X40553044Y-46774457D01*
X40543079Y-46753387D01*
X40535227Y-46731443D01*
X40529563Y-46708834D01*
X40526144Y-46685779D01*
X40525000Y-46662500D01*
X40525000Y-46087500D01*
X40526144Y-46064221D01*
X40529563Y-46041166D01*
X40535227Y-46018557D01*
X40543079Y-45996613D01*
X40553044Y-45975543D01*
X40565026Y-45955552D01*
X40578910Y-45936832D01*
X40594562Y-45919562D01*
X40611832Y-45903910D01*
X40630552Y-45890026D01*
X40650543Y-45878044D01*
X40671613Y-45868079D01*
X40693557Y-45860227D01*
X40716166Y-45854563D01*
X40739221Y-45851144D01*
X40762500Y-45850000D01*
X41237500Y-45850000D01*
X41260779Y-45851144D01*
G37*
D11*
X41000520Y-66748080D03*
X50997960Y-66748080D03*
X52999480Y-66748080D03*
X52999480Y-51751920D03*
X50997960Y-51751920D03*
X48998980Y-51751920D03*
X45001020Y-51751920D03*
X43002040Y-51751920D03*
X41000520Y-51751920D03*
D12*
X64300000Y-104000000D03*
X33700000Y-104000000D03*
M02*
