G04 #@! TF.GenerationSoftware,KiCad,Pcbnew,5.1.8-db9833491~87~ubuntu20.04.1*
G04 #@! TF.CreationDate,2020-11-19T21:04:05-07:00*
G04 #@! TF.ProjectId,remote,72656d6f-7465-42e6-9b69-6361645f7063,rev?*
G04 #@! TF.SameCoordinates,Original*
G04 #@! TF.FileFunction,Copper,L1,Top*
G04 #@! TF.FilePolarity,Positive*
%FSLAX46Y46*%
G04 Gerber Fmt 4.6, Leading zero omitted, Abs format (unit mm)*
G04 Created by KiCad (PCBNEW 5.1.8-db9833491~87~ubuntu20.04.1) date 2020-11-19 21:04:05*
%MOMM*%
%LPD*%
G01*
G04 APERTURE LIST*
G04 #@! TA.AperFunction,ComponentPad*
%ADD10O,1.700000X1.700000*%
G04 #@! TD*
G04 #@! TA.AperFunction,ComponentPad*
%ADD11R,1.700000X1.700000*%
G04 #@! TD*
G04 #@! TA.AperFunction,SMDPad,CuDef*
%ADD12R,0.450000X1.450000*%
G04 #@! TD*
G04 #@! TA.AperFunction,SMDPad,CuDef*
%ADD13R,2.000000X1.500000*%
G04 #@! TD*
G04 #@! TA.AperFunction,ViaPad*
%ADD14C,1.000000*%
G04 #@! TD*
G04 #@! TA.AperFunction,ViaPad*
%ADD15C,0.600000*%
G04 #@! TD*
G04 #@! TA.AperFunction,ViaPad*
%ADD16C,0.800000*%
G04 #@! TD*
G04 #@! TA.AperFunction,Conductor*
%ADD17C,0.200000*%
G04 #@! TD*
G04 #@! TA.AperFunction,Conductor*
%ADD18C,1.000000*%
G04 #@! TD*
G04 #@! TA.AperFunction,Conductor*
%ADD19C,0.250000*%
G04 #@! TD*
G04 #@! TA.AperFunction,Conductor*
%ADD20C,0.750000*%
G04 #@! TD*
G04 #@! TA.AperFunction,Conductor*
%ADD21C,0.254000*%
G04 #@! TD*
G04 #@! TA.AperFunction,Conductor*
%ADD22C,0.100000*%
G04 #@! TD*
G04 APERTURE END LIST*
G04 #@! TA.AperFunction,SMDPad,CuDef*
G36*
G01*
X35640000Y-81785000D02*
X35640000Y-81415000D01*
G75*
G02*
X35775000Y-81280000I135000J0D01*
G01*
X36045000Y-81280000D01*
G75*
G02*
X36180000Y-81415000I0J-135000D01*
G01*
X36180000Y-81785000D01*
G75*
G02*
X36045000Y-81920000I-135000J0D01*
G01*
X35775000Y-81920000D01*
G75*
G02*
X35640000Y-81785000I0J135000D01*
G01*
G37*
G04 #@! TD.AperFunction*
G04 #@! TA.AperFunction,SMDPad,CuDef*
G36*
G01*
X34620000Y-81785000D02*
X34620000Y-81415000D01*
G75*
G02*
X34755000Y-81280000I135000J0D01*
G01*
X35025000Y-81280000D01*
G75*
G02*
X35160000Y-81415000I0J-135000D01*
G01*
X35160000Y-81785000D01*
G75*
G02*
X35025000Y-81920000I-135000J0D01*
G01*
X34755000Y-81920000D01*
G75*
G02*
X34620000Y-81785000I0J135000D01*
G01*
G37*
G04 #@! TD.AperFunction*
G04 #@! TA.AperFunction,SMDPad,CuDef*
G36*
G01*
X52850000Y-51015000D02*
X52850000Y-51385000D01*
G75*
G02*
X52715000Y-51520000I-135000J0D01*
G01*
X52445000Y-51520000D01*
G75*
G02*
X52310000Y-51385000I0J135000D01*
G01*
X52310000Y-51015000D01*
G75*
G02*
X52445000Y-50880000I135000J0D01*
G01*
X52715000Y-50880000D01*
G75*
G02*
X52850000Y-51015000I0J-135000D01*
G01*
G37*
G04 #@! TD.AperFunction*
G04 #@! TA.AperFunction,SMDPad,CuDef*
G36*
G01*
X53870000Y-51015000D02*
X53870000Y-51385000D01*
G75*
G02*
X53735000Y-51520000I-135000J0D01*
G01*
X53465000Y-51520000D01*
G75*
G02*
X53330000Y-51385000I0J135000D01*
G01*
X53330000Y-51015000D01*
G75*
G02*
X53465000Y-50880000I135000J0D01*
G01*
X53735000Y-50880000D01*
G75*
G02*
X53870000Y-51015000I0J-135000D01*
G01*
G37*
G04 #@! TD.AperFunction*
G04 #@! TA.AperFunction,SMDPad,CuDef*
G36*
G01*
X52560000Y-81015000D02*
X52560000Y-81385000D01*
G75*
G02*
X52425000Y-81520000I-135000J0D01*
G01*
X52155000Y-81520000D01*
G75*
G02*
X52020000Y-81385000I0J135000D01*
G01*
X52020000Y-81015000D01*
G75*
G02*
X52155000Y-80880000I135000J0D01*
G01*
X52425000Y-80880000D01*
G75*
G02*
X52560000Y-81015000I0J-135000D01*
G01*
G37*
G04 #@! TD.AperFunction*
G04 #@! TA.AperFunction,SMDPad,CuDef*
G36*
G01*
X53580000Y-81015000D02*
X53580000Y-81385000D01*
G75*
G02*
X53445000Y-81520000I-135000J0D01*
G01*
X53175000Y-81520000D01*
G75*
G02*
X53040000Y-81385000I0J135000D01*
G01*
X53040000Y-81015000D01*
G75*
G02*
X53175000Y-80880000I135000J0D01*
G01*
X53445000Y-80880000D01*
G75*
G02*
X53580000Y-81015000I0J-135000D01*
G01*
G37*
G04 #@! TD.AperFunction*
G04 #@! TA.AperFunction,SMDPad,CuDef*
G36*
G01*
X52760000Y-106015000D02*
X52760000Y-106385000D01*
G75*
G02*
X52625000Y-106520000I-135000J0D01*
G01*
X52355000Y-106520000D01*
G75*
G02*
X52220000Y-106385000I0J135000D01*
G01*
X52220000Y-106015000D01*
G75*
G02*
X52355000Y-105880000I135000J0D01*
G01*
X52625000Y-105880000D01*
G75*
G02*
X52760000Y-106015000I0J-135000D01*
G01*
G37*
G04 #@! TD.AperFunction*
G04 #@! TA.AperFunction,SMDPad,CuDef*
G36*
G01*
X53780000Y-106015000D02*
X53780000Y-106385000D01*
G75*
G02*
X53645000Y-106520000I-135000J0D01*
G01*
X53375000Y-106520000D01*
G75*
G02*
X53240000Y-106385000I0J135000D01*
G01*
X53240000Y-106015000D01*
G75*
G02*
X53375000Y-105880000I135000J0D01*
G01*
X53645000Y-105880000D01*
G75*
G02*
X53780000Y-106015000I0J-135000D01*
G01*
G37*
G04 #@! TD.AperFunction*
D10*
X35800000Y-71320000D03*
X35800000Y-73860000D03*
D11*
X35800000Y-76400000D03*
G04 #@! TA.AperFunction,SMDPad,CuDef*
G36*
G01*
X54800000Y-67630000D02*
X54800000Y-67970000D01*
G75*
G02*
X54660000Y-68110000I-140000J0D01*
G01*
X54380000Y-68110000D01*
G75*
G02*
X54240000Y-67970000I0J140000D01*
G01*
X54240000Y-67630000D01*
G75*
G02*
X54380000Y-67490000I140000J0D01*
G01*
X54660000Y-67490000D01*
G75*
G02*
X54800000Y-67630000I0J-140000D01*
G01*
G37*
G04 #@! TD.AperFunction*
G04 #@! TA.AperFunction,SMDPad,CuDef*
G36*
G01*
X55760000Y-67630000D02*
X55760000Y-67970000D01*
G75*
G02*
X55620000Y-68110000I-140000J0D01*
G01*
X55340000Y-68110000D01*
G75*
G02*
X55200000Y-67970000I0J140000D01*
G01*
X55200000Y-67630000D01*
G75*
G02*
X55340000Y-67490000I140000J0D01*
G01*
X55620000Y-67490000D01*
G75*
G02*
X55760000Y-67630000I0J-140000D01*
G01*
G37*
G04 #@! TD.AperFunction*
G04 #@! TA.AperFunction,SMDPad,CuDef*
G36*
G01*
X41800000Y-51370000D02*
X41800000Y-51030000D01*
G75*
G02*
X41940000Y-50890000I140000J0D01*
G01*
X42220000Y-50890000D01*
G75*
G02*
X42360000Y-51030000I0J-140000D01*
G01*
X42360000Y-51370000D01*
G75*
G02*
X42220000Y-51510000I-140000J0D01*
G01*
X41940000Y-51510000D01*
G75*
G02*
X41800000Y-51370000I0J140000D01*
G01*
G37*
G04 #@! TD.AperFunction*
G04 #@! TA.AperFunction,SMDPad,CuDef*
G36*
G01*
X40840000Y-51370000D02*
X40840000Y-51030000D01*
G75*
G02*
X40980000Y-50890000I140000J0D01*
G01*
X41260000Y-50890000D01*
G75*
G02*
X41400000Y-51030000I0J-140000D01*
G01*
X41400000Y-51370000D01*
G75*
G02*
X41260000Y-51510000I-140000J0D01*
G01*
X40980000Y-51510000D01*
G75*
G02*
X40840000Y-51370000I0J140000D01*
G01*
G37*
G04 #@! TD.AperFunction*
G04 #@! TA.AperFunction,SMDPad,CuDef*
G36*
G01*
X58349999Y-80600000D02*
X59250001Y-80600000D01*
G75*
G02*
X59500000Y-80849999I0J-249999D01*
G01*
X59500000Y-81550001D01*
G75*
G02*
X59250001Y-81800000I-249999J0D01*
G01*
X58349999Y-81800000D01*
G75*
G02*
X58100000Y-81550001I0J249999D01*
G01*
X58100000Y-80849999D01*
G75*
G02*
X58349999Y-80600000I249999J0D01*
G01*
G37*
G04 #@! TD.AperFunction*
G04 #@! TA.AperFunction,SMDPad,CuDef*
G36*
G01*
X58349999Y-78600000D02*
X59250001Y-78600000D01*
G75*
G02*
X59500000Y-78849999I0J-249999D01*
G01*
X59500000Y-79550001D01*
G75*
G02*
X59250001Y-79800000I-249999J0D01*
G01*
X58349999Y-79800000D01*
G75*
G02*
X58100000Y-79550001I0J249999D01*
G01*
X58100000Y-78849999D01*
G75*
G02*
X58349999Y-78600000I249999J0D01*
G01*
G37*
G04 #@! TD.AperFunction*
G04 #@! TA.AperFunction,SMDPad,CuDef*
G36*
G01*
X42090000Y-43772500D02*
X42090000Y-43427500D01*
G75*
G02*
X42237500Y-43280000I147500J0D01*
G01*
X42532500Y-43280000D01*
G75*
G02*
X42680000Y-43427500I0J-147500D01*
G01*
X42680000Y-43772500D01*
G75*
G02*
X42532500Y-43920000I-147500J0D01*
G01*
X42237500Y-43920000D01*
G75*
G02*
X42090000Y-43772500I0J147500D01*
G01*
G37*
G04 #@! TD.AperFunction*
G04 #@! TA.AperFunction,SMDPad,CuDef*
G36*
G01*
X41120000Y-43772500D02*
X41120000Y-43427500D01*
G75*
G02*
X41267500Y-43280000I147500J0D01*
G01*
X41562500Y-43280000D01*
G75*
G02*
X41710000Y-43427500I0J-147500D01*
G01*
X41710000Y-43772500D01*
G75*
G02*
X41562500Y-43920000I-147500J0D01*
G01*
X41267500Y-43920000D01*
G75*
G02*
X41120000Y-43772500I0J147500D01*
G01*
G37*
G04 #@! TD.AperFunction*
G04 #@! TA.AperFunction,SMDPad,CuDef*
G36*
G01*
X53000000Y-82770000D02*
X53000000Y-82430000D01*
G75*
G02*
X53140000Y-82290000I140000J0D01*
G01*
X53420000Y-82290000D01*
G75*
G02*
X53560000Y-82430000I0J-140000D01*
G01*
X53560000Y-82770000D01*
G75*
G02*
X53420000Y-82910000I-140000J0D01*
G01*
X53140000Y-82910000D01*
G75*
G02*
X53000000Y-82770000I0J140000D01*
G01*
G37*
G04 #@! TD.AperFunction*
G04 #@! TA.AperFunction,SMDPad,CuDef*
G36*
G01*
X52040000Y-82770000D02*
X52040000Y-82430000D01*
G75*
G02*
X52180000Y-82290000I140000J0D01*
G01*
X52460000Y-82290000D01*
G75*
G02*
X52600000Y-82430000I0J-140000D01*
G01*
X52600000Y-82770000D01*
G75*
G02*
X52460000Y-82910000I-140000J0D01*
G01*
X52180000Y-82910000D01*
G75*
G02*
X52040000Y-82770000I0J140000D01*
G01*
G37*
G04 #@! TD.AperFunction*
D12*
X51875000Y-71050000D03*
X52525000Y-71050000D03*
X53175000Y-71050000D03*
X53825000Y-71050000D03*
X54475000Y-71050000D03*
X55125000Y-71050000D03*
X55775000Y-71050000D03*
X56425000Y-71050000D03*
X57075000Y-71050000D03*
X57725000Y-71050000D03*
X57725000Y-76950000D03*
X57075000Y-76950000D03*
X56425000Y-76950000D03*
X55775000Y-76950000D03*
X55125000Y-76950000D03*
X54475000Y-76950000D03*
X53825000Y-76950000D03*
X53175000Y-76950000D03*
X52525000Y-76950000D03*
X51875000Y-76950000D03*
D13*
X50500000Y-53250000D03*
X43500000Y-53250000D03*
X50500000Y-48750000D03*
X43500000Y-48750000D03*
X50500000Y-68250000D03*
X43500000Y-68250000D03*
X50500000Y-63750000D03*
X43500000Y-63750000D03*
X50500000Y-84250000D03*
X43500000Y-84250000D03*
X50500000Y-79750000D03*
X43500000Y-79750000D03*
X43500000Y-101750000D03*
X50500000Y-101750000D03*
X43500000Y-106250000D03*
X50500000Y-106250000D03*
G04 #@! TA.AperFunction,SMDPad,CuDef*
G36*
G01*
X53410000Y-63027500D02*
X53410000Y-63372500D01*
G75*
G02*
X53262500Y-63520000I-147500J0D01*
G01*
X52967500Y-63520000D01*
G75*
G02*
X52820000Y-63372500I0J147500D01*
G01*
X52820000Y-63027500D01*
G75*
G02*
X52967500Y-62880000I147500J0D01*
G01*
X53262500Y-62880000D01*
G75*
G02*
X53410000Y-63027500I0J-147500D01*
G01*
G37*
G04 #@! TD.AperFunction*
G04 #@! TA.AperFunction,SMDPad,CuDef*
G36*
G01*
X54380000Y-63027500D02*
X54380000Y-63372500D01*
G75*
G02*
X54232500Y-63520000I-147500J0D01*
G01*
X53937500Y-63520000D01*
G75*
G02*
X53790000Y-63372500I0J147500D01*
G01*
X53790000Y-63027500D01*
G75*
G02*
X53937500Y-62880000I147500J0D01*
G01*
X54232500Y-62880000D01*
G75*
G02*
X54380000Y-63027500I0J-147500D01*
G01*
G37*
G04 #@! TD.AperFunction*
G04 #@! TA.AperFunction,SMDPad,CuDef*
G36*
G01*
X50372500Y-76610000D02*
X50027500Y-76610000D01*
G75*
G02*
X49880000Y-76462500I0J147500D01*
G01*
X49880000Y-76167500D01*
G75*
G02*
X50027500Y-76020000I147500J0D01*
G01*
X50372500Y-76020000D01*
G75*
G02*
X50520000Y-76167500I0J-147500D01*
G01*
X50520000Y-76462500D01*
G75*
G02*
X50372500Y-76610000I-147500J0D01*
G01*
G37*
G04 #@! TD.AperFunction*
G04 #@! TA.AperFunction,SMDPad,CuDef*
G36*
G01*
X50372500Y-77580000D02*
X50027500Y-77580000D01*
G75*
G02*
X49880000Y-77432500I0J147500D01*
G01*
X49880000Y-77137500D01*
G75*
G02*
X50027500Y-76990000I147500J0D01*
G01*
X50372500Y-76990000D01*
G75*
G02*
X50520000Y-77137500I0J-147500D01*
G01*
X50520000Y-77432500D01*
G75*
G02*
X50372500Y-77580000I-147500J0D01*
G01*
G37*
G04 #@! TD.AperFunction*
D10*
X51620000Y-94400000D03*
X49080000Y-94400000D03*
X46540000Y-94400000D03*
D11*
X44000000Y-94400000D03*
G04 #@! TA.AperFunction,SMDPad,CuDef*
G36*
G01*
X36150000Y-80056250D02*
X36150000Y-79543750D01*
G75*
G02*
X36368750Y-79325000I218750J0D01*
G01*
X36806250Y-79325000D01*
G75*
G02*
X37025000Y-79543750I0J-218750D01*
G01*
X37025000Y-80056250D01*
G75*
G02*
X36806250Y-80275000I-218750J0D01*
G01*
X36368750Y-80275000D01*
G75*
G02*
X36150000Y-80056250I0J218750D01*
G01*
G37*
G04 #@! TD.AperFunction*
G04 #@! TA.AperFunction,SMDPad,CuDef*
G36*
G01*
X34575000Y-80056250D02*
X34575000Y-79543750D01*
G75*
G02*
X34793750Y-79325000I218750J0D01*
G01*
X35231250Y-79325000D01*
G75*
G02*
X35450000Y-79543750I0J-218750D01*
G01*
X35450000Y-80056250D01*
G75*
G02*
X35231250Y-80275000I-218750J0D01*
G01*
X34793750Y-80275000D01*
G75*
G02*
X34575000Y-80056250I0J218750D01*
G01*
G37*
G04 #@! TD.AperFunction*
G04 #@! TA.AperFunction,SMDPad,CuDef*
G36*
G01*
X53190000Y-52772500D02*
X53190000Y-52427500D01*
G75*
G02*
X53337500Y-52280000I147500J0D01*
G01*
X53632500Y-52280000D01*
G75*
G02*
X53780000Y-52427500I0J-147500D01*
G01*
X53780000Y-52772500D01*
G75*
G02*
X53632500Y-52920000I-147500J0D01*
G01*
X53337500Y-52920000D01*
G75*
G02*
X53190000Y-52772500I0J147500D01*
G01*
G37*
G04 #@! TD.AperFunction*
G04 #@! TA.AperFunction,SMDPad,CuDef*
G36*
G01*
X52220000Y-52772500D02*
X52220000Y-52427500D01*
G75*
G02*
X52367500Y-52280000I147500J0D01*
G01*
X52662500Y-52280000D01*
G75*
G02*
X52810000Y-52427500I0J-147500D01*
G01*
X52810000Y-52772500D01*
G75*
G02*
X52662500Y-52920000I-147500J0D01*
G01*
X52367500Y-52920000D01*
G75*
G02*
X52220000Y-52772500I0J147500D01*
G01*
G37*
G04 #@! TD.AperFunction*
G04 #@! TA.AperFunction,SMDPad,CuDef*
G36*
G01*
X53790000Y-64772500D02*
X53790000Y-64427500D01*
G75*
G02*
X53937500Y-64280000I147500J0D01*
G01*
X54232500Y-64280000D01*
G75*
G02*
X54380000Y-64427500I0J-147500D01*
G01*
X54380000Y-64772500D01*
G75*
G02*
X54232500Y-64920000I-147500J0D01*
G01*
X53937500Y-64920000D01*
G75*
G02*
X53790000Y-64772500I0J147500D01*
G01*
G37*
G04 #@! TD.AperFunction*
G04 #@! TA.AperFunction,SMDPad,CuDef*
G36*
G01*
X52820000Y-64772500D02*
X52820000Y-64427500D01*
G75*
G02*
X52967500Y-64280000I147500J0D01*
G01*
X53262500Y-64280000D01*
G75*
G02*
X53410000Y-64427500I0J-147500D01*
G01*
X53410000Y-64772500D01*
G75*
G02*
X53262500Y-64920000I-147500J0D01*
G01*
X52967500Y-64920000D01*
G75*
G02*
X52820000Y-64772500I0J147500D01*
G01*
G37*
G04 #@! TD.AperFunction*
G04 #@! TA.AperFunction,SMDPad,CuDef*
G36*
G01*
X53190000Y-104972500D02*
X53190000Y-104627500D01*
G75*
G02*
X53337500Y-104480000I147500J0D01*
G01*
X53632500Y-104480000D01*
G75*
G02*
X53780000Y-104627500I0J-147500D01*
G01*
X53780000Y-104972500D01*
G75*
G02*
X53632500Y-105120000I-147500J0D01*
G01*
X53337500Y-105120000D01*
G75*
G02*
X53190000Y-104972500I0J147500D01*
G01*
G37*
G04 #@! TD.AperFunction*
G04 #@! TA.AperFunction,SMDPad,CuDef*
G36*
G01*
X52220000Y-104972500D02*
X52220000Y-104627500D01*
G75*
G02*
X52367500Y-104480000I147500J0D01*
G01*
X52662500Y-104480000D01*
G75*
G02*
X52810000Y-104627500I0J-147500D01*
G01*
X52810000Y-104972500D01*
G75*
G02*
X52662500Y-105120000I-147500J0D01*
G01*
X52367500Y-105120000D01*
G75*
G02*
X52220000Y-104972500I0J147500D01*
G01*
G37*
G04 #@! TD.AperFunction*
G04 #@! TA.AperFunction,SMDPad,CuDef*
G36*
G01*
X40827500Y-45390000D02*
X41172500Y-45390000D01*
G75*
G02*
X41320000Y-45537500I0J-147500D01*
G01*
X41320000Y-45832500D01*
G75*
G02*
X41172500Y-45980000I-147500J0D01*
G01*
X40827500Y-45980000D01*
G75*
G02*
X40680000Y-45832500I0J147500D01*
G01*
X40680000Y-45537500D01*
G75*
G02*
X40827500Y-45390000I147500J0D01*
G01*
G37*
G04 #@! TD.AperFunction*
G04 #@! TA.AperFunction,SMDPad,CuDef*
G36*
G01*
X40827500Y-44420000D02*
X41172500Y-44420000D01*
G75*
G02*
X41320000Y-44567500I0J-147500D01*
G01*
X41320000Y-44862500D01*
G75*
G02*
X41172500Y-45010000I-147500J0D01*
G01*
X40827500Y-45010000D01*
G75*
G02*
X40680000Y-44862500I0J147500D01*
G01*
X40680000Y-44567500D01*
G75*
G02*
X40827500Y-44420000I147500J0D01*
G01*
G37*
G04 #@! TD.AperFunction*
G04 #@! TA.AperFunction,SMDPad,CuDef*
G36*
G01*
X54190000Y-100172500D02*
X54190000Y-99827500D01*
G75*
G02*
X54337500Y-99680000I147500J0D01*
G01*
X54632500Y-99680000D01*
G75*
G02*
X54780000Y-99827500I0J-147500D01*
G01*
X54780000Y-100172500D01*
G75*
G02*
X54632500Y-100320000I-147500J0D01*
G01*
X54337500Y-100320000D01*
G75*
G02*
X54190000Y-100172500I0J147500D01*
G01*
G37*
G04 #@! TD.AperFunction*
G04 #@! TA.AperFunction,SMDPad,CuDef*
G36*
G01*
X53220000Y-100172500D02*
X53220000Y-99827500D01*
G75*
G02*
X53367500Y-99680000I147500J0D01*
G01*
X53662500Y-99680000D01*
G75*
G02*
X53810000Y-99827500I0J-147500D01*
G01*
X53810000Y-100172500D01*
G75*
G02*
X53662500Y-100320000I-147500J0D01*
G01*
X53367500Y-100320000D01*
G75*
G02*
X53220000Y-100172500I0J147500D01*
G01*
G37*
G04 #@! TD.AperFunction*
G04 #@! TA.AperFunction,SMDPad,CuDef*
G36*
G01*
X54810000Y-69027500D02*
X54810000Y-69372500D01*
G75*
G02*
X54662500Y-69520000I-147500J0D01*
G01*
X54367500Y-69520000D01*
G75*
G02*
X54220000Y-69372500I0J147500D01*
G01*
X54220000Y-69027500D01*
G75*
G02*
X54367500Y-68880000I147500J0D01*
G01*
X54662500Y-68880000D01*
G75*
G02*
X54810000Y-69027500I0J-147500D01*
G01*
G37*
G04 #@! TD.AperFunction*
G04 #@! TA.AperFunction,SMDPad,CuDef*
G36*
G01*
X55780000Y-69027500D02*
X55780000Y-69372500D01*
G75*
G02*
X55632500Y-69520000I-147500J0D01*
G01*
X55337500Y-69520000D01*
G75*
G02*
X55190000Y-69372500I0J147500D01*
G01*
X55190000Y-69027500D01*
G75*
G02*
X55337500Y-68880000I147500J0D01*
G01*
X55632500Y-68880000D01*
G75*
G02*
X55780000Y-69027500I0J-147500D01*
G01*
G37*
G04 #@! TD.AperFunction*
G04 #@! TA.AperFunction,SMDPad,CuDef*
G36*
G01*
X41810000Y-97827500D02*
X41810000Y-98172500D01*
G75*
G02*
X41662500Y-98320000I-147500J0D01*
G01*
X41367500Y-98320000D01*
G75*
G02*
X41220000Y-98172500I0J147500D01*
G01*
X41220000Y-97827500D01*
G75*
G02*
X41367500Y-97680000I147500J0D01*
G01*
X41662500Y-97680000D01*
G75*
G02*
X41810000Y-97827500I0J-147500D01*
G01*
G37*
G04 #@! TD.AperFunction*
G04 #@! TA.AperFunction,SMDPad,CuDef*
G36*
G01*
X42780000Y-97827500D02*
X42780000Y-98172500D01*
G75*
G02*
X42632500Y-98320000I-147500J0D01*
G01*
X42337500Y-98320000D01*
G75*
G02*
X42190000Y-98172500I0J147500D01*
G01*
X42190000Y-97827500D01*
G75*
G02*
X42337500Y-97680000I147500J0D01*
G01*
X42632500Y-97680000D01*
G75*
G02*
X42780000Y-97827500I0J-147500D01*
G01*
G37*
G04 #@! TD.AperFunction*
D14*
X59000000Y-43800000D03*
D15*
X43600000Y-100200000D03*
X47000000Y-100200000D03*
X39000000Y-104400000D03*
X43000000Y-104400000D03*
X47000000Y-104400000D03*
X51000000Y-104400000D03*
X55200000Y-108600000D03*
X51200000Y-108600000D03*
X47200000Y-108600000D03*
X43200000Y-108600000D03*
X39200000Y-108600000D03*
X40800000Y-112600000D03*
X44800000Y-112600000D03*
X48800000Y-112600000D03*
X52800000Y-112600000D03*
X55100000Y-72600000D03*
X50500000Y-100200000D03*
X54200000Y-101700000D03*
X35200000Y-43700000D03*
X39400000Y-43700000D03*
X43800000Y-43600000D03*
X47800000Y-43600000D03*
X51800000Y-43600000D03*
X55800000Y-43600000D03*
X43800000Y-46400000D03*
X47800000Y-46400000D03*
X51800000Y-46400000D03*
X54400000Y-46800000D03*
X35400000Y-116600000D03*
X39400000Y-116600000D03*
X43400000Y-116600000D03*
X47400000Y-116600000D03*
X51400000Y-116600000D03*
X55400000Y-116600000D03*
X58600000Y-116600000D03*
X58800000Y-112600000D03*
X56800000Y-112600000D03*
X36800000Y-112600000D03*
X35200000Y-112600000D03*
X56400000Y-104600000D03*
X35200000Y-102000000D03*
X35200000Y-97600000D03*
X39600000Y-97200000D03*
X40000000Y-93600000D03*
X35200000Y-93400000D03*
X35200000Y-89400000D03*
X35200000Y-85400000D03*
X35200000Y-83000000D03*
X40200000Y-89600000D03*
X40200000Y-85600000D03*
X40200000Y-81600000D03*
X40200000Y-76000000D03*
X37600000Y-78200000D03*
X40200000Y-72200000D03*
X40200000Y-68200000D03*
X39800000Y-64200000D03*
X40200000Y-60200000D03*
X40200000Y-56200000D03*
X40200000Y-52400000D03*
X35000000Y-66200000D03*
X35000000Y-62200000D03*
X35000000Y-58200000D03*
X35000000Y-54200000D03*
X35000000Y-50200000D03*
X59000000Y-48200000D03*
X59000000Y-52200000D03*
X59000000Y-56200000D03*
X59000000Y-57600000D03*
X54800000Y-53600000D03*
X54600000Y-50000000D03*
X43200000Y-72800000D03*
X43000000Y-70000000D03*
X48600000Y-69000000D03*
X43000000Y-66000000D03*
X48800000Y-65800000D03*
X48000000Y-61200000D03*
X43000000Y-61200000D03*
X43000000Y-57200000D03*
X48000000Y-57200000D03*
X48000000Y-53200000D03*
X45400000Y-53200000D03*
X46800000Y-50800000D03*
X53400000Y-72800000D03*
X53400000Y-75200000D03*
X48200000Y-73800000D03*
X48200000Y-77800000D03*
X48200000Y-81800000D03*
X51200000Y-81800000D03*
X51800000Y-86000000D03*
X47600000Y-88000000D03*
X47600000Y-92800000D03*
X51800000Y-90400000D03*
X51800000Y-92600000D03*
X48000000Y-85000000D03*
X51800000Y-96200000D03*
X47600000Y-96000000D03*
X43000000Y-96200000D03*
X59200000Y-102600000D03*
X56200000Y-97800000D03*
X59200000Y-96800000D03*
X59200000Y-94200000D03*
X56000000Y-93200000D03*
X59200000Y-90200000D03*
X59200000Y-86200000D03*
X59200000Y-82800000D03*
X56000000Y-89200000D03*
X56200000Y-85400000D03*
X57200000Y-80400000D03*
X55400000Y-75400000D03*
X57400000Y-73200000D03*
X59200000Y-67400000D03*
X59200000Y-62600000D03*
D16*
X58000000Y-103400000D03*
X36000000Y-103400000D03*
X43000000Y-51400000D03*
D15*
X54699999Y-94300001D03*
D14*
X41000000Y-30800000D03*
X59000000Y-30800000D03*
X59000000Y-36800000D03*
X57000000Y-30800000D03*
X57000000Y-36800000D03*
X55000000Y-30800000D03*
X55000000Y-36800000D03*
X53000000Y-30800000D03*
X53000000Y-36800000D03*
X51000000Y-30800000D03*
X51000000Y-36800000D03*
X49000000Y-30800000D03*
X49000000Y-36800000D03*
X47000000Y-30800000D03*
X47000000Y-36800000D03*
X45000000Y-30800000D03*
X45000000Y-36800000D03*
X43000000Y-30800000D03*
X43000000Y-36800000D03*
D15*
X42700000Y-74000000D03*
X40500000Y-74000000D03*
X53600000Y-78700000D03*
X56900000Y-78800000D03*
X53800000Y-68400000D03*
X56425000Y-69727657D03*
X56060010Y-66460010D03*
X57775010Y-69434406D03*
X56800000Y-67800000D03*
D16*
X41000000Y-46700000D03*
D15*
X55700000Y-84300000D03*
X53600000Y-84300000D03*
X53300000Y-80200000D03*
X56100019Y-80100000D03*
X59100000Y-75600000D03*
X56500000Y-75400000D03*
X53600000Y-53800000D03*
X57200000Y-74999990D03*
D17*
X55125000Y-69560000D02*
X55485000Y-69200000D01*
X55125000Y-71050000D02*
X55125000Y-69560000D01*
X55485000Y-67805000D02*
X55480000Y-67800000D01*
X55485000Y-69200000D02*
X55485000Y-67805000D01*
X55125000Y-72575000D02*
X55100000Y-72600000D01*
X55125000Y-71050000D02*
X55125000Y-72575000D01*
X50500000Y-101750000D02*
X50500000Y-100200000D01*
X53515000Y-101015000D02*
X54200000Y-101700000D01*
X53515000Y-100000000D02*
X53515000Y-101015000D01*
D18*
X58000000Y-103400000D02*
X54699999Y-100099999D01*
D19*
X54475000Y-78675000D02*
X54475000Y-76950000D01*
X54699999Y-78899999D02*
X54475000Y-78675000D01*
X54475000Y-76950000D02*
X54475000Y-71050000D01*
D20*
X42315000Y-51400000D02*
X41600000Y-52115000D01*
X41600000Y-97800000D02*
X36000000Y-103400000D01*
X42315000Y-51400000D02*
X42400000Y-51400000D01*
X42400000Y-51400000D02*
X43000000Y-51400000D01*
D17*
X54475000Y-69240000D02*
X54515000Y-69200000D01*
X54475000Y-71050000D02*
X54475000Y-69240000D01*
X54515000Y-67805000D02*
X54520000Y-67800000D01*
X54515000Y-69200000D02*
X54515000Y-67805000D01*
D18*
X54699999Y-94300001D02*
X54699999Y-78899999D01*
X54699999Y-100099999D02*
X54699999Y-94300001D01*
D17*
X35800000Y-73860000D02*
X38940000Y-73860000D01*
X41600000Y-74000000D02*
X41400000Y-74000000D01*
D20*
X41600000Y-52115000D02*
X41600000Y-74000000D01*
X41600000Y-74000000D02*
X41600000Y-97800000D01*
D17*
X40750000Y-73350000D02*
X39450000Y-73350000D01*
X41400000Y-74000000D02*
X40750000Y-73350000D01*
X38940000Y-73860000D02*
X39450000Y-73350000D01*
D18*
X59000000Y-30800000D02*
X59000000Y-36800000D01*
X57000000Y-36800000D02*
X57000000Y-30800000D01*
X55000000Y-30800000D02*
X55000000Y-36800000D01*
X53000000Y-36800000D02*
X53000000Y-30800000D01*
X51000000Y-30800000D02*
X51000000Y-36800000D01*
X49000000Y-36800000D02*
X49000000Y-30800000D01*
X47000000Y-30800000D02*
X47000000Y-36800000D01*
X45000000Y-36800000D02*
X45000000Y-30800000D01*
X43000000Y-30800000D02*
X43000000Y-36800000D01*
X41025000Y-42875000D02*
X41025000Y-30800000D01*
X41025000Y-42875000D02*
X41025000Y-44689990D01*
D17*
X35800000Y-79012500D02*
X36587500Y-79800000D01*
X35800000Y-76400000D02*
X35800000Y-79012500D01*
X53074999Y-70024999D02*
X48875001Y-70024999D01*
X53175000Y-70125000D02*
X53074999Y-70024999D01*
X53175000Y-71050000D02*
X53175000Y-70125000D01*
X44900000Y-74000000D02*
X42700000Y-74000000D01*
X48875001Y-70024999D02*
X44900000Y-74000000D01*
X38100000Y-76400000D02*
X35800000Y-76400000D01*
X40500000Y-74000000D02*
X38100000Y-76400000D01*
X35012500Y-81477500D02*
X34890000Y-81600000D01*
X35012500Y-79800000D02*
X35012500Y-81477500D01*
X52525000Y-71975000D02*
X51800000Y-72700000D01*
X52525000Y-71050000D02*
X52525000Y-71975000D01*
X51800000Y-72700000D02*
X47800000Y-72700000D01*
X46540000Y-73960000D02*
X46540000Y-94400000D01*
X47800000Y-72700000D02*
X46540000Y-73960000D01*
X44000000Y-86040002D02*
X44000000Y-94400000D01*
X45850000Y-84190002D02*
X44000000Y-86040002D01*
X45850000Y-84190002D02*
X45850000Y-73750000D01*
X48550000Y-71050000D02*
X51875000Y-71050000D01*
X45850000Y-73750000D02*
X48550000Y-71050000D01*
X53825000Y-78475000D02*
X53600000Y-78700000D01*
X53825000Y-76950000D02*
X53825000Y-78475000D01*
X57300000Y-79200000D02*
X58800000Y-79200000D01*
X56900000Y-78800000D02*
X57300000Y-79200000D01*
X53800000Y-71025000D02*
X53825000Y-71050000D01*
X53800000Y-68400000D02*
X53800000Y-71025000D01*
X56425000Y-69727657D02*
X56345423Y-69648080D01*
X56425000Y-71050000D02*
X56425000Y-69727657D01*
X56060010Y-66460010D02*
X56060010Y-68339990D01*
X56000000Y-66400000D02*
X56060010Y-66460010D01*
X57075000Y-69354980D02*
X57075000Y-71050000D01*
X56060010Y-68339990D02*
X57075000Y-69354980D01*
X57725000Y-71050000D02*
X57725000Y-69484416D01*
X57725000Y-69484416D02*
X57775010Y-69434406D01*
X57365685Y-67800000D02*
X58475011Y-68909326D01*
X58475011Y-68909326D02*
X58475011Y-69770407D01*
X58300001Y-76799999D02*
X58150000Y-76950000D01*
X58300001Y-69945417D02*
X58300001Y-76799999D01*
X56800000Y-67800000D02*
X57365685Y-67800000D01*
X58150000Y-76950000D02*
X57725000Y-76950000D01*
X58475011Y-69770407D02*
X58300001Y-69945417D01*
D18*
X41000000Y-46700000D02*
X41000000Y-45890000D01*
D17*
X55125000Y-78193616D02*
X55500009Y-78568625D01*
X55125000Y-76950000D02*
X55125000Y-78193616D01*
X55500009Y-84100009D02*
X55700000Y-84300000D01*
X55500009Y-78568625D02*
X55500009Y-84100009D01*
X52919990Y-104234990D02*
X53485000Y-104800000D01*
X52919990Y-84980010D02*
X52919990Y-104234990D01*
X53600000Y-84300000D02*
X52919990Y-84980010D01*
X53485000Y-106175000D02*
X53510000Y-106200000D01*
X53485000Y-104800000D02*
X53485000Y-106175000D01*
X53310000Y-82570000D02*
X53280000Y-82600000D01*
X53310000Y-81200000D02*
X53310000Y-82570000D01*
X53310000Y-80210000D02*
X53300000Y-80200000D01*
X53310000Y-81200000D02*
X53310000Y-80210000D01*
X56100019Y-78200019D02*
X56100019Y-80100000D01*
X55775000Y-76950000D02*
X55775000Y-77875000D01*
X55775000Y-77875000D02*
X56100019Y-78200019D01*
X54085000Y-63200000D02*
X54085000Y-64600000D01*
X54085000Y-64600000D02*
X55100000Y-64600000D01*
X59100000Y-68600000D02*
X59100000Y-75600000D01*
X55100000Y-64600000D02*
X59100000Y-68600000D01*
X56500000Y-76875000D02*
X56425000Y-76950000D01*
X56500000Y-75400000D02*
X56500000Y-76875000D01*
X53600000Y-52485000D02*
X53485000Y-52600000D01*
X53600000Y-51200000D02*
X53600000Y-52485000D01*
X53485000Y-53685000D02*
X53600000Y-53800000D01*
X53485000Y-52600000D02*
X53485000Y-53685000D01*
X57075000Y-76950000D02*
X57200000Y-76825000D01*
X57200000Y-76825000D02*
X57200000Y-74999990D01*
X51540000Y-77285000D02*
X51875000Y-76950000D01*
X50200000Y-77285000D02*
X51540000Y-77285000D01*
X50550000Y-106200000D02*
X50500000Y-106250000D01*
X52490000Y-106200000D02*
X50550000Y-106200000D01*
X50840000Y-79750000D02*
X52290000Y-81200000D01*
X50500000Y-79750000D02*
X50840000Y-79750000D01*
X52565000Y-63750000D02*
X53115000Y-63200000D01*
X50500000Y-63750000D02*
X52565000Y-63750000D01*
X50500000Y-49120000D02*
X52580000Y-51200000D01*
X50500000Y-48750000D02*
X50500000Y-49120000D01*
D21*
X53600000Y-72413072D02*
X53715001Y-72413072D01*
X53715000Y-75586928D01*
X53600000Y-75586928D01*
X53500000Y-75596777D01*
X53400000Y-75586928D01*
X52950000Y-75586928D01*
X52850000Y-75596777D01*
X52750000Y-75586928D01*
X52300000Y-75586928D01*
X52200000Y-75596777D01*
X52100000Y-75586928D01*
X51650000Y-75586928D01*
X51525518Y-75599188D01*
X51405820Y-75635498D01*
X51295506Y-75694463D01*
X51198815Y-75773815D01*
X51133161Y-75853814D01*
X51109502Y-75775820D01*
X51050537Y-75665506D01*
X50971185Y-75568815D01*
X50874494Y-75489463D01*
X50764180Y-75430498D01*
X50644482Y-75394188D01*
X50520000Y-75381928D01*
X50485750Y-75385000D01*
X50327000Y-75543750D01*
X50327000Y-76188000D01*
X50347000Y-76188000D01*
X50347000Y-76351928D01*
X50027500Y-76351928D01*
X49874243Y-76367023D01*
X49726875Y-76411726D01*
X49670237Y-76442000D01*
X49403750Y-76442000D01*
X49245000Y-76600750D01*
X49241928Y-76610000D01*
X49254188Y-76734482D01*
X49290498Y-76854180D01*
X49294312Y-76861316D01*
X49257023Y-76984243D01*
X49241928Y-77137500D01*
X49241928Y-77432500D01*
X49257023Y-77585757D01*
X49301726Y-77733125D01*
X49374321Y-77868940D01*
X49472017Y-77987983D01*
X49591060Y-78085679D01*
X49726875Y-78158274D01*
X49874243Y-78202977D01*
X50027500Y-78218072D01*
X50372500Y-78218072D01*
X50525757Y-78202977D01*
X50673125Y-78158274D01*
X50808940Y-78085679D01*
X50888970Y-78020000D01*
X51114388Y-78020000D01*
X51119463Y-78029494D01*
X51198815Y-78126185D01*
X51295506Y-78205537D01*
X51405820Y-78264502D01*
X51525518Y-78300812D01*
X51650000Y-78313072D01*
X52100000Y-78313072D01*
X52200000Y-78303223D01*
X52300000Y-78313072D01*
X52748234Y-78313072D01*
X52700932Y-78427271D01*
X52665000Y-78607911D01*
X52665000Y-78792089D01*
X52700932Y-78972729D01*
X52771414Y-79142889D01*
X52873738Y-79296028D01*
X52922174Y-79344464D01*
X52857111Y-79371414D01*
X52703972Y-79473738D01*
X52573738Y-79603972D01*
X52471414Y-79757111D01*
X52400932Y-79927271D01*
X52365000Y-80107911D01*
X52365000Y-80235553D01*
X52138072Y-80008625D01*
X52138072Y-79000000D01*
X52125812Y-78875518D01*
X52089502Y-78755820D01*
X52030537Y-78645506D01*
X51951185Y-78548815D01*
X51854494Y-78469463D01*
X51744180Y-78410498D01*
X51624482Y-78374188D01*
X51500000Y-78361928D01*
X49500000Y-78361928D01*
X49375518Y-78374188D01*
X49255820Y-78410498D01*
X49145506Y-78469463D01*
X49048815Y-78548815D01*
X48969463Y-78645506D01*
X48910498Y-78755820D01*
X48874188Y-78875518D01*
X48861928Y-79000000D01*
X48861928Y-80500000D01*
X48874188Y-80624482D01*
X48910498Y-80744180D01*
X48969463Y-80854494D01*
X49048815Y-80951185D01*
X49145506Y-81030537D01*
X49255820Y-81089502D01*
X49375518Y-81125812D01*
X49500000Y-81138072D01*
X51188625Y-81138072D01*
X51381928Y-81331375D01*
X51381928Y-81385000D01*
X51396782Y-81535819D01*
X51440775Y-81680842D01*
X51512214Y-81814496D01*
X51560437Y-81873255D01*
X51507844Y-81937941D01*
X51449386Y-82048524D01*
X51413625Y-82168387D01*
X51401935Y-82292923D01*
X51405000Y-82314250D01*
X51563750Y-82473000D01*
X52193000Y-82473000D01*
X52193000Y-82453000D01*
X52361928Y-82453000D01*
X52361928Y-82770000D01*
X52376878Y-82921794D01*
X52421155Y-83067755D01*
X52447000Y-83116108D01*
X52447000Y-83386250D01*
X52605750Y-83545000D01*
X52727348Y-83535235D01*
X52846878Y-83498377D01*
X52856509Y-83493172D01*
X52988206Y-83533122D01*
X53054924Y-83539693D01*
X53003972Y-83573738D01*
X52873738Y-83703972D01*
X52771414Y-83857111D01*
X52700932Y-84027271D01*
X52668068Y-84192485D01*
X52425798Y-84434756D01*
X52397752Y-84457773D01*
X52305903Y-84569691D01*
X52237653Y-84697378D01*
X52211878Y-84782346D01*
X52195625Y-84835925D01*
X52181434Y-84980010D01*
X52184990Y-85016115D01*
X52184990Y-93026675D01*
X52053158Y-92972068D01*
X51766260Y-92915000D01*
X51473740Y-92915000D01*
X51186842Y-92972068D01*
X50916589Y-93084010D01*
X50673368Y-93246525D01*
X50466525Y-93453368D01*
X50344805Y-93635534D01*
X50275178Y-93518645D01*
X50080269Y-93302412D01*
X49846920Y-93128359D01*
X49584099Y-93003175D01*
X49436890Y-92958524D01*
X49207000Y-93079845D01*
X49207000Y-94273000D01*
X49227000Y-94273000D01*
X49227000Y-94527000D01*
X49207000Y-94527000D01*
X49207000Y-95720155D01*
X49436890Y-95841476D01*
X49584099Y-95796825D01*
X49846920Y-95671641D01*
X50080269Y-95497588D01*
X50275178Y-95281355D01*
X50344805Y-95164466D01*
X50466525Y-95346632D01*
X50673368Y-95553475D01*
X50916589Y-95715990D01*
X51186842Y-95827932D01*
X51473740Y-95885000D01*
X51766260Y-95885000D01*
X52053158Y-95827932D01*
X52184991Y-95773325D01*
X52184991Y-103845376D01*
X52095518Y-103854188D01*
X51975820Y-103890498D01*
X51865506Y-103949463D01*
X51768815Y-104028815D01*
X51689463Y-104125506D01*
X51630498Y-104235820D01*
X51594188Y-104355518D01*
X51581928Y-104480000D01*
X51585000Y-104514250D01*
X51743750Y-104673000D01*
X52328629Y-104673000D01*
X52397753Y-104757228D01*
X52425798Y-104780244D01*
X52551928Y-104906374D01*
X52551928Y-104947000D01*
X52388000Y-104947000D01*
X52388000Y-104927000D01*
X51775053Y-104927000D01*
X51744180Y-104910498D01*
X51624482Y-104874188D01*
X51500000Y-104861928D01*
X49500000Y-104861928D01*
X49375518Y-104874188D01*
X49255820Y-104910498D01*
X49145506Y-104969463D01*
X49048815Y-105048815D01*
X48969463Y-105145506D01*
X48910498Y-105255820D01*
X48874188Y-105375518D01*
X48861928Y-105500000D01*
X48861928Y-107000000D01*
X48874188Y-107124482D01*
X48910498Y-107244180D01*
X48969463Y-107354494D01*
X49048815Y-107451185D01*
X49145506Y-107530537D01*
X49255820Y-107589502D01*
X49375518Y-107625812D01*
X49500000Y-107638072D01*
X51500000Y-107638072D01*
X51624482Y-107625812D01*
X51744180Y-107589502D01*
X51854494Y-107530537D01*
X51951185Y-107451185D01*
X52030537Y-107354494D01*
X52089502Y-107244180D01*
X52125812Y-107124482D01*
X52126294Y-107119591D01*
X52204181Y-107143218D01*
X52355000Y-107158072D01*
X52625000Y-107158072D01*
X52775819Y-107143218D01*
X52920842Y-107099225D01*
X53000000Y-107056914D01*
X53079158Y-107099225D01*
X53224181Y-107143218D01*
X53375000Y-107158072D01*
X53645000Y-107158072D01*
X53795819Y-107143218D01*
X53940842Y-107099225D01*
X54074496Y-107027786D01*
X54191644Y-106931644D01*
X54287786Y-106814496D01*
X54359225Y-106680842D01*
X54403218Y-106535819D01*
X54418072Y-106385000D01*
X54418072Y-106015000D01*
X54403218Y-105864181D01*
X54359225Y-105719158D01*
X54287786Y-105585504D01*
X54220000Y-105502907D01*
X54220000Y-105488970D01*
X54285679Y-105408940D01*
X54358274Y-105273125D01*
X54402977Y-105125757D01*
X54418072Y-104972500D01*
X54418072Y-104627500D01*
X54402977Y-104474243D01*
X54358274Y-104326875D01*
X54285679Y-104191060D01*
X54187983Y-104072017D01*
X54068940Y-103974321D01*
X53933125Y-103901726D01*
X53785757Y-103857023D01*
X53654990Y-103844143D01*
X53654990Y-100809240D01*
X53800750Y-100955000D01*
X53810000Y-100958072D01*
X53934482Y-100945812D01*
X53939238Y-100944369D01*
X57236856Y-104241988D01*
X57366377Y-104348283D01*
X57563553Y-104453675D01*
X57777500Y-104518577D01*
X57999999Y-104540490D01*
X58222498Y-104518577D01*
X58436446Y-104453675D01*
X58633622Y-104348283D01*
X58806448Y-104206448D01*
X58948283Y-104033622D01*
X59053675Y-103836446D01*
X59118577Y-103622498D01*
X59140490Y-103399999D01*
X59118577Y-103177500D01*
X59053675Y-102963553D01*
X58948283Y-102766377D01*
X58841988Y-102636856D01*
X55834999Y-99629868D01*
X55834999Y-97409582D01*
X55941331Y-97480631D01*
X56348075Y-97649110D01*
X56779872Y-97735000D01*
X57220128Y-97735000D01*
X57651925Y-97649110D01*
X58058669Y-97480631D01*
X58424729Y-97236038D01*
X58736038Y-96924729D01*
X58980631Y-96558669D01*
X59149110Y-96151925D01*
X59235000Y-95720128D01*
X59235000Y-95279872D01*
X59149110Y-94848075D01*
X58980631Y-94441331D01*
X58736038Y-94075271D01*
X58424729Y-93763962D01*
X58058669Y-93519369D01*
X57651925Y-93350890D01*
X57220128Y-93265000D01*
X56779872Y-93265000D01*
X56348075Y-93350890D01*
X55941331Y-93519369D01*
X55834999Y-93590418D01*
X55834999Y-85226465D01*
X55972729Y-85199068D01*
X56142889Y-85128586D01*
X56296028Y-85026262D01*
X56426262Y-84896028D01*
X56528586Y-84742889D01*
X56599068Y-84572729D01*
X56635000Y-84392089D01*
X56635000Y-84207911D01*
X56599068Y-84027271D01*
X56528586Y-83857111D01*
X56426262Y-83703972D01*
X56296028Y-83573738D01*
X56235009Y-83532966D01*
X56235009Y-81800000D01*
X57461928Y-81800000D01*
X57474188Y-81924482D01*
X57510498Y-82044180D01*
X57569463Y-82154494D01*
X57648815Y-82251185D01*
X57745506Y-82330537D01*
X57855820Y-82389502D01*
X57975518Y-82425812D01*
X58100000Y-82438072D01*
X58514250Y-82435000D01*
X58673000Y-82276250D01*
X58673000Y-81327000D01*
X57623750Y-81327000D01*
X57465000Y-81485750D01*
X57461928Y-81800000D01*
X56235009Y-81800000D01*
X56235009Y-81026466D01*
X56372748Y-80999068D01*
X56542908Y-80928586D01*
X56696047Y-80826262D01*
X56826281Y-80696028D01*
X56928605Y-80542889D01*
X56999087Y-80372729D01*
X57035019Y-80192089D01*
X57035019Y-80007911D01*
X57009169Y-79877955D01*
X57017367Y-79882337D01*
X57155915Y-79924365D01*
X57263895Y-79935000D01*
X57263904Y-79935000D01*
X57299999Y-79938555D01*
X57336094Y-79935000D01*
X57553661Y-79935000D01*
X57611595Y-80043387D01*
X57678276Y-80124637D01*
X57648815Y-80148815D01*
X57569463Y-80245506D01*
X57510498Y-80355820D01*
X57474188Y-80475518D01*
X57461928Y-80600000D01*
X57465000Y-80914250D01*
X57623750Y-81073000D01*
X58673000Y-81073000D01*
X58673000Y-81053000D01*
X58927000Y-81053000D01*
X58927000Y-81073000D01*
X58947000Y-81073000D01*
X58947000Y-81327000D01*
X58927000Y-81327000D01*
X58927000Y-82276250D01*
X59085750Y-82435000D01*
X59340001Y-82436885D01*
X59340001Y-115967711D01*
X59311375Y-116259660D01*
X59235965Y-116509429D01*
X59113477Y-116739794D01*
X58948579Y-116941979D01*
X58747546Y-117108288D01*
X58518046Y-117232378D01*
X58268805Y-117309531D01*
X57978911Y-117340000D01*
X36032279Y-117340000D01*
X35740340Y-117311375D01*
X35490571Y-117235965D01*
X35260206Y-117113477D01*
X35058021Y-116948579D01*
X34891712Y-116747546D01*
X34767622Y-116518046D01*
X34690469Y-116268805D01*
X34660000Y-115978911D01*
X34660000Y-105500000D01*
X41861928Y-105500000D01*
X41861928Y-107000000D01*
X41874188Y-107124482D01*
X41910498Y-107244180D01*
X41969463Y-107354494D01*
X42048815Y-107451185D01*
X42145506Y-107530537D01*
X42255820Y-107589502D01*
X42375518Y-107625812D01*
X42500000Y-107638072D01*
X44500000Y-107638072D01*
X44624482Y-107625812D01*
X44744180Y-107589502D01*
X44854494Y-107530537D01*
X44951185Y-107451185D01*
X45030537Y-107354494D01*
X45089502Y-107244180D01*
X45125812Y-107124482D01*
X45138072Y-107000000D01*
X45138072Y-105500000D01*
X45125812Y-105375518D01*
X45089502Y-105255820D01*
X45030537Y-105145506D01*
X44951185Y-105048815D01*
X44854494Y-104969463D01*
X44744180Y-104910498D01*
X44624482Y-104874188D01*
X44500000Y-104861928D01*
X42500000Y-104861928D01*
X42375518Y-104874188D01*
X42255820Y-104910498D01*
X42145506Y-104969463D01*
X42048815Y-105048815D01*
X41969463Y-105145506D01*
X41910498Y-105255820D01*
X41874188Y-105375518D01*
X41861928Y-105500000D01*
X34660000Y-105500000D01*
X34660000Y-95279872D01*
X34765000Y-95279872D01*
X34765000Y-95720128D01*
X34850890Y-96151925D01*
X35019369Y-96558669D01*
X35263962Y-96924729D01*
X35575271Y-97236038D01*
X35941331Y-97480631D01*
X36348075Y-97649110D01*
X36779872Y-97735000D01*
X37220128Y-97735000D01*
X37651925Y-97649110D01*
X38058669Y-97480631D01*
X38424729Y-97236038D01*
X38736038Y-96924729D01*
X38980631Y-96558669D01*
X39149110Y-96151925D01*
X39235000Y-95720128D01*
X39235000Y-95279872D01*
X39149110Y-94848075D01*
X38980631Y-94441331D01*
X38736038Y-94075271D01*
X38424729Y-93763962D01*
X38058669Y-93519369D01*
X37651925Y-93350890D01*
X37220128Y-93265000D01*
X36779872Y-93265000D01*
X36348075Y-93350890D01*
X35941331Y-93519369D01*
X35575271Y-93763962D01*
X35263962Y-94075271D01*
X35019369Y-94441331D01*
X34850890Y-94848075D01*
X34765000Y-95279872D01*
X34660000Y-95279872D01*
X34660000Y-82548716D01*
X34755000Y-82558072D01*
X35025000Y-82558072D01*
X35175819Y-82543218D01*
X35320842Y-82499225D01*
X35348549Y-82484416D01*
X35388558Y-82506441D01*
X35507798Y-82544226D01*
X35624250Y-82555000D01*
X35783000Y-82396250D01*
X35783000Y-81936538D01*
X35783218Y-81935819D01*
X35798072Y-81785000D01*
X35798072Y-81727000D01*
X36037000Y-81727000D01*
X36037000Y-82396250D01*
X36195750Y-82555000D01*
X36312202Y-82544226D01*
X36431442Y-82506441D01*
X36541020Y-82446118D01*
X36636724Y-82365578D01*
X36714876Y-82267914D01*
X36772473Y-82156879D01*
X36807301Y-82036742D01*
X36818023Y-81912119D01*
X36815000Y-81885750D01*
X36656250Y-81727000D01*
X36037000Y-81727000D01*
X35798072Y-81727000D01*
X35798072Y-81453000D01*
X36037000Y-81453000D01*
X36037000Y-81473000D01*
X36656250Y-81473000D01*
X36815000Y-81314250D01*
X36818023Y-81287881D01*
X36807301Y-81163258D01*
X36772473Y-81043121D01*
X36714876Y-80932086D01*
X36699661Y-80913072D01*
X36806250Y-80913072D01*
X36973408Y-80896608D01*
X37134142Y-80847850D01*
X37282275Y-80768671D01*
X37412115Y-80662115D01*
X37518671Y-80532275D01*
X37597850Y-80384142D01*
X37646608Y-80223408D01*
X37663072Y-80056250D01*
X37663072Y-79543750D01*
X37646608Y-79376592D01*
X37597850Y-79215858D01*
X37518671Y-79067725D01*
X37412115Y-78937885D01*
X37282275Y-78831329D01*
X37134142Y-78752150D01*
X36973408Y-78703392D01*
X36806250Y-78686928D01*
X36535000Y-78686928D01*
X36535000Y-77888072D01*
X36650000Y-77888072D01*
X36774482Y-77875812D01*
X36894180Y-77839502D01*
X37004494Y-77780537D01*
X37101185Y-77701185D01*
X37180537Y-77604494D01*
X37239502Y-77494180D01*
X37275812Y-77374482D01*
X37288072Y-77250000D01*
X37288072Y-77135000D01*
X38063895Y-77135000D01*
X38100000Y-77138556D01*
X38136105Y-77135000D01*
X38244085Y-77124365D01*
X38382633Y-77082337D01*
X38510320Y-77014087D01*
X38622238Y-76922238D01*
X38645259Y-76894188D01*
X40590000Y-74949447D01*
X40590001Y-97381643D01*
X35446777Y-102524868D01*
X35340226Y-102596063D01*
X35196063Y-102740226D01*
X35082795Y-102909744D01*
X35004774Y-103098102D01*
X34965000Y-103298061D01*
X34965000Y-103501939D01*
X35004774Y-103701898D01*
X35082795Y-103890256D01*
X35196063Y-104059774D01*
X35340226Y-104203937D01*
X35509744Y-104317205D01*
X35698102Y-104395226D01*
X35898061Y-104435000D01*
X36101939Y-104435000D01*
X36301898Y-104395226D01*
X36490256Y-104317205D01*
X36659774Y-104203937D01*
X36803937Y-104059774D01*
X36875132Y-103953223D01*
X38328355Y-102500000D01*
X41861928Y-102500000D01*
X41874188Y-102624482D01*
X41910498Y-102744180D01*
X41969463Y-102854494D01*
X42048815Y-102951185D01*
X42145506Y-103030537D01*
X42255820Y-103089502D01*
X42375518Y-103125812D01*
X42500000Y-103138072D01*
X43214250Y-103135000D01*
X43373000Y-102976250D01*
X43373000Y-101877000D01*
X43627000Y-101877000D01*
X43627000Y-102976250D01*
X43785750Y-103135000D01*
X44500000Y-103138072D01*
X44624482Y-103125812D01*
X44744180Y-103089502D01*
X44854494Y-103030537D01*
X44951185Y-102951185D01*
X45030537Y-102854494D01*
X45089502Y-102744180D01*
X45125812Y-102624482D01*
X45138072Y-102500000D01*
X48861928Y-102500000D01*
X48874188Y-102624482D01*
X48910498Y-102744180D01*
X48969463Y-102854494D01*
X49048815Y-102951185D01*
X49145506Y-103030537D01*
X49255820Y-103089502D01*
X49375518Y-103125812D01*
X49500000Y-103138072D01*
X50214250Y-103135000D01*
X50373000Y-102976250D01*
X50373000Y-101877000D01*
X50627000Y-101877000D01*
X50627000Y-102976250D01*
X50785750Y-103135000D01*
X51500000Y-103138072D01*
X51624482Y-103125812D01*
X51744180Y-103089502D01*
X51854494Y-103030537D01*
X51951185Y-102951185D01*
X52030537Y-102854494D01*
X52089502Y-102744180D01*
X52125812Y-102624482D01*
X52138072Y-102500000D01*
X52135000Y-102035750D01*
X51976250Y-101877000D01*
X50627000Y-101877000D01*
X50373000Y-101877000D01*
X49023750Y-101877000D01*
X48865000Y-102035750D01*
X48861928Y-102500000D01*
X45138072Y-102500000D01*
X45135000Y-102035750D01*
X44976250Y-101877000D01*
X43627000Y-101877000D01*
X43373000Y-101877000D01*
X42023750Y-101877000D01*
X41865000Y-102035750D01*
X41861928Y-102500000D01*
X38328355Y-102500000D01*
X39828355Y-101000000D01*
X41861928Y-101000000D01*
X41865000Y-101464250D01*
X42023750Y-101623000D01*
X43373000Y-101623000D01*
X43373000Y-100523750D01*
X43627000Y-100523750D01*
X43627000Y-101623000D01*
X44976250Y-101623000D01*
X45135000Y-101464250D01*
X45138072Y-101000000D01*
X48861928Y-101000000D01*
X48865000Y-101464250D01*
X49023750Y-101623000D01*
X50373000Y-101623000D01*
X50373000Y-100523750D01*
X50627000Y-100523750D01*
X50627000Y-101623000D01*
X51976250Y-101623000D01*
X52135000Y-101464250D01*
X52138072Y-101000000D01*
X52125812Y-100875518D01*
X52089502Y-100755820D01*
X52030537Y-100645506D01*
X51951185Y-100548815D01*
X51854494Y-100469463D01*
X51744180Y-100410498D01*
X51624482Y-100374188D01*
X51500000Y-100361928D01*
X50785750Y-100365000D01*
X50627000Y-100523750D01*
X50373000Y-100523750D01*
X50214250Y-100365000D01*
X49500000Y-100361928D01*
X49375518Y-100374188D01*
X49255820Y-100410498D01*
X49145506Y-100469463D01*
X49048815Y-100548815D01*
X48969463Y-100645506D01*
X48910498Y-100755820D01*
X48874188Y-100875518D01*
X48861928Y-101000000D01*
X45138072Y-101000000D01*
X45125812Y-100875518D01*
X45089502Y-100755820D01*
X45030537Y-100645506D01*
X44951185Y-100548815D01*
X44854494Y-100469463D01*
X44744180Y-100410498D01*
X44624482Y-100374188D01*
X44500000Y-100361928D01*
X43785750Y-100365000D01*
X43627000Y-100523750D01*
X43373000Y-100523750D01*
X43214250Y-100365000D01*
X42500000Y-100361928D01*
X42375518Y-100374188D01*
X42255820Y-100410498D01*
X42145506Y-100469463D01*
X42048815Y-100548815D01*
X41969463Y-100645506D01*
X41910498Y-100755820D01*
X41874188Y-100875518D01*
X41861928Y-101000000D01*
X39828355Y-101000000D01*
X41915694Y-98912662D01*
X41938684Y-98905688D01*
X41945820Y-98909502D01*
X42065518Y-98945812D01*
X42190000Y-98958072D01*
X42199250Y-98955000D01*
X42358000Y-98796250D01*
X42358000Y-98529763D01*
X42388274Y-98473125D01*
X42408277Y-98407182D01*
X42443847Y-98363840D01*
X42537632Y-98188380D01*
X42542449Y-98172500D01*
X42556251Y-98127000D01*
X42612000Y-98127000D01*
X42612000Y-98796250D01*
X42770750Y-98955000D01*
X42780000Y-98958072D01*
X42904482Y-98945812D01*
X43024180Y-98909502D01*
X43134494Y-98850537D01*
X43231185Y-98771185D01*
X43310537Y-98674494D01*
X43369502Y-98564180D01*
X43405812Y-98444482D01*
X43418072Y-98320000D01*
X43415000Y-98285750D01*
X43256250Y-98127000D01*
X42612000Y-98127000D01*
X42556251Y-98127000D01*
X42595385Y-97997995D01*
X42609666Y-97853000D01*
X42612000Y-97853000D01*
X42612000Y-97873000D01*
X43256250Y-97873000D01*
X43415000Y-97714250D01*
X43418072Y-97680000D01*
X43405812Y-97555518D01*
X43369502Y-97435820D01*
X43310537Y-97325506D01*
X43231185Y-97228815D01*
X43134494Y-97149463D01*
X43024180Y-97090498D01*
X42904482Y-97054188D01*
X42780000Y-97041928D01*
X42770750Y-97045000D01*
X42612002Y-97203748D01*
X42612002Y-97045000D01*
X42610000Y-97045000D01*
X42610000Y-95586790D01*
X42619463Y-95604494D01*
X42698815Y-95701185D01*
X42795506Y-95780537D01*
X42905820Y-95839502D01*
X43025518Y-95875812D01*
X43150000Y-95888072D01*
X44850000Y-95888072D01*
X44974482Y-95875812D01*
X45094180Y-95839502D01*
X45204494Y-95780537D01*
X45301185Y-95701185D01*
X45380537Y-95604494D01*
X45439502Y-95494180D01*
X45461513Y-95421620D01*
X45593368Y-95553475D01*
X45836589Y-95715990D01*
X46106842Y-95827932D01*
X46393740Y-95885000D01*
X46686260Y-95885000D01*
X46973158Y-95827932D01*
X47243411Y-95715990D01*
X47486632Y-95553475D01*
X47693475Y-95346632D01*
X47815195Y-95164466D01*
X47884822Y-95281355D01*
X48079731Y-95497588D01*
X48313080Y-95671641D01*
X48575901Y-95796825D01*
X48723110Y-95841476D01*
X48953000Y-95720155D01*
X48953000Y-94527000D01*
X48933000Y-94527000D01*
X48933000Y-94273000D01*
X48953000Y-94273000D01*
X48953000Y-93079845D01*
X48723110Y-92958524D01*
X48575901Y-93003175D01*
X48313080Y-93128359D01*
X48079731Y-93302412D01*
X47884822Y-93518645D01*
X47815195Y-93635534D01*
X47693475Y-93453368D01*
X47486632Y-93246525D01*
X47275000Y-93105117D01*
X47275000Y-85000000D01*
X48861928Y-85000000D01*
X48874188Y-85124482D01*
X48910498Y-85244180D01*
X48969463Y-85354494D01*
X49048815Y-85451185D01*
X49145506Y-85530537D01*
X49255820Y-85589502D01*
X49375518Y-85625812D01*
X49500000Y-85638072D01*
X50214250Y-85635000D01*
X50373000Y-85476250D01*
X50373000Y-84377000D01*
X50627000Y-84377000D01*
X50627000Y-85476250D01*
X50785750Y-85635000D01*
X51500000Y-85638072D01*
X51624482Y-85625812D01*
X51744180Y-85589502D01*
X51854494Y-85530537D01*
X51951185Y-85451185D01*
X52030537Y-85354494D01*
X52089502Y-85244180D01*
X52125812Y-85124482D01*
X52138072Y-85000000D01*
X52135000Y-84535750D01*
X51976250Y-84377000D01*
X50627000Y-84377000D01*
X50373000Y-84377000D01*
X49023750Y-84377000D01*
X48865000Y-84535750D01*
X48861928Y-85000000D01*
X47275000Y-85000000D01*
X47275000Y-83500000D01*
X48861928Y-83500000D01*
X48865000Y-83964250D01*
X49023750Y-84123000D01*
X50373000Y-84123000D01*
X50373000Y-83023750D01*
X50627000Y-83023750D01*
X50627000Y-84123000D01*
X51976250Y-84123000D01*
X52135000Y-83964250D01*
X52138072Y-83500000D01*
X52132798Y-83446452D01*
X52193000Y-83386250D01*
X52193000Y-82727000D01*
X51563750Y-82727000D01*
X51428515Y-82862235D01*
X50785750Y-82865000D01*
X50627000Y-83023750D01*
X50373000Y-83023750D01*
X50214250Y-82865000D01*
X49500000Y-82861928D01*
X49375518Y-82874188D01*
X49255820Y-82910498D01*
X49145506Y-82969463D01*
X49048815Y-83048815D01*
X48969463Y-83145506D01*
X48910498Y-83255820D01*
X48874188Y-83375518D01*
X48861928Y-83500000D01*
X47275000Y-83500000D01*
X47275000Y-76020000D01*
X49241928Y-76020000D01*
X49245000Y-76029250D01*
X49403750Y-76188000D01*
X50073000Y-76188000D01*
X50073000Y-75543750D01*
X49914250Y-75385000D01*
X49880000Y-75381928D01*
X49755518Y-75394188D01*
X49635820Y-75430498D01*
X49525506Y-75489463D01*
X49428815Y-75568815D01*
X49349463Y-75665506D01*
X49290498Y-75775820D01*
X49254188Y-75895518D01*
X49241928Y-76020000D01*
X47275000Y-76020000D01*
X47275000Y-74264446D01*
X48104447Y-73435000D01*
X51763895Y-73435000D01*
X51800000Y-73438556D01*
X51836105Y-73435000D01*
X51944085Y-73424365D01*
X52082633Y-73382337D01*
X52210320Y-73314087D01*
X52322238Y-73222238D01*
X52345258Y-73194188D01*
X53019193Y-72520254D01*
X53047238Y-72497238D01*
X53116311Y-72413072D01*
X53400000Y-72413072D01*
X53500000Y-72403223D01*
X53600000Y-72413072D01*
G04 #@! TA.AperFunction,Conductor*
D22*
G36*
X53600000Y-72413072D02*
G01*
X53715001Y-72413072D01*
X53715000Y-75586928D01*
X53600000Y-75586928D01*
X53500000Y-75596777D01*
X53400000Y-75586928D01*
X52950000Y-75586928D01*
X52850000Y-75596777D01*
X52750000Y-75586928D01*
X52300000Y-75586928D01*
X52200000Y-75596777D01*
X52100000Y-75586928D01*
X51650000Y-75586928D01*
X51525518Y-75599188D01*
X51405820Y-75635498D01*
X51295506Y-75694463D01*
X51198815Y-75773815D01*
X51133161Y-75853814D01*
X51109502Y-75775820D01*
X51050537Y-75665506D01*
X50971185Y-75568815D01*
X50874494Y-75489463D01*
X50764180Y-75430498D01*
X50644482Y-75394188D01*
X50520000Y-75381928D01*
X50485750Y-75385000D01*
X50327000Y-75543750D01*
X50327000Y-76188000D01*
X50347000Y-76188000D01*
X50347000Y-76351928D01*
X50027500Y-76351928D01*
X49874243Y-76367023D01*
X49726875Y-76411726D01*
X49670237Y-76442000D01*
X49403750Y-76442000D01*
X49245000Y-76600750D01*
X49241928Y-76610000D01*
X49254188Y-76734482D01*
X49290498Y-76854180D01*
X49294312Y-76861316D01*
X49257023Y-76984243D01*
X49241928Y-77137500D01*
X49241928Y-77432500D01*
X49257023Y-77585757D01*
X49301726Y-77733125D01*
X49374321Y-77868940D01*
X49472017Y-77987983D01*
X49591060Y-78085679D01*
X49726875Y-78158274D01*
X49874243Y-78202977D01*
X50027500Y-78218072D01*
X50372500Y-78218072D01*
X50525757Y-78202977D01*
X50673125Y-78158274D01*
X50808940Y-78085679D01*
X50888970Y-78020000D01*
X51114388Y-78020000D01*
X51119463Y-78029494D01*
X51198815Y-78126185D01*
X51295506Y-78205537D01*
X51405820Y-78264502D01*
X51525518Y-78300812D01*
X51650000Y-78313072D01*
X52100000Y-78313072D01*
X52200000Y-78303223D01*
X52300000Y-78313072D01*
X52748234Y-78313072D01*
X52700932Y-78427271D01*
X52665000Y-78607911D01*
X52665000Y-78792089D01*
X52700932Y-78972729D01*
X52771414Y-79142889D01*
X52873738Y-79296028D01*
X52922174Y-79344464D01*
X52857111Y-79371414D01*
X52703972Y-79473738D01*
X52573738Y-79603972D01*
X52471414Y-79757111D01*
X52400932Y-79927271D01*
X52365000Y-80107911D01*
X52365000Y-80235553D01*
X52138072Y-80008625D01*
X52138072Y-79000000D01*
X52125812Y-78875518D01*
X52089502Y-78755820D01*
X52030537Y-78645506D01*
X51951185Y-78548815D01*
X51854494Y-78469463D01*
X51744180Y-78410498D01*
X51624482Y-78374188D01*
X51500000Y-78361928D01*
X49500000Y-78361928D01*
X49375518Y-78374188D01*
X49255820Y-78410498D01*
X49145506Y-78469463D01*
X49048815Y-78548815D01*
X48969463Y-78645506D01*
X48910498Y-78755820D01*
X48874188Y-78875518D01*
X48861928Y-79000000D01*
X48861928Y-80500000D01*
X48874188Y-80624482D01*
X48910498Y-80744180D01*
X48969463Y-80854494D01*
X49048815Y-80951185D01*
X49145506Y-81030537D01*
X49255820Y-81089502D01*
X49375518Y-81125812D01*
X49500000Y-81138072D01*
X51188625Y-81138072D01*
X51381928Y-81331375D01*
X51381928Y-81385000D01*
X51396782Y-81535819D01*
X51440775Y-81680842D01*
X51512214Y-81814496D01*
X51560437Y-81873255D01*
X51507844Y-81937941D01*
X51449386Y-82048524D01*
X51413625Y-82168387D01*
X51401935Y-82292923D01*
X51405000Y-82314250D01*
X51563750Y-82473000D01*
X52193000Y-82473000D01*
X52193000Y-82453000D01*
X52361928Y-82453000D01*
X52361928Y-82770000D01*
X52376878Y-82921794D01*
X52421155Y-83067755D01*
X52447000Y-83116108D01*
X52447000Y-83386250D01*
X52605750Y-83545000D01*
X52727348Y-83535235D01*
X52846878Y-83498377D01*
X52856509Y-83493172D01*
X52988206Y-83533122D01*
X53054924Y-83539693D01*
X53003972Y-83573738D01*
X52873738Y-83703972D01*
X52771414Y-83857111D01*
X52700932Y-84027271D01*
X52668068Y-84192485D01*
X52425798Y-84434756D01*
X52397752Y-84457773D01*
X52305903Y-84569691D01*
X52237653Y-84697378D01*
X52211878Y-84782346D01*
X52195625Y-84835925D01*
X52181434Y-84980010D01*
X52184990Y-85016115D01*
X52184990Y-93026675D01*
X52053158Y-92972068D01*
X51766260Y-92915000D01*
X51473740Y-92915000D01*
X51186842Y-92972068D01*
X50916589Y-93084010D01*
X50673368Y-93246525D01*
X50466525Y-93453368D01*
X50344805Y-93635534D01*
X50275178Y-93518645D01*
X50080269Y-93302412D01*
X49846920Y-93128359D01*
X49584099Y-93003175D01*
X49436890Y-92958524D01*
X49207000Y-93079845D01*
X49207000Y-94273000D01*
X49227000Y-94273000D01*
X49227000Y-94527000D01*
X49207000Y-94527000D01*
X49207000Y-95720155D01*
X49436890Y-95841476D01*
X49584099Y-95796825D01*
X49846920Y-95671641D01*
X50080269Y-95497588D01*
X50275178Y-95281355D01*
X50344805Y-95164466D01*
X50466525Y-95346632D01*
X50673368Y-95553475D01*
X50916589Y-95715990D01*
X51186842Y-95827932D01*
X51473740Y-95885000D01*
X51766260Y-95885000D01*
X52053158Y-95827932D01*
X52184991Y-95773325D01*
X52184991Y-103845376D01*
X52095518Y-103854188D01*
X51975820Y-103890498D01*
X51865506Y-103949463D01*
X51768815Y-104028815D01*
X51689463Y-104125506D01*
X51630498Y-104235820D01*
X51594188Y-104355518D01*
X51581928Y-104480000D01*
X51585000Y-104514250D01*
X51743750Y-104673000D01*
X52328629Y-104673000D01*
X52397753Y-104757228D01*
X52425798Y-104780244D01*
X52551928Y-104906374D01*
X52551928Y-104947000D01*
X52388000Y-104947000D01*
X52388000Y-104927000D01*
X51775053Y-104927000D01*
X51744180Y-104910498D01*
X51624482Y-104874188D01*
X51500000Y-104861928D01*
X49500000Y-104861928D01*
X49375518Y-104874188D01*
X49255820Y-104910498D01*
X49145506Y-104969463D01*
X49048815Y-105048815D01*
X48969463Y-105145506D01*
X48910498Y-105255820D01*
X48874188Y-105375518D01*
X48861928Y-105500000D01*
X48861928Y-107000000D01*
X48874188Y-107124482D01*
X48910498Y-107244180D01*
X48969463Y-107354494D01*
X49048815Y-107451185D01*
X49145506Y-107530537D01*
X49255820Y-107589502D01*
X49375518Y-107625812D01*
X49500000Y-107638072D01*
X51500000Y-107638072D01*
X51624482Y-107625812D01*
X51744180Y-107589502D01*
X51854494Y-107530537D01*
X51951185Y-107451185D01*
X52030537Y-107354494D01*
X52089502Y-107244180D01*
X52125812Y-107124482D01*
X52126294Y-107119591D01*
X52204181Y-107143218D01*
X52355000Y-107158072D01*
X52625000Y-107158072D01*
X52775819Y-107143218D01*
X52920842Y-107099225D01*
X53000000Y-107056914D01*
X53079158Y-107099225D01*
X53224181Y-107143218D01*
X53375000Y-107158072D01*
X53645000Y-107158072D01*
X53795819Y-107143218D01*
X53940842Y-107099225D01*
X54074496Y-107027786D01*
X54191644Y-106931644D01*
X54287786Y-106814496D01*
X54359225Y-106680842D01*
X54403218Y-106535819D01*
X54418072Y-106385000D01*
X54418072Y-106015000D01*
X54403218Y-105864181D01*
X54359225Y-105719158D01*
X54287786Y-105585504D01*
X54220000Y-105502907D01*
X54220000Y-105488970D01*
X54285679Y-105408940D01*
X54358274Y-105273125D01*
X54402977Y-105125757D01*
X54418072Y-104972500D01*
X54418072Y-104627500D01*
X54402977Y-104474243D01*
X54358274Y-104326875D01*
X54285679Y-104191060D01*
X54187983Y-104072017D01*
X54068940Y-103974321D01*
X53933125Y-103901726D01*
X53785757Y-103857023D01*
X53654990Y-103844143D01*
X53654990Y-100809240D01*
X53800750Y-100955000D01*
X53810000Y-100958072D01*
X53934482Y-100945812D01*
X53939238Y-100944369D01*
X57236856Y-104241988D01*
X57366377Y-104348283D01*
X57563553Y-104453675D01*
X57777500Y-104518577D01*
X57999999Y-104540490D01*
X58222498Y-104518577D01*
X58436446Y-104453675D01*
X58633622Y-104348283D01*
X58806448Y-104206448D01*
X58948283Y-104033622D01*
X59053675Y-103836446D01*
X59118577Y-103622498D01*
X59140490Y-103399999D01*
X59118577Y-103177500D01*
X59053675Y-102963553D01*
X58948283Y-102766377D01*
X58841988Y-102636856D01*
X55834999Y-99629868D01*
X55834999Y-97409582D01*
X55941331Y-97480631D01*
X56348075Y-97649110D01*
X56779872Y-97735000D01*
X57220128Y-97735000D01*
X57651925Y-97649110D01*
X58058669Y-97480631D01*
X58424729Y-97236038D01*
X58736038Y-96924729D01*
X58980631Y-96558669D01*
X59149110Y-96151925D01*
X59235000Y-95720128D01*
X59235000Y-95279872D01*
X59149110Y-94848075D01*
X58980631Y-94441331D01*
X58736038Y-94075271D01*
X58424729Y-93763962D01*
X58058669Y-93519369D01*
X57651925Y-93350890D01*
X57220128Y-93265000D01*
X56779872Y-93265000D01*
X56348075Y-93350890D01*
X55941331Y-93519369D01*
X55834999Y-93590418D01*
X55834999Y-85226465D01*
X55972729Y-85199068D01*
X56142889Y-85128586D01*
X56296028Y-85026262D01*
X56426262Y-84896028D01*
X56528586Y-84742889D01*
X56599068Y-84572729D01*
X56635000Y-84392089D01*
X56635000Y-84207911D01*
X56599068Y-84027271D01*
X56528586Y-83857111D01*
X56426262Y-83703972D01*
X56296028Y-83573738D01*
X56235009Y-83532966D01*
X56235009Y-81800000D01*
X57461928Y-81800000D01*
X57474188Y-81924482D01*
X57510498Y-82044180D01*
X57569463Y-82154494D01*
X57648815Y-82251185D01*
X57745506Y-82330537D01*
X57855820Y-82389502D01*
X57975518Y-82425812D01*
X58100000Y-82438072D01*
X58514250Y-82435000D01*
X58673000Y-82276250D01*
X58673000Y-81327000D01*
X57623750Y-81327000D01*
X57465000Y-81485750D01*
X57461928Y-81800000D01*
X56235009Y-81800000D01*
X56235009Y-81026466D01*
X56372748Y-80999068D01*
X56542908Y-80928586D01*
X56696047Y-80826262D01*
X56826281Y-80696028D01*
X56928605Y-80542889D01*
X56999087Y-80372729D01*
X57035019Y-80192089D01*
X57035019Y-80007911D01*
X57009169Y-79877955D01*
X57017367Y-79882337D01*
X57155915Y-79924365D01*
X57263895Y-79935000D01*
X57263904Y-79935000D01*
X57299999Y-79938555D01*
X57336094Y-79935000D01*
X57553661Y-79935000D01*
X57611595Y-80043387D01*
X57678276Y-80124637D01*
X57648815Y-80148815D01*
X57569463Y-80245506D01*
X57510498Y-80355820D01*
X57474188Y-80475518D01*
X57461928Y-80600000D01*
X57465000Y-80914250D01*
X57623750Y-81073000D01*
X58673000Y-81073000D01*
X58673000Y-81053000D01*
X58927000Y-81053000D01*
X58927000Y-81073000D01*
X58947000Y-81073000D01*
X58947000Y-81327000D01*
X58927000Y-81327000D01*
X58927000Y-82276250D01*
X59085750Y-82435000D01*
X59340001Y-82436885D01*
X59340001Y-115967711D01*
X59311375Y-116259660D01*
X59235965Y-116509429D01*
X59113477Y-116739794D01*
X58948579Y-116941979D01*
X58747546Y-117108288D01*
X58518046Y-117232378D01*
X58268805Y-117309531D01*
X57978911Y-117340000D01*
X36032279Y-117340000D01*
X35740340Y-117311375D01*
X35490571Y-117235965D01*
X35260206Y-117113477D01*
X35058021Y-116948579D01*
X34891712Y-116747546D01*
X34767622Y-116518046D01*
X34690469Y-116268805D01*
X34660000Y-115978911D01*
X34660000Y-105500000D01*
X41861928Y-105500000D01*
X41861928Y-107000000D01*
X41874188Y-107124482D01*
X41910498Y-107244180D01*
X41969463Y-107354494D01*
X42048815Y-107451185D01*
X42145506Y-107530537D01*
X42255820Y-107589502D01*
X42375518Y-107625812D01*
X42500000Y-107638072D01*
X44500000Y-107638072D01*
X44624482Y-107625812D01*
X44744180Y-107589502D01*
X44854494Y-107530537D01*
X44951185Y-107451185D01*
X45030537Y-107354494D01*
X45089502Y-107244180D01*
X45125812Y-107124482D01*
X45138072Y-107000000D01*
X45138072Y-105500000D01*
X45125812Y-105375518D01*
X45089502Y-105255820D01*
X45030537Y-105145506D01*
X44951185Y-105048815D01*
X44854494Y-104969463D01*
X44744180Y-104910498D01*
X44624482Y-104874188D01*
X44500000Y-104861928D01*
X42500000Y-104861928D01*
X42375518Y-104874188D01*
X42255820Y-104910498D01*
X42145506Y-104969463D01*
X42048815Y-105048815D01*
X41969463Y-105145506D01*
X41910498Y-105255820D01*
X41874188Y-105375518D01*
X41861928Y-105500000D01*
X34660000Y-105500000D01*
X34660000Y-95279872D01*
X34765000Y-95279872D01*
X34765000Y-95720128D01*
X34850890Y-96151925D01*
X35019369Y-96558669D01*
X35263962Y-96924729D01*
X35575271Y-97236038D01*
X35941331Y-97480631D01*
X36348075Y-97649110D01*
X36779872Y-97735000D01*
X37220128Y-97735000D01*
X37651925Y-97649110D01*
X38058669Y-97480631D01*
X38424729Y-97236038D01*
X38736038Y-96924729D01*
X38980631Y-96558669D01*
X39149110Y-96151925D01*
X39235000Y-95720128D01*
X39235000Y-95279872D01*
X39149110Y-94848075D01*
X38980631Y-94441331D01*
X38736038Y-94075271D01*
X38424729Y-93763962D01*
X38058669Y-93519369D01*
X37651925Y-93350890D01*
X37220128Y-93265000D01*
X36779872Y-93265000D01*
X36348075Y-93350890D01*
X35941331Y-93519369D01*
X35575271Y-93763962D01*
X35263962Y-94075271D01*
X35019369Y-94441331D01*
X34850890Y-94848075D01*
X34765000Y-95279872D01*
X34660000Y-95279872D01*
X34660000Y-82548716D01*
X34755000Y-82558072D01*
X35025000Y-82558072D01*
X35175819Y-82543218D01*
X35320842Y-82499225D01*
X35348549Y-82484416D01*
X35388558Y-82506441D01*
X35507798Y-82544226D01*
X35624250Y-82555000D01*
X35783000Y-82396250D01*
X35783000Y-81936538D01*
X35783218Y-81935819D01*
X35798072Y-81785000D01*
X35798072Y-81727000D01*
X36037000Y-81727000D01*
X36037000Y-82396250D01*
X36195750Y-82555000D01*
X36312202Y-82544226D01*
X36431442Y-82506441D01*
X36541020Y-82446118D01*
X36636724Y-82365578D01*
X36714876Y-82267914D01*
X36772473Y-82156879D01*
X36807301Y-82036742D01*
X36818023Y-81912119D01*
X36815000Y-81885750D01*
X36656250Y-81727000D01*
X36037000Y-81727000D01*
X35798072Y-81727000D01*
X35798072Y-81453000D01*
X36037000Y-81453000D01*
X36037000Y-81473000D01*
X36656250Y-81473000D01*
X36815000Y-81314250D01*
X36818023Y-81287881D01*
X36807301Y-81163258D01*
X36772473Y-81043121D01*
X36714876Y-80932086D01*
X36699661Y-80913072D01*
X36806250Y-80913072D01*
X36973408Y-80896608D01*
X37134142Y-80847850D01*
X37282275Y-80768671D01*
X37412115Y-80662115D01*
X37518671Y-80532275D01*
X37597850Y-80384142D01*
X37646608Y-80223408D01*
X37663072Y-80056250D01*
X37663072Y-79543750D01*
X37646608Y-79376592D01*
X37597850Y-79215858D01*
X37518671Y-79067725D01*
X37412115Y-78937885D01*
X37282275Y-78831329D01*
X37134142Y-78752150D01*
X36973408Y-78703392D01*
X36806250Y-78686928D01*
X36535000Y-78686928D01*
X36535000Y-77888072D01*
X36650000Y-77888072D01*
X36774482Y-77875812D01*
X36894180Y-77839502D01*
X37004494Y-77780537D01*
X37101185Y-77701185D01*
X37180537Y-77604494D01*
X37239502Y-77494180D01*
X37275812Y-77374482D01*
X37288072Y-77250000D01*
X37288072Y-77135000D01*
X38063895Y-77135000D01*
X38100000Y-77138556D01*
X38136105Y-77135000D01*
X38244085Y-77124365D01*
X38382633Y-77082337D01*
X38510320Y-77014087D01*
X38622238Y-76922238D01*
X38645259Y-76894188D01*
X40590000Y-74949447D01*
X40590001Y-97381643D01*
X35446777Y-102524868D01*
X35340226Y-102596063D01*
X35196063Y-102740226D01*
X35082795Y-102909744D01*
X35004774Y-103098102D01*
X34965000Y-103298061D01*
X34965000Y-103501939D01*
X35004774Y-103701898D01*
X35082795Y-103890256D01*
X35196063Y-104059774D01*
X35340226Y-104203937D01*
X35509744Y-104317205D01*
X35698102Y-104395226D01*
X35898061Y-104435000D01*
X36101939Y-104435000D01*
X36301898Y-104395226D01*
X36490256Y-104317205D01*
X36659774Y-104203937D01*
X36803937Y-104059774D01*
X36875132Y-103953223D01*
X38328355Y-102500000D01*
X41861928Y-102500000D01*
X41874188Y-102624482D01*
X41910498Y-102744180D01*
X41969463Y-102854494D01*
X42048815Y-102951185D01*
X42145506Y-103030537D01*
X42255820Y-103089502D01*
X42375518Y-103125812D01*
X42500000Y-103138072D01*
X43214250Y-103135000D01*
X43373000Y-102976250D01*
X43373000Y-101877000D01*
X43627000Y-101877000D01*
X43627000Y-102976250D01*
X43785750Y-103135000D01*
X44500000Y-103138072D01*
X44624482Y-103125812D01*
X44744180Y-103089502D01*
X44854494Y-103030537D01*
X44951185Y-102951185D01*
X45030537Y-102854494D01*
X45089502Y-102744180D01*
X45125812Y-102624482D01*
X45138072Y-102500000D01*
X48861928Y-102500000D01*
X48874188Y-102624482D01*
X48910498Y-102744180D01*
X48969463Y-102854494D01*
X49048815Y-102951185D01*
X49145506Y-103030537D01*
X49255820Y-103089502D01*
X49375518Y-103125812D01*
X49500000Y-103138072D01*
X50214250Y-103135000D01*
X50373000Y-102976250D01*
X50373000Y-101877000D01*
X50627000Y-101877000D01*
X50627000Y-102976250D01*
X50785750Y-103135000D01*
X51500000Y-103138072D01*
X51624482Y-103125812D01*
X51744180Y-103089502D01*
X51854494Y-103030537D01*
X51951185Y-102951185D01*
X52030537Y-102854494D01*
X52089502Y-102744180D01*
X52125812Y-102624482D01*
X52138072Y-102500000D01*
X52135000Y-102035750D01*
X51976250Y-101877000D01*
X50627000Y-101877000D01*
X50373000Y-101877000D01*
X49023750Y-101877000D01*
X48865000Y-102035750D01*
X48861928Y-102500000D01*
X45138072Y-102500000D01*
X45135000Y-102035750D01*
X44976250Y-101877000D01*
X43627000Y-101877000D01*
X43373000Y-101877000D01*
X42023750Y-101877000D01*
X41865000Y-102035750D01*
X41861928Y-102500000D01*
X38328355Y-102500000D01*
X39828355Y-101000000D01*
X41861928Y-101000000D01*
X41865000Y-101464250D01*
X42023750Y-101623000D01*
X43373000Y-101623000D01*
X43373000Y-100523750D01*
X43627000Y-100523750D01*
X43627000Y-101623000D01*
X44976250Y-101623000D01*
X45135000Y-101464250D01*
X45138072Y-101000000D01*
X48861928Y-101000000D01*
X48865000Y-101464250D01*
X49023750Y-101623000D01*
X50373000Y-101623000D01*
X50373000Y-100523750D01*
X50627000Y-100523750D01*
X50627000Y-101623000D01*
X51976250Y-101623000D01*
X52135000Y-101464250D01*
X52138072Y-101000000D01*
X52125812Y-100875518D01*
X52089502Y-100755820D01*
X52030537Y-100645506D01*
X51951185Y-100548815D01*
X51854494Y-100469463D01*
X51744180Y-100410498D01*
X51624482Y-100374188D01*
X51500000Y-100361928D01*
X50785750Y-100365000D01*
X50627000Y-100523750D01*
X50373000Y-100523750D01*
X50214250Y-100365000D01*
X49500000Y-100361928D01*
X49375518Y-100374188D01*
X49255820Y-100410498D01*
X49145506Y-100469463D01*
X49048815Y-100548815D01*
X48969463Y-100645506D01*
X48910498Y-100755820D01*
X48874188Y-100875518D01*
X48861928Y-101000000D01*
X45138072Y-101000000D01*
X45125812Y-100875518D01*
X45089502Y-100755820D01*
X45030537Y-100645506D01*
X44951185Y-100548815D01*
X44854494Y-100469463D01*
X44744180Y-100410498D01*
X44624482Y-100374188D01*
X44500000Y-100361928D01*
X43785750Y-100365000D01*
X43627000Y-100523750D01*
X43373000Y-100523750D01*
X43214250Y-100365000D01*
X42500000Y-100361928D01*
X42375518Y-100374188D01*
X42255820Y-100410498D01*
X42145506Y-100469463D01*
X42048815Y-100548815D01*
X41969463Y-100645506D01*
X41910498Y-100755820D01*
X41874188Y-100875518D01*
X41861928Y-101000000D01*
X39828355Y-101000000D01*
X41915694Y-98912662D01*
X41938684Y-98905688D01*
X41945820Y-98909502D01*
X42065518Y-98945812D01*
X42190000Y-98958072D01*
X42199250Y-98955000D01*
X42358000Y-98796250D01*
X42358000Y-98529763D01*
X42388274Y-98473125D01*
X42408277Y-98407182D01*
X42443847Y-98363840D01*
X42537632Y-98188380D01*
X42542449Y-98172500D01*
X42556251Y-98127000D01*
X42612000Y-98127000D01*
X42612000Y-98796250D01*
X42770750Y-98955000D01*
X42780000Y-98958072D01*
X42904482Y-98945812D01*
X43024180Y-98909502D01*
X43134494Y-98850537D01*
X43231185Y-98771185D01*
X43310537Y-98674494D01*
X43369502Y-98564180D01*
X43405812Y-98444482D01*
X43418072Y-98320000D01*
X43415000Y-98285750D01*
X43256250Y-98127000D01*
X42612000Y-98127000D01*
X42556251Y-98127000D01*
X42595385Y-97997995D01*
X42609666Y-97853000D01*
X42612000Y-97853000D01*
X42612000Y-97873000D01*
X43256250Y-97873000D01*
X43415000Y-97714250D01*
X43418072Y-97680000D01*
X43405812Y-97555518D01*
X43369502Y-97435820D01*
X43310537Y-97325506D01*
X43231185Y-97228815D01*
X43134494Y-97149463D01*
X43024180Y-97090498D01*
X42904482Y-97054188D01*
X42780000Y-97041928D01*
X42770750Y-97045000D01*
X42612002Y-97203748D01*
X42612002Y-97045000D01*
X42610000Y-97045000D01*
X42610000Y-95586790D01*
X42619463Y-95604494D01*
X42698815Y-95701185D01*
X42795506Y-95780537D01*
X42905820Y-95839502D01*
X43025518Y-95875812D01*
X43150000Y-95888072D01*
X44850000Y-95888072D01*
X44974482Y-95875812D01*
X45094180Y-95839502D01*
X45204494Y-95780537D01*
X45301185Y-95701185D01*
X45380537Y-95604494D01*
X45439502Y-95494180D01*
X45461513Y-95421620D01*
X45593368Y-95553475D01*
X45836589Y-95715990D01*
X46106842Y-95827932D01*
X46393740Y-95885000D01*
X46686260Y-95885000D01*
X46973158Y-95827932D01*
X47243411Y-95715990D01*
X47486632Y-95553475D01*
X47693475Y-95346632D01*
X47815195Y-95164466D01*
X47884822Y-95281355D01*
X48079731Y-95497588D01*
X48313080Y-95671641D01*
X48575901Y-95796825D01*
X48723110Y-95841476D01*
X48953000Y-95720155D01*
X48953000Y-94527000D01*
X48933000Y-94527000D01*
X48933000Y-94273000D01*
X48953000Y-94273000D01*
X48953000Y-93079845D01*
X48723110Y-92958524D01*
X48575901Y-93003175D01*
X48313080Y-93128359D01*
X48079731Y-93302412D01*
X47884822Y-93518645D01*
X47815195Y-93635534D01*
X47693475Y-93453368D01*
X47486632Y-93246525D01*
X47275000Y-93105117D01*
X47275000Y-85000000D01*
X48861928Y-85000000D01*
X48874188Y-85124482D01*
X48910498Y-85244180D01*
X48969463Y-85354494D01*
X49048815Y-85451185D01*
X49145506Y-85530537D01*
X49255820Y-85589502D01*
X49375518Y-85625812D01*
X49500000Y-85638072D01*
X50214250Y-85635000D01*
X50373000Y-85476250D01*
X50373000Y-84377000D01*
X50627000Y-84377000D01*
X50627000Y-85476250D01*
X50785750Y-85635000D01*
X51500000Y-85638072D01*
X51624482Y-85625812D01*
X51744180Y-85589502D01*
X51854494Y-85530537D01*
X51951185Y-85451185D01*
X52030537Y-85354494D01*
X52089502Y-85244180D01*
X52125812Y-85124482D01*
X52138072Y-85000000D01*
X52135000Y-84535750D01*
X51976250Y-84377000D01*
X50627000Y-84377000D01*
X50373000Y-84377000D01*
X49023750Y-84377000D01*
X48865000Y-84535750D01*
X48861928Y-85000000D01*
X47275000Y-85000000D01*
X47275000Y-83500000D01*
X48861928Y-83500000D01*
X48865000Y-83964250D01*
X49023750Y-84123000D01*
X50373000Y-84123000D01*
X50373000Y-83023750D01*
X50627000Y-83023750D01*
X50627000Y-84123000D01*
X51976250Y-84123000D01*
X52135000Y-83964250D01*
X52138072Y-83500000D01*
X52132798Y-83446452D01*
X52193000Y-83386250D01*
X52193000Y-82727000D01*
X51563750Y-82727000D01*
X51428515Y-82862235D01*
X50785750Y-82865000D01*
X50627000Y-83023750D01*
X50373000Y-83023750D01*
X50214250Y-82865000D01*
X49500000Y-82861928D01*
X49375518Y-82874188D01*
X49255820Y-82910498D01*
X49145506Y-82969463D01*
X49048815Y-83048815D01*
X48969463Y-83145506D01*
X48910498Y-83255820D01*
X48874188Y-83375518D01*
X48861928Y-83500000D01*
X47275000Y-83500000D01*
X47275000Y-76020000D01*
X49241928Y-76020000D01*
X49245000Y-76029250D01*
X49403750Y-76188000D01*
X50073000Y-76188000D01*
X50073000Y-75543750D01*
X49914250Y-75385000D01*
X49880000Y-75381928D01*
X49755518Y-75394188D01*
X49635820Y-75430498D01*
X49525506Y-75489463D01*
X49428815Y-75568815D01*
X49349463Y-75665506D01*
X49290498Y-75775820D01*
X49254188Y-75895518D01*
X49241928Y-76020000D01*
X47275000Y-76020000D01*
X47275000Y-74264446D01*
X48104447Y-73435000D01*
X51763895Y-73435000D01*
X51800000Y-73438556D01*
X51836105Y-73435000D01*
X51944085Y-73424365D01*
X52082633Y-73382337D01*
X52210320Y-73314087D01*
X52322238Y-73222238D01*
X52345258Y-73194188D01*
X53019193Y-72520254D01*
X53047238Y-72497238D01*
X53116311Y-72413072D01*
X53400000Y-72413072D01*
X53500000Y-72403223D01*
X53600000Y-72413072D01*
G37*
G04 #@! TD.AperFunction*
D21*
X55305820Y-72364502D02*
X55349503Y-72377753D01*
X55381750Y-72410000D01*
X55446773Y-72402905D01*
X55550000Y-72413072D01*
X56000000Y-72413072D01*
X56100000Y-72403223D01*
X56200000Y-72413072D01*
X56650000Y-72413072D01*
X56750000Y-72403223D01*
X56850000Y-72413072D01*
X57300000Y-72413072D01*
X57400000Y-72403223D01*
X57500000Y-72413072D01*
X57565001Y-72413072D01*
X57565002Y-74139142D01*
X57472729Y-74100922D01*
X57292089Y-74064990D01*
X57107911Y-74064990D01*
X56927271Y-74100922D01*
X56757111Y-74171404D01*
X56603972Y-74273728D01*
X56473738Y-74403962D01*
X56432954Y-74465000D01*
X56407911Y-74465000D01*
X56227271Y-74500932D01*
X56057111Y-74571414D01*
X55903972Y-74673738D01*
X55773738Y-74803972D01*
X55671414Y-74957111D01*
X55600932Y-75127271D01*
X55565000Y-75307911D01*
X55565000Y-75492089D01*
X55583865Y-75586928D01*
X55550000Y-75586928D01*
X55450000Y-75596777D01*
X55350000Y-75586928D01*
X55235000Y-75586928D01*
X55235000Y-72410000D01*
X55252002Y-72410000D01*
X55252002Y-72335735D01*
X55305820Y-72364502D01*
G04 #@! TA.AperFunction,Conductor*
D22*
G36*
X55305820Y-72364502D02*
G01*
X55349503Y-72377753D01*
X55381750Y-72410000D01*
X55446773Y-72402905D01*
X55550000Y-72413072D01*
X56000000Y-72413072D01*
X56100000Y-72403223D01*
X56200000Y-72413072D01*
X56650000Y-72413072D01*
X56750000Y-72403223D01*
X56850000Y-72413072D01*
X57300000Y-72413072D01*
X57400000Y-72403223D01*
X57500000Y-72413072D01*
X57565001Y-72413072D01*
X57565002Y-74139142D01*
X57472729Y-74100922D01*
X57292089Y-74064990D01*
X57107911Y-74064990D01*
X56927271Y-74100922D01*
X56757111Y-74171404D01*
X56603972Y-74273728D01*
X56473738Y-74403962D01*
X56432954Y-74465000D01*
X56407911Y-74465000D01*
X56227271Y-74500932D01*
X56057111Y-74571414D01*
X55903972Y-74673738D01*
X55773738Y-74803972D01*
X55671414Y-74957111D01*
X55600932Y-75127271D01*
X55565000Y-75307911D01*
X55565000Y-75492089D01*
X55583865Y-75586928D01*
X55550000Y-75586928D01*
X55450000Y-75596777D01*
X55350000Y-75586928D01*
X55235000Y-75586928D01*
X55235000Y-72410000D01*
X55252002Y-72410000D01*
X55252002Y-72335735D01*
X55305820Y-72364502D01*
G37*
G04 #@! TD.AperFunction*
D21*
X39890000Y-44745742D02*
X39906424Y-44912489D01*
X39971325Y-45126437D01*
X40046248Y-45266609D01*
X39946324Y-45453553D01*
X39881423Y-45667501D01*
X39865000Y-45834248D01*
X39865000Y-46755751D01*
X39881423Y-46922498D01*
X39946324Y-47136446D01*
X40051716Y-47333623D01*
X40193551Y-47506449D01*
X40366377Y-47648284D01*
X40563553Y-47753676D01*
X40777501Y-47818577D01*
X41000000Y-47840491D01*
X41222498Y-47818577D01*
X41436446Y-47753676D01*
X41633623Y-47648284D01*
X41806449Y-47506449D01*
X41948284Y-47333623D01*
X42053676Y-47136447D01*
X42118577Y-46922499D01*
X42135000Y-46755752D01*
X42135000Y-45834249D01*
X42118577Y-45667502D01*
X42053676Y-45453553D01*
X41978753Y-45313381D01*
X42078676Y-45126437D01*
X42143577Y-44912489D01*
X42160000Y-44745742D01*
X42160000Y-44494250D01*
X42258000Y-44396250D01*
X42258000Y-44129763D01*
X42288274Y-44073125D01*
X42332977Y-43925757D01*
X42348072Y-43772500D01*
X42348072Y-43727000D01*
X42512000Y-43727000D01*
X42512000Y-44396250D01*
X42670750Y-44555000D01*
X42680000Y-44558072D01*
X42804482Y-44545812D01*
X42924180Y-44509502D01*
X43034494Y-44450537D01*
X43131185Y-44371185D01*
X43210537Y-44274494D01*
X43269502Y-44164180D01*
X43305812Y-44044482D01*
X43318072Y-43920000D01*
X43315000Y-43885750D01*
X43156250Y-43727000D01*
X42512000Y-43727000D01*
X42348072Y-43727000D01*
X42348072Y-43453000D01*
X42512000Y-43453000D01*
X42512000Y-43473000D01*
X43156250Y-43473000D01*
X43315000Y-43314250D01*
X43318072Y-43280000D01*
X43305812Y-43155518D01*
X43297161Y-43127000D01*
X57873000Y-43127000D01*
X57873000Y-43647993D01*
X57865000Y-43688212D01*
X57865000Y-43911788D01*
X57873000Y-43952007D01*
X57873000Y-44442462D01*
X57651925Y-44350890D01*
X57220128Y-44265000D01*
X56779872Y-44265000D01*
X56348075Y-44350890D01*
X55941331Y-44519369D01*
X55575271Y-44763962D01*
X55263962Y-45075271D01*
X55019369Y-45441331D01*
X54850890Y-45848075D01*
X54765000Y-46279872D01*
X54765000Y-46720128D01*
X54850890Y-47151925D01*
X55019369Y-47558669D01*
X55263962Y-47924729D01*
X55575271Y-48236038D01*
X55941331Y-48480631D01*
X56348075Y-48649110D01*
X56779872Y-48735000D01*
X57220128Y-48735000D01*
X57651925Y-48649110D01*
X58058669Y-48480631D01*
X58424729Y-48236038D01*
X58736038Y-47924729D01*
X58980631Y-47558669D01*
X59149110Y-47151925D01*
X59235000Y-46720128D01*
X59235000Y-46279872D01*
X59149110Y-45848075D01*
X58980631Y-45441331D01*
X58770602Y-45127000D01*
X59340000Y-45127000D01*
X59340000Y-67800554D01*
X55645259Y-64105813D01*
X55622238Y-64077762D01*
X55510320Y-63985913D01*
X55382633Y-63917663D01*
X55244085Y-63875635D01*
X55136105Y-63865000D01*
X55100000Y-63861444D01*
X55063895Y-63865000D01*
X54839672Y-63865000D01*
X54885679Y-63808940D01*
X54958274Y-63673125D01*
X55002977Y-63525757D01*
X55018072Y-63372500D01*
X55018072Y-63027500D01*
X55002977Y-62874243D01*
X54958274Y-62726875D01*
X54885679Y-62591060D01*
X54787983Y-62472017D01*
X54668940Y-62374321D01*
X54533125Y-62301726D01*
X54385757Y-62257023D01*
X54232500Y-62241928D01*
X53937500Y-62241928D01*
X53784243Y-62257023D01*
X53636875Y-62301726D01*
X53600000Y-62321436D01*
X53563125Y-62301726D01*
X53415757Y-62257023D01*
X53262500Y-62241928D01*
X52967500Y-62241928D01*
X52814243Y-62257023D01*
X52666875Y-62301726D01*
X52531060Y-62374321D01*
X52412017Y-62472017D01*
X52314321Y-62591060D01*
X52241726Y-62726875D01*
X52197023Y-62874243D01*
X52183159Y-63015000D01*
X52138072Y-63015000D01*
X52138072Y-63000000D01*
X52125812Y-62875518D01*
X52089502Y-62755820D01*
X52030537Y-62645506D01*
X51951185Y-62548815D01*
X51854494Y-62469463D01*
X51744180Y-62410498D01*
X51624482Y-62374188D01*
X51500000Y-62361928D01*
X49500000Y-62361928D01*
X49375518Y-62374188D01*
X49255820Y-62410498D01*
X49145506Y-62469463D01*
X49048815Y-62548815D01*
X48969463Y-62645506D01*
X48910498Y-62755820D01*
X48874188Y-62875518D01*
X48861928Y-63000000D01*
X48861928Y-64500000D01*
X48874188Y-64624482D01*
X48910498Y-64744180D01*
X48969463Y-64854494D01*
X49048815Y-64951185D01*
X49145506Y-65030537D01*
X49255820Y-65089502D01*
X49375518Y-65125812D01*
X49500000Y-65138072D01*
X51500000Y-65138072D01*
X51624482Y-65125812D01*
X51744180Y-65089502D01*
X51854494Y-65030537D01*
X51951185Y-64951185D01*
X51976777Y-64920000D01*
X52181928Y-64920000D01*
X52194188Y-65044482D01*
X52230498Y-65164180D01*
X52289463Y-65274494D01*
X52368815Y-65371185D01*
X52465506Y-65450537D01*
X52575820Y-65509502D01*
X52695518Y-65545812D01*
X52820000Y-65558072D01*
X52829250Y-65555000D01*
X52988000Y-65396250D01*
X52988000Y-64727000D01*
X52343750Y-64727000D01*
X52185000Y-64885750D01*
X52181928Y-64920000D01*
X51976777Y-64920000D01*
X52030537Y-64854494D01*
X52089502Y-64744180D01*
X52125812Y-64624482D01*
X52138072Y-64500000D01*
X52138072Y-64485000D01*
X52528895Y-64485000D01*
X52565000Y-64488556D01*
X52601105Y-64485000D01*
X52709085Y-64474365D01*
X52713585Y-64473000D01*
X52988000Y-64473000D01*
X52988000Y-64453000D01*
X53151928Y-64453000D01*
X53151928Y-64772500D01*
X53167023Y-64925757D01*
X53211726Y-65073125D01*
X53242000Y-65129763D01*
X53242000Y-65396250D01*
X53400750Y-65555000D01*
X53410000Y-65558072D01*
X53534482Y-65545812D01*
X53654180Y-65509502D01*
X53661316Y-65505688D01*
X53784243Y-65542977D01*
X53937500Y-65558072D01*
X54232500Y-65558072D01*
X54385757Y-65542977D01*
X54533125Y-65498274D01*
X54668940Y-65425679D01*
X54779433Y-65335000D01*
X54795554Y-65335000D01*
X55330058Y-65869504D01*
X55231424Y-66017121D01*
X55160942Y-66187281D01*
X55125010Y-66367921D01*
X55125010Y-66552099D01*
X55160942Y-66732739D01*
X55223840Y-66884590D01*
X55194250Y-66855000D01*
X55072652Y-66864765D01*
X54953122Y-66901623D01*
X54943491Y-66906828D01*
X54811794Y-66866878D01*
X54660000Y-66851928D01*
X54380000Y-66851928D01*
X54228206Y-66866878D01*
X54082245Y-66911155D01*
X53947726Y-66983057D01*
X53829820Y-67079820D01*
X53733057Y-67197726D01*
X53661155Y-67332245D01*
X53616878Y-67478206D01*
X53616386Y-67483206D01*
X53527271Y-67500932D01*
X53357111Y-67571414D01*
X53203972Y-67673738D01*
X53073738Y-67803972D01*
X52971414Y-67957111D01*
X52900932Y-68127271D01*
X52865000Y-68307911D01*
X52865000Y-68492089D01*
X52900932Y-68672729D01*
X52971414Y-68842889D01*
X53065000Y-68982951D01*
X53065000Y-69287428D01*
X53038894Y-69289999D01*
X52065011Y-69289999D01*
X52089502Y-69244180D01*
X52125812Y-69124482D01*
X52138072Y-69000000D01*
X52135000Y-68535750D01*
X51976250Y-68377000D01*
X50627000Y-68377000D01*
X50627000Y-68397000D01*
X50373000Y-68397000D01*
X50373000Y-68377000D01*
X49023750Y-68377000D01*
X48865000Y-68535750D01*
X48861928Y-69000000D01*
X48874188Y-69124482D01*
X48910498Y-69244180D01*
X48934989Y-69289999D01*
X48911095Y-69289999D01*
X48875000Y-69286444D01*
X48838905Y-69289999D01*
X48838896Y-69289999D01*
X48730916Y-69300634D01*
X48592368Y-69342662D01*
X48464681Y-69410912D01*
X48352763Y-69502761D01*
X48329747Y-69530806D01*
X44595554Y-73265000D01*
X43282951Y-73265000D01*
X43142889Y-73171414D01*
X42972729Y-73100932D01*
X42792089Y-73065000D01*
X42610000Y-73065000D01*
X42610000Y-69637599D01*
X43214250Y-69635000D01*
X43373000Y-69476250D01*
X43373000Y-68377000D01*
X43627000Y-68377000D01*
X43627000Y-69476250D01*
X43785750Y-69635000D01*
X44500000Y-69638072D01*
X44624482Y-69625812D01*
X44744180Y-69589502D01*
X44854494Y-69530537D01*
X44951185Y-69451185D01*
X45030537Y-69354494D01*
X45089502Y-69244180D01*
X45125812Y-69124482D01*
X45138072Y-69000000D01*
X45135000Y-68535750D01*
X44976250Y-68377000D01*
X43627000Y-68377000D01*
X43373000Y-68377000D01*
X43353000Y-68377000D01*
X43353000Y-68123000D01*
X43373000Y-68123000D01*
X43373000Y-67023750D01*
X43627000Y-67023750D01*
X43627000Y-68123000D01*
X44976250Y-68123000D01*
X45135000Y-67964250D01*
X45138072Y-67500000D01*
X48861928Y-67500000D01*
X48865000Y-67964250D01*
X49023750Y-68123000D01*
X50373000Y-68123000D01*
X50373000Y-67023750D01*
X50627000Y-67023750D01*
X50627000Y-68123000D01*
X51976250Y-68123000D01*
X52135000Y-67964250D01*
X52138072Y-67500000D01*
X52125812Y-67375518D01*
X52089502Y-67255820D01*
X52030537Y-67145506D01*
X51951185Y-67048815D01*
X51854494Y-66969463D01*
X51744180Y-66910498D01*
X51624482Y-66874188D01*
X51500000Y-66861928D01*
X50785750Y-66865000D01*
X50627000Y-67023750D01*
X50373000Y-67023750D01*
X50214250Y-66865000D01*
X49500000Y-66861928D01*
X49375518Y-66874188D01*
X49255820Y-66910498D01*
X49145506Y-66969463D01*
X49048815Y-67048815D01*
X48969463Y-67145506D01*
X48910498Y-67255820D01*
X48874188Y-67375518D01*
X48861928Y-67500000D01*
X45138072Y-67500000D01*
X45125812Y-67375518D01*
X45089502Y-67255820D01*
X45030537Y-67145506D01*
X44951185Y-67048815D01*
X44854494Y-66969463D01*
X44744180Y-66910498D01*
X44624482Y-66874188D01*
X44500000Y-66861928D01*
X43785750Y-66865000D01*
X43627000Y-67023750D01*
X43373000Y-67023750D01*
X43214250Y-66865000D01*
X42610000Y-66862401D01*
X42610000Y-65138072D01*
X44500000Y-65138072D01*
X44624482Y-65125812D01*
X44744180Y-65089502D01*
X44854494Y-65030537D01*
X44951185Y-64951185D01*
X45030537Y-64854494D01*
X45089502Y-64744180D01*
X45125812Y-64624482D01*
X45138072Y-64500000D01*
X45138072Y-63000000D01*
X45125812Y-62875518D01*
X45089502Y-62755820D01*
X45030537Y-62645506D01*
X44951185Y-62548815D01*
X44854494Y-62469463D01*
X44744180Y-62410498D01*
X44624482Y-62374188D01*
X44500000Y-62361928D01*
X42610000Y-62361928D01*
X42610000Y-54637599D01*
X43214250Y-54635000D01*
X43373000Y-54476250D01*
X43373000Y-53377000D01*
X43627000Y-53377000D01*
X43627000Y-54476250D01*
X43785750Y-54635000D01*
X44500000Y-54638072D01*
X44624482Y-54625812D01*
X44744180Y-54589502D01*
X44854494Y-54530537D01*
X44951185Y-54451185D01*
X45030537Y-54354494D01*
X45089502Y-54244180D01*
X45125812Y-54124482D01*
X45138072Y-54000000D01*
X48861928Y-54000000D01*
X48874188Y-54124482D01*
X48910498Y-54244180D01*
X48969463Y-54354494D01*
X49048815Y-54451185D01*
X49145506Y-54530537D01*
X49255820Y-54589502D01*
X49375518Y-54625812D01*
X49500000Y-54638072D01*
X50214250Y-54635000D01*
X50373000Y-54476250D01*
X50373000Y-53377000D01*
X49023750Y-53377000D01*
X48865000Y-53535750D01*
X48861928Y-54000000D01*
X45138072Y-54000000D01*
X45135000Y-53535750D01*
X44976250Y-53377000D01*
X43627000Y-53377000D01*
X43373000Y-53377000D01*
X43353000Y-53377000D01*
X43353000Y-53123000D01*
X43373000Y-53123000D01*
X43373000Y-53103000D01*
X43627000Y-53103000D01*
X43627000Y-53123000D01*
X44976250Y-53123000D01*
X45135000Y-52964250D01*
X45138072Y-52500000D01*
X48861928Y-52500000D01*
X48865000Y-52964250D01*
X49023750Y-53123000D01*
X50373000Y-53123000D01*
X50373000Y-52023750D01*
X50214250Y-51865000D01*
X49500000Y-51861928D01*
X49375518Y-51874188D01*
X49255820Y-51910498D01*
X49145506Y-51969463D01*
X49048815Y-52048815D01*
X48969463Y-52145506D01*
X48910498Y-52255820D01*
X48874188Y-52375518D01*
X48861928Y-52500000D01*
X45138072Y-52500000D01*
X45125812Y-52375518D01*
X45089502Y-52255820D01*
X45030537Y-52145506D01*
X44951185Y-52048815D01*
X44854494Y-51969463D01*
X44744180Y-51910498D01*
X44624482Y-51874188D01*
X44500000Y-51861928D01*
X43927920Y-51864389D01*
X43995226Y-51701898D01*
X44035000Y-51501939D01*
X44035000Y-51298061D01*
X43995226Y-51098102D01*
X43917205Y-50909744D01*
X43803937Y-50740226D01*
X43659774Y-50596063D01*
X43490256Y-50482795D01*
X43301898Y-50404774D01*
X43101939Y-50365000D01*
X42898061Y-50365000D01*
X42772377Y-50390000D01*
X42660734Y-50390000D01*
X42652274Y-50383057D01*
X42517755Y-50311155D01*
X42371794Y-50266878D01*
X42220000Y-50251928D01*
X41940000Y-50251928D01*
X41788206Y-50266878D01*
X41656509Y-50306828D01*
X41646878Y-50301623D01*
X41527348Y-50264765D01*
X41405750Y-50255000D01*
X41247000Y-50413750D01*
X41247000Y-50683892D01*
X41221155Y-50732245D01*
X41176878Y-50878206D01*
X41161928Y-51030000D01*
X41161928Y-51124717D01*
X40959645Y-51327000D01*
X40363750Y-51327000D01*
X40205000Y-51485750D01*
X40201935Y-51507077D01*
X40213625Y-51631613D01*
X40249386Y-51751476D01*
X40307844Y-51862059D01*
X40386753Y-51959113D01*
X40483079Y-52038908D01*
X40587073Y-52095108D01*
X40585114Y-52115000D01*
X40590000Y-52164608D01*
X40590001Y-72615000D01*
X39486105Y-72615000D01*
X39450000Y-72611444D01*
X39413895Y-72615000D01*
X39305915Y-72625635D01*
X39167367Y-72667663D01*
X39039680Y-72735913D01*
X38927762Y-72827762D01*
X38904746Y-72855808D01*
X38635554Y-73125000D01*
X37094883Y-73125000D01*
X36953475Y-72913368D01*
X36746632Y-72706525D01*
X36503411Y-72544010D01*
X36233158Y-72432068D01*
X35946260Y-72375000D01*
X35653740Y-72375000D01*
X35366842Y-72432068D01*
X35096589Y-72544010D01*
X34853368Y-72706525D01*
X34660000Y-72899893D01*
X34660000Y-50892923D01*
X40201935Y-50892923D01*
X40205000Y-50914250D01*
X40363750Y-51073000D01*
X40993000Y-51073000D01*
X40993000Y-50413750D01*
X40834250Y-50255000D01*
X40712652Y-50264765D01*
X40593122Y-50301623D01*
X40483079Y-50361092D01*
X40386753Y-50440887D01*
X40307844Y-50537941D01*
X40249386Y-50648524D01*
X40213625Y-50768387D01*
X40201935Y-50892923D01*
X34660000Y-50892923D01*
X34660000Y-46279872D01*
X34765000Y-46279872D01*
X34765000Y-46720128D01*
X34850890Y-47151925D01*
X35019369Y-47558669D01*
X35263962Y-47924729D01*
X35575271Y-48236038D01*
X35941331Y-48480631D01*
X36348075Y-48649110D01*
X36779872Y-48735000D01*
X37220128Y-48735000D01*
X37651925Y-48649110D01*
X38058669Y-48480631D01*
X38424729Y-48236038D01*
X38660767Y-48000000D01*
X41861928Y-48000000D01*
X41861928Y-49500000D01*
X41874188Y-49624482D01*
X41910498Y-49744180D01*
X41969463Y-49854494D01*
X42048815Y-49951185D01*
X42145506Y-50030537D01*
X42255820Y-50089502D01*
X42375518Y-50125812D01*
X42500000Y-50138072D01*
X44500000Y-50138072D01*
X44624482Y-50125812D01*
X44744180Y-50089502D01*
X44854494Y-50030537D01*
X44951185Y-49951185D01*
X45030537Y-49854494D01*
X45089502Y-49744180D01*
X45125812Y-49624482D01*
X45138072Y-49500000D01*
X45138072Y-48000000D01*
X48861928Y-48000000D01*
X48861928Y-49500000D01*
X48874188Y-49624482D01*
X48910498Y-49744180D01*
X48969463Y-49854494D01*
X49048815Y-49951185D01*
X49145506Y-50030537D01*
X49255820Y-50089502D01*
X49375518Y-50125812D01*
X49500000Y-50138072D01*
X50478626Y-50138072D01*
X51671928Y-51331375D01*
X51671928Y-51385000D01*
X51686782Y-51535819D01*
X51730775Y-51680842D01*
X51797350Y-51805397D01*
X51768815Y-51828815D01*
X51710231Y-51900200D01*
X51624482Y-51874188D01*
X51500000Y-51861928D01*
X50785750Y-51865000D01*
X50627000Y-52023750D01*
X50627000Y-53123000D01*
X50647000Y-53123000D01*
X50647000Y-53377000D01*
X50627000Y-53377000D01*
X50627000Y-54476250D01*
X50785750Y-54635000D01*
X51500000Y-54638072D01*
X51624482Y-54625812D01*
X51744180Y-54589502D01*
X51854494Y-54530537D01*
X51951185Y-54451185D01*
X52030537Y-54354494D01*
X52089502Y-54244180D01*
X52125812Y-54124482D01*
X52138072Y-54000000D01*
X52135092Y-53549710D01*
X52220000Y-53558072D01*
X52229250Y-53555000D01*
X52388000Y-53396250D01*
X52388000Y-52727000D01*
X52368000Y-52727000D01*
X52368000Y-52473000D01*
X52388000Y-52473000D01*
X52388000Y-52453000D01*
X52551928Y-52453000D01*
X52551928Y-52772500D01*
X52567023Y-52925757D01*
X52611726Y-53073125D01*
X52642000Y-53129763D01*
X52642000Y-53396250D01*
X52722046Y-53476296D01*
X52700932Y-53527271D01*
X52665000Y-53707911D01*
X52665000Y-53892089D01*
X52700932Y-54072729D01*
X52771414Y-54242889D01*
X52873738Y-54396028D01*
X53003972Y-54526262D01*
X53157111Y-54628586D01*
X53327271Y-54699068D01*
X53507911Y-54735000D01*
X53692089Y-54735000D01*
X53872729Y-54699068D01*
X54042889Y-54628586D01*
X54196028Y-54526262D01*
X54326262Y-54396028D01*
X54428586Y-54242889D01*
X54499068Y-54072729D01*
X54535000Y-53892089D01*
X54535000Y-53707911D01*
X54499068Y-53527271D01*
X54428586Y-53357111D01*
X54326262Y-53203972D01*
X54301546Y-53179256D01*
X54358274Y-53073125D01*
X54402977Y-52925757D01*
X54418072Y-52772500D01*
X54418072Y-52427500D01*
X54402977Y-52274243D01*
X54358274Y-52126875D01*
X54335000Y-52083333D01*
X54335000Y-51866630D01*
X54377786Y-51814496D01*
X54449225Y-51680842D01*
X54493218Y-51535819D01*
X54508072Y-51385000D01*
X54508072Y-51015000D01*
X54493218Y-50864181D01*
X54449225Y-50719158D01*
X54377786Y-50585504D01*
X54281644Y-50468356D01*
X54164496Y-50372214D01*
X54030842Y-50300775D01*
X53885819Y-50256782D01*
X53735000Y-50241928D01*
X53465000Y-50241928D01*
X53314181Y-50256782D01*
X53169158Y-50300775D01*
X53090000Y-50343086D01*
X53010842Y-50300775D01*
X52865819Y-50256782D01*
X52715000Y-50241928D01*
X52661375Y-50241928D01*
X52106754Y-49687308D01*
X52125812Y-49624482D01*
X52138072Y-49500000D01*
X52138072Y-48000000D01*
X52125812Y-47875518D01*
X52089502Y-47755820D01*
X52030537Y-47645506D01*
X51951185Y-47548815D01*
X51854494Y-47469463D01*
X51744180Y-47410498D01*
X51624482Y-47374188D01*
X51500000Y-47361928D01*
X49500000Y-47361928D01*
X49375518Y-47374188D01*
X49255820Y-47410498D01*
X49145506Y-47469463D01*
X49048815Y-47548815D01*
X48969463Y-47645506D01*
X48910498Y-47755820D01*
X48874188Y-47875518D01*
X48861928Y-48000000D01*
X45138072Y-48000000D01*
X45125812Y-47875518D01*
X45089502Y-47755820D01*
X45030537Y-47645506D01*
X44951185Y-47548815D01*
X44854494Y-47469463D01*
X44744180Y-47410498D01*
X44624482Y-47374188D01*
X44500000Y-47361928D01*
X42500000Y-47361928D01*
X42375518Y-47374188D01*
X42255820Y-47410498D01*
X42145506Y-47469463D01*
X42048815Y-47548815D01*
X41969463Y-47645506D01*
X41910498Y-47755820D01*
X41874188Y-47875518D01*
X41861928Y-48000000D01*
X38660767Y-48000000D01*
X38736038Y-47924729D01*
X38980631Y-47558669D01*
X39149110Y-47151925D01*
X39235000Y-46720128D01*
X39235000Y-46279872D01*
X39149110Y-45848075D01*
X38980631Y-45441331D01*
X38736038Y-45075271D01*
X38424729Y-44763962D01*
X38058669Y-44519369D01*
X37651925Y-44350890D01*
X37220128Y-44265000D01*
X36779872Y-44265000D01*
X36348075Y-44350890D01*
X35941331Y-44519369D01*
X35575271Y-44763962D01*
X35263962Y-45075271D01*
X35019369Y-45441331D01*
X34850890Y-45848075D01*
X34765000Y-46279872D01*
X34660000Y-46279872D01*
X34660000Y-43127000D01*
X39890000Y-43127000D01*
X39890000Y-44745742D01*
G04 #@! TA.AperFunction,Conductor*
D22*
G36*
X39890000Y-44745742D02*
G01*
X39906424Y-44912489D01*
X39971325Y-45126437D01*
X40046248Y-45266609D01*
X39946324Y-45453553D01*
X39881423Y-45667501D01*
X39865000Y-45834248D01*
X39865000Y-46755751D01*
X39881423Y-46922498D01*
X39946324Y-47136446D01*
X40051716Y-47333623D01*
X40193551Y-47506449D01*
X40366377Y-47648284D01*
X40563553Y-47753676D01*
X40777501Y-47818577D01*
X41000000Y-47840491D01*
X41222498Y-47818577D01*
X41436446Y-47753676D01*
X41633623Y-47648284D01*
X41806449Y-47506449D01*
X41948284Y-47333623D01*
X42053676Y-47136447D01*
X42118577Y-46922499D01*
X42135000Y-46755752D01*
X42135000Y-45834249D01*
X42118577Y-45667502D01*
X42053676Y-45453553D01*
X41978753Y-45313381D01*
X42078676Y-45126437D01*
X42143577Y-44912489D01*
X42160000Y-44745742D01*
X42160000Y-44494250D01*
X42258000Y-44396250D01*
X42258000Y-44129763D01*
X42288274Y-44073125D01*
X42332977Y-43925757D01*
X42348072Y-43772500D01*
X42348072Y-43727000D01*
X42512000Y-43727000D01*
X42512000Y-44396250D01*
X42670750Y-44555000D01*
X42680000Y-44558072D01*
X42804482Y-44545812D01*
X42924180Y-44509502D01*
X43034494Y-44450537D01*
X43131185Y-44371185D01*
X43210537Y-44274494D01*
X43269502Y-44164180D01*
X43305812Y-44044482D01*
X43318072Y-43920000D01*
X43315000Y-43885750D01*
X43156250Y-43727000D01*
X42512000Y-43727000D01*
X42348072Y-43727000D01*
X42348072Y-43453000D01*
X42512000Y-43453000D01*
X42512000Y-43473000D01*
X43156250Y-43473000D01*
X43315000Y-43314250D01*
X43318072Y-43280000D01*
X43305812Y-43155518D01*
X43297161Y-43127000D01*
X57873000Y-43127000D01*
X57873000Y-43647993D01*
X57865000Y-43688212D01*
X57865000Y-43911788D01*
X57873000Y-43952007D01*
X57873000Y-44442462D01*
X57651925Y-44350890D01*
X57220128Y-44265000D01*
X56779872Y-44265000D01*
X56348075Y-44350890D01*
X55941331Y-44519369D01*
X55575271Y-44763962D01*
X55263962Y-45075271D01*
X55019369Y-45441331D01*
X54850890Y-45848075D01*
X54765000Y-46279872D01*
X54765000Y-46720128D01*
X54850890Y-47151925D01*
X55019369Y-47558669D01*
X55263962Y-47924729D01*
X55575271Y-48236038D01*
X55941331Y-48480631D01*
X56348075Y-48649110D01*
X56779872Y-48735000D01*
X57220128Y-48735000D01*
X57651925Y-48649110D01*
X58058669Y-48480631D01*
X58424729Y-48236038D01*
X58736038Y-47924729D01*
X58980631Y-47558669D01*
X59149110Y-47151925D01*
X59235000Y-46720128D01*
X59235000Y-46279872D01*
X59149110Y-45848075D01*
X58980631Y-45441331D01*
X58770602Y-45127000D01*
X59340000Y-45127000D01*
X59340000Y-67800554D01*
X55645259Y-64105813D01*
X55622238Y-64077762D01*
X55510320Y-63985913D01*
X55382633Y-63917663D01*
X55244085Y-63875635D01*
X55136105Y-63865000D01*
X55100000Y-63861444D01*
X55063895Y-63865000D01*
X54839672Y-63865000D01*
X54885679Y-63808940D01*
X54958274Y-63673125D01*
X55002977Y-63525757D01*
X55018072Y-63372500D01*
X55018072Y-63027500D01*
X55002977Y-62874243D01*
X54958274Y-62726875D01*
X54885679Y-62591060D01*
X54787983Y-62472017D01*
X54668940Y-62374321D01*
X54533125Y-62301726D01*
X54385757Y-62257023D01*
X54232500Y-62241928D01*
X53937500Y-62241928D01*
X53784243Y-62257023D01*
X53636875Y-62301726D01*
X53600000Y-62321436D01*
X53563125Y-62301726D01*
X53415757Y-62257023D01*
X53262500Y-62241928D01*
X52967500Y-62241928D01*
X52814243Y-62257023D01*
X52666875Y-62301726D01*
X52531060Y-62374321D01*
X52412017Y-62472017D01*
X52314321Y-62591060D01*
X52241726Y-62726875D01*
X52197023Y-62874243D01*
X52183159Y-63015000D01*
X52138072Y-63015000D01*
X52138072Y-63000000D01*
X52125812Y-62875518D01*
X52089502Y-62755820D01*
X52030537Y-62645506D01*
X51951185Y-62548815D01*
X51854494Y-62469463D01*
X51744180Y-62410498D01*
X51624482Y-62374188D01*
X51500000Y-62361928D01*
X49500000Y-62361928D01*
X49375518Y-62374188D01*
X49255820Y-62410498D01*
X49145506Y-62469463D01*
X49048815Y-62548815D01*
X48969463Y-62645506D01*
X48910498Y-62755820D01*
X48874188Y-62875518D01*
X48861928Y-63000000D01*
X48861928Y-64500000D01*
X48874188Y-64624482D01*
X48910498Y-64744180D01*
X48969463Y-64854494D01*
X49048815Y-64951185D01*
X49145506Y-65030537D01*
X49255820Y-65089502D01*
X49375518Y-65125812D01*
X49500000Y-65138072D01*
X51500000Y-65138072D01*
X51624482Y-65125812D01*
X51744180Y-65089502D01*
X51854494Y-65030537D01*
X51951185Y-64951185D01*
X51976777Y-64920000D01*
X52181928Y-64920000D01*
X52194188Y-65044482D01*
X52230498Y-65164180D01*
X52289463Y-65274494D01*
X52368815Y-65371185D01*
X52465506Y-65450537D01*
X52575820Y-65509502D01*
X52695518Y-65545812D01*
X52820000Y-65558072D01*
X52829250Y-65555000D01*
X52988000Y-65396250D01*
X52988000Y-64727000D01*
X52343750Y-64727000D01*
X52185000Y-64885750D01*
X52181928Y-64920000D01*
X51976777Y-64920000D01*
X52030537Y-64854494D01*
X52089502Y-64744180D01*
X52125812Y-64624482D01*
X52138072Y-64500000D01*
X52138072Y-64485000D01*
X52528895Y-64485000D01*
X52565000Y-64488556D01*
X52601105Y-64485000D01*
X52709085Y-64474365D01*
X52713585Y-64473000D01*
X52988000Y-64473000D01*
X52988000Y-64453000D01*
X53151928Y-64453000D01*
X53151928Y-64772500D01*
X53167023Y-64925757D01*
X53211726Y-65073125D01*
X53242000Y-65129763D01*
X53242000Y-65396250D01*
X53400750Y-65555000D01*
X53410000Y-65558072D01*
X53534482Y-65545812D01*
X53654180Y-65509502D01*
X53661316Y-65505688D01*
X53784243Y-65542977D01*
X53937500Y-65558072D01*
X54232500Y-65558072D01*
X54385757Y-65542977D01*
X54533125Y-65498274D01*
X54668940Y-65425679D01*
X54779433Y-65335000D01*
X54795554Y-65335000D01*
X55330058Y-65869504D01*
X55231424Y-66017121D01*
X55160942Y-66187281D01*
X55125010Y-66367921D01*
X55125010Y-66552099D01*
X55160942Y-66732739D01*
X55223840Y-66884590D01*
X55194250Y-66855000D01*
X55072652Y-66864765D01*
X54953122Y-66901623D01*
X54943491Y-66906828D01*
X54811794Y-66866878D01*
X54660000Y-66851928D01*
X54380000Y-66851928D01*
X54228206Y-66866878D01*
X54082245Y-66911155D01*
X53947726Y-66983057D01*
X53829820Y-67079820D01*
X53733057Y-67197726D01*
X53661155Y-67332245D01*
X53616878Y-67478206D01*
X53616386Y-67483206D01*
X53527271Y-67500932D01*
X53357111Y-67571414D01*
X53203972Y-67673738D01*
X53073738Y-67803972D01*
X52971414Y-67957111D01*
X52900932Y-68127271D01*
X52865000Y-68307911D01*
X52865000Y-68492089D01*
X52900932Y-68672729D01*
X52971414Y-68842889D01*
X53065000Y-68982951D01*
X53065000Y-69287428D01*
X53038894Y-69289999D01*
X52065011Y-69289999D01*
X52089502Y-69244180D01*
X52125812Y-69124482D01*
X52138072Y-69000000D01*
X52135000Y-68535750D01*
X51976250Y-68377000D01*
X50627000Y-68377000D01*
X50627000Y-68397000D01*
X50373000Y-68397000D01*
X50373000Y-68377000D01*
X49023750Y-68377000D01*
X48865000Y-68535750D01*
X48861928Y-69000000D01*
X48874188Y-69124482D01*
X48910498Y-69244180D01*
X48934989Y-69289999D01*
X48911095Y-69289999D01*
X48875000Y-69286444D01*
X48838905Y-69289999D01*
X48838896Y-69289999D01*
X48730916Y-69300634D01*
X48592368Y-69342662D01*
X48464681Y-69410912D01*
X48352763Y-69502761D01*
X48329747Y-69530806D01*
X44595554Y-73265000D01*
X43282951Y-73265000D01*
X43142889Y-73171414D01*
X42972729Y-73100932D01*
X42792089Y-73065000D01*
X42610000Y-73065000D01*
X42610000Y-69637599D01*
X43214250Y-69635000D01*
X43373000Y-69476250D01*
X43373000Y-68377000D01*
X43627000Y-68377000D01*
X43627000Y-69476250D01*
X43785750Y-69635000D01*
X44500000Y-69638072D01*
X44624482Y-69625812D01*
X44744180Y-69589502D01*
X44854494Y-69530537D01*
X44951185Y-69451185D01*
X45030537Y-69354494D01*
X45089502Y-69244180D01*
X45125812Y-69124482D01*
X45138072Y-69000000D01*
X45135000Y-68535750D01*
X44976250Y-68377000D01*
X43627000Y-68377000D01*
X43373000Y-68377000D01*
X43353000Y-68377000D01*
X43353000Y-68123000D01*
X43373000Y-68123000D01*
X43373000Y-67023750D01*
X43627000Y-67023750D01*
X43627000Y-68123000D01*
X44976250Y-68123000D01*
X45135000Y-67964250D01*
X45138072Y-67500000D01*
X48861928Y-67500000D01*
X48865000Y-67964250D01*
X49023750Y-68123000D01*
X50373000Y-68123000D01*
X50373000Y-67023750D01*
X50627000Y-67023750D01*
X50627000Y-68123000D01*
X51976250Y-68123000D01*
X52135000Y-67964250D01*
X52138072Y-67500000D01*
X52125812Y-67375518D01*
X52089502Y-67255820D01*
X52030537Y-67145506D01*
X51951185Y-67048815D01*
X51854494Y-66969463D01*
X51744180Y-66910498D01*
X51624482Y-66874188D01*
X51500000Y-66861928D01*
X50785750Y-66865000D01*
X50627000Y-67023750D01*
X50373000Y-67023750D01*
X50214250Y-66865000D01*
X49500000Y-66861928D01*
X49375518Y-66874188D01*
X49255820Y-66910498D01*
X49145506Y-66969463D01*
X49048815Y-67048815D01*
X48969463Y-67145506D01*
X48910498Y-67255820D01*
X48874188Y-67375518D01*
X48861928Y-67500000D01*
X45138072Y-67500000D01*
X45125812Y-67375518D01*
X45089502Y-67255820D01*
X45030537Y-67145506D01*
X44951185Y-67048815D01*
X44854494Y-66969463D01*
X44744180Y-66910498D01*
X44624482Y-66874188D01*
X44500000Y-66861928D01*
X43785750Y-66865000D01*
X43627000Y-67023750D01*
X43373000Y-67023750D01*
X43214250Y-66865000D01*
X42610000Y-66862401D01*
X42610000Y-65138072D01*
X44500000Y-65138072D01*
X44624482Y-65125812D01*
X44744180Y-65089502D01*
X44854494Y-65030537D01*
X44951185Y-64951185D01*
X45030537Y-64854494D01*
X45089502Y-64744180D01*
X45125812Y-64624482D01*
X45138072Y-64500000D01*
X45138072Y-63000000D01*
X45125812Y-62875518D01*
X45089502Y-62755820D01*
X45030537Y-62645506D01*
X44951185Y-62548815D01*
X44854494Y-62469463D01*
X44744180Y-62410498D01*
X44624482Y-62374188D01*
X44500000Y-62361928D01*
X42610000Y-62361928D01*
X42610000Y-54637599D01*
X43214250Y-54635000D01*
X43373000Y-54476250D01*
X43373000Y-53377000D01*
X43627000Y-53377000D01*
X43627000Y-54476250D01*
X43785750Y-54635000D01*
X44500000Y-54638072D01*
X44624482Y-54625812D01*
X44744180Y-54589502D01*
X44854494Y-54530537D01*
X44951185Y-54451185D01*
X45030537Y-54354494D01*
X45089502Y-54244180D01*
X45125812Y-54124482D01*
X45138072Y-54000000D01*
X48861928Y-54000000D01*
X48874188Y-54124482D01*
X48910498Y-54244180D01*
X48969463Y-54354494D01*
X49048815Y-54451185D01*
X49145506Y-54530537D01*
X49255820Y-54589502D01*
X49375518Y-54625812D01*
X49500000Y-54638072D01*
X50214250Y-54635000D01*
X50373000Y-54476250D01*
X50373000Y-53377000D01*
X49023750Y-53377000D01*
X48865000Y-53535750D01*
X48861928Y-54000000D01*
X45138072Y-54000000D01*
X45135000Y-53535750D01*
X44976250Y-53377000D01*
X43627000Y-53377000D01*
X43373000Y-53377000D01*
X43353000Y-53377000D01*
X43353000Y-53123000D01*
X43373000Y-53123000D01*
X43373000Y-53103000D01*
X43627000Y-53103000D01*
X43627000Y-53123000D01*
X44976250Y-53123000D01*
X45135000Y-52964250D01*
X45138072Y-52500000D01*
X48861928Y-52500000D01*
X48865000Y-52964250D01*
X49023750Y-53123000D01*
X50373000Y-53123000D01*
X50373000Y-52023750D01*
X50214250Y-51865000D01*
X49500000Y-51861928D01*
X49375518Y-51874188D01*
X49255820Y-51910498D01*
X49145506Y-51969463D01*
X49048815Y-52048815D01*
X48969463Y-52145506D01*
X48910498Y-52255820D01*
X48874188Y-52375518D01*
X48861928Y-52500000D01*
X45138072Y-52500000D01*
X45125812Y-52375518D01*
X45089502Y-52255820D01*
X45030537Y-52145506D01*
X44951185Y-52048815D01*
X44854494Y-51969463D01*
X44744180Y-51910498D01*
X44624482Y-51874188D01*
X44500000Y-51861928D01*
X43927920Y-51864389D01*
X43995226Y-51701898D01*
X44035000Y-51501939D01*
X44035000Y-51298061D01*
X43995226Y-51098102D01*
X43917205Y-50909744D01*
X43803937Y-50740226D01*
X43659774Y-50596063D01*
X43490256Y-50482795D01*
X43301898Y-50404774D01*
X43101939Y-50365000D01*
X42898061Y-50365000D01*
X42772377Y-50390000D01*
X42660734Y-50390000D01*
X42652274Y-50383057D01*
X42517755Y-50311155D01*
X42371794Y-50266878D01*
X42220000Y-50251928D01*
X41940000Y-50251928D01*
X41788206Y-50266878D01*
X41656509Y-50306828D01*
X41646878Y-50301623D01*
X41527348Y-50264765D01*
X41405750Y-50255000D01*
X41247000Y-50413750D01*
X41247000Y-50683892D01*
X41221155Y-50732245D01*
X41176878Y-50878206D01*
X41161928Y-51030000D01*
X41161928Y-51124717D01*
X40959645Y-51327000D01*
X40363750Y-51327000D01*
X40205000Y-51485750D01*
X40201935Y-51507077D01*
X40213625Y-51631613D01*
X40249386Y-51751476D01*
X40307844Y-51862059D01*
X40386753Y-51959113D01*
X40483079Y-52038908D01*
X40587073Y-52095108D01*
X40585114Y-52115000D01*
X40590000Y-52164608D01*
X40590001Y-72615000D01*
X39486105Y-72615000D01*
X39450000Y-72611444D01*
X39413895Y-72615000D01*
X39305915Y-72625635D01*
X39167367Y-72667663D01*
X39039680Y-72735913D01*
X38927762Y-72827762D01*
X38904746Y-72855808D01*
X38635554Y-73125000D01*
X37094883Y-73125000D01*
X36953475Y-72913368D01*
X36746632Y-72706525D01*
X36503411Y-72544010D01*
X36233158Y-72432068D01*
X35946260Y-72375000D01*
X35653740Y-72375000D01*
X35366842Y-72432068D01*
X35096589Y-72544010D01*
X34853368Y-72706525D01*
X34660000Y-72899893D01*
X34660000Y-50892923D01*
X40201935Y-50892923D01*
X40205000Y-50914250D01*
X40363750Y-51073000D01*
X40993000Y-51073000D01*
X40993000Y-50413750D01*
X40834250Y-50255000D01*
X40712652Y-50264765D01*
X40593122Y-50301623D01*
X40483079Y-50361092D01*
X40386753Y-50440887D01*
X40307844Y-50537941D01*
X40249386Y-50648524D01*
X40213625Y-50768387D01*
X40201935Y-50892923D01*
X34660000Y-50892923D01*
X34660000Y-46279872D01*
X34765000Y-46279872D01*
X34765000Y-46720128D01*
X34850890Y-47151925D01*
X35019369Y-47558669D01*
X35263962Y-47924729D01*
X35575271Y-48236038D01*
X35941331Y-48480631D01*
X36348075Y-48649110D01*
X36779872Y-48735000D01*
X37220128Y-48735000D01*
X37651925Y-48649110D01*
X38058669Y-48480631D01*
X38424729Y-48236038D01*
X38660767Y-48000000D01*
X41861928Y-48000000D01*
X41861928Y-49500000D01*
X41874188Y-49624482D01*
X41910498Y-49744180D01*
X41969463Y-49854494D01*
X42048815Y-49951185D01*
X42145506Y-50030537D01*
X42255820Y-50089502D01*
X42375518Y-50125812D01*
X42500000Y-50138072D01*
X44500000Y-50138072D01*
X44624482Y-50125812D01*
X44744180Y-50089502D01*
X44854494Y-50030537D01*
X44951185Y-49951185D01*
X45030537Y-49854494D01*
X45089502Y-49744180D01*
X45125812Y-49624482D01*
X45138072Y-49500000D01*
X45138072Y-48000000D01*
X48861928Y-48000000D01*
X48861928Y-49500000D01*
X48874188Y-49624482D01*
X48910498Y-49744180D01*
X48969463Y-49854494D01*
X49048815Y-49951185D01*
X49145506Y-50030537D01*
X49255820Y-50089502D01*
X49375518Y-50125812D01*
X49500000Y-50138072D01*
X50478626Y-50138072D01*
X51671928Y-51331375D01*
X51671928Y-51385000D01*
X51686782Y-51535819D01*
X51730775Y-51680842D01*
X51797350Y-51805397D01*
X51768815Y-51828815D01*
X51710231Y-51900200D01*
X51624482Y-51874188D01*
X51500000Y-51861928D01*
X50785750Y-51865000D01*
X50627000Y-52023750D01*
X50627000Y-53123000D01*
X50647000Y-53123000D01*
X50647000Y-53377000D01*
X50627000Y-53377000D01*
X50627000Y-54476250D01*
X50785750Y-54635000D01*
X51500000Y-54638072D01*
X51624482Y-54625812D01*
X51744180Y-54589502D01*
X51854494Y-54530537D01*
X51951185Y-54451185D01*
X52030537Y-54354494D01*
X52089502Y-54244180D01*
X52125812Y-54124482D01*
X52138072Y-54000000D01*
X52135092Y-53549710D01*
X52220000Y-53558072D01*
X52229250Y-53555000D01*
X52388000Y-53396250D01*
X52388000Y-52727000D01*
X52368000Y-52727000D01*
X52368000Y-52473000D01*
X52388000Y-52473000D01*
X52388000Y-52453000D01*
X52551928Y-52453000D01*
X52551928Y-52772500D01*
X52567023Y-52925757D01*
X52611726Y-53073125D01*
X52642000Y-53129763D01*
X52642000Y-53396250D01*
X52722046Y-53476296D01*
X52700932Y-53527271D01*
X52665000Y-53707911D01*
X52665000Y-53892089D01*
X52700932Y-54072729D01*
X52771414Y-54242889D01*
X52873738Y-54396028D01*
X53003972Y-54526262D01*
X53157111Y-54628586D01*
X53327271Y-54699068D01*
X53507911Y-54735000D01*
X53692089Y-54735000D01*
X53872729Y-54699068D01*
X54042889Y-54628586D01*
X54196028Y-54526262D01*
X54326262Y-54396028D01*
X54428586Y-54242889D01*
X54499068Y-54072729D01*
X54535000Y-53892089D01*
X54535000Y-53707911D01*
X54499068Y-53527271D01*
X54428586Y-53357111D01*
X54326262Y-53203972D01*
X54301546Y-53179256D01*
X54358274Y-53073125D01*
X54402977Y-52925757D01*
X54418072Y-52772500D01*
X54418072Y-52427500D01*
X54402977Y-52274243D01*
X54358274Y-52126875D01*
X54335000Y-52083333D01*
X54335000Y-51866630D01*
X54377786Y-51814496D01*
X54449225Y-51680842D01*
X54493218Y-51535819D01*
X54508072Y-51385000D01*
X54508072Y-51015000D01*
X54493218Y-50864181D01*
X54449225Y-50719158D01*
X54377786Y-50585504D01*
X54281644Y-50468356D01*
X54164496Y-50372214D01*
X54030842Y-50300775D01*
X53885819Y-50256782D01*
X53735000Y-50241928D01*
X53465000Y-50241928D01*
X53314181Y-50256782D01*
X53169158Y-50300775D01*
X53090000Y-50343086D01*
X53010842Y-50300775D01*
X52865819Y-50256782D01*
X52715000Y-50241928D01*
X52661375Y-50241928D01*
X52106754Y-49687308D01*
X52125812Y-49624482D01*
X52138072Y-49500000D01*
X52138072Y-48000000D01*
X52125812Y-47875518D01*
X52089502Y-47755820D01*
X52030537Y-47645506D01*
X51951185Y-47548815D01*
X51854494Y-47469463D01*
X51744180Y-47410498D01*
X51624482Y-47374188D01*
X51500000Y-47361928D01*
X49500000Y-47361928D01*
X49375518Y-47374188D01*
X49255820Y-47410498D01*
X49145506Y-47469463D01*
X49048815Y-47548815D01*
X48969463Y-47645506D01*
X48910498Y-47755820D01*
X48874188Y-47875518D01*
X48861928Y-48000000D01*
X45138072Y-48000000D01*
X45125812Y-47875518D01*
X45089502Y-47755820D01*
X45030537Y-47645506D01*
X44951185Y-47548815D01*
X44854494Y-47469463D01*
X44744180Y-47410498D01*
X44624482Y-47374188D01*
X44500000Y-47361928D01*
X42500000Y-47361928D01*
X42375518Y-47374188D01*
X42255820Y-47410498D01*
X42145506Y-47469463D01*
X42048815Y-47548815D01*
X41969463Y-47645506D01*
X41910498Y-47755820D01*
X41874188Y-47875518D01*
X41861928Y-48000000D01*
X38660767Y-48000000D01*
X38736038Y-47924729D01*
X38980631Y-47558669D01*
X39149110Y-47151925D01*
X39235000Y-46720128D01*
X39235000Y-46279872D01*
X39149110Y-45848075D01*
X38980631Y-45441331D01*
X38736038Y-45075271D01*
X38424729Y-44763962D01*
X38058669Y-44519369D01*
X37651925Y-44350890D01*
X37220128Y-44265000D01*
X36779872Y-44265000D01*
X36348075Y-44350890D01*
X35941331Y-44519369D01*
X35575271Y-44763962D01*
X35263962Y-45075271D01*
X35019369Y-45441331D01*
X34850890Y-45848075D01*
X34765000Y-46279872D01*
X34660000Y-46279872D01*
X34660000Y-43127000D01*
X39890000Y-43127000D01*
X39890000Y-44745742D01*
G37*
G04 #@! TD.AperFunction*
D21*
X55612000Y-69073000D02*
X55632000Y-69073000D01*
X55632000Y-69231510D01*
X55596414Y-69284768D01*
X55570637Y-69347000D01*
X55448072Y-69347000D01*
X55448072Y-69053000D01*
X55612000Y-69053000D01*
X55612000Y-69073000D01*
G04 #@! TA.AperFunction,Conductor*
D22*
G36*
X55612000Y-69073000D02*
G01*
X55632000Y-69073000D01*
X55632000Y-69231510D01*
X55596414Y-69284768D01*
X55570637Y-69347000D01*
X55448072Y-69347000D01*
X55448072Y-69053000D01*
X55612000Y-69053000D01*
X55612000Y-69073000D01*
G37*
G04 #@! TD.AperFunction*
M02*
