M48
; DRILL file {KiCad 5.1.8-db9833491~87~ubuntu20.04.1} date Thu Nov 19 21:05:16 2020
; FORMAT={-:-/ absolute / inch / decimal}
; #@! TF.CreationDate,2020-11-19T21:05:16-07:00
; #@! TF.GenerationSoftware,Kicad,Pcbnew,5.1.8-db9833491~87~ubuntu20.04.1
; #@! TF.FileFunction,Plated,1,2,PTH
FMAT,2
INCH
T1C0.0118
T2C0.0150
T3C0.0157
T4C0.0394
%
G90
G05
T1
X1.378Y-1.9764
X1.378Y-2.1339
X1.378Y-2.2913
X1.378Y-2.4488
X1.378Y-2.6063
X1.3858Y-1.7205
X1.3858Y-3.2677
X1.3858Y-3.3622
X1.3858Y-3.5197
X1.3858Y-3.6772
X1.3858Y-3.8425
X1.3858Y-4.0157
X1.3858Y-4.4331
X1.3937Y-4.5906
X1.4488Y-4.4331
X1.4803Y-3.0787
X1.5354Y-4.1102
X1.5433Y-4.2756
X1.5512Y-1.7205
X1.5512Y-4.5906
X1.5591Y-3.8268
X1.5669Y-2.5276
X1.5748Y-3.685
X1.5827Y-2.063
X1.5827Y-2.2126
X1.5827Y-2.3701
X1.5827Y-2.685
X1.5827Y-2.8425
X1.5827Y-2.9921
X1.5827Y-3.2126
X1.5827Y-3.3701
X1.5827Y-3.5276
X1.5945Y-2.9134
X1.6063Y-4.4331
X1.6811Y-2.9134
X1.6929Y-2.252
X1.6929Y-2.4094
X1.6929Y-2.5984
X1.6929Y-2.7559
X1.6929Y-3.7874
X1.6929Y-4.1102
X1.7008Y-2.8661
X1.7008Y-4.2756
X1.7087Y-4.5906
X1.7165Y-3.9449
X1.7244Y-1.7165
X1.7244Y-1.8268
X1.7638Y-4.4331
X1.7874Y-2.0945
X1.8425Y-2.0
X1.8504Y-3.9449
X1.8504Y-4.1102
X1.8583Y-4.2756
X1.8661Y-4.5906
X1.874Y-3.4646
X1.874Y-3.6535
X1.874Y-3.7795
X1.8819Y-1.7165
X1.8819Y-1.8268
X1.8898Y-2.0945
X1.8898Y-2.252
X1.8898Y-2.4094
X1.8898Y-3.3465
X1.8976Y-2.9055
X1.8976Y-3.063
X1.8976Y-3.2205
X1.9134Y-2.7165
X1.9213Y-2.5906
X1.9213Y-4.4331
X1.9882Y-3.9449
X2.0079Y-4.1102
X2.0157Y-3.2205
X2.0157Y-4.2756
X2.0236Y-4.5906
X2.0394Y-1.7165
X2.0394Y-1.8268
X2.0394Y-3.3858
X2.0394Y-3.5591
X2.0394Y-3.6457
X2.0394Y-3.7874
X2.0787Y-4.4331
X2.0984Y-3.1575
X2.1024Y-2.8661
X2.1024Y-2.9606
X2.1102Y-2.1181
X2.1102Y-3.0984
X2.1102Y-3.3189
X2.1181Y-2.6929
X2.1339Y-4.0039
X2.1417Y-1.8425
X2.1496Y-1.9685
X2.1535Y-3.7126
X2.1575Y-2.1102
X2.1693Y-2.8583
X2.1732Y-4.2756
X2.1811Y-2.9685
X2.1811Y-4.5906
X2.1929Y-3.3189
X2.1969Y-1.7165
X2.2047Y-3.5118
X2.2047Y-3.6693
X2.2071Y-2.6165
X2.2087Y-3.1535
X2.2126Y-3.3622
X2.2126Y-3.8504
X2.2205Y-4.1181
X2.2215Y-2.7452
X2.2244Y-2.9685
X2.2362Y-2.6693
X2.2362Y-4.4331
X2.2402Y-3.1024
X2.252Y-2.9528
X2.252Y-3.1654
X2.2598Y-2.8819
X2.2746Y-2.7336
X2.3071Y-4.5906
X2.315Y-4.4331
X2.3228Y-1.8976
X2.3228Y-2.0551
X2.3228Y-2.2126
X2.3228Y-2.2677
X2.3268Y-2.9764
X2.3307Y-2.4646
X2.3307Y-2.6535
X2.3307Y-3.2598
X2.3307Y-3.3937
X2.3307Y-3.5512
X2.3307Y-3.7087
X2.3307Y-3.811
X2.3307Y-4.0394
T2
X1.6142Y-1.2126
X1.6929Y-1.2126
X1.6929Y-1.4488
X1.7717Y-1.2126
X1.7717Y-1.4488
X1.8504Y-1.2126
X1.8504Y-1.4488
X1.9291Y-1.2126
X1.9291Y-1.4488
X2.0079Y-1.2126
X2.0079Y-1.4488
X2.0866Y-1.2126
X2.0866Y-1.4488
X2.1654Y-1.2126
X2.1654Y-1.4488
X2.2441Y-1.2126
X2.2441Y-1.4488
X2.3228Y-1.2126
X2.3228Y-1.4488
X2.3228Y-1.7244
T3
X1.4173Y-4.0709
X1.6142Y-1.8386
X1.6929Y-2.0236
X2.2835Y-4.0709
T4
X1.7323Y-3.7165
X1.8323Y-3.7165
X1.9323Y-3.7165
X2.0323Y-3.7165
X1.4094Y-2.8079
X1.4094Y-2.9079
X1.4094Y-3.0079
T0
M30
