G04 #@! TF.GenerationSoftware,KiCad,Pcbnew,5.1.5+dfsg1-2build2*
G04 #@! TF.CreationDate,2020-10-16T19:58:43-06:00*
G04 #@! TF.ProjectId,remote,72656d6f-7465-42e6-9b69-6361645f7063,rev?*
G04 #@! TF.SameCoordinates,Original*
G04 #@! TF.FileFunction,Copper,L2,Bot*
G04 #@! TF.FilePolarity,Positive*
%FSLAX46Y46*%
G04 Gerber Fmt 4.6, Leading zero omitted, Abs format (unit mm)*
G04 Created by KiCad (PCBNEW 5.1.5+dfsg1-2build2) date 2020-10-16 19:58:43*
%MOMM*%
%LPD*%
G04 APERTURE LIST*
%ADD10C,0.100000*%
%ADD11R,1.198880X2.999740*%
%ADD12O,1.700000X1.700000*%
%ADD13R,1.700000X1.700000*%
%ADD14C,20.000000*%
%ADD15R,6.000000X5.500000*%
%ADD16C,1.000000*%
%ADD17C,0.600000*%
%ADD18C,0.800000*%
%ADD19C,1.000000*%
%ADD20C,0.500000*%
%ADD21C,0.250000*%
%ADD22C,0.200000*%
%ADD23C,0.254000*%
G04 APERTURE END LIST*
G04 #@! TA.AperFunction,SMDPad,CuDef*
D10*
G36*
X43085779Y-43776144D02*
G01*
X43108834Y-43779563D01*
X43131443Y-43785227D01*
X43153387Y-43793079D01*
X43174457Y-43803044D01*
X43194448Y-43815026D01*
X43213168Y-43828910D01*
X43230438Y-43844562D01*
X43246090Y-43861832D01*
X43259974Y-43880552D01*
X43271956Y-43900543D01*
X43281921Y-43921613D01*
X43289773Y-43943557D01*
X43295437Y-43966166D01*
X43298856Y-43989221D01*
X43300000Y-44012500D01*
X43300000Y-44487500D01*
X43298856Y-44510779D01*
X43295437Y-44533834D01*
X43289773Y-44556443D01*
X43281921Y-44578387D01*
X43271956Y-44599457D01*
X43259974Y-44619448D01*
X43246090Y-44638168D01*
X43230438Y-44655438D01*
X43213168Y-44671090D01*
X43194448Y-44684974D01*
X43174457Y-44696956D01*
X43153387Y-44706921D01*
X43131443Y-44714773D01*
X43108834Y-44720437D01*
X43085779Y-44723856D01*
X43062500Y-44725000D01*
X42487500Y-44725000D01*
X42464221Y-44723856D01*
X42441166Y-44720437D01*
X42418557Y-44714773D01*
X42396613Y-44706921D01*
X42375543Y-44696956D01*
X42355552Y-44684974D01*
X42336832Y-44671090D01*
X42319562Y-44655438D01*
X42303910Y-44638168D01*
X42290026Y-44619448D01*
X42278044Y-44599457D01*
X42268079Y-44578387D01*
X42260227Y-44556443D01*
X42254563Y-44533834D01*
X42251144Y-44510779D01*
X42250000Y-44487500D01*
X42250000Y-44012500D01*
X42251144Y-43989221D01*
X42254563Y-43966166D01*
X42260227Y-43943557D01*
X42268079Y-43921613D01*
X42278044Y-43900543D01*
X42290026Y-43880552D01*
X42303910Y-43861832D01*
X42319562Y-43844562D01*
X42336832Y-43828910D01*
X42355552Y-43815026D01*
X42375543Y-43803044D01*
X42396613Y-43793079D01*
X42418557Y-43785227D01*
X42441166Y-43779563D01*
X42464221Y-43776144D01*
X42487500Y-43775000D01*
X43062500Y-43775000D01*
X43085779Y-43776144D01*
G37*
G04 #@! TD.AperFunction*
G04 #@! TA.AperFunction,SMDPad,CuDef*
G36*
X41335779Y-43776144D02*
G01*
X41358834Y-43779563D01*
X41381443Y-43785227D01*
X41403387Y-43793079D01*
X41424457Y-43803044D01*
X41444448Y-43815026D01*
X41463168Y-43828910D01*
X41480438Y-43844562D01*
X41496090Y-43861832D01*
X41509974Y-43880552D01*
X41521956Y-43900543D01*
X41531921Y-43921613D01*
X41539773Y-43943557D01*
X41545437Y-43966166D01*
X41548856Y-43989221D01*
X41550000Y-44012500D01*
X41550000Y-44487500D01*
X41548856Y-44510779D01*
X41545437Y-44533834D01*
X41539773Y-44556443D01*
X41531921Y-44578387D01*
X41521956Y-44599457D01*
X41509974Y-44619448D01*
X41496090Y-44638168D01*
X41480438Y-44655438D01*
X41463168Y-44671090D01*
X41444448Y-44684974D01*
X41424457Y-44696956D01*
X41403387Y-44706921D01*
X41381443Y-44714773D01*
X41358834Y-44720437D01*
X41335779Y-44723856D01*
X41312500Y-44725000D01*
X40737500Y-44725000D01*
X40714221Y-44723856D01*
X40691166Y-44720437D01*
X40668557Y-44714773D01*
X40646613Y-44706921D01*
X40625543Y-44696956D01*
X40605552Y-44684974D01*
X40586832Y-44671090D01*
X40569562Y-44655438D01*
X40553910Y-44638168D01*
X40540026Y-44619448D01*
X40528044Y-44599457D01*
X40518079Y-44578387D01*
X40510227Y-44556443D01*
X40504563Y-44533834D01*
X40501144Y-44510779D01*
X40500000Y-44487500D01*
X40500000Y-44012500D01*
X40501144Y-43989221D01*
X40504563Y-43966166D01*
X40510227Y-43943557D01*
X40518079Y-43921613D01*
X40528044Y-43900543D01*
X40540026Y-43880552D01*
X40553910Y-43861832D01*
X40569562Y-43844562D01*
X40586832Y-43828910D01*
X40605552Y-43815026D01*
X40625543Y-43803044D01*
X40646613Y-43793079D01*
X40668557Y-43785227D01*
X40691166Y-43779563D01*
X40714221Y-43776144D01*
X40737500Y-43775000D01*
X41312500Y-43775000D01*
X41335779Y-43776144D01*
G37*
G04 #@! TD.AperFunction*
G04 #@! TA.AperFunction,SMDPad,CuDef*
G36*
X41260779Y-47601144D02*
G01*
X41283834Y-47604563D01*
X41306443Y-47610227D01*
X41328387Y-47618079D01*
X41349457Y-47628044D01*
X41369448Y-47640026D01*
X41388168Y-47653910D01*
X41405438Y-47669562D01*
X41421090Y-47686832D01*
X41434974Y-47705552D01*
X41446956Y-47725543D01*
X41456921Y-47746613D01*
X41464773Y-47768557D01*
X41470437Y-47791166D01*
X41473856Y-47814221D01*
X41475000Y-47837500D01*
X41475000Y-48412500D01*
X41473856Y-48435779D01*
X41470437Y-48458834D01*
X41464773Y-48481443D01*
X41456921Y-48503387D01*
X41446956Y-48524457D01*
X41434974Y-48544448D01*
X41421090Y-48563168D01*
X41405438Y-48580438D01*
X41388168Y-48596090D01*
X41369448Y-48609974D01*
X41349457Y-48621956D01*
X41328387Y-48631921D01*
X41306443Y-48639773D01*
X41283834Y-48645437D01*
X41260779Y-48648856D01*
X41237500Y-48650000D01*
X40762500Y-48650000D01*
X40739221Y-48648856D01*
X40716166Y-48645437D01*
X40693557Y-48639773D01*
X40671613Y-48631921D01*
X40650543Y-48621956D01*
X40630552Y-48609974D01*
X40611832Y-48596090D01*
X40594562Y-48580438D01*
X40578910Y-48563168D01*
X40565026Y-48544448D01*
X40553044Y-48524457D01*
X40543079Y-48503387D01*
X40535227Y-48481443D01*
X40529563Y-48458834D01*
X40526144Y-48435779D01*
X40525000Y-48412500D01*
X40525000Y-47837500D01*
X40526144Y-47814221D01*
X40529563Y-47791166D01*
X40535227Y-47768557D01*
X40543079Y-47746613D01*
X40553044Y-47725543D01*
X40565026Y-47705552D01*
X40578910Y-47686832D01*
X40594562Y-47669562D01*
X40611832Y-47653910D01*
X40630552Y-47640026D01*
X40650543Y-47628044D01*
X40671613Y-47618079D01*
X40693557Y-47610227D01*
X40716166Y-47604563D01*
X40739221Y-47601144D01*
X40762500Y-47600000D01*
X41237500Y-47600000D01*
X41260779Y-47601144D01*
G37*
G04 #@! TD.AperFunction*
G04 #@! TA.AperFunction,SMDPad,CuDef*
G36*
X41260779Y-45851144D02*
G01*
X41283834Y-45854563D01*
X41306443Y-45860227D01*
X41328387Y-45868079D01*
X41349457Y-45878044D01*
X41369448Y-45890026D01*
X41388168Y-45903910D01*
X41405438Y-45919562D01*
X41421090Y-45936832D01*
X41434974Y-45955552D01*
X41446956Y-45975543D01*
X41456921Y-45996613D01*
X41464773Y-46018557D01*
X41470437Y-46041166D01*
X41473856Y-46064221D01*
X41475000Y-46087500D01*
X41475000Y-46662500D01*
X41473856Y-46685779D01*
X41470437Y-46708834D01*
X41464773Y-46731443D01*
X41456921Y-46753387D01*
X41446956Y-46774457D01*
X41434974Y-46794448D01*
X41421090Y-46813168D01*
X41405438Y-46830438D01*
X41388168Y-46846090D01*
X41369448Y-46859974D01*
X41349457Y-46871956D01*
X41328387Y-46881921D01*
X41306443Y-46889773D01*
X41283834Y-46895437D01*
X41260779Y-46898856D01*
X41237500Y-46900000D01*
X40762500Y-46900000D01*
X40739221Y-46898856D01*
X40716166Y-46895437D01*
X40693557Y-46889773D01*
X40671613Y-46881921D01*
X40650543Y-46871956D01*
X40630552Y-46859974D01*
X40611832Y-46846090D01*
X40594562Y-46830438D01*
X40578910Y-46813168D01*
X40565026Y-46794448D01*
X40553044Y-46774457D01*
X40543079Y-46753387D01*
X40535227Y-46731443D01*
X40529563Y-46708834D01*
X40526144Y-46685779D01*
X40525000Y-46662500D01*
X40525000Y-46087500D01*
X40526144Y-46064221D01*
X40529563Y-46041166D01*
X40535227Y-46018557D01*
X40543079Y-45996613D01*
X40553044Y-45975543D01*
X40565026Y-45955552D01*
X40578910Y-45936832D01*
X40594562Y-45919562D01*
X40611832Y-45903910D01*
X40630552Y-45890026D01*
X40650543Y-45878044D01*
X40671613Y-45868079D01*
X40693557Y-45860227D01*
X40716166Y-45854563D01*
X40739221Y-45851144D01*
X40762500Y-45850000D01*
X41237500Y-45850000D01*
X41260779Y-45851144D01*
G37*
G04 #@! TD.AperFunction*
D11*
X41000520Y-66748080D03*
X50997960Y-66748080D03*
X52999480Y-66748080D03*
X52999480Y-51751920D03*
X50997960Y-51751920D03*
X48998980Y-51751920D03*
X45001020Y-51751920D03*
X43002040Y-51751920D03*
X41000520Y-51751920D03*
D12*
X66000000Y-65160000D03*
X66000000Y-62620000D03*
X66000000Y-60080000D03*
X66000000Y-57540000D03*
D13*
X66000000Y-55000000D03*
D12*
X66000000Y-77620000D03*
X66000000Y-75080000D03*
X66000000Y-72540000D03*
D13*
X66000000Y-70000000D03*
D14*
X49000000Y-104000000D03*
D15*
X64300000Y-104000000D03*
X33700000Y-104000000D03*
D16*
X61000000Y-44000000D03*
X50800000Y-95000000D03*
X49400000Y-110000000D03*
X50400000Y-99400000D03*
X44600000Y-43600000D03*
X48600000Y-43600000D03*
X52600000Y-43600000D03*
X56600000Y-43600000D03*
X59400000Y-43600000D03*
X39400000Y-43600000D03*
X35400000Y-43600000D03*
X31400000Y-43600000D03*
X31400000Y-47600000D03*
X35400000Y-47600000D03*
X39400000Y-47600000D03*
X42800000Y-47600000D03*
X44600000Y-49000000D03*
X48600000Y-47600000D03*
X52600000Y-49000000D03*
X56600000Y-47600000D03*
X60800000Y-47600000D03*
X64800000Y-47600000D03*
X66800000Y-47600000D03*
X66800000Y-43600000D03*
X62800000Y-43600000D03*
D17*
X37000000Y-91000000D03*
X61500000Y-79000000D03*
D18*
X45600000Y-54800000D03*
X30900000Y-77200000D03*
D17*
X38400000Y-101700000D03*
X44600000Y-85700000D03*
X40500000Y-83600000D03*
X48400000Y-89000000D03*
X34400000Y-53000000D03*
X35400000Y-66000000D03*
X44000000Y-66200000D03*
X61600000Y-61400000D03*
D16*
X31400000Y-51600000D03*
X35400000Y-51200000D03*
X39400000Y-51200000D03*
X56600000Y-51600000D03*
X60600000Y-51600000D03*
X64600000Y-51600000D03*
X66800000Y-51600000D03*
X38600000Y-58200000D03*
X45600000Y-60400000D03*
X41600000Y-60400000D03*
X38000000Y-60400000D03*
X32800000Y-63800000D03*
X32800000Y-61600000D03*
X64000000Y-57800000D03*
X58400000Y-57800000D03*
X63400000Y-60800000D03*
X58200000Y-68200000D03*
X61600000Y-68400000D03*
X62000000Y-76000000D03*
X66200000Y-88400000D03*
X63000000Y-91200000D03*
X60200000Y-93800000D03*
X51000000Y-85800000D03*
X54000000Y-85800000D03*
X38200000Y-63200000D03*
X41600000Y-58400000D03*
X45600000Y-58400000D03*
X43200000Y-65400000D03*
X39200000Y-66800000D03*
X43200000Y-63200000D03*
X56200000Y-92600000D03*
X40200000Y-97600000D03*
D18*
X58000000Y-100000000D03*
D16*
X54700000Y-103300000D03*
X49000000Y-104000000D03*
X39000000Y-104200000D03*
X62000000Y-97600000D03*
X66800000Y-97600000D03*
X31400000Y-98400000D03*
X31200000Y-108800000D03*
X31600000Y-116400000D03*
X40400000Y-116800000D03*
X49000000Y-116400000D03*
X57000000Y-116400000D03*
X66600000Y-116400000D03*
X66800000Y-108400000D03*
X38400000Y-111200000D03*
X60200000Y-110800000D03*
X44000000Y-104000000D03*
D18*
X61600000Y-100000000D03*
D17*
X37800000Y-106200000D03*
D18*
X37300000Y-97900000D03*
X42500000Y-54800000D03*
X46000000Y-77600000D03*
X60400000Y-77600000D03*
X55900000Y-77600000D03*
X57000000Y-90200000D03*
X58800000Y-90300000D03*
D17*
X35600000Y-54500000D03*
D16*
X43000000Y-36800000D03*
X41000000Y-30800000D03*
X43000000Y-30800000D03*
X45000000Y-36800000D03*
X45000000Y-30800000D03*
X47000000Y-36800000D03*
X47000000Y-30800000D03*
X49000000Y-36800000D03*
X49000000Y-30800000D03*
X51000000Y-36800000D03*
X51000000Y-30800000D03*
X53000000Y-36800000D03*
X53000000Y-30800000D03*
X55000000Y-36800000D03*
X55000000Y-30800000D03*
X57000000Y-36800000D03*
X57000000Y-30800000D03*
X59000000Y-36800000D03*
X59000000Y-30800000D03*
D17*
X59600000Y-65200000D03*
X58900000Y-72500000D03*
X58500000Y-70000000D03*
D18*
X33100000Y-84600000D03*
D17*
X45925010Y-87625010D03*
X46200000Y-82600000D03*
X48400000Y-82600000D03*
X49600000Y-88500000D03*
X59968756Y-87673830D03*
X56900000Y-64400000D03*
X33000000Y-66200000D03*
X56600000Y-57200000D03*
X33600000Y-55800000D03*
X40900000Y-91000000D03*
X61400000Y-90900000D03*
D16*
X47100001Y-91299999D03*
D18*
X39600000Y-85600000D03*
D17*
X60570853Y-86901075D03*
X46400000Y-62000000D03*
X64545833Y-62418065D03*
D16*
X58200000Y-62000000D03*
D17*
X36600000Y-55300000D03*
X39000000Y-56400000D03*
X46500000Y-56400000D03*
X63300000Y-87100000D03*
X65000000Y-87000000D03*
X55400000Y-56400000D03*
X51000000Y-81800000D03*
X61999990Y-81800000D03*
X51025010Y-69700000D03*
X49000000Y-80400000D03*
X49000000Y-54100000D03*
X62597852Y-80549421D03*
X53000000Y-69800000D03*
X53900000Y-81100000D03*
X63250010Y-81100000D03*
X50400000Y-79700000D03*
X50400000Y-54400000D03*
X62300000Y-79600000D03*
X54700000Y-54600000D03*
X60700000Y-84275002D03*
X54700000Y-84000000D03*
D19*
X49000000Y-104000000D02*
X44000000Y-104000000D01*
X54000000Y-104000000D02*
X54700000Y-103300000D01*
X49000000Y-104000000D02*
X49000000Y-104000000D01*
D20*
X45600000Y-52350900D02*
X45001020Y-51751920D01*
X45600000Y-54800000D02*
X45600000Y-52350900D01*
D21*
X61500000Y-79000000D02*
X61900000Y-78600000D01*
X61900000Y-78600000D02*
X62000000Y-78500000D01*
D22*
X61600000Y-61400000D02*
X61600000Y-61000000D01*
D19*
X54700000Y-103300000D02*
X58000000Y-100000000D01*
X49000000Y-104000000D02*
X54000000Y-104000000D01*
X44000000Y-104000000D02*
X44000000Y-104000000D01*
X33700000Y-104000000D02*
X33700000Y-102700000D01*
X64300000Y-102700000D02*
X61600000Y-100000000D01*
X64300000Y-104000000D02*
X64300000Y-102700000D01*
X35900000Y-106200000D02*
X33700000Y-104000000D01*
X37800000Y-106200000D02*
X35900000Y-106200000D01*
X33700000Y-104000000D02*
X33700000Y-102800000D01*
X33700000Y-101500000D02*
X37300000Y-97900000D01*
X33700000Y-104000000D02*
X33700000Y-101500000D01*
D20*
X42500000Y-52253960D02*
X43002040Y-51751920D01*
X42500000Y-54800000D02*
X42500000Y-52253960D01*
D19*
X55900000Y-77600000D02*
X60400000Y-77600000D01*
X56000000Y-77600000D02*
X55900000Y-77600000D01*
X46000000Y-77600000D02*
X56000000Y-77600000D01*
D21*
X58700000Y-90200000D02*
X58800000Y-90300000D01*
X57000000Y-90200000D02*
X58700000Y-90200000D01*
D19*
X41900001Y-54200001D02*
X42100001Y-54400001D01*
X42100001Y-54400001D02*
X42500000Y-54800000D01*
X35899999Y-54200001D02*
X41900001Y-54200001D01*
X35600000Y-54500000D02*
X35899999Y-54200001D01*
D20*
X41000520Y-48875520D02*
X41000000Y-48875000D01*
X41000520Y-51751920D02*
X41000520Y-48125520D01*
D19*
X43000000Y-30800000D02*
X43000000Y-36800000D01*
X45000000Y-36800000D02*
X45000000Y-30800000D01*
X47000000Y-30800000D02*
X47000000Y-36800000D01*
X49000000Y-36800000D02*
X49000000Y-30800000D01*
X51000000Y-30800000D02*
X51000000Y-36800000D01*
X53000000Y-36800000D02*
X53000000Y-30800000D01*
X55000000Y-30800000D02*
X55000000Y-36800000D01*
X57000000Y-36800000D02*
X57000000Y-30800000D01*
X59000000Y-30800000D02*
X59000000Y-36800000D01*
D20*
X41000000Y-45025000D02*
X41025000Y-45000000D01*
X41000000Y-46375000D02*
X41000000Y-44275000D01*
X41025000Y-44250000D02*
X41025000Y-43275000D01*
D19*
X41025000Y-42875000D02*
X41025000Y-30800000D01*
X41025000Y-31200000D02*
X41000000Y-31200000D01*
D21*
X65960000Y-65200000D02*
X66000000Y-65160000D01*
X59600000Y-65200000D02*
X65960000Y-65200000D01*
X65960000Y-72500000D02*
X66000000Y-72540000D01*
X58900000Y-72500000D02*
X65960000Y-72500000D01*
X58500000Y-70000000D02*
X66000000Y-70000000D01*
D22*
X46200000Y-82600000D02*
X48400000Y-82600000D01*
X50500000Y-87600000D02*
X50600000Y-87600000D01*
X49600000Y-88500000D02*
X50500000Y-87600000D01*
D21*
X45925010Y-87625010D02*
X50600000Y-87600000D01*
X59544492Y-87673830D02*
X59968756Y-87673830D01*
X50673830Y-87673830D02*
X59544492Y-87673830D01*
X50600000Y-87600000D02*
X50673830Y-87673830D01*
X34800000Y-64400000D02*
X33000000Y-66200000D01*
X56900000Y-64400000D02*
X34800000Y-64400000D01*
X56600000Y-57200000D02*
X46374998Y-57200000D01*
X35000000Y-57200000D02*
X33600000Y-55800000D01*
X46374998Y-57200000D02*
X35000000Y-57200000D01*
X40900000Y-91000000D02*
X41199999Y-91299999D01*
X41199999Y-91299999D02*
X47100001Y-91299999D01*
X61100001Y-91199999D02*
X61400000Y-90900000D01*
X61000001Y-91299999D02*
X61100001Y-91199999D01*
X47100001Y-91299999D02*
X61000001Y-91299999D01*
X39600000Y-85600000D02*
X41000000Y-87000000D01*
D22*
X60146589Y-86901075D02*
X60570853Y-86901075D01*
X41098925Y-86901075D02*
X60146589Y-86901075D01*
X41000000Y-87000000D02*
X41098925Y-86901075D01*
X46400000Y-62000000D02*
X58200000Y-62000000D01*
X64127768Y-62000000D02*
X64545833Y-62418065D01*
X58200000Y-62000000D02*
X64127768Y-62000000D01*
D21*
X36600000Y-55300000D02*
X37664999Y-56364999D01*
D22*
X38964999Y-56364999D02*
X39000000Y-56400000D01*
X37664999Y-56364999D02*
X38964999Y-56364999D01*
X46500000Y-56400000D02*
X46924264Y-56400000D01*
X64900000Y-87100000D02*
X65000000Y-87000000D01*
X63300000Y-87100000D02*
X64900000Y-87100000D01*
X55400000Y-56400000D02*
X46500000Y-56400000D01*
D21*
X51000000Y-81800000D02*
X61999990Y-81800000D01*
X50997960Y-69672950D02*
X51025010Y-69700000D01*
X50997960Y-66748080D02*
X50997960Y-69672950D01*
X49000000Y-51752940D02*
X48998980Y-51751920D01*
X49000000Y-54100000D02*
X49000000Y-51752940D01*
X62448431Y-80400000D02*
X62597852Y-80549421D01*
X49000000Y-80400000D02*
X62448431Y-80400000D01*
X52999480Y-69799480D02*
X53000000Y-69800000D01*
X52999480Y-66748080D02*
X52999480Y-69799480D01*
X62950011Y-81399999D02*
X63250010Y-81100000D01*
X53900000Y-81100000D02*
X62223427Y-81100000D01*
X62523426Y-81399999D02*
X62950011Y-81399999D01*
X62223427Y-81100000D02*
X62523426Y-81399999D01*
X50997960Y-53802040D02*
X50997960Y-51751920D01*
X50400000Y-54400000D02*
X50997960Y-53802040D01*
X50599999Y-79899999D02*
X50400000Y-79700000D01*
X62000001Y-79899999D02*
X50599999Y-79899999D01*
X62300000Y-79600000D02*
X62000001Y-79899999D01*
X54700000Y-54600000D02*
X53800000Y-54600000D01*
X52999480Y-53799480D02*
X52999480Y-51751920D01*
X53800000Y-54600000D02*
X52999480Y-53799480D01*
D22*
X54975002Y-84275002D02*
X54700000Y-84000000D01*
X60700000Y-84275002D02*
X54975002Y-84275002D01*
D23*
G36*
X39971324Y-43311446D02*
G01*
X40055844Y-43469573D01*
X40009488Y-43526058D01*
X39928577Y-43677433D01*
X39878752Y-43841684D01*
X39861928Y-44012500D01*
X39861928Y-44487500D01*
X39878752Y-44658316D01*
X39928577Y-44822567D01*
X40009488Y-44973942D01*
X40115001Y-45102509D01*
X40115000Y-45502954D01*
X40034488Y-45601058D01*
X39953577Y-45752433D01*
X39903752Y-45916684D01*
X39886928Y-46087500D01*
X39886928Y-46662500D01*
X39903752Y-46833316D01*
X39953577Y-46997567D01*
X40034488Y-47148942D01*
X40117425Y-47250000D01*
X40034488Y-47351058D01*
X39953577Y-47502433D01*
X39903752Y-47666684D01*
X39886928Y-47837500D01*
X39886928Y-48412500D01*
X39903752Y-48583316D01*
X39953577Y-48747567D01*
X40034488Y-48898942D01*
X40115521Y-48997680D01*
X40115521Y-49684666D01*
X40046586Y-49721513D01*
X39949895Y-49800865D01*
X39870543Y-49897556D01*
X39811578Y-50007870D01*
X39775268Y-50127568D01*
X39763008Y-50252050D01*
X39763008Y-53065001D01*
X35955751Y-53065001D01*
X35899999Y-53059510D01*
X35844247Y-53065001D01*
X35677500Y-53081424D01*
X35463552Y-53146325D01*
X35266376Y-53251717D01*
X35093550Y-53393552D01*
X35058007Y-53436861D01*
X34758012Y-53736857D01*
X34651717Y-53866378D01*
X34546324Y-54063554D01*
X34481423Y-54277502D01*
X34459509Y-54500000D01*
X34481423Y-54722498D01*
X34546324Y-54936446D01*
X34651717Y-55133622D01*
X34793552Y-55306448D01*
X34966378Y-55448283D01*
X35163554Y-55553676D01*
X35377502Y-55618577D01*
X35600000Y-55640491D01*
X35723943Y-55628284D01*
X35771414Y-55742889D01*
X35873738Y-55896028D01*
X36003972Y-56026262D01*
X36157111Y-56128586D01*
X36327271Y-56199068D01*
X36448351Y-56223153D01*
X36665198Y-56440000D01*
X35314802Y-56440000D01*
X34523153Y-55648351D01*
X34499068Y-55527271D01*
X34428586Y-55357111D01*
X34326262Y-55203972D01*
X34196028Y-55073738D01*
X34042889Y-54971414D01*
X33872729Y-54900932D01*
X33692089Y-54865000D01*
X33507911Y-54865000D01*
X33327271Y-54900932D01*
X33157111Y-54971414D01*
X33003972Y-55073738D01*
X32873738Y-55203972D01*
X32771414Y-55357111D01*
X32700932Y-55527271D01*
X32665000Y-55707911D01*
X32665000Y-55892089D01*
X32700932Y-56072729D01*
X32771414Y-56242889D01*
X32873738Y-56396028D01*
X33003972Y-56526262D01*
X33157111Y-56628586D01*
X33327271Y-56699068D01*
X33448351Y-56723153D01*
X34436201Y-57711003D01*
X34459999Y-57740001D01*
X34488997Y-57763799D01*
X34575723Y-57834974D01*
X34707753Y-57905546D01*
X34851014Y-57949003D01*
X34962667Y-57960000D01*
X34962677Y-57960000D01*
X35000000Y-57963676D01*
X35037322Y-57960000D01*
X56054465Y-57960000D01*
X56157111Y-58028586D01*
X56327271Y-58099068D01*
X56507911Y-58135000D01*
X56692089Y-58135000D01*
X56872729Y-58099068D01*
X57042889Y-58028586D01*
X57196028Y-57926262D01*
X57326262Y-57796028D01*
X57428586Y-57642889D01*
X57499068Y-57472729D01*
X57535000Y-57292089D01*
X57535000Y-57107911D01*
X57499068Y-56927271D01*
X57428586Y-56757111D01*
X57326262Y-56603972D01*
X57196028Y-56473738D01*
X57042889Y-56371414D01*
X56872729Y-56300932D01*
X56692089Y-56265000D01*
X56507911Y-56265000D01*
X56333370Y-56299719D01*
X56299068Y-56127271D01*
X56228586Y-55957111D01*
X56126262Y-55803972D01*
X55996028Y-55673738D01*
X55842889Y-55571414D01*
X55672729Y-55500932D01*
X55492089Y-55465000D01*
X55307911Y-55465000D01*
X55127271Y-55500932D01*
X54957111Y-55571414D01*
X54817049Y-55665000D01*
X47082951Y-55665000D01*
X46942889Y-55571414D01*
X46772729Y-55500932D01*
X46592089Y-55465000D01*
X46407911Y-55465000D01*
X46227271Y-55500932D01*
X46057111Y-55571414D01*
X45903972Y-55673738D01*
X45773738Y-55803972D01*
X45671414Y-55957111D01*
X45600932Y-56127271D01*
X45565000Y-56307911D01*
X45565000Y-56440000D01*
X39935000Y-56440000D01*
X39935000Y-56307911D01*
X39899068Y-56127271D01*
X39828586Y-55957111D01*
X39726262Y-55803972D01*
X39596028Y-55673738D01*
X39442889Y-55571414D01*
X39272729Y-55500932D01*
X39092089Y-55465000D01*
X38907911Y-55465000D01*
X38727271Y-55500932D01*
X38557111Y-55571414D01*
X38469432Y-55629999D01*
X38004801Y-55629999D01*
X37709803Y-55335001D01*
X41429870Y-55335001D01*
X41736857Y-55641988D01*
X41866378Y-55748283D01*
X42063554Y-55853676D01*
X42277501Y-55918577D01*
X42499999Y-55940491D01*
X42722498Y-55918577D01*
X42936446Y-55853676D01*
X43133622Y-55748283D01*
X43306448Y-55606448D01*
X43448283Y-55433622D01*
X43553676Y-55236446D01*
X43618577Y-55022498D01*
X43640491Y-54799999D01*
X43618577Y-54577501D01*
X43553676Y-54363554D01*
X43448283Y-54166378D01*
X43385000Y-54089267D01*
X43385000Y-53889862D01*
X43601480Y-53889862D01*
X43725962Y-53877602D01*
X43845660Y-53841292D01*
X43955974Y-53782327D01*
X44001530Y-53744940D01*
X44047086Y-53782327D01*
X44157400Y-53841292D01*
X44277098Y-53877602D01*
X44401580Y-53889862D01*
X44715270Y-53886790D01*
X44874020Y-53728040D01*
X44874020Y-51878920D01*
X45128020Y-51878920D01*
X45128020Y-53728040D01*
X45286770Y-53886790D01*
X45600460Y-53889862D01*
X45724942Y-53877602D01*
X45844640Y-53841292D01*
X45954954Y-53782327D01*
X46051645Y-53702975D01*
X46130997Y-53606284D01*
X46189962Y-53495970D01*
X46226272Y-53376272D01*
X46238532Y-53251790D01*
X46235460Y-52037670D01*
X46076710Y-51878920D01*
X45128020Y-51878920D01*
X44874020Y-51878920D01*
X44854020Y-51878920D01*
X44854020Y-51624920D01*
X44874020Y-51624920D01*
X44874020Y-49775800D01*
X45128020Y-49775800D01*
X45128020Y-51624920D01*
X46076710Y-51624920D01*
X46235460Y-51466170D01*
X46238532Y-50252050D01*
X47761468Y-50252050D01*
X47761468Y-53251790D01*
X47773728Y-53376272D01*
X47810038Y-53495970D01*
X47869003Y-53606284D01*
X47948355Y-53702975D01*
X48045046Y-53782327D01*
X48106043Y-53814931D01*
X48100932Y-53827271D01*
X48065000Y-54007911D01*
X48065000Y-54192089D01*
X48100932Y-54372729D01*
X48171414Y-54542889D01*
X48273738Y-54696028D01*
X48403972Y-54826262D01*
X48557111Y-54928586D01*
X48727271Y-54999068D01*
X48907911Y-55035000D01*
X49092089Y-55035000D01*
X49272729Y-54999068D01*
X49442889Y-54928586D01*
X49571355Y-54842748D01*
X49571414Y-54842889D01*
X49673738Y-54996028D01*
X49803972Y-55126262D01*
X49957111Y-55228586D01*
X50127271Y-55299068D01*
X50307911Y-55335000D01*
X50492089Y-55335000D01*
X50672729Y-55299068D01*
X50842889Y-55228586D01*
X50996028Y-55126262D01*
X51126262Y-54996028D01*
X51228586Y-54842889D01*
X51299068Y-54672729D01*
X51323153Y-54551649D01*
X51508964Y-54365838D01*
X51537961Y-54342041D01*
X51590927Y-54277502D01*
X51632934Y-54226317D01*
X51703506Y-54094287D01*
X51705111Y-54088997D01*
X51746963Y-53951026D01*
X51755190Y-53867498D01*
X51841580Y-53841292D01*
X51951894Y-53782327D01*
X51998720Y-53743898D01*
X52045546Y-53782327D01*
X52155860Y-53841292D01*
X52242510Y-53867577D01*
X52250477Y-53948465D01*
X52277290Y-54036857D01*
X52293934Y-54091726D01*
X52364506Y-54223756D01*
X52385212Y-54248986D01*
X52459479Y-54339481D01*
X52488482Y-54363283D01*
X53236201Y-55111002D01*
X53259999Y-55140001D01*
X53375724Y-55234974D01*
X53507753Y-55305546D01*
X53651014Y-55349003D01*
X53762667Y-55360000D01*
X53762676Y-55360000D01*
X53799999Y-55363676D01*
X53837322Y-55360000D01*
X54154465Y-55360000D01*
X54257111Y-55428586D01*
X54427271Y-55499068D01*
X54607911Y-55535000D01*
X54792089Y-55535000D01*
X54972729Y-55499068D01*
X55142889Y-55428586D01*
X55296028Y-55326262D01*
X55426262Y-55196028D01*
X55528586Y-55042889D01*
X55599068Y-54872729D01*
X55635000Y-54692089D01*
X55635000Y-54507911D01*
X55599068Y-54327271D01*
X55528586Y-54157111D01*
X55523835Y-54150000D01*
X64511928Y-54150000D01*
X64515000Y-54714250D01*
X64673750Y-54873000D01*
X65873000Y-54873000D01*
X65873000Y-53673750D01*
X65714250Y-53515000D01*
X65150000Y-53511928D01*
X65025518Y-53524188D01*
X64905820Y-53560498D01*
X64795506Y-53619463D01*
X64698815Y-53698815D01*
X64619463Y-53795506D01*
X64560498Y-53905820D01*
X64524188Y-54025518D01*
X64511928Y-54150000D01*
X55523835Y-54150000D01*
X55426262Y-54003972D01*
X55296028Y-53873738D01*
X55142889Y-53771414D01*
X54972729Y-53700932D01*
X54792089Y-53665000D01*
X54607911Y-53665000D01*
X54427271Y-53700932D01*
X54257111Y-53771414D01*
X54154465Y-53840000D01*
X54114802Y-53840000D01*
X54010379Y-53735577D01*
X54050105Y-53702975D01*
X54129457Y-53606284D01*
X54188422Y-53495970D01*
X54224732Y-53376272D01*
X54236992Y-53251790D01*
X54236992Y-50252050D01*
X54224732Y-50127568D01*
X54188422Y-50007870D01*
X54129457Y-49897556D01*
X54050105Y-49800865D01*
X53953414Y-49721513D01*
X53843100Y-49662548D01*
X53723402Y-49626238D01*
X53598920Y-49613978D01*
X52400040Y-49613978D01*
X52275558Y-49626238D01*
X52155860Y-49662548D01*
X52045546Y-49721513D01*
X51998720Y-49759942D01*
X51951894Y-49721513D01*
X51841580Y-49662548D01*
X51721882Y-49626238D01*
X51597400Y-49613978D01*
X50398520Y-49613978D01*
X50274038Y-49626238D01*
X50154340Y-49662548D01*
X50044026Y-49721513D01*
X49998470Y-49758900D01*
X49952914Y-49721513D01*
X49842600Y-49662548D01*
X49722902Y-49626238D01*
X49598420Y-49613978D01*
X48399540Y-49613978D01*
X48275058Y-49626238D01*
X48155360Y-49662548D01*
X48045046Y-49721513D01*
X47948355Y-49800865D01*
X47869003Y-49897556D01*
X47810038Y-50007870D01*
X47773728Y-50127568D01*
X47761468Y-50252050D01*
X46238532Y-50252050D01*
X46226272Y-50127568D01*
X46189962Y-50007870D01*
X46130997Y-49897556D01*
X46051645Y-49800865D01*
X45954954Y-49721513D01*
X45844640Y-49662548D01*
X45724942Y-49626238D01*
X45600460Y-49613978D01*
X45286770Y-49617050D01*
X45128020Y-49775800D01*
X44874020Y-49775800D01*
X44715270Y-49617050D01*
X44401580Y-49613978D01*
X44277098Y-49626238D01*
X44157400Y-49662548D01*
X44047086Y-49721513D01*
X44001530Y-49758900D01*
X43955974Y-49721513D01*
X43845660Y-49662548D01*
X43725962Y-49626238D01*
X43601480Y-49613978D01*
X42402600Y-49613978D01*
X42278118Y-49626238D01*
X42158420Y-49662548D01*
X42048106Y-49721513D01*
X42001280Y-49759942D01*
X41954454Y-49721513D01*
X41885520Y-49684666D01*
X41885520Y-48996412D01*
X41965512Y-48898942D01*
X42046423Y-48747567D01*
X42096248Y-48583316D01*
X42113072Y-48412500D01*
X42113072Y-47837500D01*
X42096248Y-47666684D01*
X42046423Y-47502433D01*
X41965512Y-47351058D01*
X41882575Y-47250000D01*
X41965512Y-47148942D01*
X42046423Y-46997567D01*
X42096248Y-46833316D01*
X42113072Y-46662500D01*
X42113072Y-46087500D01*
X42096248Y-45916684D01*
X42046423Y-45752433D01*
X41965512Y-45601058D01*
X41885000Y-45502954D01*
X41885000Y-45246915D01*
X41895506Y-45255537D01*
X42005820Y-45314502D01*
X42125518Y-45350812D01*
X42250000Y-45363072D01*
X42489250Y-45360000D01*
X42648000Y-45201250D01*
X42648000Y-44377000D01*
X42902000Y-44377000D01*
X42902000Y-45201250D01*
X43060750Y-45360000D01*
X43300000Y-45363072D01*
X43424482Y-45350812D01*
X43544180Y-45314502D01*
X43654494Y-45255537D01*
X43751185Y-45176185D01*
X43830537Y-45079494D01*
X43889502Y-44969180D01*
X43925812Y-44849482D01*
X43938072Y-44725000D01*
X43935000Y-44535750D01*
X43776250Y-44377000D01*
X42902000Y-44377000D01*
X42648000Y-44377000D01*
X42628000Y-44377000D01*
X42628000Y-44123000D01*
X42648000Y-44123000D01*
X42648000Y-43298750D01*
X42902000Y-43298750D01*
X42902000Y-44123000D01*
X43776250Y-44123000D01*
X43935000Y-43964250D01*
X43938072Y-43775000D01*
X43925812Y-43650518D01*
X43889502Y-43530820D01*
X43830537Y-43420506D01*
X43751185Y-43323815D01*
X43654494Y-43244463D01*
X43544180Y-43185498D01*
X43424482Y-43149188D01*
X43300000Y-43136928D01*
X43060750Y-43140000D01*
X42902000Y-43298750D01*
X42648000Y-43298750D01*
X42489250Y-43140000D01*
X42250000Y-43136928D01*
X42127970Y-43148946D01*
X42134628Y-43127000D01*
X59873000Y-43127000D01*
X59873000Y-43847993D01*
X59865000Y-43888212D01*
X59865000Y-44111788D01*
X59873000Y-44152007D01*
X59873000Y-45000000D01*
X59875440Y-45024776D01*
X59882667Y-45048601D01*
X59894403Y-45070557D01*
X59910197Y-45089803D01*
X59929443Y-45105597D01*
X59951399Y-45117333D01*
X59975224Y-45124560D01*
X60000000Y-45127000D01*
X60847993Y-45127000D01*
X60888212Y-45135000D01*
X61111788Y-45135000D01*
X61152007Y-45127000D01*
X62000000Y-45127000D01*
X62024776Y-45124560D01*
X62048601Y-45117333D01*
X62070557Y-45105597D01*
X62089803Y-45089803D01*
X62105597Y-45070557D01*
X62117333Y-45048601D01*
X62124560Y-45024776D01*
X62127000Y-45000000D01*
X62127000Y-44152007D01*
X62135000Y-44111788D01*
X62135000Y-43888212D01*
X62127000Y-43847993D01*
X62127000Y-43127000D01*
X67340000Y-43127000D01*
X67340000Y-53746112D01*
X67301185Y-53698815D01*
X67204494Y-53619463D01*
X67094180Y-53560498D01*
X66974482Y-53524188D01*
X66850000Y-53511928D01*
X66285750Y-53515000D01*
X66127000Y-53673750D01*
X66127000Y-54873000D01*
X66147000Y-54873000D01*
X66147000Y-55127000D01*
X66127000Y-55127000D01*
X66127000Y-55147000D01*
X65873000Y-55147000D01*
X65873000Y-55127000D01*
X64673750Y-55127000D01*
X64515000Y-55285750D01*
X64511928Y-55850000D01*
X64524188Y-55974482D01*
X64560498Y-56094180D01*
X64619463Y-56204494D01*
X64698815Y-56301185D01*
X64795506Y-56380537D01*
X64905820Y-56439502D01*
X64978380Y-56461513D01*
X64846525Y-56593368D01*
X64684010Y-56836589D01*
X64572068Y-57106842D01*
X64515000Y-57393740D01*
X64515000Y-57686260D01*
X64572068Y-57973158D01*
X64684010Y-58243411D01*
X64846525Y-58486632D01*
X65053368Y-58693475D01*
X65227760Y-58810000D01*
X65053368Y-58926525D01*
X64846525Y-59133368D01*
X64684010Y-59376589D01*
X64572068Y-59646842D01*
X64515000Y-59933740D01*
X64515000Y-60226260D01*
X64572068Y-60513158D01*
X64684010Y-60783411D01*
X64846525Y-61026632D01*
X65053368Y-61233475D01*
X65227760Y-61350000D01*
X65053368Y-61466525D01*
X64947492Y-61572401D01*
X64818562Y-61518997D01*
X64657565Y-61486972D01*
X64650006Y-61477762D01*
X64538088Y-61385913D01*
X64410401Y-61317663D01*
X64271853Y-61275635D01*
X64163873Y-61265000D01*
X64127768Y-61261444D01*
X64091663Y-61265000D01*
X59070132Y-61265000D01*
X58923520Y-61118388D01*
X58737624Y-60994176D01*
X58531067Y-60908617D01*
X58311788Y-60865000D01*
X58088212Y-60865000D01*
X57868933Y-60908617D01*
X57662376Y-60994176D01*
X57476480Y-61118388D01*
X57329868Y-61265000D01*
X46982951Y-61265000D01*
X46842889Y-61171414D01*
X46672729Y-61100932D01*
X46492089Y-61065000D01*
X46307911Y-61065000D01*
X46127271Y-61100932D01*
X45957111Y-61171414D01*
X45803972Y-61273738D01*
X45673738Y-61403972D01*
X45571414Y-61557111D01*
X45500932Y-61727271D01*
X45465000Y-61907911D01*
X45465000Y-62092089D01*
X45500932Y-62272729D01*
X45571414Y-62442889D01*
X45673738Y-62596028D01*
X45803972Y-62726262D01*
X45957111Y-62828586D01*
X46127271Y-62899068D01*
X46307911Y-62935000D01*
X46492089Y-62935000D01*
X46672729Y-62899068D01*
X46842889Y-62828586D01*
X46982951Y-62735000D01*
X57329868Y-62735000D01*
X57476480Y-62881612D01*
X57662376Y-63005824D01*
X57868933Y-63091383D01*
X58088212Y-63135000D01*
X58311788Y-63135000D01*
X58531067Y-63091383D01*
X58737624Y-63005824D01*
X58923520Y-62881612D01*
X59070132Y-62735000D01*
X63665076Y-62735000D01*
X63717247Y-62860954D01*
X63819571Y-63014093D01*
X63949805Y-63144327D01*
X64102944Y-63246651D01*
X64273104Y-63317133D01*
X64453744Y-63353065D01*
X64637922Y-63353065D01*
X64696093Y-63341494D01*
X64846525Y-63566632D01*
X65053368Y-63773475D01*
X65227760Y-63890000D01*
X65053368Y-64006525D01*
X64846525Y-64213368D01*
X64695094Y-64440000D01*
X60145535Y-64440000D01*
X60042889Y-64371414D01*
X59872729Y-64300932D01*
X59692089Y-64265000D01*
X59507911Y-64265000D01*
X59327271Y-64300932D01*
X59157111Y-64371414D01*
X59003972Y-64473738D01*
X58873738Y-64603972D01*
X58771414Y-64757111D01*
X58700932Y-64927271D01*
X58665000Y-65107911D01*
X58665000Y-65292089D01*
X58700932Y-65472729D01*
X58771414Y-65642889D01*
X58873738Y-65796028D01*
X59003972Y-65926262D01*
X59157111Y-66028586D01*
X59327271Y-66099068D01*
X59507911Y-66135000D01*
X59692089Y-66135000D01*
X59872729Y-66099068D01*
X60042889Y-66028586D01*
X60145535Y-65960000D01*
X64748549Y-65960000D01*
X64846525Y-66106632D01*
X65053368Y-66313475D01*
X65296589Y-66475990D01*
X65566842Y-66587932D01*
X65853740Y-66645000D01*
X66146260Y-66645000D01*
X66433158Y-66587932D01*
X66703411Y-66475990D01*
X66946632Y-66313475D01*
X67153475Y-66106632D01*
X67315990Y-65863411D01*
X67340000Y-65805445D01*
X67340000Y-68746112D01*
X67301185Y-68698815D01*
X67204494Y-68619463D01*
X67094180Y-68560498D01*
X66974482Y-68524188D01*
X66850000Y-68511928D01*
X65150000Y-68511928D01*
X65025518Y-68524188D01*
X64905820Y-68560498D01*
X64795506Y-68619463D01*
X64698815Y-68698815D01*
X64619463Y-68795506D01*
X64560498Y-68905820D01*
X64524188Y-69025518D01*
X64511928Y-69150000D01*
X64511928Y-69240000D01*
X59045535Y-69240000D01*
X58942889Y-69171414D01*
X58772729Y-69100932D01*
X58592089Y-69065000D01*
X58407911Y-69065000D01*
X58227271Y-69100932D01*
X58057111Y-69171414D01*
X57903972Y-69273738D01*
X57773738Y-69403972D01*
X57671414Y-69557111D01*
X57600932Y-69727271D01*
X57565000Y-69907911D01*
X57565000Y-70092089D01*
X57600932Y-70272729D01*
X57671414Y-70442889D01*
X57773738Y-70596028D01*
X57903972Y-70726262D01*
X58057111Y-70828586D01*
X58227271Y-70899068D01*
X58407911Y-70935000D01*
X58592089Y-70935000D01*
X58772729Y-70899068D01*
X58942889Y-70828586D01*
X59045535Y-70760000D01*
X64511928Y-70760000D01*
X64511928Y-70850000D01*
X64524188Y-70974482D01*
X64560498Y-71094180D01*
X64619463Y-71204494D01*
X64698815Y-71301185D01*
X64795506Y-71380537D01*
X64905820Y-71439502D01*
X64978380Y-71461513D01*
X64846525Y-71593368D01*
X64748549Y-71740000D01*
X59445535Y-71740000D01*
X59342889Y-71671414D01*
X59172729Y-71600932D01*
X58992089Y-71565000D01*
X58807911Y-71565000D01*
X58627271Y-71600932D01*
X58457111Y-71671414D01*
X58303972Y-71773738D01*
X58173738Y-71903972D01*
X58071414Y-72057111D01*
X58000932Y-72227271D01*
X57965000Y-72407911D01*
X57965000Y-72592089D01*
X58000932Y-72772729D01*
X58071414Y-72942889D01*
X58173738Y-73096028D01*
X58303972Y-73226262D01*
X58457111Y-73328586D01*
X58627271Y-73399068D01*
X58807911Y-73435000D01*
X58992089Y-73435000D01*
X59172729Y-73399068D01*
X59342889Y-73328586D01*
X59445535Y-73260000D01*
X64695094Y-73260000D01*
X64846525Y-73486632D01*
X65053368Y-73693475D01*
X65235534Y-73815195D01*
X65118645Y-73884822D01*
X64902412Y-74079731D01*
X64728359Y-74313080D01*
X64603175Y-74575901D01*
X64558524Y-74723110D01*
X64679845Y-74953000D01*
X65873000Y-74953000D01*
X65873000Y-74933000D01*
X66127000Y-74933000D01*
X66127000Y-74953000D01*
X66147000Y-74953000D01*
X66147000Y-75207000D01*
X66127000Y-75207000D01*
X66127000Y-75227000D01*
X65873000Y-75227000D01*
X65873000Y-75207000D01*
X64679845Y-75207000D01*
X64558524Y-75436890D01*
X64603175Y-75584099D01*
X64728359Y-75846920D01*
X64902412Y-76080269D01*
X65118645Y-76275178D01*
X65235534Y-76344805D01*
X65053368Y-76466525D01*
X64846525Y-76673368D01*
X64684010Y-76916589D01*
X64572068Y-77186842D01*
X64515000Y-77473740D01*
X64515000Y-77766260D01*
X64572068Y-78053158D01*
X64684010Y-78323411D01*
X64846525Y-78566632D01*
X65053368Y-78773475D01*
X65296589Y-78935990D01*
X65566842Y-79047932D01*
X65853740Y-79105000D01*
X66146260Y-79105000D01*
X66433158Y-79047932D01*
X66703411Y-78935990D01*
X66946632Y-78773475D01*
X67153475Y-78566632D01*
X67315990Y-78323411D01*
X67340001Y-78265444D01*
X67340001Y-100615868D01*
X67300000Y-100611928D01*
X63817060Y-100611928D01*
X62363143Y-99158012D01*
X62233622Y-99051717D01*
X62036446Y-98946324D01*
X61822498Y-98881423D01*
X61600000Y-98859509D01*
X61377502Y-98881423D01*
X61163554Y-98946324D01*
X60966378Y-99051717D01*
X60793552Y-99193552D01*
X60651717Y-99366378D01*
X60546324Y-99563554D01*
X60481423Y-99777502D01*
X60459509Y-100000000D01*
X60481423Y-100222498D01*
X60546324Y-100436446D01*
X60651717Y-100633622D01*
X60758012Y-100763143D01*
X60823964Y-100829096D01*
X60769463Y-100895506D01*
X60710498Y-101005820D01*
X60674188Y-101125518D01*
X60661928Y-101250000D01*
X60661928Y-106750000D01*
X60674188Y-106874482D01*
X60710498Y-106994180D01*
X60769463Y-107104494D01*
X60848815Y-107201185D01*
X60945506Y-107280537D01*
X61055820Y-107339502D01*
X61175518Y-107375812D01*
X61300000Y-107388072D01*
X67300000Y-107388072D01*
X67340001Y-107384132D01*
X67340001Y-115967711D01*
X67311375Y-116259660D01*
X67235965Y-116509429D01*
X67113477Y-116739794D01*
X66948579Y-116941979D01*
X66747546Y-117108288D01*
X66518046Y-117232378D01*
X66268805Y-117309531D01*
X65978911Y-117340000D01*
X32032279Y-117340000D01*
X31740340Y-117311375D01*
X31490571Y-117235965D01*
X31260206Y-117113477D01*
X31058021Y-116948579D01*
X30891712Y-116747546D01*
X30767622Y-116518046D01*
X30690469Y-116268805D01*
X30660000Y-115978911D01*
X30660000Y-113725701D01*
X31215000Y-113725701D01*
X31215000Y-114274299D01*
X31322026Y-114812354D01*
X31531965Y-115319192D01*
X31836750Y-115775334D01*
X32224666Y-116163250D01*
X32680808Y-116468035D01*
X33187646Y-116677974D01*
X33725701Y-116785000D01*
X34274299Y-116785000D01*
X34812354Y-116677974D01*
X35319192Y-116468035D01*
X35775334Y-116163250D01*
X36163250Y-115775334D01*
X36468035Y-115319192D01*
X36677974Y-114812354D01*
X36785000Y-114274299D01*
X36785000Y-113725701D01*
X61215000Y-113725701D01*
X61215000Y-114274299D01*
X61322026Y-114812354D01*
X61531965Y-115319192D01*
X61836750Y-115775334D01*
X62224666Y-116163250D01*
X62680808Y-116468035D01*
X63187646Y-116677974D01*
X63725701Y-116785000D01*
X64274299Y-116785000D01*
X64812354Y-116677974D01*
X65319192Y-116468035D01*
X65775334Y-116163250D01*
X66163250Y-115775334D01*
X66468035Y-115319192D01*
X66677974Y-114812354D01*
X66785000Y-114274299D01*
X66785000Y-113725701D01*
X66677974Y-113187646D01*
X66468035Y-112680808D01*
X66163250Y-112224666D01*
X65775334Y-111836750D01*
X65319192Y-111531965D01*
X64812354Y-111322026D01*
X64274299Y-111215000D01*
X63725701Y-111215000D01*
X63187646Y-111322026D01*
X62680808Y-111531965D01*
X62224666Y-111836750D01*
X61836750Y-112224666D01*
X61531965Y-112680808D01*
X61322026Y-113187646D01*
X61215000Y-113725701D01*
X36785000Y-113725701D01*
X36677974Y-113187646D01*
X36468035Y-112680808D01*
X36163250Y-112224666D01*
X35775334Y-111836750D01*
X35319192Y-111531965D01*
X34812354Y-111322026D01*
X34274299Y-111215000D01*
X33725701Y-111215000D01*
X33187646Y-111322026D01*
X32680808Y-111531965D01*
X32224666Y-111836750D01*
X31836750Y-112224666D01*
X31531965Y-112680808D01*
X31322026Y-113187646D01*
X31215000Y-113725701D01*
X30660000Y-113725701D01*
X30660000Y-107384132D01*
X30700000Y-107388072D01*
X36700000Y-107388072D01*
X36824482Y-107375812D01*
X36944180Y-107339502D01*
X36952603Y-107335000D01*
X37855752Y-107335000D01*
X38022499Y-107318577D01*
X38236447Y-107253676D01*
X38433623Y-107148284D01*
X38606449Y-107006449D01*
X38748284Y-106833623D01*
X38853676Y-106636447D01*
X38918577Y-106422499D01*
X38940491Y-106200000D01*
X38918577Y-105977501D01*
X38853676Y-105763553D01*
X38748284Y-105566377D01*
X38606449Y-105393551D01*
X38433623Y-105251716D01*
X38236447Y-105146324D01*
X38022499Y-105081423D01*
X37855752Y-105065000D01*
X37338072Y-105065000D01*
X37338072Y-101250000D01*
X37325812Y-101125518D01*
X37289502Y-101005820D01*
X37230537Y-100895506D01*
X37151185Y-100798815D01*
X37054494Y-100719463D01*
X36944180Y-100660498D01*
X36824482Y-100624188D01*
X36700000Y-100611928D01*
X36193203Y-100611928D01*
X38141988Y-98663144D01*
X38248284Y-98533623D01*
X38353676Y-98336447D01*
X38418577Y-98122499D01*
X38440491Y-97900000D01*
X38418577Y-97677501D01*
X38353676Y-97463554D01*
X38248284Y-97266378D01*
X38106449Y-97093551D01*
X37933622Y-96951716D01*
X37736446Y-96846324D01*
X37522499Y-96781423D01*
X37300000Y-96759509D01*
X37077501Y-96781423D01*
X36863553Y-96846324D01*
X36666377Y-96951716D01*
X36536856Y-97058012D01*
X32982941Y-100611928D01*
X30700000Y-100611928D01*
X30660000Y-100615868D01*
X30660000Y-90907911D01*
X39965000Y-90907911D01*
X39965000Y-91092089D01*
X40000932Y-91272729D01*
X40071414Y-91442889D01*
X40173738Y-91596028D01*
X40303972Y-91726262D01*
X40457111Y-91828586D01*
X40627271Y-91899068D01*
X40765469Y-91926558D01*
X40775723Y-91934973D01*
X40907752Y-92005545D01*
X41051013Y-92049002D01*
X41162666Y-92059999D01*
X41162674Y-92059999D01*
X41199999Y-92063675D01*
X41237324Y-92059999D01*
X46254869Y-92059999D01*
X46376481Y-92181611D01*
X46562377Y-92305823D01*
X46768934Y-92391382D01*
X46988213Y-92434999D01*
X47211789Y-92434999D01*
X47431068Y-92391382D01*
X47637625Y-92305823D01*
X47823521Y-92181611D01*
X47945133Y-92059999D01*
X60962679Y-92059999D01*
X61000001Y-92063675D01*
X61037323Y-92059999D01*
X61037334Y-92059999D01*
X61148987Y-92049002D01*
X61292248Y-92005545D01*
X61424277Y-91934973D01*
X61540002Y-91840000D01*
X61554253Y-91822635D01*
X61672729Y-91799068D01*
X61842889Y-91728586D01*
X61996028Y-91626262D01*
X62126262Y-91496028D01*
X62228586Y-91342889D01*
X62299068Y-91172729D01*
X62335000Y-90992089D01*
X62335000Y-90807911D01*
X62299068Y-90627271D01*
X62228586Y-90457111D01*
X62126262Y-90303972D01*
X61996028Y-90173738D01*
X61842889Y-90071414D01*
X61672729Y-90000932D01*
X61492089Y-89965000D01*
X61307911Y-89965000D01*
X61127271Y-90000932D01*
X60957111Y-90071414D01*
X60803972Y-90173738D01*
X60673738Y-90303972D01*
X60571414Y-90457111D01*
X60537081Y-90539999D01*
X59807538Y-90539999D01*
X59835000Y-90401939D01*
X59835000Y-90198061D01*
X59795226Y-89998102D01*
X59717205Y-89809744D01*
X59603937Y-89640226D01*
X59459774Y-89496063D01*
X59290256Y-89382795D01*
X59101898Y-89304774D01*
X58901939Y-89265000D01*
X58698061Y-89265000D01*
X58498102Y-89304774D01*
X58309744Y-89382795D01*
X58224130Y-89440000D01*
X57703711Y-89440000D01*
X57659774Y-89396063D01*
X57490256Y-89282795D01*
X57301898Y-89204774D01*
X57101939Y-89165000D01*
X56898061Y-89165000D01*
X56698102Y-89204774D01*
X56509744Y-89282795D01*
X56340226Y-89396063D01*
X56196063Y-89540226D01*
X56082795Y-89709744D01*
X56004774Y-89898102D01*
X55965000Y-90098061D01*
X55965000Y-90301939D01*
X56004774Y-90501898D01*
X56020556Y-90539999D01*
X47945133Y-90539999D01*
X47823521Y-90418387D01*
X47637625Y-90294175D01*
X47431068Y-90208616D01*
X47211789Y-90164999D01*
X46988213Y-90164999D01*
X46768934Y-90208616D01*
X46562377Y-90294175D01*
X46376481Y-90418387D01*
X46254869Y-90539999D01*
X41717152Y-90539999D01*
X41626262Y-90403972D01*
X41496028Y-90273738D01*
X41342889Y-90171414D01*
X41172729Y-90100932D01*
X40992089Y-90065000D01*
X40807911Y-90065000D01*
X40627271Y-90100932D01*
X40457111Y-90171414D01*
X40303972Y-90273738D01*
X40173738Y-90403972D01*
X40071414Y-90557111D01*
X40000932Y-90727271D01*
X39965000Y-90907911D01*
X30660000Y-90907911D01*
X30660000Y-84498061D01*
X32065000Y-84498061D01*
X32065000Y-84701939D01*
X32104774Y-84901898D01*
X32182795Y-85090256D01*
X32296063Y-85259774D01*
X32440226Y-85403937D01*
X32609744Y-85517205D01*
X32798102Y-85595226D01*
X32998061Y-85635000D01*
X33201939Y-85635000D01*
X33401898Y-85595226D01*
X33590256Y-85517205D01*
X33618907Y-85498061D01*
X38565000Y-85498061D01*
X38565000Y-85701939D01*
X38604774Y-85901898D01*
X38682795Y-86090256D01*
X38796063Y-86259774D01*
X38940226Y-86403937D01*
X39109744Y-86517205D01*
X39298102Y-86595226D01*
X39498061Y-86635000D01*
X39560199Y-86635000D01*
X40488997Y-87563799D01*
X40575723Y-87634974D01*
X40707753Y-87705546D01*
X40851014Y-87749002D01*
X41000000Y-87763676D01*
X41148985Y-87749002D01*
X41292246Y-87705546D01*
X41422216Y-87636075D01*
X44990010Y-87636075D01*
X44990010Y-87717099D01*
X45025942Y-87897739D01*
X45096424Y-88067899D01*
X45198748Y-88221038D01*
X45328982Y-88351272D01*
X45482121Y-88453596D01*
X45652281Y-88524078D01*
X45832921Y-88560010D01*
X46017099Y-88560010D01*
X46197739Y-88524078D01*
X46367899Y-88453596D01*
X46474933Y-88382078D01*
X48672477Y-88370322D01*
X48665000Y-88407911D01*
X48665000Y-88592089D01*
X48700932Y-88772729D01*
X48771414Y-88942889D01*
X48873738Y-89096028D01*
X49003972Y-89226262D01*
X49157111Y-89328586D01*
X49327271Y-89399068D01*
X49507911Y-89435000D01*
X49692089Y-89435000D01*
X49872729Y-89399068D01*
X50042889Y-89328586D01*
X50196028Y-89226262D01*
X50326262Y-89096028D01*
X50428586Y-88942889D01*
X50499068Y-88772729D01*
X50531932Y-88607515D01*
X50705012Y-88434435D01*
X50711152Y-88433830D01*
X59423221Y-88433830D01*
X59525867Y-88502416D01*
X59696027Y-88572898D01*
X59876667Y-88608830D01*
X60060845Y-88608830D01*
X60241485Y-88572898D01*
X60411645Y-88502416D01*
X60564784Y-88400092D01*
X60695018Y-88269858D01*
X60797342Y-88116719D01*
X60867824Y-87946559D01*
X60901740Y-87776053D01*
X61013742Y-87729661D01*
X61166881Y-87627337D01*
X61297115Y-87497103D01*
X61399439Y-87343964D01*
X61469921Y-87173804D01*
X61502919Y-87007911D01*
X62365000Y-87007911D01*
X62365000Y-87192089D01*
X62400932Y-87372729D01*
X62471414Y-87542889D01*
X62573738Y-87696028D01*
X62703972Y-87826262D01*
X62857111Y-87928586D01*
X63027271Y-87999068D01*
X63207911Y-88035000D01*
X63392089Y-88035000D01*
X63572729Y-87999068D01*
X63742889Y-87928586D01*
X63882951Y-87835000D01*
X64572596Y-87835000D01*
X64727271Y-87899068D01*
X64907911Y-87935000D01*
X65092089Y-87935000D01*
X65272729Y-87899068D01*
X65442889Y-87828586D01*
X65596028Y-87726262D01*
X65726262Y-87596028D01*
X65828586Y-87442889D01*
X65899068Y-87272729D01*
X65935000Y-87092089D01*
X65935000Y-86907911D01*
X65899068Y-86727271D01*
X65828586Y-86557111D01*
X65726262Y-86403972D01*
X65596028Y-86273738D01*
X65442889Y-86171414D01*
X65272729Y-86100932D01*
X65092089Y-86065000D01*
X64907911Y-86065000D01*
X64727271Y-86100932D01*
X64557111Y-86171414D01*
X64403972Y-86273738D01*
X64312710Y-86365000D01*
X63882951Y-86365000D01*
X63742889Y-86271414D01*
X63572729Y-86200932D01*
X63392089Y-86165000D01*
X63207911Y-86165000D01*
X63027271Y-86200932D01*
X62857111Y-86271414D01*
X62703972Y-86373738D01*
X62573738Y-86503972D01*
X62471414Y-86657111D01*
X62400932Y-86827271D01*
X62365000Y-87007911D01*
X61502919Y-87007911D01*
X61505853Y-86993164D01*
X61505853Y-86808986D01*
X61469921Y-86628346D01*
X61399439Y-86458186D01*
X61297115Y-86305047D01*
X61166881Y-86174813D01*
X61013742Y-86072489D01*
X60843582Y-86002007D01*
X60662942Y-85966075D01*
X60478764Y-85966075D01*
X60298124Y-86002007D01*
X60127964Y-86072489D01*
X59987902Y-86166075D01*
X41240877Y-86166075D01*
X40635000Y-85560199D01*
X40635000Y-85498061D01*
X40595226Y-85298102D01*
X40517205Y-85109744D01*
X40403937Y-84940226D01*
X40259774Y-84796063D01*
X40090256Y-84682795D01*
X39901898Y-84604774D01*
X39701939Y-84565000D01*
X39498061Y-84565000D01*
X39298102Y-84604774D01*
X39109744Y-84682795D01*
X38940226Y-84796063D01*
X38796063Y-84940226D01*
X38682795Y-85109744D01*
X38604774Y-85298102D01*
X38565000Y-85498061D01*
X33618907Y-85498061D01*
X33759774Y-85403937D01*
X33903937Y-85259774D01*
X34017205Y-85090256D01*
X34095226Y-84901898D01*
X34135000Y-84701939D01*
X34135000Y-84498061D01*
X34095226Y-84298102D01*
X34017205Y-84109744D01*
X33903937Y-83940226D01*
X33871622Y-83907911D01*
X53765000Y-83907911D01*
X53765000Y-84092089D01*
X53800932Y-84272729D01*
X53871414Y-84442889D01*
X53973738Y-84596028D01*
X54103972Y-84726262D01*
X54257111Y-84828586D01*
X54427271Y-84899068D01*
X54607911Y-84935000D01*
X54650576Y-84935000D01*
X54692369Y-84957339D01*
X54830917Y-84999367D01*
X54975002Y-85013558D01*
X55011107Y-85010002D01*
X60117049Y-85010002D01*
X60257111Y-85103588D01*
X60427271Y-85174070D01*
X60607911Y-85210002D01*
X60792089Y-85210002D01*
X60972729Y-85174070D01*
X61142889Y-85103588D01*
X61296028Y-85001264D01*
X61426262Y-84871030D01*
X61528586Y-84717891D01*
X61599068Y-84547731D01*
X61635000Y-84367091D01*
X61635000Y-84182913D01*
X61599068Y-84002273D01*
X61528586Y-83832113D01*
X61426262Y-83678974D01*
X61296028Y-83548740D01*
X61142889Y-83446416D01*
X60972729Y-83375934D01*
X60792089Y-83340002D01*
X60607911Y-83340002D01*
X60427271Y-83375934D01*
X60257111Y-83446416D01*
X60117049Y-83540002D01*
X55517154Y-83540002D01*
X55426262Y-83403972D01*
X55296028Y-83273738D01*
X55142889Y-83171414D01*
X54972729Y-83100932D01*
X54792089Y-83065000D01*
X54607911Y-83065000D01*
X54427271Y-83100932D01*
X54257111Y-83171414D01*
X54103972Y-83273738D01*
X53973738Y-83403972D01*
X53871414Y-83557111D01*
X53800932Y-83727271D01*
X53765000Y-83907911D01*
X33871622Y-83907911D01*
X33759774Y-83796063D01*
X33590256Y-83682795D01*
X33401898Y-83604774D01*
X33201939Y-83565000D01*
X32998061Y-83565000D01*
X32798102Y-83604774D01*
X32609744Y-83682795D01*
X32440226Y-83796063D01*
X32296063Y-83940226D01*
X32182795Y-84109744D01*
X32104774Y-84298102D01*
X32065000Y-84498061D01*
X30660000Y-84498061D01*
X30660000Y-82507911D01*
X45265000Y-82507911D01*
X45265000Y-82692089D01*
X45300932Y-82872729D01*
X45371414Y-83042889D01*
X45473738Y-83196028D01*
X45603972Y-83326262D01*
X45757111Y-83428586D01*
X45927271Y-83499068D01*
X46107911Y-83535000D01*
X46292089Y-83535000D01*
X46472729Y-83499068D01*
X46642889Y-83428586D01*
X46782951Y-83335000D01*
X47817049Y-83335000D01*
X47957111Y-83428586D01*
X48127271Y-83499068D01*
X48307911Y-83535000D01*
X48492089Y-83535000D01*
X48672729Y-83499068D01*
X48842889Y-83428586D01*
X48996028Y-83326262D01*
X49126262Y-83196028D01*
X49228586Y-83042889D01*
X49299068Y-82872729D01*
X49335000Y-82692089D01*
X49335000Y-82507911D01*
X49299068Y-82327271D01*
X49228586Y-82157111D01*
X49126262Y-82003972D01*
X48996028Y-81873738D01*
X48842889Y-81771414D01*
X48672729Y-81700932D01*
X48492089Y-81665000D01*
X48307911Y-81665000D01*
X48127271Y-81700932D01*
X47957111Y-81771414D01*
X47817049Y-81865000D01*
X46782951Y-81865000D01*
X46642889Y-81771414D01*
X46472729Y-81700932D01*
X46292089Y-81665000D01*
X46107911Y-81665000D01*
X45927271Y-81700932D01*
X45757111Y-81771414D01*
X45603972Y-81873738D01*
X45473738Y-82003972D01*
X45371414Y-82157111D01*
X45300932Y-82327271D01*
X45265000Y-82507911D01*
X30660000Y-82507911D01*
X30660000Y-80307911D01*
X48065000Y-80307911D01*
X48065000Y-80492089D01*
X48100932Y-80672729D01*
X48171414Y-80842889D01*
X48273738Y-80996028D01*
X48403972Y-81126262D01*
X48557111Y-81228586D01*
X48727271Y-81299068D01*
X48907911Y-81335000D01*
X49092089Y-81335000D01*
X49272729Y-81299068D01*
X49442889Y-81228586D01*
X49545535Y-81160000D01*
X50317710Y-81160000D01*
X50273738Y-81203972D01*
X50171414Y-81357111D01*
X50100932Y-81527271D01*
X50065000Y-81707911D01*
X50065000Y-81892089D01*
X50100932Y-82072729D01*
X50171414Y-82242889D01*
X50273738Y-82396028D01*
X50403972Y-82526262D01*
X50557111Y-82628586D01*
X50727271Y-82699068D01*
X50907911Y-82735000D01*
X51092089Y-82735000D01*
X51272729Y-82699068D01*
X51442889Y-82628586D01*
X51545535Y-82560000D01*
X61454455Y-82560000D01*
X61557101Y-82628586D01*
X61727261Y-82699068D01*
X61907901Y-82735000D01*
X62092079Y-82735000D01*
X62272719Y-82699068D01*
X62442879Y-82628586D01*
X62596018Y-82526262D01*
X62726252Y-82396028D01*
X62828576Y-82242889D01*
X62862910Y-82159999D01*
X62912689Y-82159999D01*
X62950011Y-82163675D01*
X62987333Y-82159999D01*
X62987344Y-82159999D01*
X63098997Y-82149002D01*
X63242258Y-82105545D01*
X63374287Y-82034973D01*
X63384541Y-82026558D01*
X63522739Y-81999068D01*
X63692899Y-81928586D01*
X63846038Y-81826262D01*
X63976272Y-81696028D01*
X64078596Y-81542889D01*
X64149078Y-81372729D01*
X64185010Y-81192089D01*
X64185010Y-81007911D01*
X64149078Y-80827271D01*
X64078596Y-80657111D01*
X63976272Y-80503972D01*
X63846038Y-80373738D01*
X63692899Y-80271414D01*
X63522739Y-80200932D01*
X63460403Y-80188533D01*
X63426438Y-80106532D01*
X63324114Y-79953393D01*
X63206432Y-79835711D01*
X63235000Y-79692089D01*
X63235000Y-79507911D01*
X63199068Y-79327271D01*
X63128586Y-79157111D01*
X63026262Y-79003972D01*
X62896028Y-78873738D01*
X62742889Y-78771414D01*
X62572729Y-78700932D01*
X62392089Y-78665000D01*
X62207911Y-78665000D01*
X62027271Y-78700932D01*
X61857111Y-78771414D01*
X61703972Y-78873738D01*
X61573738Y-79003972D01*
X61482848Y-79139999D01*
X51150334Y-79139999D01*
X51126262Y-79103972D01*
X50996028Y-78973738D01*
X50842889Y-78871414D01*
X50672729Y-78800932D01*
X50492089Y-78765000D01*
X50307911Y-78765000D01*
X50127271Y-78800932D01*
X49957111Y-78871414D01*
X49803972Y-78973738D01*
X49673738Y-79103972D01*
X49571414Y-79257111D01*
X49500932Y-79427271D01*
X49468814Y-79588737D01*
X49442889Y-79571414D01*
X49272729Y-79500932D01*
X49092089Y-79465000D01*
X48907911Y-79465000D01*
X48727271Y-79500932D01*
X48557111Y-79571414D01*
X48403972Y-79673738D01*
X48273738Y-79803972D01*
X48171414Y-79957111D01*
X48100932Y-80127271D01*
X48065000Y-80307911D01*
X30660000Y-80307911D01*
X30660000Y-77600000D01*
X44859509Y-77600000D01*
X44881423Y-77822499D01*
X44946324Y-78036447D01*
X45051716Y-78233623D01*
X45193551Y-78406449D01*
X45366377Y-78548284D01*
X45563553Y-78653676D01*
X45777501Y-78718577D01*
X45944248Y-78735000D01*
X60455752Y-78735000D01*
X60622499Y-78718577D01*
X60836447Y-78653676D01*
X61033623Y-78548284D01*
X61206449Y-78406449D01*
X61348284Y-78233623D01*
X61453676Y-78036447D01*
X61518577Y-77822499D01*
X61540491Y-77600000D01*
X61518577Y-77377501D01*
X61453676Y-77163553D01*
X61348284Y-76966377D01*
X61206449Y-76793551D01*
X61033623Y-76651716D01*
X60836447Y-76546324D01*
X60622499Y-76481423D01*
X60455752Y-76465000D01*
X45944248Y-76465000D01*
X45777501Y-76481423D01*
X45563553Y-76546324D01*
X45366377Y-76651716D01*
X45193551Y-76793551D01*
X45051716Y-76966377D01*
X44946324Y-77163553D01*
X44881423Y-77377501D01*
X44859509Y-77600000D01*
X30660000Y-77600000D01*
X30660000Y-68247950D01*
X39763008Y-68247950D01*
X39775268Y-68372432D01*
X39811578Y-68492130D01*
X39870543Y-68602444D01*
X39949895Y-68699135D01*
X40046586Y-68778487D01*
X40156900Y-68837452D01*
X40276598Y-68873762D01*
X40401080Y-68886022D01*
X40714770Y-68882950D01*
X40873520Y-68724200D01*
X40873520Y-66875080D01*
X41127520Y-66875080D01*
X41127520Y-68724200D01*
X41286270Y-68882950D01*
X41599960Y-68886022D01*
X41724442Y-68873762D01*
X41844140Y-68837452D01*
X41954454Y-68778487D01*
X42051145Y-68699135D01*
X42130497Y-68602444D01*
X42189462Y-68492130D01*
X42225772Y-68372432D01*
X42238032Y-68247950D01*
X42234960Y-67033830D01*
X42076210Y-66875080D01*
X41127520Y-66875080D01*
X40873520Y-66875080D01*
X39924830Y-66875080D01*
X39766080Y-67033830D01*
X39763008Y-68247950D01*
X30660000Y-68247950D01*
X30660000Y-66107911D01*
X32065000Y-66107911D01*
X32065000Y-66292089D01*
X32100932Y-66472729D01*
X32171414Y-66642889D01*
X32273738Y-66796028D01*
X32403972Y-66926262D01*
X32557111Y-67028586D01*
X32727271Y-67099068D01*
X32907911Y-67135000D01*
X33092089Y-67135000D01*
X33272729Y-67099068D01*
X33442889Y-67028586D01*
X33596028Y-66926262D01*
X33726262Y-66796028D01*
X33828586Y-66642889D01*
X33899068Y-66472729D01*
X33923153Y-66351649D01*
X35114803Y-65160000D01*
X39771696Y-65160000D01*
X39763008Y-65248210D01*
X39766080Y-66462330D01*
X39924830Y-66621080D01*
X40873520Y-66621080D01*
X40873520Y-66601080D01*
X41127520Y-66601080D01*
X41127520Y-66621080D01*
X42076210Y-66621080D01*
X42234960Y-66462330D01*
X42238032Y-65248210D01*
X42229344Y-65160000D01*
X49769136Y-65160000D01*
X49760448Y-65248210D01*
X49760448Y-68247950D01*
X49772708Y-68372432D01*
X49809018Y-68492130D01*
X49867983Y-68602444D01*
X49947335Y-68699135D01*
X50044026Y-68778487D01*
X50154340Y-68837452D01*
X50237961Y-68862818D01*
X50237961Y-69194947D01*
X50196424Y-69257111D01*
X50125942Y-69427271D01*
X50090010Y-69607911D01*
X50090010Y-69792089D01*
X50125942Y-69972729D01*
X50196424Y-70142889D01*
X50298748Y-70296028D01*
X50428982Y-70426262D01*
X50582121Y-70528586D01*
X50752281Y-70599068D01*
X50932921Y-70635000D01*
X51117099Y-70635000D01*
X51297739Y-70599068D01*
X51467899Y-70528586D01*
X51621038Y-70426262D01*
X51751272Y-70296028D01*
X51853596Y-70142889D01*
X51924078Y-69972729D01*
X51960010Y-69792089D01*
X51960010Y-69607911D01*
X51924078Y-69427271D01*
X51853596Y-69257111D01*
X51757960Y-69113981D01*
X51757960Y-68862818D01*
X51841580Y-68837452D01*
X51951894Y-68778487D01*
X51998720Y-68740058D01*
X52045546Y-68778487D01*
X52155860Y-68837452D01*
X52239481Y-68862818D01*
X52239481Y-69255242D01*
X52171414Y-69357111D01*
X52100932Y-69527271D01*
X52065000Y-69707911D01*
X52065000Y-69892089D01*
X52100932Y-70072729D01*
X52171414Y-70242889D01*
X52273738Y-70396028D01*
X52403972Y-70526262D01*
X52557111Y-70628586D01*
X52727271Y-70699068D01*
X52907911Y-70735000D01*
X53092089Y-70735000D01*
X53272729Y-70699068D01*
X53442889Y-70628586D01*
X53596028Y-70526262D01*
X53726262Y-70396028D01*
X53828586Y-70242889D01*
X53899068Y-70072729D01*
X53935000Y-69892089D01*
X53935000Y-69707911D01*
X53899068Y-69527271D01*
X53828586Y-69357111D01*
X53759480Y-69253686D01*
X53759480Y-68862818D01*
X53843100Y-68837452D01*
X53953414Y-68778487D01*
X54050105Y-68699135D01*
X54129457Y-68602444D01*
X54188422Y-68492130D01*
X54224732Y-68372432D01*
X54236992Y-68247950D01*
X54236992Y-65248210D01*
X54228304Y-65160000D01*
X56354465Y-65160000D01*
X56457111Y-65228586D01*
X56627271Y-65299068D01*
X56807911Y-65335000D01*
X56992089Y-65335000D01*
X57172729Y-65299068D01*
X57342889Y-65228586D01*
X57496028Y-65126262D01*
X57626262Y-64996028D01*
X57728586Y-64842889D01*
X57799068Y-64672729D01*
X57835000Y-64492089D01*
X57835000Y-64307911D01*
X57799068Y-64127271D01*
X57728586Y-63957111D01*
X57626262Y-63803972D01*
X57496028Y-63673738D01*
X57342889Y-63571414D01*
X57172729Y-63500932D01*
X56992089Y-63465000D01*
X56807911Y-63465000D01*
X56627271Y-63500932D01*
X56457111Y-63571414D01*
X56354465Y-63640000D01*
X34837322Y-63640000D01*
X34799999Y-63636324D01*
X34762676Y-63640000D01*
X34762667Y-63640000D01*
X34651014Y-63650997D01*
X34507753Y-63694454D01*
X34375724Y-63765026D01*
X34375722Y-63765027D01*
X34375723Y-63765027D01*
X34288996Y-63836201D01*
X34288992Y-63836205D01*
X34259999Y-63859999D01*
X34236205Y-63888992D01*
X32848351Y-65276847D01*
X32727271Y-65300932D01*
X32557111Y-65371414D01*
X32403972Y-65473738D01*
X32273738Y-65603972D01*
X32171414Y-65757111D01*
X32100932Y-65927271D01*
X32065000Y-66107911D01*
X30660000Y-66107911D01*
X30660000Y-43127000D01*
X39915372Y-43127000D01*
X39971324Y-43311446D01*
G37*
X39971324Y-43311446D02*
X40055844Y-43469573D01*
X40009488Y-43526058D01*
X39928577Y-43677433D01*
X39878752Y-43841684D01*
X39861928Y-44012500D01*
X39861928Y-44487500D01*
X39878752Y-44658316D01*
X39928577Y-44822567D01*
X40009488Y-44973942D01*
X40115001Y-45102509D01*
X40115000Y-45502954D01*
X40034488Y-45601058D01*
X39953577Y-45752433D01*
X39903752Y-45916684D01*
X39886928Y-46087500D01*
X39886928Y-46662500D01*
X39903752Y-46833316D01*
X39953577Y-46997567D01*
X40034488Y-47148942D01*
X40117425Y-47250000D01*
X40034488Y-47351058D01*
X39953577Y-47502433D01*
X39903752Y-47666684D01*
X39886928Y-47837500D01*
X39886928Y-48412500D01*
X39903752Y-48583316D01*
X39953577Y-48747567D01*
X40034488Y-48898942D01*
X40115521Y-48997680D01*
X40115521Y-49684666D01*
X40046586Y-49721513D01*
X39949895Y-49800865D01*
X39870543Y-49897556D01*
X39811578Y-50007870D01*
X39775268Y-50127568D01*
X39763008Y-50252050D01*
X39763008Y-53065001D01*
X35955751Y-53065001D01*
X35899999Y-53059510D01*
X35844247Y-53065001D01*
X35677500Y-53081424D01*
X35463552Y-53146325D01*
X35266376Y-53251717D01*
X35093550Y-53393552D01*
X35058007Y-53436861D01*
X34758012Y-53736857D01*
X34651717Y-53866378D01*
X34546324Y-54063554D01*
X34481423Y-54277502D01*
X34459509Y-54500000D01*
X34481423Y-54722498D01*
X34546324Y-54936446D01*
X34651717Y-55133622D01*
X34793552Y-55306448D01*
X34966378Y-55448283D01*
X35163554Y-55553676D01*
X35377502Y-55618577D01*
X35600000Y-55640491D01*
X35723943Y-55628284D01*
X35771414Y-55742889D01*
X35873738Y-55896028D01*
X36003972Y-56026262D01*
X36157111Y-56128586D01*
X36327271Y-56199068D01*
X36448351Y-56223153D01*
X36665198Y-56440000D01*
X35314802Y-56440000D01*
X34523153Y-55648351D01*
X34499068Y-55527271D01*
X34428586Y-55357111D01*
X34326262Y-55203972D01*
X34196028Y-55073738D01*
X34042889Y-54971414D01*
X33872729Y-54900932D01*
X33692089Y-54865000D01*
X33507911Y-54865000D01*
X33327271Y-54900932D01*
X33157111Y-54971414D01*
X33003972Y-55073738D01*
X32873738Y-55203972D01*
X32771414Y-55357111D01*
X32700932Y-55527271D01*
X32665000Y-55707911D01*
X32665000Y-55892089D01*
X32700932Y-56072729D01*
X32771414Y-56242889D01*
X32873738Y-56396028D01*
X33003972Y-56526262D01*
X33157111Y-56628586D01*
X33327271Y-56699068D01*
X33448351Y-56723153D01*
X34436201Y-57711003D01*
X34459999Y-57740001D01*
X34488997Y-57763799D01*
X34575723Y-57834974D01*
X34707753Y-57905546D01*
X34851014Y-57949003D01*
X34962667Y-57960000D01*
X34962677Y-57960000D01*
X35000000Y-57963676D01*
X35037322Y-57960000D01*
X56054465Y-57960000D01*
X56157111Y-58028586D01*
X56327271Y-58099068D01*
X56507911Y-58135000D01*
X56692089Y-58135000D01*
X56872729Y-58099068D01*
X57042889Y-58028586D01*
X57196028Y-57926262D01*
X57326262Y-57796028D01*
X57428586Y-57642889D01*
X57499068Y-57472729D01*
X57535000Y-57292089D01*
X57535000Y-57107911D01*
X57499068Y-56927271D01*
X57428586Y-56757111D01*
X57326262Y-56603972D01*
X57196028Y-56473738D01*
X57042889Y-56371414D01*
X56872729Y-56300932D01*
X56692089Y-56265000D01*
X56507911Y-56265000D01*
X56333370Y-56299719D01*
X56299068Y-56127271D01*
X56228586Y-55957111D01*
X56126262Y-55803972D01*
X55996028Y-55673738D01*
X55842889Y-55571414D01*
X55672729Y-55500932D01*
X55492089Y-55465000D01*
X55307911Y-55465000D01*
X55127271Y-55500932D01*
X54957111Y-55571414D01*
X54817049Y-55665000D01*
X47082951Y-55665000D01*
X46942889Y-55571414D01*
X46772729Y-55500932D01*
X46592089Y-55465000D01*
X46407911Y-55465000D01*
X46227271Y-55500932D01*
X46057111Y-55571414D01*
X45903972Y-55673738D01*
X45773738Y-55803972D01*
X45671414Y-55957111D01*
X45600932Y-56127271D01*
X45565000Y-56307911D01*
X45565000Y-56440000D01*
X39935000Y-56440000D01*
X39935000Y-56307911D01*
X39899068Y-56127271D01*
X39828586Y-55957111D01*
X39726262Y-55803972D01*
X39596028Y-55673738D01*
X39442889Y-55571414D01*
X39272729Y-55500932D01*
X39092089Y-55465000D01*
X38907911Y-55465000D01*
X38727271Y-55500932D01*
X38557111Y-55571414D01*
X38469432Y-55629999D01*
X38004801Y-55629999D01*
X37709803Y-55335001D01*
X41429870Y-55335001D01*
X41736857Y-55641988D01*
X41866378Y-55748283D01*
X42063554Y-55853676D01*
X42277501Y-55918577D01*
X42499999Y-55940491D01*
X42722498Y-55918577D01*
X42936446Y-55853676D01*
X43133622Y-55748283D01*
X43306448Y-55606448D01*
X43448283Y-55433622D01*
X43553676Y-55236446D01*
X43618577Y-55022498D01*
X43640491Y-54799999D01*
X43618577Y-54577501D01*
X43553676Y-54363554D01*
X43448283Y-54166378D01*
X43385000Y-54089267D01*
X43385000Y-53889862D01*
X43601480Y-53889862D01*
X43725962Y-53877602D01*
X43845660Y-53841292D01*
X43955974Y-53782327D01*
X44001530Y-53744940D01*
X44047086Y-53782327D01*
X44157400Y-53841292D01*
X44277098Y-53877602D01*
X44401580Y-53889862D01*
X44715270Y-53886790D01*
X44874020Y-53728040D01*
X44874020Y-51878920D01*
X45128020Y-51878920D01*
X45128020Y-53728040D01*
X45286770Y-53886790D01*
X45600460Y-53889862D01*
X45724942Y-53877602D01*
X45844640Y-53841292D01*
X45954954Y-53782327D01*
X46051645Y-53702975D01*
X46130997Y-53606284D01*
X46189962Y-53495970D01*
X46226272Y-53376272D01*
X46238532Y-53251790D01*
X46235460Y-52037670D01*
X46076710Y-51878920D01*
X45128020Y-51878920D01*
X44874020Y-51878920D01*
X44854020Y-51878920D01*
X44854020Y-51624920D01*
X44874020Y-51624920D01*
X44874020Y-49775800D01*
X45128020Y-49775800D01*
X45128020Y-51624920D01*
X46076710Y-51624920D01*
X46235460Y-51466170D01*
X46238532Y-50252050D01*
X47761468Y-50252050D01*
X47761468Y-53251790D01*
X47773728Y-53376272D01*
X47810038Y-53495970D01*
X47869003Y-53606284D01*
X47948355Y-53702975D01*
X48045046Y-53782327D01*
X48106043Y-53814931D01*
X48100932Y-53827271D01*
X48065000Y-54007911D01*
X48065000Y-54192089D01*
X48100932Y-54372729D01*
X48171414Y-54542889D01*
X48273738Y-54696028D01*
X48403972Y-54826262D01*
X48557111Y-54928586D01*
X48727271Y-54999068D01*
X48907911Y-55035000D01*
X49092089Y-55035000D01*
X49272729Y-54999068D01*
X49442889Y-54928586D01*
X49571355Y-54842748D01*
X49571414Y-54842889D01*
X49673738Y-54996028D01*
X49803972Y-55126262D01*
X49957111Y-55228586D01*
X50127271Y-55299068D01*
X50307911Y-55335000D01*
X50492089Y-55335000D01*
X50672729Y-55299068D01*
X50842889Y-55228586D01*
X50996028Y-55126262D01*
X51126262Y-54996028D01*
X51228586Y-54842889D01*
X51299068Y-54672729D01*
X51323153Y-54551649D01*
X51508964Y-54365838D01*
X51537961Y-54342041D01*
X51590927Y-54277502D01*
X51632934Y-54226317D01*
X51703506Y-54094287D01*
X51705111Y-54088997D01*
X51746963Y-53951026D01*
X51755190Y-53867498D01*
X51841580Y-53841292D01*
X51951894Y-53782327D01*
X51998720Y-53743898D01*
X52045546Y-53782327D01*
X52155860Y-53841292D01*
X52242510Y-53867577D01*
X52250477Y-53948465D01*
X52277290Y-54036857D01*
X52293934Y-54091726D01*
X52364506Y-54223756D01*
X52385212Y-54248986D01*
X52459479Y-54339481D01*
X52488482Y-54363283D01*
X53236201Y-55111002D01*
X53259999Y-55140001D01*
X53375724Y-55234974D01*
X53507753Y-55305546D01*
X53651014Y-55349003D01*
X53762667Y-55360000D01*
X53762676Y-55360000D01*
X53799999Y-55363676D01*
X53837322Y-55360000D01*
X54154465Y-55360000D01*
X54257111Y-55428586D01*
X54427271Y-55499068D01*
X54607911Y-55535000D01*
X54792089Y-55535000D01*
X54972729Y-55499068D01*
X55142889Y-55428586D01*
X55296028Y-55326262D01*
X55426262Y-55196028D01*
X55528586Y-55042889D01*
X55599068Y-54872729D01*
X55635000Y-54692089D01*
X55635000Y-54507911D01*
X55599068Y-54327271D01*
X55528586Y-54157111D01*
X55523835Y-54150000D01*
X64511928Y-54150000D01*
X64515000Y-54714250D01*
X64673750Y-54873000D01*
X65873000Y-54873000D01*
X65873000Y-53673750D01*
X65714250Y-53515000D01*
X65150000Y-53511928D01*
X65025518Y-53524188D01*
X64905820Y-53560498D01*
X64795506Y-53619463D01*
X64698815Y-53698815D01*
X64619463Y-53795506D01*
X64560498Y-53905820D01*
X64524188Y-54025518D01*
X64511928Y-54150000D01*
X55523835Y-54150000D01*
X55426262Y-54003972D01*
X55296028Y-53873738D01*
X55142889Y-53771414D01*
X54972729Y-53700932D01*
X54792089Y-53665000D01*
X54607911Y-53665000D01*
X54427271Y-53700932D01*
X54257111Y-53771414D01*
X54154465Y-53840000D01*
X54114802Y-53840000D01*
X54010379Y-53735577D01*
X54050105Y-53702975D01*
X54129457Y-53606284D01*
X54188422Y-53495970D01*
X54224732Y-53376272D01*
X54236992Y-53251790D01*
X54236992Y-50252050D01*
X54224732Y-50127568D01*
X54188422Y-50007870D01*
X54129457Y-49897556D01*
X54050105Y-49800865D01*
X53953414Y-49721513D01*
X53843100Y-49662548D01*
X53723402Y-49626238D01*
X53598920Y-49613978D01*
X52400040Y-49613978D01*
X52275558Y-49626238D01*
X52155860Y-49662548D01*
X52045546Y-49721513D01*
X51998720Y-49759942D01*
X51951894Y-49721513D01*
X51841580Y-49662548D01*
X51721882Y-49626238D01*
X51597400Y-49613978D01*
X50398520Y-49613978D01*
X50274038Y-49626238D01*
X50154340Y-49662548D01*
X50044026Y-49721513D01*
X49998470Y-49758900D01*
X49952914Y-49721513D01*
X49842600Y-49662548D01*
X49722902Y-49626238D01*
X49598420Y-49613978D01*
X48399540Y-49613978D01*
X48275058Y-49626238D01*
X48155360Y-49662548D01*
X48045046Y-49721513D01*
X47948355Y-49800865D01*
X47869003Y-49897556D01*
X47810038Y-50007870D01*
X47773728Y-50127568D01*
X47761468Y-50252050D01*
X46238532Y-50252050D01*
X46226272Y-50127568D01*
X46189962Y-50007870D01*
X46130997Y-49897556D01*
X46051645Y-49800865D01*
X45954954Y-49721513D01*
X45844640Y-49662548D01*
X45724942Y-49626238D01*
X45600460Y-49613978D01*
X45286770Y-49617050D01*
X45128020Y-49775800D01*
X44874020Y-49775800D01*
X44715270Y-49617050D01*
X44401580Y-49613978D01*
X44277098Y-49626238D01*
X44157400Y-49662548D01*
X44047086Y-49721513D01*
X44001530Y-49758900D01*
X43955974Y-49721513D01*
X43845660Y-49662548D01*
X43725962Y-49626238D01*
X43601480Y-49613978D01*
X42402600Y-49613978D01*
X42278118Y-49626238D01*
X42158420Y-49662548D01*
X42048106Y-49721513D01*
X42001280Y-49759942D01*
X41954454Y-49721513D01*
X41885520Y-49684666D01*
X41885520Y-48996412D01*
X41965512Y-48898942D01*
X42046423Y-48747567D01*
X42096248Y-48583316D01*
X42113072Y-48412500D01*
X42113072Y-47837500D01*
X42096248Y-47666684D01*
X42046423Y-47502433D01*
X41965512Y-47351058D01*
X41882575Y-47250000D01*
X41965512Y-47148942D01*
X42046423Y-46997567D01*
X42096248Y-46833316D01*
X42113072Y-46662500D01*
X42113072Y-46087500D01*
X42096248Y-45916684D01*
X42046423Y-45752433D01*
X41965512Y-45601058D01*
X41885000Y-45502954D01*
X41885000Y-45246915D01*
X41895506Y-45255537D01*
X42005820Y-45314502D01*
X42125518Y-45350812D01*
X42250000Y-45363072D01*
X42489250Y-45360000D01*
X42648000Y-45201250D01*
X42648000Y-44377000D01*
X42902000Y-44377000D01*
X42902000Y-45201250D01*
X43060750Y-45360000D01*
X43300000Y-45363072D01*
X43424482Y-45350812D01*
X43544180Y-45314502D01*
X43654494Y-45255537D01*
X43751185Y-45176185D01*
X43830537Y-45079494D01*
X43889502Y-44969180D01*
X43925812Y-44849482D01*
X43938072Y-44725000D01*
X43935000Y-44535750D01*
X43776250Y-44377000D01*
X42902000Y-44377000D01*
X42648000Y-44377000D01*
X42628000Y-44377000D01*
X42628000Y-44123000D01*
X42648000Y-44123000D01*
X42648000Y-43298750D01*
X42902000Y-43298750D01*
X42902000Y-44123000D01*
X43776250Y-44123000D01*
X43935000Y-43964250D01*
X43938072Y-43775000D01*
X43925812Y-43650518D01*
X43889502Y-43530820D01*
X43830537Y-43420506D01*
X43751185Y-43323815D01*
X43654494Y-43244463D01*
X43544180Y-43185498D01*
X43424482Y-43149188D01*
X43300000Y-43136928D01*
X43060750Y-43140000D01*
X42902000Y-43298750D01*
X42648000Y-43298750D01*
X42489250Y-43140000D01*
X42250000Y-43136928D01*
X42127970Y-43148946D01*
X42134628Y-43127000D01*
X59873000Y-43127000D01*
X59873000Y-43847993D01*
X59865000Y-43888212D01*
X59865000Y-44111788D01*
X59873000Y-44152007D01*
X59873000Y-45000000D01*
X59875440Y-45024776D01*
X59882667Y-45048601D01*
X59894403Y-45070557D01*
X59910197Y-45089803D01*
X59929443Y-45105597D01*
X59951399Y-45117333D01*
X59975224Y-45124560D01*
X60000000Y-45127000D01*
X60847993Y-45127000D01*
X60888212Y-45135000D01*
X61111788Y-45135000D01*
X61152007Y-45127000D01*
X62000000Y-45127000D01*
X62024776Y-45124560D01*
X62048601Y-45117333D01*
X62070557Y-45105597D01*
X62089803Y-45089803D01*
X62105597Y-45070557D01*
X62117333Y-45048601D01*
X62124560Y-45024776D01*
X62127000Y-45000000D01*
X62127000Y-44152007D01*
X62135000Y-44111788D01*
X62135000Y-43888212D01*
X62127000Y-43847993D01*
X62127000Y-43127000D01*
X67340000Y-43127000D01*
X67340000Y-53746112D01*
X67301185Y-53698815D01*
X67204494Y-53619463D01*
X67094180Y-53560498D01*
X66974482Y-53524188D01*
X66850000Y-53511928D01*
X66285750Y-53515000D01*
X66127000Y-53673750D01*
X66127000Y-54873000D01*
X66147000Y-54873000D01*
X66147000Y-55127000D01*
X66127000Y-55127000D01*
X66127000Y-55147000D01*
X65873000Y-55147000D01*
X65873000Y-55127000D01*
X64673750Y-55127000D01*
X64515000Y-55285750D01*
X64511928Y-55850000D01*
X64524188Y-55974482D01*
X64560498Y-56094180D01*
X64619463Y-56204494D01*
X64698815Y-56301185D01*
X64795506Y-56380537D01*
X64905820Y-56439502D01*
X64978380Y-56461513D01*
X64846525Y-56593368D01*
X64684010Y-56836589D01*
X64572068Y-57106842D01*
X64515000Y-57393740D01*
X64515000Y-57686260D01*
X64572068Y-57973158D01*
X64684010Y-58243411D01*
X64846525Y-58486632D01*
X65053368Y-58693475D01*
X65227760Y-58810000D01*
X65053368Y-58926525D01*
X64846525Y-59133368D01*
X64684010Y-59376589D01*
X64572068Y-59646842D01*
X64515000Y-59933740D01*
X64515000Y-60226260D01*
X64572068Y-60513158D01*
X64684010Y-60783411D01*
X64846525Y-61026632D01*
X65053368Y-61233475D01*
X65227760Y-61350000D01*
X65053368Y-61466525D01*
X64947492Y-61572401D01*
X64818562Y-61518997D01*
X64657565Y-61486972D01*
X64650006Y-61477762D01*
X64538088Y-61385913D01*
X64410401Y-61317663D01*
X64271853Y-61275635D01*
X64163873Y-61265000D01*
X64127768Y-61261444D01*
X64091663Y-61265000D01*
X59070132Y-61265000D01*
X58923520Y-61118388D01*
X58737624Y-60994176D01*
X58531067Y-60908617D01*
X58311788Y-60865000D01*
X58088212Y-60865000D01*
X57868933Y-60908617D01*
X57662376Y-60994176D01*
X57476480Y-61118388D01*
X57329868Y-61265000D01*
X46982951Y-61265000D01*
X46842889Y-61171414D01*
X46672729Y-61100932D01*
X46492089Y-61065000D01*
X46307911Y-61065000D01*
X46127271Y-61100932D01*
X45957111Y-61171414D01*
X45803972Y-61273738D01*
X45673738Y-61403972D01*
X45571414Y-61557111D01*
X45500932Y-61727271D01*
X45465000Y-61907911D01*
X45465000Y-62092089D01*
X45500932Y-62272729D01*
X45571414Y-62442889D01*
X45673738Y-62596028D01*
X45803972Y-62726262D01*
X45957111Y-62828586D01*
X46127271Y-62899068D01*
X46307911Y-62935000D01*
X46492089Y-62935000D01*
X46672729Y-62899068D01*
X46842889Y-62828586D01*
X46982951Y-62735000D01*
X57329868Y-62735000D01*
X57476480Y-62881612D01*
X57662376Y-63005824D01*
X57868933Y-63091383D01*
X58088212Y-63135000D01*
X58311788Y-63135000D01*
X58531067Y-63091383D01*
X58737624Y-63005824D01*
X58923520Y-62881612D01*
X59070132Y-62735000D01*
X63665076Y-62735000D01*
X63717247Y-62860954D01*
X63819571Y-63014093D01*
X63949805Y-63144327D01*
X64102944Y-63246651D01*
X64273104Y-63317133D01*
X64453744Y-63353065D01*
X64637922Y-63353065D01*
X64696093Y-63341494D01*
X64846525Y-63566632D01*
X65053368Y-63773475D01*
X65227760Y-63890000D01*
X65053368Y-64006525D01*
X64846525Y-64213368D01*
X64695094Y-64440000D01*
X60145535Y-64440000D01*
X60042889Y-64371414D01*
X59872729Y-64300932D01*
X59692089Y-64265000D01*
X59507911Y-64265000D01*
X59327271Y-64300932D01*
X59157111Y-64371414D01*
X59003972Y-64473738D01*
X58873738Y-64603972D01*
X58771414Y-64757111D01*
X58700932Y-64927271D01*
X58665000Y-65107911D01*
X58665000Y-65292089D01*
X58700932Y-65472729D01*
X58771414Y-65642889D01*
X58873738Y-65796028D01*
X59003972Y-65926262D01*
X59157111Y-66028586D01*
X59327271Y-66099068D01*
X59507911Y-66135000D01*
X59692089Y-66135000D01*
X59872729Y-66099068D01*
X60042889Y-66028586D01*
X60145535Y-65960000D01*
X64748549Y-65960000D01*
X64846525Y-66106632D01*
X65053368Y-66313475D01*
X65296589Y-66475990D01*
X65566842Y-66587932D01*
X65853740Y-66645000D01*
X66146260Y-66645000D01*
X66433158Y-66587932D01*
X66703411Y-66475990D01*
X66946632Y-66313475D01*
X67153475Y-66106632D01*
X67315990Y-65863411D01*
X67340000Y-65805445D01*
X67340000Y-68746112D01*
X67301185Y-68698815D01*
X67204494Y-68619463D01*
X67094180Y-68560498D01*
X66974482Y-68524188D01*
X66850000Y-68511928D01*
X65150000Y-68511928D01*
X65025518Y-68524188D01*
X64905820Y-68560498D01*
X64795506Y-68619463D01*
X64698815Y-68698815D01*
X64619463Y-68795506D01*
X64560498Y-68905820D01*
X64524188Y-69025518D01*
X64511928Y-69150000D01*
X64511928Y-69240000D01*
X59045535Y-69240000D01*
X58942889Y-69171414D01*
X58772729Y-69100932D01*
X58592089Y-69065000D01*
X58407911Y-69065000D01*
X58227271Y-69100932D01*
X58057111Y-69171414D01*
X57903972Y-69273738D01*
X57773738Y-69403972D01*
X57671414Y-69557111D01*
X57600932Y-69727271D01*
X57565000Y-69907911D01*
X57565000Y-70092089D01*
X57600932Y-70272729D01*
X57671414Y-70442889D01*
X57773738Y-70596028D01*
X57903972Y-70726262D01*
X58057111Y-70828586D01*
X58227271Y-70899068D01*
X58407911Y-70935000D01*
X58592089Y-70935000D01*
X58772729Y-70899068D01*
X58942889Y-70828586D01*
X59045535Y-70760000D01*
X64511928Y-70760000D01*
X64511928Y-70850000D01*
X64524188Y-70974482D01*
X64560498Y-71094180D01*
X64619463Y-71204494D01*
X64698815Y-71301185D01*
X64795506Y-71380537D01*
X64905820Y-71439502D01*
X64978380Y-71461513D01*
X64846525Y-71593368D01*
X64748549Y-71740000D01*
X59445535Y-71740000D01*
X59342889Y-71671414D01*
X59172729Y-71600932D01*
X58992089Y-71565000D01*
X58807911Y-71565000D01*
X58627271Y-71600932D01*
X58457111Y-71671414D01*
X58303972Y-71773738D01*
X58173738Y-71903972D01*
X58071414Y-72057111D01*
X58000932Y-72227271D01*
X57965000Y-72407911D01*
X57965000Y-72592089D01*
X58000932Y-72772729D01*
X58071414Y-72942889D01*
X58173738Y-73096028D01*
X58303972Y-73226262D01*
X58457111Y-73328586D01*
X58627271Y-73399068D01*
X58807911Y-73435000D01*
X58992089Y-73435000D01*
X59172729Y-73399068D01*
X59342889Y-73328586D01*
X59445535Y-73260000D01*
X64695094Y-73260000D01*
X64846525Y-73486632D01*
X65053368Y-73693475D01*
X65235534Y-73815195D01*
X65118645Y-73884822D01*
X64902412Y-74079731D01*
X64728359Y-74313080D01*
X64603175Y-74575901D01*
X64558524Y-74723110D01*
X64679845Y-74953000D01*
X65873000Y-74953000D01*
X65873000Y-74933000D01*
X66127000Y-74933000D01*
X66127000Y-74953000D01*
X66147000Y-74953000D01*
X66147000Y-75207000D01*
X66127000Y-75207000D01*
X66127000Y-75227000D01*
X65873000Y-75227000D01*
X65873000Y-75207000D01*
X64679845Y-75207000D01*
X64558524Y-75436890D01*
X64603175Y-75584099D01*
X64728359Y-75846920D01*
X64902412Y-76080269D01*
X65118645Y-76275178D01*
X65235534Y-76344805D01*
X65053368Y-76466525D01*
X64846525Y-76673368D01*
X64684010Y-76916589D01*
X64572068Y-77186842D01*
X64515000Y-77473740D01*
X64515000Y-77766260D01*
X64572068Y-78053158D01*
X64684010Y-78323411D01*
X64846525Y-78566632D01*
X65053368Y-78773475D01*
X65296589Y-78935990D01*
X65566842Y-79047932D01*
X65853740Y-79105000D01*
X66146260Y-79105000D01*
X66433158Y-79047932D01*
X66703411Y-78935990D01*
X66946632Y-78773475D01*
X67153475Y-78566632D01*
X67315990Y-78323411D01*
X67340001Y-78265444D01*
X67340001Y-100615868D01*
X67300000Y-100611928D01*
X63817060Y-100611928D01*
X62363143Y-99158012D01*
X62233622Y-99051717D01*
X62036446Y-98946324D01*
X61822498Y-98881423D01*
X61600000Y-98859509D01*
X61377502Y-98881423D01*
X61163554Y-98946324D01*
X60966378Y-99051717D01*
X60793552Y-99193552D01*
X60651717Y-99366378D01*
X60546324Y-99563554D01*
X60481423Y-99777502D01*
X60459509Y-100000000D01*
X60481423Y-100222498D01*
X60546324Y-100436446D01*
X60651717Y-100633622D01*
X60758012Y-100763143D01*
X60823964Y-100829096D01*
X60769463Y-100895506D01*
X60710498Y-101005820D01*
X60674188Y-101125518D01*
X60661928Y-101250000D01*
X60661928Y-106750000D01*
X60674188Y-106874482D01*
X60710498Y-106994180D01*
X60769463Y-107104494D01*
X60848815Y-107201185D01*
X60945506Y-107280537D01*
X61055820Y-107339502D01*
X61175518Y-107375812D01*
X61300000Y-107388072D01*
X67300000Y-107388072D01*
X67340001Y-107384132D01*
X67340001Y-115967711D01*
X67311375Y-116259660D01*
X67235965Y-116509429D01*
X67113477Y-116739794D01*
X66948579Y-116941979D01*
X66747546Y-117108288D01*
X66518046Y-117232378D01*
X66268805Y-117309531D01*
X65978911Y-117340000D01*
X32032279Y-117340000D01*
X31740340Y-117311375D01*
X31490571Y-117235965D01*
X31260206Y-117113477D01*
X31058021Y-116948579D01*
X30891712Y-116747546D01*
X30767622Y-116518046D01*
X30690469Y-116268805D01*
X30660000Y-115978911D01*
X30660000Y-113725701D01*
X31215000Y-113725701D01*
X31215000Y-114274299D01*
X31322026Y-114812354D01*
X31531965Y-115319192D01*
X31836750Y-115775334D01*
X32224666Y-116163250D01*
X32680808Y-116468035D01*
X33187646Y-116677974D01*
X33725701Y-116785000D01*
X34274299Y-116785000D01*
X34812354Y-116677974D01*
X35319192Y-116468035D01*
X35775334Y-116163250D01*
X36163250Y-115775334D01*
X36468035Y-115319192D01*
X36677974Y-114812354D01*
X36785000Y-114274299D01*
X36785000Y-113725701D01*
X61215000Y-113725701D01*
X61215000Y-114274299D01*
X61322026Y-114812354D01*
X61531965Y-115319192D01*
X61836750Y-115775334D01*
X62224666Y-116163250D01*
X62680808Y-116468035D01*
X63187646Y-116677974D01*
X63725701Y-116785000D01*
X64274299Y-116785000D01*
X64812354Y-116677974D01*
X65319192Y-116468035D01*
X65775334Y-116163250D01*
X66163250Y-115775334D01*
X66468035Y-115319192D01*
X66677974Y-114812354D01*
X66785000Y-114274299D01*
X66785000Y-113725701D01*
X66677974Y-113187646D01*
X66468035Y-112680808D01*
X66163250Y-112224666D01*
X65775334Y-111836750D01*
X65319192Y-111531965D01*
X64812354Y-111322026D01*
X64274299Y-111215000D01*
X63725701Y-111215000D01*
X63187646Y-111322026D01*
X62680808Y-111531965D01*
X62224666Y-111836750D01*
X61836750Y-112224666D01*
X61531965Y-112680808D01*
X61322026Y-113187646D01*
X61215000Y-113725701D01*
X36785000Y-113725701D01*
X36677974Y-113187646D01*
X36468035Y-112680808D01*
X36163250Y-112224666D01*
X35775334Y-111836750D01*
X35319192Y-111531965D01*
X34812354Y-111322026D01*
X34274299Y-111215000D01*
X33725701Y-111215000D01*
X33187646Y-111322026D01*
X32680808Y-111531965D01*
X32224666Y-111836750D01*
X31836750Y-112224666D01*
X31531965Y-112680808D01*
X31322026Y-113187646D01*
X31215000Y-113725701D01*
X30660000Y-113725701D01*
X30660000Y-107384132D01*
X30700000Y-107388072D01*
X36700000Y-107388072D01*
X36824482Y-107375812D01*
X36944180Y-107339502D01*
X36952603Y-107335000D01*
X37855752Y-107335000D01*
X38022499Y-107318577D01*
X38236447Y-107253676D01*
X38433623Y-107148284D01*
X38606449Y-107006449D01*
X38748284Y-106833623D01*
X38853676Y-106636447D01*
X38918577Y-106422499D01*
X38940491Y-106200000D01*
X38918577Y-105977501D01*
X38853676Y-105763553D01*
X38748284Y-105566377D01*
X38606449Y-105393551D01*
X38433623Y-105251716D01*
X38236447Y-105146324D01*
X38022499Y-105081423D01*
X37855752Y-105065000D01*
X37338072Y-105065000D01*
X37338072Y-101250000D01*
X37325812Y-101125518D01*
X37289502Y-101005820D01*
X37230537Y-100895506D01*
X37151185Y-100798815D01*
X37054494Y-100719463D01*
X36944180Y-100660498D01*
X36824482Y-100624188D01*
X36700000Y-100611928D01*
X36193203Y-100611928D01*
X38141988Y-98663144D01*
X38248284Y-98533623D01*
X38353676Y-98336447D01*
X38418577Y-98122499D01*
X38440491Y-97900000D01*
X38418577Y-97677501D01*
X38353676Y-97463554D01*
X38248284Y-97266378D01*
X38106449Y-97093551D01*
X37933622Y-96951716D01*
X37736446Y-96846324D01*
X37522499Y-96781423D01*
X37300000Y-96759509D01*
X37077501Y-96781423D01*
X36863553Y-96846324D01*
X36666377Y-96951716D01*
X36536856Y-97058012D01*
X32982941Y-100611928D01*
X30700000Y-100611928D01*
X30660000Y-100615868D01*
X30660000Y-90907911D01*
X39965000Y-90907911D01*
X39965000Y-91092089D01*
X40000932Y-91272729D01*
X40071414Y-91442889D01*
X40173738Y-91596028D01*
X40303972Y-91726262D01*
X40457111Y-91828586D01*
X40627271Y-91899068D01*
X40765469Y-91926558D01*
X40775723Y-91934973D01*
X40907752Y-92005545D01*
X41051013Y-92049002D01*
X41162666Y-92059999D01*
X41162674Y-92059999D01*
X41199999Y-92063675D01*
X41237324Y-92059999D01*
X46254869Y-92059999D01*
X46376481Y-92181611D01*
X46562377Y-92305823D01*
X46768934Y-92391382D01*
X46988213Y-92434999D01*
X47211789Y-92434999D01*
X47431068Y-92391382D01*
X47637625Y-92305823D01*
X47823521Y-92181611D01*
X47945133Y-92059999D01*
X60962679Y-92059999D01*
X61000001Y-92063675D01*
X61037323Y-92059999D01*
X61037334Y-92059999D01*
X61148987Y-92049002D01*
X61292248Y-92005545D01*
X61424277Y-91934973D01*
X61540002Y-91840000D01*
X61554253Y-91822635D01*
X61672729Y-91799068D01*
X61842889Y-91728586D01*
X61996028Y-91626262D01*
X62126262Y-91496028D01*
X62228586Y-91342889D01*
X62299068Y-91172729D01*
X62335000Y-90992089D01*
X62335000Y-90807911D01*
X62299068Y-90627271D01*
X62228586Y-90457111D01*
X62126262Y-90303972D01*
X61996028Y-90173738D01*
X61842889Y-90071414D01*
X61672729Y-90000932D01*
X61492089Y-89965000D01*
X61307911Y-89965000D01*
X61127271Y-90000932D01*
X60957111Y-90071414D01*
X60803972Y-90173738D01*
X60673738Y-90303972D01*
X60571414Y-90457111D01*
X60537081Y-90539999D01*
X59807538Y-90539999D01*
X59835000Y-90401939D01*
X59835000Y-90198061D01*
X59795226Y-89998102D01*
X59717205Y-89809744D01*
X59603937Y-89640226D01*
X59459774Y-89496063D01*
X59290256Y-89382795D01*
X59101898Y-89304774D01*
X58901939Y-89265000D01*
X58698061Y-89265000D01*
X58498102Y-89304774D01*
X58309744Y-89382795D01*
X58224130Y-89440000D01*
X57703711Y-89440000D01*
X57659774Y-89396063D01*
X57490256Y-89282795D01*
X57301898Y-89204774D01*
X57101939Y-89165000D01*
X56898061Y-89165000D01*
X56698102Y-89204774D01*
X56509744Y-89282795D01*
X56340226Y-89396063D01*
X56196063Y-89540226D01*
X56082795Y-89709744D01*
X56004774Y-89898102D01*
X55965000Y-90098061D01*
X55965000Y-90301939D01*
X56004774Y-90501898D01*
X56020556Y-90539999D01*
X47945133Y-90539999D01*
X47823521Y-90418387D01*
X47637625Y-90294175D01*
X47431068Y-90208616D01*
X47211789Y-90164999D01*
X46988213Y-90164999D01*
X46768934Y-90208616D01*
X46562377Y-90294175D01*
X46376481Y-90418387D01*
X46254869Y-90539999D01*
X41717152Y-90539999D01*
X41626262Y-90403972D01*
X41496028Y-90273738D01*
X41342889Y-90171414D01*
X41172729Y-90100932D01*
X40992089Y-90065000D01*
X40807911Y-90065000D01*
X40627271Y-90100932D01*
X40457111Y-90171414D01*
X40303972Y-90273738D01*
X40173738Y-90403972D01*
X40071414Y-90557111D01*
X40000932Y-90727271D01*
X39965000Y-90907911D01*
X30660000Y-90907911D01*
X30660000Y-84498061D01*
X32065000Y-84498061D01*
X32065000Y-84701939D01*
X32104774Y-84901898D01*
X32182795Y-85090256D01*
X32296063Y-85259774D01*
X32440226Y-85403937D01*
X32609744Y-85517205D01*
X32798102Y-85595226D01*
X32998061Y-85635000D01*
X33201939Y-85635000D01*
X33401898Y-85595226D01*
X33590256Y-85517205D01*
X33618907Y-85498061D01*
X38565000Y-85498061D01*
X38565000Y-85701939D01*
X38604774Y-85901898D01*
X38682795Y-86090256D01*
X38796063Y-86259774D01*
X38940226Y-86403937D01*
X39109744Y-86517205D01*
X39298102Y-86595226D01*
X39498061Y-86635000D01*
X39560199Y-86635000D01*
X40488997Y-87563799D01*
X40575723Y-87634974D01*
X40707753Y-87705546D01*
X40851014Y-87749002D01*
X41000000Y-87763676D01*
X41148985Y-87749002D01*
X41292246Y-87705546D01*
X41422216Y-87636075D01*
X44990010Y-87636075D01*
X44990010Y-87717099D01*
X45025942Y-87897739D01*
X45096424Y-88067899D01*
X45198748Y-88221038D01*
X45328982Y-88351272D01*
X45482121Y-88453596D01*
X45652281Y-88524078D01*
X45832921Y-88560010D01*
X46017099Y-88560010D01*
X46197739Y-88524078D01*
X46367899Y-88453596D01*
X46474933Y-88382078D01*
X48672477Y-88370322D01*
X48665000Y-88407911D01*
X48665000Y-88592089D01*
X48700932Y-88772729D01*
X48771414Y-88942889D01*
X48873738Y-89096028D01*
X49003972Y-89226262D01*
X49157111Y-89328586D01*
X49327271Y-89399068D01*
X49507911Y-89435000D01*
X49692089Y-89435000D01*
X49872729Y-89399068D01*
X50042889Y-89328586D01*
X50196028Y-89226262D01*
X50326262Y-89096028D01*
X50428586Y-88942889D01*
X50499068Y-88772729D01*
X50531932Y-88607515D01*
X50705012Y-88434435D01*
X50711152Y-88433830D01*
X59423221Y-88433830D01*
X59525867Y-88502416D01*
X59696027Y-88572898D01*
X59876667Y-88608830D01*
X60060845Y-88608830D01*
X60241485Y-88572898D01*
X60411645Y-88502416D01*
X60564784Y-88400092D01*
X60695018Y-88269858D01*
X60797342Y-88116719D01*
X60867824Y-87946559D01*
X60901740Y-87776053D01*
X61013742Y-87729661D01*
X61166881Y-87627337D01*
X61297115Y-87497103D01*
X61399439Y-87343964D01*
X61469921Y-87173804D01*
X61502919Y-87007911D01*
X62365000Y-87007911D01*
X62365000Y-87192089D01*
X62400932Y-87372729D01*
X62471414Y-87542889D01*
X62573738Y-87696028D01*
X62703972Y-87826262D01*
X62857111Y-87928586D01*
X63027271Y-87999068D01*
X63207911Y-88035000D01*
X63392089Y-88035000D01*
X63572729Y-87999068D01*
X63742889Y-87928586D01*
X63882951Y-87835000D01*
X64572596Y-87835000D01*
X64727271Y-87899068D01*
X64907911Y-87935000D01*
X65092089Y-87935000D01*
X65272729Y-87899068D01*
X65442889Y-87828586D01*
X65596028Y-87726262D01*
X65726262Y-87596028D01*
X65828586Y-87442889D01*
X65899068Y-87272729D01*
X65935000Y-87092089D01*
X65935000Y-86907911D01*
X65899068Y-86727271D01*
X65828586Y-86557111D01*
X65726262Y-86403972D01*
X65596028Y-86273738D01*
X65442889Y-86171414D01*
X65272729Y-86100932D01*
X65092089Y-86065000D01*
X64907911Y-86065000D01*
X64727271Y-86100932D01*
X64557111Y-86171414D01*
X64403972Y-86273738D01*
X64312710Y-86365000D01*
X63882951Y-86365000D01*
X63742889Y-86271414D01*
X63572729Y-86200932D01*
X63392089Y-86165000D01*
X63207911Y-86165000D01*
X63027271Y-86200932D01*
X62857111Y-86271414D01*
X62703972Y-86373738D01*
X62573738Y-86503972D01*
X62471414Y-86657111D01*
X62400932Y-86827271D01*
X62365000Y-87007911D01*
X61502919Y-87007911D01*
X61505853Y-86993164D01*
X61505853Y-86808986D01*
X61469921Y-86628346D01*
X61399439Y-86458186D01*
X61297115Y-86305047D01*
X61166881Y-86174813D01*
X61013742Y-86072489D01*
X60843582Y-86002007D01*
X60662942Y-85966075D01*
X60478764Y-85966075D01*
X60298124Y-86002007D01*
X60127964Y-86072489D01*
X59987902Y-86166075D01*
X41240877Y-86166075D01*
X40635000Y-85560199D01*
X40635000Y-85498061D01*
X40595226Y-85298102D01*
X40517205Y-85109744D01*
X40403937Y-84940226D01*
X40259774Y-84796063D01*
X40090256Y-84682795D01*
X39901898Y-84604774D01*
X39701939Y-84565000D01*
X39498061Y-84565000D01*
X39298102Y-84604774D01*
X39109744Y-84682795D01*
X38940226Y-84796063D01*
X38796063Y-84940226D01*
X38682795Y-85109744D01*
X38604774Y-85298102D01*
X38565000Y-85498061D01*
X33618907Y-85498061D01*
X33759774Y-85403937D01*
X33903937Y-85259774D01*
X34017205Y-85090256D01*
X34095226Y-84901898D01*
X34135000Y-84701939D01*
X34135000Y-84498061D01*
X34095226Y-84298102D01*
X34017205Y-84109744D01*
X33903937Y-83940226D01*
X33871622Y-83907911D01*
X53765000Y-83907911D01*
X53765000Y-84092089D01*
X53800932Y-84272729D01*
X53871414Y-84442889D01*
X53973738Y-84596028D01*
X54103972Y-84726262D01*
X54257111Y-84828586D01*
X54427271Y-84899068D01*
X54607911Y-84935000D01*
X54650576Y-84935000D01*
X54692369Y-84957339D01*
X54830917Y-84999367D01*
X54975002Y-85013558D01*
X55011107Y-85010002D01*
X60117049Y-85010002D01*
X60257111Y-85103588D01*
X60427271Y-85174070D01*
X60607911Y-85210002D01*
X60792089Y-85210002D01*
X60972729Y-85174070D01*
X61142889Y-85103588D01*
X61296028Y-85001264D01*
X61426262Y-84871030D01*
X61528586Y-84717891D01*
X61599068Y-84547731D01*
X61635000Y-84367091D01*
X61635000Y-84182913D01*
X61599068Y-84002273D01*
X61528586Y-83832113D01*
X61426262Y-83678974D01*
X61296028Y-83548740D01*
X61142889Y-83446416D01*
X60972729Y-83375934D01*
X60792089Y-83340002D01*
X60607911Y-83340002D01*
X60427271Y-83375934D01*
X60257111Y-83446416D01*
X60117049Y-83540002D01*
X55517154Y-83540002D01*
X55426262Y-83403972D01*
X55296028Y-83273738D01*
X55142889Y-83171414D01*
X54972729Y-83100932D01*
X54792089Y-83065000D01*
X54607911Y-83065000D01*
X54427271Y-83100932D01*
X54257111Y-83171414D01*
X54103972Y-83273738D01*
X53973738Y-83403972D01*
X53871414Y-83557111D01*
X53800932Y-83727271D01*
X53765000Y-83907911D01*
X33871622Y-83907911D01*
X33759774Y-83796063D01*
X33590256Y-83682795D01*
X33401898Y-83604774D01*
X33201939Y-83565000D01*
X32998061Y-83565000D01*
X32798102Y-83604774D01*
X32609744Y-83682795D01*
X32440226Y-83796063D01*
X32296063Y-83940226D01*
X32182795Y-84109744D01*
X32104774Y-84298102D01*
X32065000Y-84498061D01*
X30660000Y-84498061D01*
X30660000Y-82507911D01*
X45265000Y-82507911D01*
X45265000Y-82692089D01*
X45300932Y-82872729D01*
X45371414Y-83042889D01*
X45473738Y-83196028D01*
X45603972Y-83326262D01*
X45757111Y-83428586D01*
X45927271Y-83499068D01*
X46107911Y-83535000D01*
X46292089Y-83535000D01*
X46472729Y-83499068D01*
X46642889Y-83428586D01*
X46782951Y-83335000D01*
X47817049Y-83335000D01*
X47957111Y-83428586D01*
X48127271Y-83499068D01*
X48307911Y-83535000D01*
X48492089Y-83535000D01*
X48672729Y-83499068D01*
X48842889Y-83428586D01*
X48996028Y-83326262D01*
X49126262Y-83196028D01*
X49228586Y-83042889D01*
X49299068Y-82872729D01*
X49335000Y-82692089D01*
X49335000Y-82507911D01*
X49299068Y-82327271D01*
X49228586Y-82157111D01*
X49126262Y-82003972D01*
X48996028Y-81873738D01*
X48842889Y-81771414D01*
X48672729Y-81700932D01*
X48492089Y-81665000D01*
X48307911Y-81665000D01*
X48127271Y-81700932D01*
X47957111Y-81771414D01*
X47817049Y-81865000D01*
X46782951Y-81865000D01*
X46642889Y-81771414D01*
X46472729Y-81700932D01*
X46292089Y-81665000D01*
X46107911Y-81665000D01*
X45927271Y-81700932D01*
X45757111Y-81771414D01*
X45603972Y-81873738D01*
X45473738Y-82003972D01*
X45371414Y-82157111D01*
X45300932Y-82327271D01*
X45265000Y-82507911D01*
X30660000Y-82507911D01*
X30660000Y-80307911D01*
X48065000Y-80307911D01*
X48065000Y-80492089D01*
X48100932Y-80672729D01*
X48171414Y-80842889D01*
X48273738Y-80996028D01*
X48403972Y-81126262D01*
X48557111Y-81228586D01*
X48727271Y-81299068D01*
X48907911Y-81335000D01*
X49092089Y-81335000D01*
X49272729Y-81299068D01*
X49442889Y-81228586D01*
X49545535Y-81160000D01*
X50317710Y-81160000D01*
X50273738Y-81203972D01*
X50171414Y-81357111D01*
X50100932Y-81527271D01*
X50065000Y-81707911D01*
X50065000Y-81892089D01*
X50100932Y-82072729D01*
X50171414Y-82242889D01*
X50273738Y-82396028D01*
X50403972Y-82526262D01*
X50557111Y-82628586D01*
X50727271Y-82699068D01*
X50907911Y-82735000D01*
X51092089Y-82735000D01*
X51272729Y-82699068D01*
X51442889Y-82628586D01*
X51545535Y-82560000D01*
X61454455Y-82560000D01*
X61557101Y-82628586D01*
X61727261Y-82699068D01*
X61907901Y-82735000D01*
X62092079Y-82735000D01*
X62272719Y-82699068D01*
X62442879Y-82628586D01*
X62596018Y-82526262D01*
X62726252Y-82396028D01*
X62828576Y-82242889D01*
X62862910Y-82159999D01*
X62912689Y-82159999D01*
X62950011Y-82163675D01*
X62987333Y-82159999D01*
X62987344Y-82159999D01*
X63098997Y-82149002D01*
X63242258Y-82105545D01*
X63374287Y-82034973D01*
X63384541Y-82026558D01*
X63522739Y-81999068D01*
X63692899Y-81928586D01*
X63846038Y-81826262D01*
X63976272Y-81696028D01*
X64078596Y-81542889D01*
X64149078Y-81372729D01*
X64185010Y-81192089D01*
X64185010Y-81007911D01*
X64149078Y-80827271D01*
X64078596Y-80657111D01*
X63976272Y-80503972D01*
X63846038Y-80373738D01*
X63692899Y-80271414D01*
X63522739Y-80200932D01*
X63460403Y-80188533D01*
X63426438Y-80106532D01*
X63324114Y-79953393D01*
X63206432Y-79835711D01*
X63235000Y-79692089D01*
X63235000Y-79507911D01*
X63199068Y-79327271D01*
X63128586Y-79157111D01*
X63026262Y-79003972D01*
X62896028Y-78873738D01*
X62742889Y-78771414D01*
X62572729Y-78700932D01*
X62392089Y-78665000D01*
X62207911Y-78665000D01*
X62027271Y-78700932D01*
X61857111Y-78771414D01*
X61703972Y-78873738D01*
X61573738Y-79003972D01*
X61482848Y-79139999D01*
X51150334Y-79139999D01*
X51126262Y-79103972D01*
X50996028Y-78973738D01*
X50842889Y-78871414D01*
X50672729Y-78800932D01*
X50492089Y-78765000D01*
X50307911Y-78765000D01*
X50127271Y-78800932D01*
X49957111Y-78871414D01*
X49803972Y-78973738D01*
X49673738Y-79103972D01*
X49571414Y-79257111D01*
X49500932Y-79427271D01*
X49468814Y-79588737D01*
X49442889Y-79571414D01*
X49272729Y-79500932D01*
X49092089Y-79465000D01*
X48907911Y-79465000D01*
X48727271Y-79500932D01*
X48557111Y-79571414D01*
X48403972Y-79673738D01*
X48273738Y-79803972D01*
X48171414Y-79957111D01*
X48100932Y-80127271D01*
X48065000Y-80307911D01*
X30660000Y-80307911D01*
X30660000Y-77600000D01*
X44859509Y-77600000D01*
X44881423Y-77822499D01*
X44946324Y-78036447D01*
X45051716Y-78233623D01*
X45193551Y-78406449D01*
X45366377Y-78548284D01*
X45563553Y-78653676D01*
X45777501Y-78718577D01*
X45944248Y-78735000D01*
X60455752Y-78735000D01*
X60622499Y-78718577D01*
X60836447Y-78653676D01*
X61033623Y-78548284D01*
X61206449Y-78406449D01*
X61348284Y-78233623D01*
X61453676Y-78036447D01*
X61518577Y-77822499D01*
X61540491Y-77600000D01*
X61518577Y-77377501D01*
X61453676Y-77163553D01*
X61348284Y-76966377D01*
X61206449Y-76793551D01*
X61033623Y-76651716D01*
X60836447Y-76546324D01*
X60622499Y-76481423D01*
X60455752Y-76465000D01*
X45944248Y-76465000D01*
X45777501Y-76481423D01*
X45563553Y-76546324D01*
X45366377Y-76651716D01*
X45193551Y-76793551D01*
X45051716Y-76966377D01*
X44946324Y-77163553D01*
X44881423Y-77377501D01*
X44859509Y-77600000D01*
X30660000Y-77600000D01*
X30660000Y-68247950D01*
X39763008Y-68247950D01*
X39775268Y-68372432D01*
X39811578Y-68492130D01*
X39870543Y-68602444D01*
X39949895Y-68699135D01*
X40046586Y-68778487D01*
X40156900Y-68837452D01*
X40276598Y-68873762D01*
X40401080Y-68886022D01*
X40714770Y-68882950D01*
X40873520Y-68724200D01*
X40873520Y-66875080D01*
X41127520Y-66875080D01*
X41127520Y-68724200D01*
X41286270Y-68882950D01*
X41599960Y-68886022D01*
X41724442Y-68873762D01*
X41844140Y-68837452D01*
X41954454Y-68778487D01*
X42051145Y-68699135D01*
X42130497Y-68602444D01*
X42189462Y-68492130D01*
X42225772Y-68372432D01*
X42238032Y-68247950D01*
X42234960Y-67033830D01*
X42076210Y-66875080D01*
X41127520Y-66875080D01*
X40873520Y-66875080D01*
X39924830Y-66875080D01*
X39766080Y-67033830D01*
X39763008Y-68247950D01*
X30660000Y-68247950D01*
X30660000Y-66107911D01*
X32065000Y-66107911D01*
X32065000Y-66292089D01*
X32100932Y-66472729D01*
X32171414Y-66642889D01*
X32273738Y-66796028D01*
X32403972Y-66926262D01*
X32557111Y-67028586D01*
X32727271Y-67099068D01*
X32907911Y-67135000D01*
X33092089Y-67135000D01*
X33272729Y-67099068D01*
X33442889Y-67028586D01*
X33596028Y-66926262D01*
X33726262Y-66796028D01*
X33828586Y-66642889D01*
X33899068Y-66472729D01*
X33923153Y-66351649D01*
X35114803Y-65160000D01*
X39771696Y-65160000D01*
X39763008Y-65248210D01*
X39766080Y-66462330D01*
X39924830Y-66621080D01*
X40873520Y-66621080D01*
X40873520Y-66601080D01*
X41127520Y-66601080D01*
X41127520Y-66621080D01*
X42076210Y-66621080D01*
X42234960Y-66462330D01*
X42238032Y-65248210D01*
X42229344Y-65160000D01*
X49769136Y-65160000D01*
X49760448Y-65248210D01*
X49760448Y-68247950D01*
X49772708Y-68372432D01*
X49809018Y-68492130D01*
X49867983Y-68602444D01*
X49947335Y-68699135D01*
X50044026Y-68778487D01*
X50154340Y-68837452D01*
X50237961Y-68862818D01*
X50237961Y-69194947D01*
X50196424Y-69257111D01*
X50125942Y-69427271D01*
X50090010Y-69607911D01*
X50090010Y-69792089D01*
X50125942Y-69972729D01*
X50196424Y-70142889D01*
X50298748Y-70296028D01*
X50428982Y-70426262D01*
X50582121Y-70528586D01*
X50752281Y-70599068D01*
X50932921Y-70635000D01*
X51117099Y-70635000D01*
X51297739Y-70599068D01*
X51467899Y-70528586D01*
X51621038Y-70426262D01*
X51751272Y-70296028D01*
X51853596Y-70142889D01*
X51924078Y-69972729D01*
X51960010Y-69792089D01*
X51960010Y-69607911D01*
X51924078Y-69427271D01*
X51853596Y-69257111D01*
X51757960Y-69113981D01*
X51757960Y-68862818D01*
X51841580Y-68837452D01*
X51951894Y-68778487D01*
X51998720Y-68740058D01*
X52045546Y-68778487D01*
X52155860Y-68837452D01*
X52239481Y-68862818D01*
X52239481Y-69255242D01*
X52171414Y-69357111D01*
X52100932Y-69527271D01*
X52065000Y-69707911D01*
X52065000Y-69892089D01*
X52100932Y-70072729D01*
X52171414Y-70242889D01*
X52273738Y-70396028D01*
X52403972Y-70526262D01*
X52557111Y-70628586D01*
X52727271Y-70699068D01*
X52907911Y-70735000D01*
X53092089Y-70735000D01*
X53272729Y-70699068D01*
X53442889Y-70628586D01*
X53596028Y-70526262D01*
X53726262Y-70396028D01*
X53828586Y-70242889D01*
X53899068Y-70072729D01*
X53935000Y-69892089D01*
X53935000Y-69707911D01*
X53899068Y-69527271D01*
X53828586Y-69357111D01*
X53759480Y-69253686D01*
X53759480Y-68862818D01*
X53843100Y-68837452D01*
X53953414Y-68778487D01*
X54050105Y-68699135D01*
X54129457Y-68602444D01*
X54188422Y-68492130D01*
X54224732Y-68372432D01*
X54236992Y-68247950D01*
X54236992Y-65248210D01*
X54228304Y-65160000D01*
X56354465Y-65160000D01*
X56457111Y-65228586D01*
X56627271Y-65299068D01*
X56807911Y-65335000D01*
X56992089Y-65335000D01*
X57172729Y-65299068D01*
X57342889Y-65228586D01*
X57496028Y-65126262D01*
X57626262Y-64996028D01*
X57728586Y-64842889D01*
X57799068Y-64672729D01*
X57835000Y-64492089D01*
X57835000Y-64307911D01*
X57799068Y-64127271D01*
X57728586Y-63957111D01*
X57626262Y-63803972D01*
X57496028Y-63673738D01*
X57342889Y-63571414D01*
X57172729Y-63500932D01*
X56992089Y-63465000D01*
X56807911Y-63465000D01*
X56627271Y-63500932D01*
X56457111Y-63571414D01*
X56354465Y-63640000D01*
X34837322Y-63640000D01*
X34799999Y-63636324D01*
X34762676Y-63640000D01*
X34762667Y-63640000D01*
X34651014Y-63650997D01*
X34507753Y-63694454D01*
X34375724Y-63765026D01*
X34375722Y-63765027D01*
X34375723Y-63765027D01*
X34288996Y-63836201D01*
X34288992Y-63836205D01*
X34259999Y-63859999D01*
X34236205Y-63888992D01*
X32848351Y-65276847D01*
X32727271Y-65300932D01*
X32557111Y-65371414D01*
X32403972Y-65473738D01*
X32273738Y-65603972D01*
X32171414Y-65757111D01*
X32100932Y-65927271D01*
X32065000Y-66107911D01*
X30660000Y-66107911D01*
X30660000Y-43127000D01*
X39915372Y-43127000D01*
X39971324Y-43311446D01*
M02*
