G04 #@! TF.GenerationSoftware,KiCad,Pcbnew,5.1.5+dfsg1-2build2*
G04 #@! TF.CreationDate,2020-10-16T19:58:43-06:00*
G04 #@! TF.ProjectId,remote,72656d6f-7465-42e6-9b69-6361645f7063,rev?*
G04 #@! TF.SameCoordinates,Original*
G04 #@! TF.FileFunction,Soldermask,Top*
G04 #@! TF.FilePolarity,Negative*
%FSLAX46Y46*%
G04 Gerber Fmt 4.6, Leading zero omitted, Abs format (unit mm)*
G04 Created by KiCad (PCBNEW 5.1.5+dfsg1-2build2) date 2020-10-16 19:58:43*
%MOMM*%
%LPD*%
G04 APERTURE LIST*
%ADD10C,0.100000*%
G04 APERTURE END LIST*
D10*
G36*
X64642007Y-111883582D02*
G01*
X65042563Y-112049498D01*
X65042565Y-112049499D01*
X65403056Y-112290371D01*
X65709629Y-112596944D01*
X65950501Y-112957435D01*
X65950502Y-112957437D01*
X66116418Y-113357993D01*
X66201000Y-113783219D01*
X66201000Y-114216781D01*
X66116418Y-114642007D01*
X65950502Y-115042563D01*
X65950501Y-115042565D01*
X65709629Y-115403056D01*
X65403056Y-115709629D01*
X65042565Y-115950501D01*
X65042564Y-115950502D01*
X65042563Y-115950502D01*
X64642007Y-116116418D01*
X64216781Y-116201000D01*
X63783219Y-116201000D01*
X63357993Y-116116418D01*
X62957437Y-115950502D01*
X62957436Y-115950502D01*
X62957435Y-115950501D01*
X62596944Y-115709629D01*
X62290371Y-115403056D01*
X62049499Y-115042565D01*
X62049498Y-115042563D01*
X61883582Y-114642007D01*
X61799000Y-114216781D01*
X61799000Y-113783219D01*
X61883582Y-113357993D01*
X62049498Y-112957437D01*
X62049499Y-112957435D01*
X62290371Y-112596944D01*
X62596944Y-112290371D01*
X62957435Y-112049499D01*
X62957437Y-112049498D01*
X63357993Y-111883582D01*
X63783219Y-111799000D01*
X64216781Y-111799000D01*
X64642007Y-111883582D01*
G37*
G36*
X34642007Y-111883582D02*
G01*
X35042563Y-112049498D01*
X35042565Y-112049499D01*
X35403056Y-112290371D01*
X35709629Y-112596944D01*
X35950501Y-112957435D01*
X35950502Y-112957437D01*
X36116418Y-113357993D01*
X36201000Y-113783219D01*
X36201000Y-114216781D01*
X36116418Y-114642007D01*
X35950502Y-115042563D01*
X35950501Y-115042565D01*
X35709629Y-115403056D01*
X35403056Y-115709629D01*
X35042565Y-115950501D01*
X35042564Y-115950502D01*
X35042563Y-115950502D01*
X34642007Y-116116418D01*
X34216781Y-116201000D01*
X33783219Y-116201000D01*
X33357993Y-116116418D01*
X32957437Y-115950502D01*
X32957436Y-115950502D01*
X32957435Y-115950501D01*
X32596944Y-115709629D01*
X32290371Y-115403056D01*
X32049499Y-115042565D01*
X32049498Y-115042563D01*
X31883582Y-114642007D01*
X31799000Y-114216781D01*
X31799000Y-113783219D01*
X31883582Y-113357993D01*
X32049498Y-112957437D01*
X32049499Y-112957435D01*
X32290371Y-112596944D01*
X32596944Y-112290371D01*
X32957435Y-112049499D01*
X32957437Y-112049498D01*
X33357993Y-111883582D01*
X33783219Y-111799000D01*
X34216781Y-111799000D01*
X34642007Y-111883582D01*
G37*
G36*
X53551000Y-107051000D02*
G01*
X51449000Y-107051000D01*
X51449000Y-105449000D01*
X53551000Y-105449000D01*
X53551000Y-107051000D01*
G37*
G36*
X46551000Y-107051000D02*
G01*
X44449000Y-107051000D01*
X44449000Y-105449000D01*
X46551000Y-105449000D01*
X46551000Y-107051000D01*
G37*
G36*
X53551000Y-102551000D02*
G01*
X51449000Y-102551000D01*
X51449000Y-100949000D01*
X53551000Y-100949000D01*
X53551000Y-102551000D01*
G37*
G36*
X46551000Y-102551000D02*
G01*
X44449000Y-102551000D01*
X44449000Y-100949000D01*
X46551000Y-100949000D01*
X46551000Y-102551000D01*
G37*
G36*
X43441938Y-101431716D02*
G01*
X43462557Y-101437971D01*
X43481553Y-101448124D01*
X43498208Y-101461792D01*
X43511876Y-101478447D01*
X43522029Y-101497443D01*
X43528284Y-101518062D01*
X43531000Y-101545640D01*
X43531000Y-102054360D01*
X43528284Y-102081938D01*
X43522029Y-102102557D01*
X43511876Y-102121553D01*
X43498208Y-102138208D01*
X43481553Y-102151876D01*
X43462557Y-102162029D01*
X43441938Y-102168284D01*
X43414360Y-102171000D01*
X42955640Y-102171000D01*
X42928062Y-102168284D01*
X42907443Y-102162029D01*
X42888447Y-102151876D01*
X42871792Y-102138208D01*
X42858124Y-102121553D01*
X42847971Y-102102557D01*
X42841716Y-102081938D01*
X42839000Y-102054360D01*
X42839000Y-101545640D01*
X42841716Y-101518062D01*
X42847971Y-101497443D01*
X42858124Y-101478447D01*
X42871792Y-101461792D01*
X42888447Y-101448124D01*
X42907443Y-101437971D01*
X42928062Y-101431716D01*
X42955640Y-101429000D01*
X43414360Y-101429000D01*
X43441938Y-101431716D01*
G37*
G36*
X42471938Y-101431716D02*
G01*
X42492557Y-101437971D01*
X42511553Y-101448124D01*
X42528208Y-101461792D01*
X42541876Y-101478447D01*
X42552029Y-101497443D01*
X42558284Y-101518062D01*
X42561000Y-101545640D01*
X42561000Y-102054360D01*
X42558284Y-102081938D01*
X42552029Y-102102557D01*
X42541876Y-102121553D01*
X42528208Y-102138208D01*
X42511553Y-102151876D01*
X42492557Y-102162029D01*
X42471938Y-102168284D01*
X42444360Y-102171000D01*
X41985640Y-102171000D01*
X41958062Y-102168284D01*
X41937443Y-102162029D01*
X41918447Y-102151876D01*
X41901792Y-102138208D01*
X41888124Y-102121553D01*
X41877971Y-102102557D01*
X41871716Y-102081938D01*
X41869000Y-102054360D01*
X41869000Y-101545640D01*
X41871716Y-101518062D01*
X41877971Y-101497443D01*
X41888124Y-101478447D01*
X41901792Y-101461792D01*
X41918447Y-101448124D01*
X41937443Y-101437971D01*
X41958062Y-101431716D01*
X41985640Y-101429000D01*
X42444360Y-101429000D01*
X42471938Y-101431716D01*
G37*
G36*
X59671938Y-99631716D02*
G01*
X59692557Y-99637971D01*
X59711553Y-99648124D01*
X59728208Y-99661792D01*
X59741876Y-99678447D01*
X59752029Y-99697443D01*
X59758284Y-99718062D01*
X59761000Y-99745640D01*
X59761000Y-100254360D01*
X59758284Y-100281938D01*
X59752029Y-100302557D01*
X59741876Y-100321553D01*
X59728208Y-100338208D01*
X59711553Y-100351876D01*
X59692557Y-100362029D01*
X59671938Y-100368284D01*
X59644360Y-100371000D01*
X59185640Y-100371000D01*
X59158062Y-100368284D01*
X59137443Y-100362029D01*
X59118447Y-100351876D01*
X59101792Y-100338208D01*
X59088124Y-100321553D01*
X59077971Y-100302557D01*
X59071716Y-100281938D01*
X59069000Y-100254360D01*
X59069000Y-99745640D01*
X59071716Y-99718062D01*
X59077971Y-99697443D01*
X59088124Y-99678447D01*
X59101792Y-99661792D01*
X59118447Y-99648124D01*
X59137443Y-99637971D01*
X59158062Y-99631716D01*
X59185640Y-99629000D01*
X59644360Y-99629000D01*
X59671938Y-99631716D01*
G37*
G36*
X60641938Y-99631716D02*
G01*
X60662557Y-99637971D01*
X60681553Y-99648124D01*
X60698208Y-99661792D01*
X60711876Y-99678447D01*
X60722029Y-99697443D01*
X60728284Y-99718062D01*
X60731000Y-99745640D01*
X60731000Y-100254360D01*
X60728284Y-100281938D01*
X60722029Y-100302557D01*
X60711876Y-100321553D01*
X60698208Y-100338208D01*
X60681553Y-100351876D01*
X60662557Y-100362029D01*
X60641938Y-100368284D01*
X60614360Y-100371000D01*
X60155640Y-100371000D01*
X60128062Y-100368284D01*
X60107443Y-100362029D01*
X60088447Y-100351876D01*
X60071792Y-100338208D01*
X60058124Y-100321553D01*
X60047971Y-100302557D01*
X60041716Y-100281938D01*
X60039000Y-100254360D01*
X60039000Y-99745640D01*
X60041716Y-99718062D01*
X60047971Y-99697443D01*
X60058124Y-99678447D01*
X60071792Y-99661792D01*
X60088447Y-99648124D01*
X60107443Y-99637971D01*
X60128062Y-99631716D01*
X60155640Y-99629000D01*
X60614360Y-99629000D01*
X60641938Y-99631716D01*
G37*
G36*
X32664499Y-96303445D02*
G01*
X32701995Y-96314820D01*
X32736554Y-96333292D01*
X32766847Y-96358153D01*
X32791708Y-96388446D01*
X32810180Y-96423005D01*
X32821555Y-96460501D01*
X32826000Y-96505638D01*
X32826000Y-97244362D01*
X32821555Y-97289499D01*
X32810180Y-97326995D01*
X32791708Y-97361554D01*
X32766847Y-97391847D01*
X32736554Y-97416708D01*
X32701995Y-97435180D01*
X32664499Y-97446555D01*
X32619362Y-97451000D01*
X31980638Y-97451000D01*
X31935501Y-97446555D01*
X31898005Y-97435180D01*
X31863446Y-97416708D01*
X31833153Y-97391847D01*
X31808292Y-97361554D01*
X31789820Y-97326995D01*
X31778445Y-97289499D01*
X31774000Y-97244362D01*
X31774000Y-96505638D01*
X31778445Y-96460501D01*
X31789820Y-96423005D01*
X31808292Y-96388446D01*
X31833153Y-96358153D01*
X31863446Y-96333292D01*
X31898005Y-96314820D01*
X31935501Y-96303445D01*
X31980638Y-96299000D01*
X32619362Y-96299000D01*
X32664499Y-96303445D01*
G37*
G36*
X34554591Y-95478085D02*
G01*
X34588569Y-95488393D01*
X34619890Y-95505134D01*
X34647339Y-95527661D01*
X34669866Y-95555110D01*
X34686607Y-95586431D01*
X34696915Y-95620409D01*
X34701000Y-95661890D01*
X34701000Y-96338110D01*
X34696915Y-96379591D01*
X34686607Y-96413569D01*
X34669866Y-96444890D01*
X34647339Y-96472339D01*
X34619890Y-96494866D01*
X34588569Y-96511607D01*
X34554591Y-96521915D01*
X34513110Y-96526000D01*
X33911890Y-96526000D01*
X33870409Y-96521915D01*
X33836431Y-96511607D01*
X33805110Y-96494866D01*
X33777661Y-96472339D01*
X33755134Y-96444890D01*
X33738393Y-96413569D01*
X33728085Y-96379591D01*
X33724000Y-96338110D01*
X33724000Y-95661890D01*
X33728085Y-95620409D01*
X33738393Y-95586431D01*
X33755134Y-95555110D01*
X33777661Y-95527661D01*
X33805110Y-95505134D01*
X33836431Y-95488393D01*
X33870409Y-95478085D01*
X33911890Y-95474000D01*
X34513110Y-95474000D01*
X34554591Y-95478085D01*
G37*
G36*
X36129591Y-95478085D02*
G01*
X36163569Y-95488393D01*
X36194890Y-95505134D01*
X36222339Y-95527661D01*
X36244866Y-95555110D01*
X36261607Y-95586431D01*
X36271915Y-95620409D01*
X36276000Y-95661890D01*
X36276000Y-96338110D01*
X36271915Y-96379591D01*
X36261607Y-96413569D01*
X36244866Y-96444890D01*
X36222339Y-96472339D01*
X36194890Y-96494866D01*
X36163569Y-96511607D01*
X36129591Y-96521915D01*
X36088110Y-96526000D01*
X35486890Y-96526000D01*
X35445409Y-96521915D01*
X35411431Y-96511607D01*
X35380110Y-96494866D01*
X35352661Y-96472339D01*
X35330134Y-96444890D01*
X35313393Y-96413569D01*
X35303085Y-96379591D01*
X35299000Y-96338110D01*
X35299000Y-95661890D01*
X35303085Y-95620409D01*
X35313393Y-95586431D01*
X35330134Y-95555110D01*
X35352661Y-95527661D01*
X35380110Y-95505134D01*
X35411431Y-95488393D01*
X35445409Y-95478085D01*
X35486890Y-95474000D01*
X36088110Y-95474000D01*
X36129591Y-95478085D01*
G37*
G36*
X32664499Y-94553445D02*
G01*
X32701995Y-94564820D01*
X32736554Y-94583292D01*
X32766847Y-94608153D01*
X32791708Y-94638446D01*
X32810180Y-94673005D01*
X32821555Y-94710501D01*
X32826000Y-94755638D01*
X32826000Y-95494362D01*
X32821555Y-95539499D01*
X32810180Y-95576995D01*
X32791708Y-95611554D01*
X32766847Y-95641847D01*
X32736554Y-95666708D01*
X32701995Y-95685180D01*
X32664499Y-95696555D01*
X32619362Y-95701000D01*
X31980638Y-95701000D01*
X31935501Y-95696555D01*
X31898005Y-95685180D01*
X31863446Y-95666708D01*
X31833153Y-95641847D01*
X31808292Y-95611554D01*
X31789820Y-95576995D01*
X31778445Y-95539499D01*
X31774000Y-95494362D01*
X31774000Y-94755638D01*
X31778445Y-94710501D01*
X31789820Y-94673005D01*
X31808292Y-94638446D01*
X31833153Y-94608153D01*
X31863446Y-94583292D01*
X31898005Y-94564820D01*
X31935501Y-94553445D01*
X31980638Y-94549000D01*
X32619362Y-94549000D01*
X32664499Y-94553445D01*
G37*
G36*
X36401000Y-94501000D02*
G01*
X35499000Y-94501000D01*
X35499000Y-93499000D01*
X36401000Y-93499000D01*
X36401000Y-94501000D01*
G37*
G36*
X34501000Y-94501000D02*
G01*
X33599000Y-94501000D01*
X33599000Y-93499000D01*
X34501000Y-93499000D01*
X34501000Y-94501000D01*
G37*
G36*
X32781938Y-93126716D02*
G01*
X32802557Y-93132971D01*
X32821553Y-93143124D01*
X32838208Y-93156792D01*
X32851876Y-93173447D01*
X32862029Y-93192443D01*
X32868284Y-93213062D01*
X32871000Y-93240640D01*
X32871000Y-93699360D01*
X32868284Y-93726938D01*
X32862029Y-93747557D01*
X32851876Y-93766553D01*
X32838208Y-93783208D01*
X32821553Y-93796876D01*
X32802557Y-93807029D01*
X32781938Y-93813284D01*
X32754360Y-93816000D01*
X32245640Y-93816000D01*
X32218062Y-93813284D01*
X32197443Y-93807029D01*
X32178447Y-93796876D01*
X32161792Y-93783208D01*
X32148124Y-93766553D01*
X32137971Y-93747557D01*
X32131716Y-93726938D01*
X32129000Y-93699360D01*
X32129000Y-93240640D01*
X32131716Y-93213062D01*
X32137971Y-93192443D01*
X32148124Y-93173447D01*
X32161792Y-93156792D01*
X32178447Y-93143124D01*
X32197443Y-93132971D01*
X32218062Y-93126716D01*
X32245640Y-93124000D01*
X32754360Y-93124000D01*
X32781938Y-93126716D01*
G37*
G36*
X58381938Y-92241716D02*
G01*
X58402557Y-92247971D01*
X58421553Y-92258124D01*
X58438208Y-92271792D01*
X58451876Y-92288447D01*
X58462029Y-92307443D01*
X58468284Y-92328062D01*
X58471000Y-92355640D01*
X58471000Y-92814360D01*
X58468284Y-92841938D01*
X58462029Y-92862557D01*
X58451876Y-92881553D01*
X58438208Y-92898208D01*
X58421553Y-92911876D01*
X58402557Y-92922029D01*
X58381938Y-92928284D01*
X58354360Y-92931000D01*
X57845640Y-92931000D01*
X57818062Y-92928284D01*
X57797443Y-92922029D01*
X57778447Y-92911876D01*
X57761792Y-92898208D01*
X57748124Y-92881553D01*
X57737971Y-92862557D01*
X57731716Y-92841938D01*
X57729000Y-92814360D01*
X57729000Y-92355640D01*
X57731716Y-92328062D01*
X57737971Y-92307443D01*
X57748124Y-92288447D01*
X57761792Y-92271792D01*
X57778447Y-92258124D01*
X57797443Y-92247971D01*
X57818062Y-92241716D01*
X57845640Y-92239000D01*
X58354360Y-92239000D01*
X58381938Y-92241716D01*
G37*
G36*
X38271938Y-92131716D02*
G01*
X38292557Y-92137971D01*
X38311553Y-92148124D01*
X38328208Y-92161792D01*
X38341876Y-92178447D01*
X38352029Y-92197443D01*
X38358284Y-92218062D01*
X38361000Y-92245640D01*
X38361000Y-92754360D01*
X38358284Y-92781938D01*
X38352029Y-92802557D01*
X38341876Y-92821553D01*
X38328208Y-92838208D01*
X38311553Y-92851876D01*
X38292557Y-92862029D01*
X38271938Y-92868284D01*
X38244360Y-92871000D01*
X37785640Y-92871000D01*
X37758062Y-92868284D01*
X37737443Y-92862029D01*
X37718447Y-92851876D01*
X37701792Y-92838208D01*
X37688124Y-92821553D01*
X37677971Y-92802557D01*
X37671716Y-92781938D01*
X37669000Y-92754360D01*
X37669000Y-92245640D01*
X37671716Y-92218062D01*
X37677971Y-92197443D01*
X37688124Y-92178447D01*
X37701792Y-92161792D01*
X37718447Y-92148124D01*
X37737443Y-92137971D01*
X37758062Y-92131716D01*
X37785640Y-92129000D01*
X38244360Y-92129000D01*
X38271938Y-92131716D01*
G37*
G36*
X39241938Y-92131716D02*
G01*
X39262557Y-92137971D01*
X39281553Y-92148124D01*
X39298208Y-92161792D01*
X39311876Y-92178447D01*
X39322029Y-92197443D01*
X39328284Y-92218062D01*
X39331000Y-92245640D01*
X39331000Y-92754360D01*
X39328284Y-92781938D01*
X39322029Y-92802557D01*
X39311876Y-92821553D01*
X39298208Y-92838208D01*
X39281553Y-92851876D01*
X39262557Y-92862029D01*
X39241938Y-92868284D01*
X39214360Y-92871000D01*
X38755640Y-92871000D01*
X38728062Y-92868284D01*
X38707443Y-92862029D01*
X38688447Y-92851876D01*
X38671792Y-92838208D01*
X38658124Y-92821553D01*
X38647971Y-92802557D01*
X38641716Y-92781938D01*
X38639000Y-92754360D01*
X38639000Y-92245640D01*
X38641716Y-92218062D01*
X38647971Y-92197443D01*
X38658124Y-92178447D01*
X38671792Y-92161792D01*
X38688447Y-92148124D01*
X38707443Y-92137971D01*
X38728062Y-92131716D01*
X38755640Y-92129000D01*
X39214360Y-92129000D01*
X39241938Y-92131716D01*
G37*
G36*
X32781938Y-92156716D02*
G01*
X32802557Y-92162971D01*
X32821553Y-92173124D01*
X32838208Y-92186792D01*
X32851876Y-92203447D01*
X32862029Y-92222443D01*
X32868284Y-92243062D01*
X32871000Y-92270640D01*
X32871000Y-92729360D01*
X32868284Y-92756938D01*
X32862029Y-92777557D01*
X32851876Y-92796553D01*
X32838208Y-92813208D01*
X32821553Y-92826876D01*
X32802557Y-92837029D01*
X32781938Y-92843284D01*
X32754360Y-92846000D01*
X32245640Y-92846000D01*
X32218062Y-92843284D01*
X32197443Y-92837029D01*
X32178447Y-92826876D01*
X32161792Y-92813208D01*
X32148124Y-92796553D01*
X32137971Y-92777557D01*
X32131716Y-92756938D01*
X32129000Y-92729360D01*
X32129000Y-92270640D01*
X32131716Y-92243062D01*
X32137971Y-92222443D01*
X32148124Y-92203447D01*
X32161792Y-92186792D01*
X32178447Y-92173124D01*
X32197443Y-92162971D01*
X32218062Y-92156716D01*
X32245640Y-92154000D01*
X32754360Y-92154000D01*
X32781938Y-92156716D01*
G37*
G36*
X35451000Y-92501000D02*
G01*
X34549000Y-92501000D01*
X34549000Y-91499000D01*
X35451000Y-91499000D01*
X35451000Y-92501000D01*
G37*
G36*
X60781938Y-91741716D02*
G01*
X60802557Y-91747971D01*
X60821553Y-91758124D01*
X60838208Y-91771792D01*
X60851876Y-91788447D01*
X60862029Y-91807443D01*
X60868284Y-91828062D01*
X60871000Y-91855640D01*
X60871000Y-92314360D01*
X60868284Y-92341938D01*
X60862029Y-92362557D01*
X60851876Y-92381553D01*
X60838208Y-92398208D01*
X60821553Y-92411876D01*
X60802557Y-92422029D01*
X60781938Y-92428284D01*
X60754360Y-92431000D01*
X60245640Y-92431000D01*
X60218062Y-92428284D01*
X60197443Y-92422029D01*
X60178447Y-92411876D01*
X60161792Y-92398208D01*
X60148124Y-92381553D01*
X60137971Y-92362557D01*
X60131716Y-92341938D01*
X60129000Y-92314360D01*
X60129000Y-91855640D01*
X60131716Y-91828062D01*
X60137971Y-91807443D01*
X60148124Y-91788447D01*
X60161792Y-91771792D01*
X60178447Y-91758124D01*
X60197443Y-91747971D01*
X60218062Y-91741716D01*
X60245640Y-91739000D01*
X60754360Y-91739000D01*
X60781938Y-91741716D01*
G37*
G36*
X59681938Y-91741716D02*
G01*
X59702557Y-91747971D01*
X59721553Y-91758124D01*
X59738208Y-91771792D01*
X59751876Y-91788447D01*
X59762029Y-91807443D01*
X59768284Y-91828062D01*
X59771000Y-91855640D01*
X59771000Y-92314360D01*
X59768284Y-92341938D01*
X59762029Y-92362557D01*
X59751876Y-92381553D01*
X59738208Y-92398208D01*
X59721553Y-92411876D01*
X59702557Y-92422029D01*
X59681938Y-92428284D01*
X59654360Y-92431000D01*
X59145640Y-92431000D01*
X59118062Y-92428284D01*
X59097443Y-92422029D01*
X59078447Y-92411876D01*
X59061792Y-92398208D01*
X59048124Y-92381553D01*
X59037971Y-92362557D01*
X59031716Y-92341938D01*
X59029000Y-92314360D01*
X59029000Y-91855640D01*
X59031716Y-91828062D01*
X59037971Y-91807443D01*
X59048124Y-91788447D01*
X59061792Y-91771792D01*
X59078447Y-91758124D01*
X59097443Y-91747971D01*
X59118062Y-91741716D01*
X59145640Y-91739000D01*
X59654360Y-91739000D01*
X59681938Y-91741716D01*
G37*
G36*
X58381938Y-91271716D02*
G01*
X58402557Y-91277971D01*
X58421553Y-91288124D01*
X58438208Y-91301792D01*
X58451876Y-91318447D01*
X58462029Y-91337443D01*
X58468284Y-91358062D01*
X58471000Y-91385640D01*
X58471000Y-91844360D01*
X58468284Y-91871938D01*
X58462029Y-91892557D01*
X58451876Y-91911553D01*
X58438208Y-91928208D01*
X58421553Y-91941876D01*
X58402557Y-91952029D01*
X58381938Y-91958284D01*
X58354360Y-91961000D01*
X57845640Y-91961000D01*
X57818062Y-91958284D01*
X57797443Y-91952029D01*
X57778447Y-91941876D01*
X57761792Y-91928208D01*
X57748124Y-91911553D01*
X57737971Y-91892557D01*
X57731716Y-91871938D01*
X57729000Y-91844360D01*
X57729000Y-91385640D01*
X57731716Y-91358062D01*
X57737971Y-91337443D01*
X57748124Y-91318447D01*
X57761792Y-91301792D01*
X57778447Y-91288124D01*
X57797443Y-91277971D01*
X57818062Y-91271716D01*
X57845640Y-91269000D01*
X58354360Y-91269000D01*
X58381938Y-91271716D01*
G37*
G36*
X40129591Y-90478085D02*
G01*
X40163569Y-90488393D01*
X40194890Y-90505134D01*
X40222339Y-90527661D01*
X40244866Y-90555110D01*
X40261607Y-90586431D01*
X40271915Y-90620409D01*
X40276000Y-90661890D01*
X40276000Y-91338110D01*
X40271915Y-91379591D01*
X40261607Y-91413569D01*
X40244866Y-91444890D01*
X40222339Y-91472339D01*
X40194890Y-91494866D01*
X40163569Y-91511607D01*
X40129591Y-91521915D01*
X40088110Y-91526000D01*
X39486890Y-91526000D01*
X39445409Y-91521915D01*
X39411431Y-91511607D01*
X39380110Y-91494866D01*
X39352661Y-91472339D01*
X39330134Y-91444890D01*
X39313393Y-91413569D01*
X39303085Y-91379591D01*
X39299000Y-91338110D01*
X39299000Y-90661890D01*
X39303085Y-90620409D01*
X39313393Y-90586431D01*
X39330134Y-90555110D01*
X39352661Y-90527661D01*
X39380110Y-90505134D01*
X39411431Y-90488393D01*
X39445409Y-90478085D01*
X39486890Y-90474000D01*
X40088110Y-90474000D01*
X40129591Y-90478085D01*
G37*
G36*
X38554591Y-90478085D02*
G01*
X38588569Y-90488393D01*
X38619890Y-90505134D01*
X38647339Y-90527661D01*
X38669866Y-90555110D01*
X38686607Y-90586431D01*
X38696915Y-90620409D01*
X38701000Y-90661890D01*
X38701000Y-91338110D01*
X38696915Y-91379591D01*
X38686607Y-91413569D01*
X38669866Y-91444890D01*
X38647339Y-91472339D01*
X38619890Y-91494866D01*
X38588569Y-91511607D01*
X38554591Y-91521915D01*
X38513110Y-91526000D01*
X37911890Y-91526000D01*
X37870409Y-91521915D01*
X37836431Y-91511607D01*
X37805110Y-91494866D01*
X37777661Y-91472339D01*
X37755134Y-91444890D01*
X37738393Y-91413569D01*
X37728085Y-91379591D01*
X37724000Y-91338110D01*
X37724000Y-90661890D01*
X37728085Y-90620409D01*
X37738393Y-90586431D01*
X37755134Y-90555110D01*
X37777661Y-90527661D01*
X37805110Y-90505134D01*
X37836431Y-90488393D01*
X37870409Y-90478085D01*
X37911890Y-90474000D01*
X38513110Y-90474000D01*
X38554591Y-90478085D01*
G37*
G36*
X59681938Y-90771716D02*
G01*
X59702557Y-90777971D01*
X59721553Y-90788124D01*
X59738208Y-90801792D01*
X59751876Y-90818447D01*
X59762029Y-90837443D01*
X59768284Y-90858062D01*
X59771000Y-90885640D01*
X59771000Y-91344360D01*
X59768284Y-91371938D01*
X59762029Y-91392557D01*
X59751876Y-91411553D01*
X59738208Y-91428208D01*
X59721553Y-91441876D01*
X59702557Y-91452029D01*
X59681938Y-91458284D01*
X59654360Y-91461000D01*
X59145640Y-91461000D01*
X59118062Y-91458284D01*
X59097443Y-91452029D01*
X59078447Y-91441876D01*
X59061792Y-91428208D01*
X59048124Y-91411553D01*
X59037971Y-91392557D01*
X59031716Y-91371938D01*
X59029000Y-91344360D01*
X59029000Y-90885640D01*
X59031716Y-90858062D01*
X59037971Y-90837443D01*
X59048124Y-90818447D01*
X59061792Y-90801792D01*
X59078447Y-90788124D01*
X59097443Y-90777971D01*
X59118062Y-90771716D01*
X59145640Y-90769000D01*
X59654360Y-90769000D01*
X59681938Y-90771716D01*
G37*
G36*
X60781938Y-90771716D02*
G01*
X60802557Y-90777971D01*
X60821553Y-90788124D01*
X60838208Y-90801792D01*
X60851876Y-90818447D01*
X60862029Y-90837443D01*
X60868284Y-90858062D01*
X60871000Y-90885640D01*
X60871000Y-91344360D01*
X60868284Y-91371938D01*
X60862029Y-91392557D01*
X60851876Y-91411553D01*
X60838208Y-91428208D01*
X60821553Y-91441876D01*
X60802557Y-91452029D01*
X60781938Y-91458284D01*
X60754360Y-91461000D01*
X60245640Y-91461000D01*
X60218062Y-91458284D01*
X60197443Y-91452029D01*
X60178447Y-91441876D01*
X60161792Y-91428208D01*
X60148124Y-91411553D01*
X60137971Y-91392557D01*
X60131716Y-91371938D01*
X60129000Y-91344360D01*
X60129000Y-90885640D01*
X60131716Y-90858062D01*
X60137971Y-90837443D01*
X60148124Y-90818447D01*
X60161792Y-90801792D01*
X60178447Y-90788124D01*
X60197443Y-90777971D01*
X60218062Y-90771716D01*
X60245640Y-90769000D01*
X60754360Y-90769000D01*
X60781938Y-90771716D01*
G37*
G36*
X64201000Y-89726000D02*
G01*
X57799000Y-89726000D01*
X57799000Y-88174000D01*
X64201000Y-88174000D01*
X64201000Y-89726000D01*
G37*
G36*
X32364499Y-88203445D02*
G01*
X32401995Y-88214820D01*
X32436554Y-88233292D01*
X32466847Y-88258153D01*
X32491708Y-88288446D01*
X32510180Y-88323005D01*
X32521555Y-88360501D01*
X32526000Y-88405638D01*
X32526000Y-89144362D01*
X32521555Y-89189499D01*
X32510180Y-89226995D01*
X32491708Y-89261554D01*
X32466847Y-89291847D01*
X32436554Y-89316708D01*
X32401995Y-89335180D01*
X32364499Y-89346555D01*
X32319362Y-89351000D01*
X31680638Y-89351000D01*
X31635501Y-89346555D01*
X31598005Y-89335180D01*
X31563446Y-89316708D01*
X31533153Y-89291847D01*
X31508292Y-89261554D01*
X31489820Y-89226995D01*
X31478445Y-89189499D01*
X31474000Y-89144362D01*
X31474000Y-88405638D01*
X31478445Y-88360501D01*
X31489820Y-88323005D01*
X31508292Y-88288446D01*
X31533153Y-88258153D01*
X31563446Y-88233292D01*
X31598005Y-88214820D01*
X31635501Y-88203445D01*
X31680638Y-88199000D01*
X32319362Y-88199000D01*
X32364499Y-88203445D01*
G37*
G36*
X34354591Y-88178085D02*
G01*
X34388569Y-88188393D01*
X34419890Y-88205134D01*
X34447339Y-88227661D01*
X34469866Y-88255110D01*
X34486607Y-88286431D01*
X34496915Y-88320409D01*
X34501000Y-88361890D01*
X34501000Y-89038110D01*
X34496915Y-89079591D01*
X34486607Y-89113569D01*
X34469866Y-89144890D01*
X34447339Y-89172339D01*
X34419890Y-89194866D01*
X34388569Y-89211607D01*
X34354591Y-89221915D01*
X34313110Y-89226000D01*
X33711890Y-89226000D01*
X33670409Y-89221915D01*
X33636431Y-89211607D01*
X33605110Y-89194866D01*
X33577661Y-89172339D01*
X33555134Y-89144890D01*
X33538393Y-89113569D01*
X33528085Y-89079591D01*
X33524000Y-89038110D01*
X33524000Y-88361890D01*
X33528085Y-88320409D01*
X33538393Y-88286431D01*
X33555134Y-88255110D01*
X33577661Y-88227661D01*
X33605110Y-88205134D01*
X33636431Y-88188393D01*
X33670409Y-88178085D01*
X33711890Y-88174000D01*
X34313110Y-88174000D01*
X34354591Y-88178085D01*
G37*
G36*
X35929591Y-88178085D02*
G01*
X35963569Y-88188393D01*
X35994890Y-88205134D01*
X36022339Y-88227661D01*
X36044866Y-88255110D01*
X36061607Y-88286431D01*
X36071915Y-88320409D01*
X36076000Y-88361890D01*
X36076000Y-89038110D01*
X36071915Y-89079591D01*
X36061607Y-89113569D01*
X36044866Y-89144890D01*
X36022339Y-89172339D01*
X35994890Y-89194866D01*
X35963569Y-89211607D01*
X35929591Y-89221915D01*
X35888110Y-89226000D01*
X35286890Y-89226000D01*
X35245409Y-89221915D01*
X35211431Y-89211607D01*
X35180110Y-89194866D01*
X35152661Y-89172339D01*
X35130134Y-89144890D01*
X35113393Y-89113569D01*
X35103085Y-89079591D01*
X35099000Y-89038110D01*
X35099000Y-88361890D01*
X35103085Y-88320409D01*
X35113393Y-88286431D01*
X35130134Y-88255110D01*
X35152661Y-88227661D01*
X35180110Y-88205134D01*
X35211431Y-88188393D01*
X35245409Y-88178085D01*
X35286890Y-88174000D01*
X35888110Y-88174000D01*
X35929591Y-88178085D01*
G37*
G36*
X56781938Y-88341716D02*
G01*
X56802557Y-88347971D01*
X56821553Y-88358124D01*
X56838208Y-88371792D01*
X56851876Y-88388447D01*
X56862029Y-88407443D01*
X56868284Y-88428062D01*
X56871000Y-88455640D01*
X56871000Y-88914360D01*
X56868284Y-88941938D01*
X56862029Y-88962557D01*
X56851876Y-88981553D01*
X56838208Y-88998208D01*
X56821553Y-89011876D01*
X56802557Y-89022029D01*
X56781938Y-89028284D01*
X56754360Y-89031000D01*
X56245640Y-89031000D01*
X56218062Y-89028284D01*
X56197443Y-89022029D01*
X56178447Y-89011876D01*
X56161792Y-88998208D01*
X56148124Y-88981553D01*
X56137971Y-88962557D01*
X56131716Y-88941938D01*
X56129000Y-88914360D01*
X56129000Y-88455640D01*
X56131716Y-88428062D01*
X56137971Y-88407443D01*
X56148124Y-88388447D01*
X56161792Y-88371792D01*
X56178447Y-88358124D01*
X56197443Y-88347971D01*
X56218062Y-88341716D01*
X56245640Y-88339000D01*
X56754360Y-88339000D01*
X56781938Y-88341716D01*
G37*
G36*
X47571938Y-87631716D02*
G01*
X47592557Y-87637971D01*
X47611553Y-87648124D01*
X47628208Y-87661792D01*
X47641876Y-87678447D01*
X47652029Y-87697443D01*
X47658284Y-87718062D01*
X47661000Y-87745640D01*
X47661000Y-88254360D01*
X47658284Y-88281938D01*
X47652029Y-88302557D01*
X47641876Y-88321553D01*
X47628208Y-88338208D01*
X47611553Y-88351876D01*
X47592557Y-88362029D01*
X47571938Y-88368284D01*
X47544360Y-88371000D01*
X47085640Y-88371000D01*
X47058062Y-88368284D01*
X47037443Y-88362029D01*
X47018447Y-88351876D01*
X47001792Y-88338208D01*
X46988124Y-88321553D01*
X46977971Y-88302557D01*
X46971716Y-88281938D01*
X46969000Y-88254360D01*
X46969000Y-87745640D01*
X46971716Y-87718062D01*
X46977971Y-87697443D01*
X46988124Y-87678447D01*
X47001792Y-87661792D01*
X47018447Y-87648124D01*
X47037443Y-87637971D01*
X47058062Y-87631716D01*
X47085640Y-87629000D01*
X47544360Y-87629000D01*
X47571938Y-87631716D01*
G37*
G36*
X48541938Y-87631716D02*
G01*
X48562557Y-87637971D01*
X48581553Y-87648124D01*
X48598208Y-87661792D01*
X48611876Y-87678447D01*
X48622029Y-87697443D01*
X48628284Y-87718062D01*
X48631000Y-87745640D01*
X48631000Y-88254360D01*
X48628284Y-88281938D01*
X48622029Y-88302557D01*
X48611876Y-88321553D01*
X48598208Y-88338208D01*
X48581553Y-88351876D01*
X48562557Y-88362029D01*
X48541938Y-88368284D01*
X48514360Y-88371000D01*
X48055640Y-88371000D01*
X48028062Y-88368284D01*
X48007443Y-88362029D01*
X47988447Y-88351876D01*
X47971792Y-88338208D01*
X47958124Y-88321553D01*
X47947971Y-88302557D01*
X47941716Y-88281938D01*
X47939000Y-88254360D01*
X47939000Y-87745640D01*
X47941716Y-87718062D01*
X47947971Y-87697443D01*
X47958124Y-87678447D01*
X47971792Y-87661792D01*
X47988447Y-87648124D01*
X48007443Y-87637971D01*
X48028062Y-87631716D01*
X48055640Y-87629000D01*
X48514360Y-87629000D01*
X48541938Y-87631716D01*
G37*
G36*
X56781938Y-87371716D02*
G01*
X56802557Y-87377971D01*
X56821553Y-87388124D01*
X56838208Y-87401792D01*
X56851876Y-87418447D01*
X56862029Y-87437443D01*
X56868284Y-87458062D01*
X56871000Y-87485640D01*
X56871000Y-87944360D01*
X56868284Y-87971938D01*
X56862029Y-87992557D01*
X56851876Y-88011553D01*
X56838208Y-88028208D01*
X56821553Y-88041876D01*
X56802557Y-88052029D01*
X56781938Y-88058284D01*
X56754360Y-88061000D01*
X56245640Y-88061000D01*
X56218062Y-88058284D01*
X56197443Y-88052029D01*
X56178447Y-88041876D01*
X56161792Y-88028208D01*
X56148124Y-88011553D01*
X56137971Y-87992557D01*
X56131716Y-87971938D01*
X56129000Y-87944360D01*
X56129000Y-87485640D01*
X56131716Y-87458062D01*
X56137971Y-87437443D01*
X56148124Y-87418447D01*
X56161792Y-87401792D01*
X56178447Y-87388124D01*
X56197443Y-87377971D01*
X56218062Y-87371716D01*
X56245640Y-87369000D01*
X56754360Y-87369000D01*
X56781938Y-87371716D01*
G37*
G36*
X32364499Y-86453445D02*
G01*
X32401995Y-86464820D01*
X32436554Y-86483292D01*
X32466847Y-86508153D01*
X32491708Y-86538446D01*
X32510180Y-86573005D01*
X32521555Y-86610501D01*
X32526000Y-86655638D01*
X32526000Y-87394362D01*
X32521555Y-87439499D01*
X32510180Y-87476995D01*
X32491708Y-87511554D01*
X32466847Y-87541847D01*
X32436554Y-87566708D01*
X32401995Y-87585180D01*
X32364499Y-87596555D01*
X32319362Y-87601000D01*
X31680638Y-87601000D01*
X31635501Y-87596555D01*
X31598005Y-87585180D01*
X31563446Y-87566708D01*
X31533153Y-87541847D01*
X31508292Y-87511554D01*
X31489820Y-87476995D01*
X31478445Y-87439499D01*
X31474000Y-87394362D01*
X31474000Y-86655638D01*
X31478445Y-86610501D01*
X31489820Y-86573005D01*
X31508292Y-86538446D01*
X31533153Y-86508153D01*
X31563446Y-86483292D01*
X31598005Y-86464820D01*
X31635501Y-86453445D01*
X31680638Y-86449000D01*
X32319362Y-86449000D01*
X32364499Y-86453445D01*
G37*
G36*
X34201000Y-87301000D02*
G01*
X33299000Y-87301000D01*
X33299000Y-86299000D01*
X34201000Y-86299000D01*
X34201000Y-87301000D01*
G37*
G36*
X36101000Y-87301000D02*
G01*
X35199000Y-87301000D01*
X35199000Y-86299000D01*
X36101000Y-86299000D01*
X36101000Y-87301000D01*
G37*
G36*
X43681938Y-85341716D02*
G01*
X43702557Y-85347971D01*
X43721553Y-85358124D01*
X43738208Y-85371792D01*
X43751876Y-85388447D01*
X43762029Y-85407443D01*
X43768284Y-85428062D01*
X43771000Y-85455640D01*
X43771000Y-85914360D01*
X43768284Y-85941938D01*
X43762029Y-85962557D01*
X43751876Y-85981553D01*
X43738208Y-85998208D01*
X43721553Y-86011876D01*
X43702557Y-86022029D01*
X43681938Y-86028284D01*
X43654360Y-86031000D01*
X43145640Y-86031000D01*
X43118062Y-86028284D01*
X43097443Y-86022029D01*
X43078447Y-86011876D01*
X43061792Y-85998208D01*
X43048124Y-85981553D01*
X43037971Y-85962557D01*
X43031716Y-85941938D01*
X43029000Y-85914360D01*
X43029000Y-85455640D01*
X43031716Y-85428062D01*
X43037971Y-85407443D01*
X43048124Y-85388447D01*
X43061792Y-85371792D01*
X43078447Y-85358124D01*
X43097443Y-85347971D01*
X43118062Y-85341716D01*
X43145640Y-85339000D01*
X43654360Y-85339000D01*
X43681938Y-85341716D01*
G37*
G36*
X37886938Y-85231716D02*
G01*
X37907557Y-85237971D01*
X37926553Y-85248124D01*
X37943208Y-85261792D01*
X37956876Y-85278447D01*
X37967029Y-85297443D01*
X37973284Y-85318062D01*
X37976000Y-85345640D01*
X37976000Y-85854360D01*
X37973284Y-85881938D01*
X37967029Y-85902557D01*
X37956876Y-85921553D01*
X37943208Y-85938208D01*
X37926553Y-85951876D01*
X37907557Y-85962029D01*
X37886938Y-85968284D01*
X37859360Y-85971000D01*
X37400640Y-85971000D01*
X37373062Y-85968284D01*
X37352443Y-85962029D01*
X37333447Y-85951876D01*
X37316792Y-85938208D01*
X37303124Y-85921553D01*
X37292971Y-85902557D01*
X37286716Y-85881938D01*
X37284000Y-85854360D01*
X37284000Y-85345640D01*
X37286716Y-85318062D01*
X37292971Y-85297443D01*
X37303124Y-85278447D01*
X37316792Y-85261792D01*
X37333447Y-85248124D01*
X37352443Y-85237971D01*
X37373062Y-85231716D01*
X37400640Y-85229000D01*
X37859360Y-85229000D01*
X37886938Y-85231716D01*
G37*
G36*
X38856938Y-85231716D02*
G01*
X38877557Y-85237971D01*
X38896553Y-85248124D01*
X38913208Y-85261792D01*
X38926876Y-85278447D01*
X38937029Y-85297443D01*
X38943284Y-85318062D01*
X38946000Y-85345640D01*
X38946000Y-85854360D01*
X38943284Y-85881938D01*
X38937029Y-85902557D01*
X38926876Y-85921553D01*
X38913208Y-85938208D01*
X38896553Y-85951876D01*
X38877557Y-85962029D01*
X38856938Y-85968284D01*
X38829360Y-85971000D01*
X38370640Y-85971000D01*
X38343062Y-85968284D01*
X38322443Y-85962029D01*
X38303447Y-85951876D01*
X38286792Y-85938208D01*
X38273124Y-85921553D01*
X38262971Y-85902557D01*
X38256716Y-85881938D01*
X38254000Y-85854360D01*
X38254000Y-85345640D01*
X38256716Y-85318062D01*
X38262971Y-85297443D01*
X38273124Y-85278447D01*
X38286792Y-85261792D01*
X38303447Y-85248124D01*
X38322443Y-85237971D01*
X38343062Y-85231716D01*
X38370640Y-85229000D01*
X38829360Y-85229000D01*
X38856938Y-85231716D01*
G37*
G36*
X32481938Y-85041716D02*
G01*
X32502557Y-85047971D01*
X32521553Y-85058124D01*
X32538208Y-85071792D01*
X32551876Y-85088447D01*
X32562029Y-85107443D01*
X32568284Y-85128062D01*
X32571000Y-85155640D01*
X32571000Y-85614360D01*
X32568284Y-85641938D01*
X32562029Y-85662557D01*
X32551876Y-85681553D01*
X32538208Y-85698208D01*
X32521553Y-85711876D01*
X32502557Y-85722029D01*
X32481938Y-85728284D01*
X32454360Y-85731000D01*
X31945640Y-85731000D01*
X31918062Y-85728284D01*
X31897443Y-85722029D01*
X31878447Y-85711876D01*
X31861792Y-85698208D01*
X31848124Y-85681553D01*
X31837971Y-85662557D01*
X31831716Y-85641938D01*
X31829000Y-85614360D01*
X31829000Y-85155640D01*
X31831716Y-85128062D01*
X31837971Y-85107443D01*
X31848124Y-85088447D01*
X31861792Y-85071792D01*
X31878447Y-85058124D01*
X31897443Y-85047971D01*
X31918062Y-85041716D01*
X31945640Y-85039000D01*
X32454360Y-85039000D01*
X32481938Y-85041716D01*
G37*
G36*
X35151000Y-85301000D02*
G01*
X34249000Y-85301000D01*
X34249000Y-84299000D01*
X35151000Y-84299000D01*
X35151000Y-85301000D01*
G37*
G36*
X43681938Y-84371716D02*
G01*
X43702557Y-84377971D01*
X43721553Y-84388124D01*
X43738208Y-84401792D01*
X43751876Y-84418447D01*
X43762029Y-84437443D01*
X43768284Y-84458062D01*
X43771000Y-84485640D01*
X43771000Y-84944360D01*
X43768284Y-84971938D01*
X43762029Y-84992557D01*
X43751876Y-85011553D01*
X43738208Y-85028208D01*
X43721553Y-85041876D01*
X43702557Y-85052029D01*
X43681938Y-85058284D01*
X43654360Y-85061000D01*
X43145640Y-85061000D01*
X43118062Y-85058284D01*
X43097443Y-85052029D01*
X43078447Y-85041876D01*
X43061792Y-85028208D01*
X43048124Y-85011553D01*
X43037971Y-84992557D01*
X43031716Y-84971938D01*
X43029000Y-84944360D01*
X43029000Y-84485640D01*
X43031716Y-84458062D01*
X43037971Y-84437443D01*
X43048124Y-84418447D01*
X43061792Y-84401792D01*
X43078447Y-84388124D01*
X43097443Y-84377971D01*
X43118062Y-84371716D01*
X43145640Y-84369000D01*
X43654360Y-84369000D01*
X43681938Y-84371716D01*
G37*
G36*
X46551000Y-85051000D02*
G01*
X44449000Y-85051000D01*
X44449000Y-83449000D01*
X46551000Y-83449000D01*
X46551000Y-85051000D01*
G37*
G36*
X53551000Y-85051000D02*
G01*
X51449000Y-85051000D01*
X51449000Y-83449000D01*
X53551000Y-83449000D01*
X53551000Y-85051000D01*
G37*
G36*
X32481938Y-84071716D02*
G01*
X32502557Y-84077971D01*
X32521553Y-84088124D01*
X32538208Y-84101792D01*
X32551876Y-84118447D01*
X32562029Y-84137443D01*
X32568284Y-84158062D01*
X32571000Y-84185640D01*
X32571000Y-84644360D01*
X32568284Y-84671938D01*
X32562029Y-84692557D01*
X32551876Y-84711553D01*
X32538208Y-84728208D01*
X32521553Y-84741876D01*
X32502557Y-84752029D01*
X32481938Y-84758284D01*
X32454360Y-84761000D01*
X31945640Y-84761000D01*
X31918062Y-84758284D01*
X31897443Y-84752029D01*
X31878447Y-84741876D01*
X31861792Y-84728208D01*
X31848124Y-84711553D01*
X31837971Y-84692557D01*
X31831716Y-84671938D01*
X31829000Y-84644360D01*
X31829000Y-84185640D01*
X31831716Y-84158062D01*
X31837971Y-84137443D01*
X31848124Y-84118447D01*
X31861792Y-84101792D01*
X31878447Y-84088124D01*
X31897443Y-84077971D01*
X31918062Y-84071716D01*
X31945640Y-84069000D01*
X32454360Y-84069000D01*
X32481938Y-84071716D01*
G37*
G36*
X37967091Y-83078085D02*
G01*
X38001069Y-83088393D01*
X38032390Y-83105134D01*
X38059839Y-83127661D01*
X38082366Y-83155110D01*
X38099107Y-83186431D01*
X38109415Y-83220409D01*
X38113500Y-83261890D01*
X38113500Y-83938110D01*
X38109415Y-83979591D01*
X38099107Y-84013569D01*
X38082366Y-84044890D01*
X38059839Y-84072339D01*
X38032390Y-84094866D01*
X38001069Y-84111607D01*
X37967091Y-84121915D01*
X37925610Y-84126000D01*
X37324390Y-84126000D01*
X37282909Y-84121915D01*
X37248931Y-84111607D01*
X37217610Y-84094866D01*
X37190161Y-84072339D01*
X37167634Y-84044890D01*
X37150893Y-84013569D01*
X37140585Y-83979591D01*
X37136500Y-83938110D01*
X37136500Y-83261890D01*
X37140585Y-83220409D01*
X37150893Y-83186431D01*
X37167634Y-83155110D01*
X37190161Y-83127661D01*
X37217610Y-83105134D01*
X37248931Y-83088393D01*
X37282909Y-83078085D01*
X37324390Y-83074000D01*
X37925610Y-83074000D01*
X37967091Y-83078085D01*
G37*
G36*
X39542091Y-83078085D02*
G01*
X39576069Y-83088393D01*
X39607390Y-83105134D01*
X39634839Y-83127661D01*
X39657366Y-83155110D01*
X39674107Y-83186431D01*
X39684415Y-83220409D01*
X39688500Y-83261890D01*
X39688500Y-83938110D01*
X39684415Y-83979591D01*
X39674107Y-84013569D01*
X39657366Y-84044890D01*
X39634839Y-84072339D01*
X39607390Y-84094866D01*
X39576069Y-84111607D01*
X39542091Y-84121915D01*
X39500610Y-84126000D01*
X38899390Y-84126000D01*
X38857909Y-84121915D01*
X38823931Y-84111607D01*
X38792610Y-84094866D01*
X38765161Y-84072339D01*
X38742634Y-84044890D01*
X38725893Y-84013569D01*
X38715585Y-83979591D01*
X38711500Y-83938110D01*
X38711500Y-83261890D01*
X38715585Y-83220409D01*
X38725893Y-83186431D01*
X38742634Y-83155110D01*
X38765161Y-83127661D01*
X38792610Y-83105134D01*
X38823931Y-83088393D01*
X38857909Y-83078085D01*
X38899390Y-83074000D01*
X39500610Y-83074000D01*
X39542091Y-83078085D01*
G37*
G36*
X64201000Y-83826000D02*
G01*
X57799000Y-83826000D01*
X57799000Y-82274000D01*
X64201000Y-82274000D01*
X64201000Y-83826000D01*
G37*
G36*
X61741938Y-80631716D02*
G01*
X61762557Y-80637971D01*
X61781553Y-80648124D01*
X61798208Y-80661792D01*
X61811876Y-80678447D01*
X61822029Y-80697443D01*
X61828284Y-80718062D01*
X61831000Y-80745640D01*
X61831000Y-81254360D01*
X61828284Y-81281938D01*
X61822029Y-81302557D01*
X61811876Y-81321553D01*
X61798208Y-81338208D01*
X61781553Y-81351876D01*
X61762557Y-81362029D01*
X61741938Y-81368284D01*
X61714360Y-81371000D01*
X61255640Y-81371000D01*
X61228062Y-81368284D01*
X61207443Y-81362029D01*
X61188447Y-81351876D01*
X61171792Y-81338208D01*
X61158124Y-81321553D01*
X61147971Y-81302557D01*
X61141716Y-81281938D01*
X61139000Y-81254360D01*
X61139000Y-80745640D01*
X61141716Y-80718062D01*
X61147971Y-80697443D01*
X61158124Y-80678447D01*
X61171792Y-80661792D01*
X61188447Y-80648124D01*
X61207443Y-80637971D01*
X61228062Y-80631716D01*
X61255640Y-80629000D01*
X61714360Y-80629000D01*
X61741938Y-80631716D01*
G37*
G36*
X60771938Y-80631716D02*
G01*
X60792557Y-80637971D01*
X60811553Y-80648124D01*
X60828208Y-80661792D01*
X60841876Y-80678447D01*
X60852029Y-80697443D01*
X60858284Y-80718062D01*
X60861000Y-80745640D01*
X60861000Y-81254360D01*
X60858284Y-81281938D01*
X60852029Y-81302557D01*
X60841876Y-81321553D01*
X60828208Y-81338208D01*
X60811553Y-81351876D01*
X60792557Y-81362029D01*
X60771938Y-81368284D01*
X60744360Y-81371000D01*
X60285640Y-81371000D01*
X60258062Y-81368284D01*
X60237443Y-81362029D01*
X60218447Y-81351876D01*
X60201792Y-81338208D01*
X60188124Y-81321553D01*
X60177971Y-81302557D01*
X60171716Y-81281938D01*
X60169000Y-81254360D01*
X60169000Y-80745640D01*
X60171716Y-80718062D01*
X60177971Y-80697443D01*
X60188124Y-80678447D01*
X60201792Y-80661792D01*
X60218447Y-80648124D01*
X60237443Y-80637971D01*
X60258062Y-80631716D01*
X60285640Y-80629000D01*
X60744360Y-80629000D01*
X60771938Y-80631716D01*
G37*
G36*
X46551000Y-80551000D02*
G01*
X44449000Y-80551000D01*
X44449000Y-78949000D01*
X46551000Y-78949000D01*
X46551000Y-80551000D01*
G37*
G36*
X53551000Y-80551000D02*
G01*
X51449000Y-80551000D01*
X51449000Y-78949000D01*
X53551000Y-78949000D01*
X53551000Y-80551000D01*
G37*
G36*
X60771938Y-79531716D02*
G01*
X60792557Y-79537971D01*
X60811553Y-79548124D01*
X60828208Y-79561792D01*
X60841876Y-79578447D01*
X60852029Y-79597443D01*
X60858284Y-79618062D01*
X60861000Y-79645640D01*
X60861000Y-80154360D01*
X60858284Y-80181938D01*
X60852029Y-80202557D01*
X60841876Y-80221553D01*
X60828208Y-80238208D01*
X60811553Y-80251876D01*
X60792557Y-80262029D01*
X60771938Y-80268284D01*
X60744360Y-80271000D01*
X60285640Y-80271000D01*
X60258062Y-80268284D01*
X60237443Y-80262029D01*
X60218447Y-80251876D01*
X60201792Y-80238208D01*
X60188124Y-80221553D01*
X60177971Y-80202557D01*
X60171716Y-80181938D01*
X60169000Y-80154360D01*
X60169000Y-79645640D01*
X60171716Y-79618062D01*
X60177971Y-79597443D01*
X60188124Y-79578447D01*
X60201792Y-79561792D01*
X60218447Y-79548124D01*
X60237443Y-79537971D01*
X60258062Y-79531716D01*
X60285640Y-79529000D01*
X60744360Y-79529000D01*
X60771938Y-79531716D01*
G37*
G36*
X61741938Y-79531716D02*
G01*
X61762557Y-79537971D01*
X61781553Y-79548124D01*
X61798208Y-79561792D01*
X61811876Y-79578447D01*
X61822029Y-79597443D01*
X61828284Y-79618062D01*
X61831000Y-79645640D01*
X61831000Y-80154360D01*
X61828284Y-80181938D01*
X61822029Y-80202557D01*
X61811876Y-80221553D01*
X61798208Y-80238208D01*
X61781553Y-80251876D01*
X61762557Y-80262029D01*
X61741938Y-80268284D01*
X61714360Y-80271000D01*
X61255640Y-80271000D01*
X61228062Y-80268284D01*
X61207443Y-80262029D01*
X61188447Y-80251876D01*
X61171792Y-80238208D01*
X61158124Y-80221553D01*
X61147971Y-80202557D01*
X61141716Y-80181938D01*
X61139000Y-80154360D01*
X61139000Y-79645640D01*
X61141716Y-79618062D01*
X61147971Y-79597443D01*
X61158124Y-79578447D01*
X61171792Y-79561792D01*
X61188447Y-79548124D01*
X61207443Y-79537971D01*
X61228062Y-79531716D01*
X61255640Y-79529000D01*
X61714360Y-79529000D01*
X61741938Y-79531716D01*
G37*
G36*
X32871938Y-78431716D02*
G01*
X32892557Y-78437971D01*
X32911553Y-78448124D01*
X32928208Y-78461792D01*
X32941876Y-78478447D01*
X32952029Y-78497443D01*
X32958284Y-78518062D01*
X32961000Y-78545640D01*
X32961000Y-79054360D01*
X32958284Y-79081938D01*
X32952029Y-79102557D01*
X32941876Y-79121553D01*
X32928208Y-79138208D01*
X32911553Y-79151876D01*
X32892557Y-79162029D01*
X32871938Y-79168284D01*
X32844360Y-79171000D01*
X32385640Y-79171000D01*
X32358062Y-79168284D01*
X32337443Y-79162029D01*
X32318447Y-79151876D01*
X32301792Y-79138208D01*
X32288124Y-79121553D01*
X32277971Y-79102557D01*
X32271716Y-79081938D01*
X32269000Y-79054360D01*
X32269000Y-78545640D01*
X32271716Y-78518062D01*
X32277971Y-78497443D01*
X32288124Y-78478447D01*
X32301792Y-78461792D01*
X32318447Y-78448124D01*
X32337443Y-78437971D01*
X32358062Y-78431716D01*
X32385640Y-78429000D01*
X32844360Y-78429000D01*
X32871938Y-78431716D01*
G37*
G36*
X33841938Y-78431716D02*
G01*
X33862557Y-78437971D01*
X33881553Y-78448124D01*
X33898208Y-78461792D01*
X33911876Y-78478447D01*
X33922029Y-78497443D01*
X33928284Y-78518062D01*
X33931000Y-78545640D01*
X33931000Y-79054360D01*
X33928284Y-79081938D01*
X33922029Y-79102557D01*
X33911876Y-79121553D01*
X33898208Y-79138208D01*
X33881553Y-79151876D01*
X33862557Y-79162029D01*
X33841938Y-79168284D01*
X33814360Y-79171000D01*
X33355640Y-79171000D01*
X33328062Y-79168284D01*
X33307443Y-79162029D01*
X33288447Y-79151876D01*
X33271792Y-79138208D01*
X33258124Y-79121553D01*
X33247971Y-79102557D01*
X33241716Y-79081938D01*
X33239000Y-79054360D01*
X33239000Y-78545640D01*
X33241716Y-78518062D01*
X33247971Y-78497443D01*
X33258124Y-78478447D01*
X33271792Y-78461792D01*
X33288447Y-78448124D01*
X33307443Y-78437971D01*
X33328062Y-78431716D01*
X33355640Y-78429000D01*
X33814360Y-78429000D01*
X33841938Y-78431716D01*
G37*
G36*
X66113512Y-76723927D02*
G01*
X66262812Y-76753624D01*
X66426784Y-76821544D01*
X66574354Y-76920147D01*
X66699853Y-77045646D01*
X66798456Y-77193216D01*
X66866376Y-77357188D01*
X66891152Y-77481750D01*
X66900631Y-77529401D01*
X66901000Y-77531259D01*
X66901000Y-77708741D01*
X66866376Y-77882812D01*
X66798456Y-78046784D01*
X66699853Y-78194354D01*
X66574354Y-78319853D01*
X66426784Y-78418456D01*
X66262812Y-78486376D01*
X66113512Y-78516073D01*
X66088742Y-78521000D01*
X65911258Y-78521000D01*
X65886488Y-78516073D01*
X65737188Y-78486376D01*
X65573216Y-78418456D01*
X65425646Y-78319853D01*
X65300147Y-78194354D01*
X65201544Y-78046784D01*
X65133624Y-77882812D01*
X65099000Y-77708741D01*
X65099000Y-77531259D01*
X65099370Y-77529401D01*
X65108848Y-77481750D01*
X65133624Y-77357188D01*
X65201544Y-77193216D01*
X65300147Y-77045646D01*
X65425646Y-76920147D01*
X65573216Y-76821544D01*
X65737188Y-76753624D01*
X65886488Y-76723927D01*
X65911258Y-76719000D01*
X66088742Y-76719000D01*
X66113512Y-76723927D01*
G37*
G36*
X32654591Y-76678085D02*
G01*
X32688569Y-76688393D01*
X32719890Y-76705134D01*
X32747339Y-76727661D01*
X32769866Y-76755110D01*
X32786607Y-76786431D01*
X32796915Y-76820409D01*
X32801000Y-76861890D01*
X32801000Y-77538110D01*
X32796915Y-77579591D01*
X32786607Y-77613569D01*
X32769866Y-77644890D01*
X32747339Y-77672339D01*
X32719890Y-77694866D01*
X32688569Y-77711607D01*
X32654591Y-77721915D01*
X32613110Y-77726000D01*
X32011890Y-77726000D01*
X31970409Y-77721915D01*
X31936431Y-77711607D01*
X31905110Y-77694866D01*
X31877661Y-77672339D01*
X31855134Y-77644890D01*
X31838393Y-77613569D01*
X31828085Y-77579591D01*
X31824000Y-77538110D01*
X31824000Y-76861890D01*
X31828085Y-76820409D01*
X31838393Y-76786431D01*
X31855134Y-76755110D01*
X31877661Y-76727661D01*
X31905110Y-76705134D01*
X31936431Y-76688393D01*
X31970409Y-76678085D01*
X32011890Y-76674000D01*
X32613110Y-76674000D01*
X32654591Y-76678085D01*
G37*
G36*
X34229591Y-76678085D02*
G01*
X34263569Y-76688393D01*
X34294890Y-76705134D01*
X34322339Y-76727661D01*
X34344866Y-76755110D01*
X34361607Y-76786431D01*
X34371915Y-76820409D01*
X34376000Y-76861890D01*
X34376000Y-77538110D01*
X34371915Y-77579591D01*
X34361607Y-77613569D01*
X34344866Y-77644890D01*
X34322339Y-77672339D01*
X34294890Y-77694866D01*
X34263569Y-77711607D01*
X34229591Y-77721915D01*
X34188110Y-77726000D01*
X33586890Y-77726000D01*
X33545409Y-77721915D01*
X33511431Y-77711607D01*
X33480110Y-77694866D01*
X33452661Y-77672339D01*
X33430134Y-77644890D01*
X33413393Y-77613569D01*
X33403085Y-77579591D01*
X33399000Y-77538110D01*
X33399000Y-76861890D01*
X33403085Y-76820409D01*
X33413393Y-76786431D01*
X33430134Y-76755110D01*
X33452661Y-76727661D01*
X33480110Y-76705134D01*
X33511431Y-76688393D01*
X33545409Y-76678085D01*
X33586890Y-76674000D01*
X34188110Y-76674000D01*
X34229591Y-76678085D01*
G37*
G36*
X66113512Y-74183927D02*
G01*
X66262812Y-74213624D01*
X66426784Y-74281544D01*
X66574354Y-74380147D01*
X66699853Y-74505646D01*
X66798456Y-74653216D01*
X66866376Y-74817188D01*
X66901000Y-74991259D01*
X66901000Y-75168741D01*
X66866376Y-75342812D01*
X66798456Y-75506784D01*
X66699853Y-75654354D01*
X66574354Y-75779853D01*
X66426784Y-75878456D01*
X66262812Y-75946376D01*
X66113512Y-75976073D01*
X66088742Y-75981000D01*
X65911258Y-75981000D01*
X65886488Y-75976073D01*
X65737188Y-75946376D01*
X65573216Y-75878456D01*
X65425646Y-75779853D01*
X65300147Y-75654354D01*
X65201544Y-75506784D01*
X65133624Y-75342812D01*
X65099000Y-75168741D01*
X65099000Y-74991259D01*
X65133624Y-74817188D01*
X65201544Y-74653216D01*
X65300147Y-74505646D01*
X65425646Y-74380147D01*
X65573216Y-74281544D01*
X65737188Y-74213624D01*
X65886488Y-74183927D01*
X65911258Y-74179000D01*
X66088742Y-74179000D01*
X66113512Y-74183927D01*
G37*
G36*
X34229591Y-74778085D02*
G01*
X34263569Y-74788393D01*
X34294890Y-74805134D01*
X34322339Y-74827661D01*
X34344866Y-74855110D01*
X34361607Y-74886431D01*
X34371915Y-74920409D01*
X34376000Y-74961890D01*
X34376000Y-75638110D01*
X34371915Y-75679591D01*
X34361607Y-75713569D01*
X34344866Y-75744890D01*
X34322339Y-75772339D01*
X34294890Y-75794866D01*
X34263569Y-75811607D01*
X34229591Y-75821915D01*
X34188110Y-75826000D01*
X33586890Y-75826000D01*
X33545409Y-75821915D01*
X33511431Y-75811607D01*
X33480110Y-75794866D01*
X33452661Y-75772339D01*
X33430134Y-75744890D01*
X33413393Y-75713569D01*
X33403085Y-75679591D01*
X33399000Y-75638110D01*
X33399000Y-74961890D01*
X33403085Y-74920409D01*
X33413393Y-74886431D01*
X33430134Y-74855110D01*
X33452661Y-74827661D01*
X33480110Y-74805134D01*
X33511431Y-74788393D01*
X33545409Y-74778085D01*
X33586890Y-74774000D01*
X34188110Y-74774000D01*
X34229591Y-74778085D01*
G37*
G36*
X32654591Y-74778085D02*
G01*
X32688569Y-74788393D01*
X32719890Y-74805134D01*
X32747339Y-74827661D01*
X32769866Y-74855110D01*
X32786607Y-74886431D01*
X32796915Y-74920409D01*
X32801000Y-74961890D01*
X32801000Y-75638110D01*
X32796915Y-75679591D01*
X32786607Y-75713569D01*
X32769866Y-75744890D01*
X32747339Y-75772339D01*
X32719890Y-75794866D01*
X32688569Y-75811607D01*
X32654591Y-75821915D01*
X32613110Y-75826000D01*
X32011890Y-75826000D01*
X31970409Y-75821915D01*
X31936431Y-75811607D01*
X31905110Y-75794866D01*
X31877661Y-75772339D01*
X31855134Y-75744890D01*
X31838393Y-75713569D01*
X31828085Y-75679591D01*
X31824000Y-75638110D01*
X31824000Y-74961890D01*
X31828085Y-74920409D01*
X31838393Y-74886431D01*
X31855134Y-74855110D01*
X31877661Y-74827661D01*
X31905110Y-74805134D01*
X31936431Y-74788393D01*
X31970409Y-74778085D01*
X32011890Y-74774000D01*
X32613110Y-74774000D01*
X32654591Y-74778085D01*
G37*
G36*
X66113512Y-71643927D02*
G01*
X66262812Y-71673624D01*
X66426784Y-71741544D01*
X66574354Y-71840147D01*
X66699853Y-71965646D01*
X66798456Y-72113216D01*
X66866376Y-72277188D01*
X66901000Y-72451259D01*
X66901000Y-72628741D01*
X66866376Y-72802812D01*
X66798456Y-72966784D01*
X66699853Y-73114354D01*
X66574354Y-73239853D01*
X66426784Y-73338456D01*
X66262812Y-73406376D01*
X66113512Y-73436073D01*
X66088742Y-73441000D01*
X65911258Y-73441000D01*
X65886488Y-73436073D01*
X65737188Y-73406376D01*
X65573216Y-73338456D01*
X65425646Y-73239853D01*
X65300147Y-73114354D01*
X65201544Y-72966784D01*
X65133624Y-72802812D01*
X65099000Y-72628741D01*
X65099000Y-72451259D01*
X65133624Y-72277188D01*
X65201544Y-72113216D01*
X65300147Y-71965646D01*
X65425646Y-71840147D01*
X65573216Y-71741544D01*
X65737188Y-71673624D01*
X65886488Y-71643927D01*
X65911258Y-71639000D01*
X66088742Y-71639000D01*
X66113512Y-71643927D01*
G37*
G36*
X35529591Y-70078085D02*
G01*
X35563569Y-70088393D01*
X35594890Y-70105134D01*
X35622339Y-70127661D01*
X35644866Y-70155110D01*
X35661607Y-70186431D01*
X35671915Y-70220409D01*
X35676000Y-70261890D01*
X35676000Y-70938110D01*
X35671915Y-70979591D01*
X35661607Y-71013569D01*
X35644866Y-71044890D01*
X35622339Y-71072339D01*
X35594890Y-71094866D01*
X35563569Y-71111607D01*
X35529591Y-71121915D01*
X35488110Y-71126000D01*
X34886890Y-71126000D01*
X34845409Y-71121915D01*
X34811431Y-71111607D01*
X34780110Y-71094866D01*
X34752661Y-71072339D01*
X34730134Y-71044890D01*
X34713393Y-71013569D01*
X34703085Y-70979591D01*
X34699000Y-70938110D01*
X34699000Y-70261890D01*
X34703085Y-70220409D01*
X34713393Y-70186431D01*
X34730134Y-70155110D01*
X34752661Y-70127661D01*
X34780110Y-70105134D01*
X34811431Y-70088393D01*
X34845409Y-70078085D01*
X34886890Y-70074000D01*
X35488110Y-70074000D01*
X35529591Y-70078085D01*
G37*
G36*
X33954591Y-70078085D02*
G01*
X33988569Y-70088393D01*
X34019890Y-70105134D01*
X34047339Y-70127661D01*
X34069866Y-70155110D01*
X34086607Y-70186431D01*
X34096915Y-70220409D01*
X34101000Y-70261890D01*
X34101000Y-70938110D01*
X34096915Y-70979591D01*
X34086607Y-71013569D01*
X34069866Y-71044890D01*
X34047339Y-71072339D01*
X34019890Y-71094866D01*
X33988569Y-71111607D01*
X33954591Y-71121915D01*
X33913110Y-71126000D01*
X33311890Y-71126000D01*
X33270409Y-71121915D01*
X33236431Y-71111607D01*
X33205110Y-71094866D01*
X33177661Y-71072339D01*
X33155134Y-71044890D01*
X33138393Y-71013569D01*
X33128085Y-70979591D01*
X33124000Y-70938110D01*
X33124000Y-70261890D01*
X33128085Y-70220409D01*
X33138393Y-70186431D01*
X33155134Y-70155110D01*
X33177661Y-70127661D01*
X33205110Y-70105134D01*
X33236431Y-70088393D01*
X33270409Y-70078085D01*
X33311890Y-70074000D01*
X33913110Y-70074000D01*
X33954591Y-70078085D01*
G37*
G36*
X31964499Y-69803445D02*
G01*
X32001995Y-69814820D01*
X32036554Y-69833292D01*
X32066847Y-69858153D01*
X32091708Y-69888446D01*
X32110180Y-69923005D01*
X32121555Y-69960501D01*
X32126000Y-70005638D01*
X32126000Y-70744362D01*
X32121555Y-70789499D01*
X32110180Y-70826995D01*
X32091708Y-70861554D01*
X32066847Y-70891847D01*
X32036554Y-70916708D01*
X32001995Y-70935180D01*
X31964499Y-70946555D01*
X31919362Y-70951000D01*
X31280638Y-70951000D01*
X31235501Y-70946555D01*
X31198005Y-70935180D01*
X31163446Y-70916708D01*
X31133153Y-70891847D01*
X31108292Y-70861554D01*
X31089820Y-70826995D01*
X31078445Y-70789499D01*
X31074000Y-70744362D01*
X31074000Y-70005638D01*
X31078445Y-69960501D01*
X31089820Y-69923005D01*
X31108292Y-69888446D01*
X31133153Y-69858153D01*
X31163446Y-69833292D01*
X31198005Y-69814820D01*
X31235501Y-69803445D01*
X31280638Y-69799000D01*
X31919362Y-69799000D01*
X31964499Y-69803445D01*
G37*
G36*
X66901000Y-70901000D02*
G01*
X65099000Y-70901000D01*
X65099000Y-69099000D01*
X66901000Y-69099000D01*
X66901000Y-70901000D01*
G37*
G36*
X31964499Y-68053445D02*
G01*
X32001995Y-68064820D01*
X32036554Y-68083292D01*
X32066847Y-68108153D01*
X32091708Y-68138446D01*
X32110180Y-68173005D01*
X32121555Y-68210501D01*
X32126000Y-68255638D01*
X32126000Y-68994362D01*
X32121555Y-69039499D01*
X32110180Y-69076995D01*
X32091708Y-69111554D01*
X32066847Y-69141847D01*
X32036554Y-69166708D01*
X32001995Y-69185180D01*
X31964499Y-69196555D01*
X31919362Y-69201000D01*
X31280638Y-69201000D01*
X31235501Y-69196555D01*
X31198005Y-69185180D01*
X31163446Y-69166708D01*
X31133153Y-69141847D01*
X31108292Y-69111554D01*
X31089820Y-69076995D01*
X31078445Y-69039499D01*
X31074000Y-68994362D01*
X31074000Y-68255638D01*
X31078445Y-68210501D01*
X31089820Y-68173005D01*
X31108292Y-68138446D01*
X31133153Y-68108153D01*
X31163446Y-68083292D01*
X31198005Y-68064820D01*
X31235501Y-68053445D01*
X31280638Y-68049000D01*
X31919362Y-68049000D01*
X31964499Y-68053445D01*
G37*
G36*
X33801000Y-69101000D02*
G01*
X32899000Y-69101000D01*
X32899000Y-68099000D01*
X33801000Y-68099000D01*
X33801000Y-69101000D01*
G37*
G36*
X35701000Y-69101000D02*
G01*
X34799000Y-69101000D01*
X34799000Y-68099000D01*
X35701000Y-68099000D01*
X35701000Y-69101000D01*
G37*
G36*
X53551000Y-69051000D02*
G01*
X51449000Y-69051000D01*
X51449000Y-67449000D01*
X53551000Y-67449000D01*
X53551000Y-69051000D01*
G37*
G36*
X46551000Y-69051000D02*
G01*
X44449000Y-69051000D01*
X44449000Y-67449000D01*
X46551000Y-67449000D01*
X46551000Y-69051000D01*
G37*
G36*
X43781938Y-67841716D02*
G01*
X43802557Y-67847971D01*
X43821553Y-67858124D01*
X43838208Y-67871792D01*
X43851876Y-67888447D01*
X43862029Y-67907443D01*
X43868284Y-67928062D01*
X43871000Y-67955640D01*
X43871000Y-68414360D01*
X43868284Y-68441938D01*
X43862029Y-68462557D01*
X43851876Y-68481553D01*
X43838208Y-68498208D01*
X43821553Y-68511876D01*
X43802557Y-68522029D01*
X43781938Y-68528284D01*
X43754360Y-68531000D01*
X43245640Y-68531000D01*
X43218062Y-68528284D01*
X43197443Y-68522029D01*
X43178447Y-68511876D01*
X43161792Y-68498208D01*
X43148124Y-68481553D01*
X43137971Y-68462557D01*
X43131716Y-68441938D01*
X43129000Y-68414360D01*
X43129000Y-67955640D01*
X43131716Y-67928062D01*
X43137971Y-67907443D01*
X43148124Y-67888447D01*
X43161792Y-67871792D01*
X43178447Y-67858124D01*
X43197443Y-67847971D01*
X43218062Y-67841716D01*
X43245640Y-67839000D01*
X43754360Y-67839000D01*
X43781938Y-67841716D01*
G37*
G36*
X37081938Y-67741716D02*
G01*
X37102557Y-67747971D01*
X37121553Y-67758124D01*
X37138208Y-67771792D01*
X37151876Y-67788447D01*
X37162029Y-67807443D01*
X37168284Y-67828062D01*
X37171000Y-67855640D01*
X37171000Y-68314360D01*
X37168284Y-68341938D01*
X37162029Y-68362557D01*
X37151876Y-68381553D01*
X37138208Y-68398208D01*
X37121553Y-68411876D01*
X37102557Y-68422029D01*
X37081938Y-68428284D01*
X37054360Y-68431000D01*
X36545640Y-68431000D01*
X36518062Y-68428284D01*
X36497443Y-68422029D01*
X36478447Y-68411876D01*
X36461792Y-68398208D01*
X36448124Y-68381553D01*
X36437971Y-68362557D01*
X36431716Y-68341938D01*
X36429000Y-68314360D01*
X36429000Y-67855640D01*
X36431716Y-67828062D01*
X36437971Y-67807443D01*
X36448124Y-67788447D01*
X36461792Y-67771792D01*
X36478447Y-67758124D01*
X36497443Y-67747971D01*
X36518062Y-67741716D01*
X36545640Y-67739000D01*
X37054360Y-67739000D01*
X37081938Y-67741716D01*
G37*
G36*
X43781938Y-66871716D02*
G01*
X43802557Y-66877971D01*
X43821553Y-66888124D01*
X43838208Y-66901792D01*
X43851876Y-66918447D01*
X43862029Y-66937443D01*
X43868284Y-66958062D01*
X43871000Y-66985640D01*
X43871000Y-67444360D01*
X43868284Y-67471938D01*
X43862029Y-67492557D01*
X43851876Y-67511553D01*
X43838208Y-67528208D01*
X43821553Y-67541876D01*
X43802557Y-67552029D01*
X43781938Y-67558284D01*
X43754360Y-67561000D01*
X43245640Y-67561000D01*
X43218062Y-67558284D01*
X43197443Y-67552029D01*
X43178447Y-67541876D01*
X43161792Y-67528208D01*
X43148124Y-67511553D01*
X43137971Y-67492557D01*
X43131716Y-67471938D01*
X43129000Y-67444360D01*
X43129000Y-66985640D01*
X43131716Y-66958062D01*
X43137971Y-66937443D01*
X43148124Y-66918447D01*
X43161792Y-66901792D01*
X43178447Y-66888124D01*
X43197443Y-66877971D01*
X43218062Y-66871716D01*
X43245640Y-66869000D01*
X43754360Y-66869000D01*
X43781938Y-66871716D01*
G37*
G36*
X37081938Y-66771716D02*
G01*
X37102557Y-66777971D01*
X37121553Y-66788124D01*
X37138208Y-66801792D01*
X37151876Y-66818447D01*
X37162029Y-66837443D01*
X37168284Y-66858062D01*
X37171000Y-66885640D01*
X37171000Y-67344360D01*
X37168284Y-67371938D01*
X37162029Y-67392557D01*
X37151876Y-67411553D01*
X37138208Y-67428208D01*
X37121553Y-67441876D01*
X37102557Y-67452029D01*
X37081938Y-67458284D01*
X37054360Y-67461000D01*
X36545640Y-67461000D01*
X36518062Y-67458284D01*
X36497443Y-67452029D01*
X36478447Y-67441876D01*
X36461792Y-67428208D01*
X36448124Y-67411553D01*
X36437971Y-67392557D01*
X36431716Y-67371938D01*
X36429000Y-67344360D01*
X36429000Y-66885640D01*
X36431716Y-66858062D01*
X36437971Y-66837443D01*
X36448124Y-66818447D01*
X36461792Y-66801792D01*
X36478447Y-66788124D01*
X36497443Y-66777971D01*
X36518062Y-66771716D01*
X36545640Y-66769000D01*
X37054360Y-66769000D01*
X37081938Y-66771716D01*
G37*
G36*
X32081938Y-66741716D02*
G01*
X32102557Y-66747971D01*
X32121553Y-66758124D01*
X32138208Y-66771792D01*
X32151876Y-66788447D01*
X32162029Y-66807443D01*
X32168284Y-66828062D01*
X32171000Y-66855640D01*
X32171000Y-67314360D01*
X32168284Y-67341938D01*
X32162029Y-67362557D01*
X32151876Y-67381553D01*
X32138208Y-67398208D01*
X32121553Y-67411876D01*
X32102557Y-67422029D01*
X32081938Y-67428284D01*
X32054360Y-67431000D01*
X31545640Y-67431000D01*
X31518062Y-67428284D01*
X31497443Y-67422029D01*
X31478447Y-67411876D01*
X31461792Y-67398208D01*
X31448124Y-67381553D01*
X31437971Y-67362557D01*
X31431716Y-67341938D01*
X31429000Y-67314360D01*
X31429000Y-66855640D01*
X31431716Y-66828062D01*
X31437971Y-66807443D01*
X31448124Y-66788447D01*
X31461792Y-66771792D01*
X31478447Y-66758124D01*
X31497443Y-66747971D01*
X31518062Y-66741716D01*
X31545640Y-66739000D01*
X32054360Y-66739000D01*
X32081938Y-66741716D01*
G37*
G36*
X61979591Y-66303085D02*
G01*
X62013569Y-66313393D01*
X62044890Y-66330134D01*
X62072339Y-66352661D01*
X62094866Y-66380110D01*
X62111607Y-66411431D01*
X62121915Y-66445409D01*
X62126000Y-66486890D01*
X62126000Y-67088110D01*
X62121915Y-67129591D01*
X62111607Y-67163569D01*
X62094866Y-67194890D01*
X62072339Y-67222339D01*
X62044890Y-67244866D01*
X62013569Y-67261607D01*
X61979591Y-67271915D01*
X61938110Y-67276000D01*
X61261890Y-67276000D01*
X61220409Y-67271915D01*
X61186431Y-67261607D01*
X61155110Y-67244866D01*
X61127661Y-67222339D01*
X61105134Y-67194890D01*
X61088393Y-67163569D01*
X61078085Y-67129591D01*
X61074000Y-67088110D01*
X61074000Y-66486890D01*
X61078085Y-66445409D01*
X61088393Y-66411431D01*
X61105134Y-66380110D01*
X61127661Y-66352661D01*
X61155110Y-66330134D01*
X61186431Y-66313393D01*
X61220409Y-66303085D01*
X61261890Y-66299000D01*
X61938110Y-66299000D01*
X61979591Y-66303085D01*
G37*
G36*
X34751000Y-67101000D02*
G01*
X33849000Y-67101000D01*
X33849000Y-66099000D01*
X34751000Y-66099000D01*
X34751000Y-67101000D01*
G37*
G36*
X32081938Y-65771716D02*
G01*
X32102557Y-65777971D01*
X32121553Y-65788124D01*
X32138208Y-65801792D01*
X32151876Y-65818447D01*
X32162029Y-65837443D01*
X32168284Y-65858062D01*
X32171000Y-65885640D01*
X32171000Y-66344360D01*
X32168284Y-66371938D01*
X32162029Y-66392557D01*
X32151876Y-66411553D01*
X32138208Y-66428208D01*
X32121553Y-66441876D01*
X32102557Y-66452029D01*
X32081938Y-66458284D01*
X32054360Y-66461000D01*
X31545640Y-66461000D01*
X31518062Y-66458284D01*
X31497443Y-66452029D01*
X31478447Y-66441876D01*
X31461792Y-66428208D01*
X31448124Y-66411553D01*
X31437971Y-66392557D01*
X31431716Y-66371938D01*
X31429000Y-66344360D01*
X31429000Y-65885640D01*
X31431716Y-65858062D01*
X31437971Y-65837443D01*
X31448124Y-65818447D01*
X31461792Y-65801792D01*
X31478447Y-65788124D01*
X31497443Y-65777971D01*
X31518062Y-65771716D01*
X31545640Y-65769000D01*
X32054360Y-65769000D01*
X32081938Y-65771716D01*
G37*
G36*
X66113512Y-64263927D02*
G01*
X66262812Y-64293624D01*
X66426784Y-64361544D01*
X66574354Y-64460147D01*
X66699853Y-64585646D01*
X66798456Y-64733216D01*
X66866376Y-64897188D01*
X66901000Y-65071259D01*
X66901000Y-65248741D01*
X66866376Y-65422812D01*
X66798456Y-65586784D01*
X66699853Y-65734354D01*
X66574354Y-65859853D01*
X66426784Y-65958456D01*
X66262812Y-66026376D01*
X66113512Y-66056073D01*
X66088742Y-66061000D01*
X65911258Y-66061000D01*
X65886488Y-66056073D01*
X65737188Y-66026376D01*
X65573216Y-65958456D01*
X65425646Y-65859853D01*
X65300147Y-65734354D01*
X65201544Y-65586784D01*
X65133624Y-65422812D01*
X65099000Y-65248741D01*
X65099000Y-65071259D01*
X65133624Y-64897188D01*
X65201544Y-64733216D01*
X65300147Y-64585646D01*
X65425646Y-64460147D01*
X65573216Y-64361544D01*
X65737188Y-64293624D01*
X65886488Y-64263927D01*
X65911258Y-64259000D01*
X66088742Y-64259000D01*
X66113512Y-64263927D01*
G37*
G36*
X61979591Y-64728085D02*
G01*
X62013569Y-64738393D01*
X62044890Y-64755134D01*
X62072339Y-64777661D01*
X62094866Y-64805110D01*
X62111607Y-64836431D01*
X62121915Y-64870409D01*
X62126000Y-64911890D01*
X62126000Y-65513110D01*
X62121915Y-65554591D01*
X62111607Y-65588569D01*
X62094866Y-65619890D01*
X62072339Y-65647339D01*
X62044890Y-65669866D01*
X62013569Y-65686607D01*
X61979591Y-65696915D01*
X61938110Y-65701000D01*
X61261890Y-65701000D01*
X61220409Y-65696915D01*
X61186431Y-65686607D01*
X61155110Y-65669866D01*
X61127661Y-65647339D01*
X61105134Y-65619890D01*
X61088393Y-65588569D01*
X61078085Y-65554591D01*
X61074000Y-65513110D01*
X61074000Y-64911890D01*
X61078085Y-64870409D01*
X61088393Y-64836431D01*
X61105134Y-64805110D01*
X61127661Y-64777661D01*
X61155110Y-64755134D01*
X61186431Y-64738393D01*
X61220409Y-64728085D01*
X61261890Y-64724000D01*
X61938110Y-64724000D01*
X61979591Y-64728085D01*
G37*
G36*
X35454591Y-64278085D02*
G01*
X35488569Y-64288393D01*
X35519890Y-64305134D01*
X35547339Y-64327661D01*
X35569866Y-64355110D01*
X35586607Y-64386431D01*
X35596915Y-64420409D01*
X35601000Y-64461890D01*
X35601000Y-65138110D01*
X35596915Y-65179591D01*
X35586607Y-65213569D01*
X35569866Y-65244890D01*
X35547339Y-65272339D01*
X35519890Y-65294866D01*
X35488569Y-65311607D01*
X35454591Y-65321915D01*
X35413110Y-65326000D01*
X34811890Y-65326000D01*
X34770409Y-65321915D01*
X34736431Y-65311607D01*
X34705110Y-65294866D01*
X34677661Y-65272339D01*
X34655134Y-65244890D01*
X34638393Y-65213569D01*
X34628085Y-65179591D01*
X34624000Y-65138110D01*
X34624000Y-64461890D01*
X34628085Y-64420409D01*
X34638393Y-64386431D01*
X34655134Y-64355110D01*
X34677661Y-64327661D01*
X34705110Y-64305134D01*
X34736431Y-64288393D01*
X34770409Y-64278085D01*
X34811890Y-64274000D01*
X35413110Y-64274000D01*
X35454591Y-64278085D01*
G37*
G36*
X37029591Y-64278085D02*
G01*
X37063569Y-64288393D01*
X37094890Y-64305134D01*
X37122339Y-64327661D01*
X37144866Y-64355110D01*
X37161607Y-64386431D01*
X37171915Y-64420409D01*
X37176000Y-64461890D01*
X37176000Y-65138110D01*
X37171915Y-65179591D01*
X37161607Y-65213569D01*
X37144866Y-65244890D01*
X37122339Y-65272339D01*
X37094890Y-65294866D01*
X37063569Y-65311607D01*
X37029591Y-65321915D01*
X36988110Y-65326000D01*
X36386890Y-65326000D01*
X36345409Y-65321915D01*
X36311431Y-65311607D01*
X36280110Y-65294866D01*
X36252661Y-65272339D01*
X36230134Y-65244890D01*
X36213393Y-65213569D01*
X36203085Y-65179591D01*
X36199000Y-65138110D01*
X36199000Y-64461890D01*
X36203085Y-64420409D01*
X36213393Y-64386431D01*
X36230134Y-64355110D01*
X36252661Y-64327661D01*
X36280110Y-64305134D01*
X36311431Y-64288393D01*
X36345409Y-64278085D01*
X36386890Y-64274000D01*
X36988110Y-64274000D01*
X37029591Y-64278085D01*
G37*
G36*
X46551000Y-64551000D02*
G01*
X44449000Y-64551000D01*
X44449000Y-62949000D01*
X46551000Y-62949000D01*
X46551000Y-64551000D01*
G37*
G36*
X53551000Y-64551000D02*
G01*
X51449000Y-64551000D01*
X51449000Y-62949000D01*
X53551000Y-62949000D01*
X53551000Y-64551000D01*
G37*
G36*
X61881938Y-63241716D02*
G01*
X61902557Y-63247971D01*
X61921553Y-63258124D01*
X61938208Y-63271792D01*
X61951876Y-63288447D01*
X61962029Y-63307443D01*
X61968284Y-63328062D01*
X61971000Y-63355640D01*
X61971000Y-63814360D01*
X61968284Y-63841938D01*
X61962029Y-63862557D01*
X61951876Y-63881553D01*
X61938208Y-63898208D01*
X61921553Y-63911876D01*
X61902557Y-63922029D01*
X61881938Y-63928284D01*
X61854360Y-63931000D01*
X61345640Y-63931000D01*
X61318062Y-63928284D01*
X61297443Y-63922029D01*
X61278447Y-63911876D01*
X61261792Y-63898208D01*
X61248124Y-63881553D01*
X61237971Y-63862557D01*
X61231716Y-63841938D01*
X61229000Y-63814360D01*
X61229000Y-63355640D01*
X61231716Y-63328062D01*
X61237971Y-63307443D01*
X61248124Y-63288447D01*
X61261792Y-63271792D01*
X61278447Y-63258124D01*
X61297443Y-63247971D01*
X61318062Y-63241716D01*
X61345640Y-63239000D01*
X61854360Y-63239000D01*
X61881938Y-63241716D01*
G37*
G36*
X66113512Y-61723927D02*
G01*
X66262812Y-61753624D01*
X66426784Y-61821544D01*
X66574354Y-61920147D01*
X66699853Y-62045646D01*
X66798456Y-62193216D01*
X66866376Y-62357188D01*
X66901000Y-62531259D01*
X66901000Y-62708741D01*
X66866376Y-62882812D01*
X66798456Y-63046784D01*
X66699853Y-63194354D01*
X66574354Y-63319853D01*
X66426784Y-63418456D01*
X66262812Y-63486376D01*
X66113512Y-63516073D01*
X66088742Y-63521000D01*
X65911258Y-63521000D01*
X65886488Y-63516073D01*
X65737188Y-63486376D01*
X65573216Y-63418456D01*
X65425646Y-63319853D01*
X65300147Y-63194354D01*
X65201544Y-63046784D01*
X65133624Y-62882812D01*
X65099000Y-62708741D01*
X65099000Y-62531259D01*
X65133624Y-62357188D01*
X65201544Y-62193216D01*
X65300147Y-62045646D01*
X65425646Y-61920147D01*
X65573216Y-61821544D01*
X65737188Y-61753624D01*
X65886488Y-61723927D01*
X65911258Y-61719000D01*
X66088742Y-61719000D01*
X66113512Y-61723927D01*
G37*
G36*
X61881938Y-62271716D02*
G01*
X61902557Y-62277971D01*
X61921553Y-62288124D01*
X61938208Y-62301792D01*
X61951876Y-62318447D01*
X61962029Y-62337443D01*
X61968284Y-62358062D01*
X61971000Y-62385640D01*
X61971000Y-62844360D01*
X61968284Y-62871938D01*
X61962029Y-62892557D01*
X61951876Y-62911553D01*
X61938208Y-62928208D01*
X61921553Y-62941876D01*
X61902557Y-62952029D01*
X61881938Y-62958284D01*
X61854360Y-62961000D01*
X61345640Y-62961000D01*
X61318062Y-62958284D01*
X61297443Y-62952029D01*
X61278447Y-62941876D01*
X61261792Y-62928208D01*
X61248124Y-62911553D01*
X61237971Y-62892557D01*
X61231716Y-62871938D01*
X61229000Y-62844360D01*
X61229000Y-62385640D01*
X61231716Y-62358062D01*
X61237971Y-62337443D01*
X61248124Y-62318447D01*
X61261792Y-62301792D01*
X61278447Y-62288124D01*
X61297443Y-62277971D01*
X61318062Y-62271716D01*
X61345640Y-62269000D01*
X61854360Y-62269000D01*
X61881938Y-62271716D01*
G37*
G36*
X66113512Y-59183927D02*
G01*
X66262812Y-59213624D01*
X66426784Y-59281544D01*
X66574354Y-59380147D01*
X66699853Y-59505646D01*
X66798456Y-59653216D01*
X66866376Y-59817188D01*
X66901000Y-59991259D01*
X66901000Y-60168741D01*
X66866376Y-60342812D01*
X66798456Y-60506784D01*
X66699853Y-60654354D01*
X66574354Y-60779853D01*
X66426784Y-60878456D01*
X66262812Y-60946376D01*
X66113512Y-60976073D01*
X66088742Y-60981000D01*
X65911258Y-60981000D01*
X65886488Y-60976073D01*
X65737188Y-60946376D01*
X65573216Y-60878456D01*
X65425646Y-60779853D01*
X65300147Y-60654354D01*
X65201544Y-60506784D01*
X65133624Y-60342812D01*
X65099000Y-60168741D01*
X65099000Y-59991259D01*
X65133624Y-59817188D01*
X65201544Y-59653216D01*
X65300147Y-59505646D01*
X65425646Y-59380147D01*
X65573216Y-59281544D01*
X65737188Y-59213624D01*
X65886488Y-59183927D01*
X65911258Y-59179000D01*
X66088742Y-59179000D01*
X66113512Y-59183927D01*
G37*
G36*
X32764499Y-59203445D02*
G01*
X32801995Y-59214820D01*
X32836554Y-59233292D01*
X32866847Y-59258153D01*
X32891708Y-59288446D01*
X32910180Y-59323005D01*
X32921555Y-59360501D01*
X32926000Y-59405638D01*
X32926000Y-60144362D01*
X32921555Y-60189499D01*
X32910180Y-60226995D01*
X32891708Y-60261554D01*
X32866847Y-60291847D01*
X32836554Y-60316708D01*
X32801995Y-60335180D01*
X32764499Y-60346555D01*
X32719362Y-60351000D01*
X32080638Y-60351000D01*
X32035501Y-60346555D01*
X31998005Y-60335180D01*
X31963446Y-60316708D01*
X31933153Y-60291847D01*
X31908292Y-60261554D01*
X31889820Y-60226995D01*
X31878445Y-60189499D01*
X31874000Y-60144362D01*
X31874000Y-59405638D01*
X31878445Y-59360501D01*
X31889820Y-59323005D01*
X31908292Y-59288446D01*
X31933153Y-59258153D01*
X31963446Y-59233292D01*
X31998005Y-59214820D01*
X32035501Y-59203445D01*
X32080638Y-59199000D01*
X32719362Y-59199000D01*
X32764499Y-59203445D01*
G37*
G36*
X34854591Y-59278085D02*
G01*
X34888569Y-59288393D01*
X34919890Y-59305134D01*
X34947339Y-59327661D01*
X34969866Y-59355110D01*
X34986607Y-59386431D01*
X34996915Y-59420409D01*
X35001000Y-59461890D01*
X35001000Y-60138110D01*
X34996915Y-60179591D01*
X34986607Y-60213569D01*
X34969866Y-60244890D01*
X34947339Y-60272339D01*
X34919890Y-60294866D01*
X34888569Y-60311607D01*
X34854591Y-60321915D01*
X34813110Y-60326000D01*
X34211890Y-60326000D01*
X34170409Y-60321915D01*
X34136431Y-60311607D01*
X34105110Y-60294866D01*
X34077661Y-60272339D01*
X34055134Y-60244890D01*
X34038393Y-60213569D01*
X34028085Y-60179591D01*
X34024000Y-60138110D01*
X34024000Y-59461890D01*
X34028085Y-59420409D01*
X34038393Y-59386431D01*
X34055134Y-59355110D01*
X34077661Y-59327661D01*
X34105110Y-59305134D01*
X34136431Y-59288393D01*
X34170409Y-59278085D01*
X34211890Y-59274000D01*
X34813110Y-59274000D01*
X34854591Y-59278085D01*
G37*
G36*
X36429591Y-59278085D02*
G01*
X36463569Y-59288393D01*
X36494890Y-59305134D01*
X36522339Y-59327661D01*
X36544866Y-59355110D01*
X36561607Y-59386431D01*
X36571915Y-59420409D01*
X36576000Y-59461890D01*
X36576000Y-60138110D01*
X36571915Y-60179591D01*
X36561607Y-60213569D01*
X36544866Y-60244890D01*
X36522339Y-60272339D01*
X36494890Y-60294866D01*
X36463569Y-60311607D01*
X36429591Y-60321915D01*
X36388110Y-60326000D01*
X35786890Y-60326000D01*
X35745409Y-60321915D01*
X35711431Y-60311607D01*
X35680110Y-60294866D01*
X35652661Y-60272339D01*
X35630134Y-60244890D01*
X35613393Y-60213569D01*
X35603085Y-60179591D01*
X35599000Y-60138110D01*
X35599000Y-59461890D01*
X35603085Y-59420409D01*
X35613393Y-59386431D01*
X35630134Y-59355110D01*
X35652661Y-59327661D01*
X35680110Y-59305134D01*
X35711431Y-59288393D01*
X35745409Y-59278085D01*
X35786890Y-59274000D01*
X36388110Y-59274000D01*
X36429591Y-59278085D01*
G37*
G36*
X32764499Y-57453445D02*
G01*
X32801995Y-57464820D01*
X32836554Y-57483292D01*
X32866847Y-57508153D01*
X32891708Y-57538446D01*
X32910180Y-57573005D01*
X32921555Y-57610501D01*
X32926000Y-57655638D01*
X32926000Y-58394362D01*
X32921555Y-58439499D01*
X32910180Y-58476995D01*
X32891708Y-58511554D01*
X32866847Y-58541847D01*
X32836554Y-58566708D01*
X32801995Y-58585180D01*
X32764499Y-58596555D01*
X32719362Y-58601000D01*
X32080638Y-58601000D01*
X32035501Y-58596555D01*
X31998005Y-58585180D01*
X31963446Y-58566708D01*
X31933153Y-58541847D01*
X31908292Y-58511554D01*
X31889820Y-58476995D01*
X31878445Y-58439499D01*
X31874000Y-58394362D01*
X31874000Y-57655638D01*
X31878445Y-57610501D01*
X31889820Y-57573005D01*
X31908292Y-57538446D01*
X31933153Y-57508153D01*
X31963446Y-57483292D01*
X31998005Y-57464820D01*
X32035501Y-57453445D01*
X32080638Y-57449000D01*
X32719362Y-57449000D01*
X32764499Y-57453445D01*
G37*
G36*
X66113512Y-56643927D02*
G01*
X66262812Y-56673624D01*
X66426784Y-56741544D01*
X66574354Y-56840147D01*
X66699853Y-56965646D01*
X66798456Y-57113216D01*
X66866376Y-57277188D01*
X66901000Y-57451259D01*
X66901000Y-57628741D01*
X66866376Y-57802812D01*
X66798456Y-57966784D01*
X66699853Y-58114354D01*
X66574354Y-58239853D01*
X66426784Y-58338456D01*
X66262812Y-58406376D01*
X66113512Y-58436073D01*
X66088742Y-58441000D01*
X65911258Y-58441000D01*
X65886488Y-58436073D01*
X65737188Y-58406376D01*
X65573216Y-58338456D01*
X65425646Y-58239853D01*
X65300147Y-58114354D01*
X65201544Y-57966784D01*
X65133624Y-57802812D01*
X65099000Y-57628741D01*
X65099000Y-57451259D01*
X65133624Y-57277188D01*
X65201544Y-57113216D01*
X65300147Y-56965646D01*
X65425646Y-56840147D01*
X65573216Y-56741544D01*
X65737188Y-56673624D01*
X65886488Y-56643927D01*
X65911258Y-56639000D01*
X66088742Y-56639000D01*
X66113512Y-56643927D01*
G37*
G36*
X34601000Y-58401000D02*
G01*
X33699000Y-58401000D01*
X33699000Y-57399000D01*
X34601000Y-57399000D01*
X34601000Y-58401000D01*
G37*
G36*
X36501000Y-58401000D02*
G01*
X35599000Y-58401000D01*
X35599000Y-57399000D01*
X36501000Y-57399000D01*
X36501000Y-58401000D01*
G37*
G36*
X32781938Y-56141716D02*
G01*
X32802557Y-56147971D01*
X32821553Y-56158124D01*
X32838208Y-56171792D01*
X32851876Y-56188447D01*
X32862029Y-56207443D01*
X32868284Y-56228062D01*
X32871000Y-56255640D01*
X32871000Y-56714360D01*
X32868284Y-56741938D01*
X32862029Y-56762557D01*
X32851876Y-56781553D01*
X32838208Y-56798208D01*
X32821553Y-56811876D01*
X32802557Y-56822029D01*
X32781938Y-56828284D01*
X32754360Y-56831000D01*
X32245640Y-56831000D01*
X32218062Y-56828284D01*
X32197443Y-56822029D01*
X32178447Y-56811876D01*
X32161792Y-56798208D01*
X32148124Y-56781553D01*
X32137971Y-56762557D01*
X32131716Y-56741938D01*
X32129000Y-56714360D01*
X32129000Y-56255640D01*
X32131716Y-56228062D01*
X32137971Y-56207443D01*
X32148124Y-56188447D01*
X32161792Y-56171792D01*
X32178447Y-56158124D01*
X32197443Y-56147971D01*
X32218062Y-56141716D01*
X32245640Y-56139000D01*
X32754360Y-56139000D01*
X32781938Y-56141716D01*
G37*
G36*
X35551000Y-56401000D02*
G01*
X34649000Y-56401000D01*
X34649000Y-55399000D01*
X35551000Y-55399000D01*
X35551000Y-56401000D01*
G37*
G36*
X37781938Y-55241716D02*
G01*
X37802557Y-55247971D01*
X37821553Y-55258124D01*
X37838208Y-55271792D01*
X37851876Y-55288447D01*
X37862029Y-55307443D01*
X37868284Y-55328062D01*
X37871000Y-55355640D01*
X37871000Y-55814360D01*
X37868284Y-55841938D01*
X37862029Y-55862557D01*
X37851876Y-55881553D01*
X37838208Y-55898208D01*
X37821553Y-55911876D01*
X37802557Y-55922029D01*
X37781938Y-55928284D01*
X37754360Y-55931000D01*
X37245640Y-55931000D01*
X37218062Y-55928284D01*
X37197443Y-55922029D01*
X37178447Y-55911876D01*
X37161792Y-55898208D01*
X37148124Y-55881553D01*
X37137971Y-55862557D01*
X37131716Y-55841938D01*
X37129000Y-55814360D01*
X37129000Y-55355640D01*
X37131716Y-55328062D01*
X37137971Y-55307443D01*
X37148124Y-55288447D01*
X37161792Y-55271792D01*
X37178447Y-55258124D01*
X37197443Y-55247971D01*
X37218062Y-55241716D01*
X37245640Y-55239000D01*
X37754360Y-55239000D01*
X37781938Y-55241716D01*
G37*
G36*
X66901000Y-55901000D02*
G01*
X65099000Y-55901000D01*
X65099000Y-54099000D01*
X66901000Y-54099000D01*
X66901000Y-55901000D01*
G37*
G36*
X32781938Y-55171716D02*
G01*
X32802557Y-55177971D01*
X32821553Y-55188124D01*
X32838208Y-55201792D01*
X32851876Y-55218447D01*
X32862029Y-55237443D01*
X32868284Y-55258062D01*
X32871000Y-55285640D01*
X32871000Y-55744360D01*
X32868284Y-55771938D01*
X32862029Y-55792557D01*
X32851876Y-55811553D01*
X32838208Y-55828208D01*
X32821553Y-55841876D01*
X32802557Y-55852029D01*
X32781938Y-55858284D01*
X32754360Y-55861000D01*
X32245640Y-55861000D01*
X32218062Y-55858284D01*
X32197443Y-55852029D01*
X32178447Y-55841876D01*
X32161792Y-55828208D01*
X32148124Y-55811553D01*
X32137971Y-55792557D01*
X32131716Y-55771938D01*
X32129000Y-55744360D01*
X32129000Y-55285640D01*
X32131716Y-55258062D01*
X32137971Y-55237443D01*
X32148124Y-55218447D01*
X32161792Y-55201792D01*
X32178447Y-55188124D01*
X32197443Y-55177971D01*
X32218062Y-55171716D01*
X32245640Y-55169000D01*
X32754360Y-55169000D01*
X32781938Y-55171716D01*
G37*
G36*
X43771938Y-54431716D02*
G01*
X43792557Y-54437971D01*
X43811553Y-54448124D01*
X43828208Y-54461792D01*
X43841876Y-54478447D01*
X43852029Y-54497443D01*
X43858284Y-54518062D01*
X43861000Y-54545640D01*
X43861000Y-55054360D01*
X43858284Y-55081938D01*
X43852029Y-55102557D01*
X43841876Y-55121553D01*
X43828208Y-55138208D01*
X43811553Y-55151876D01*
X43792557Y-55162029D01*
X43771938Y-55168284D01*
X43744360Y-55171000D01*
X43285640Y-55171000D01*
X43258062Y-55168284D01*
X43237443Y-55162029D01*
X43218447Y-55151876D01*
X43201792Y-55138208D01*
X43188124Y-55121553D01*
X43177971Y-55102557D01*
X43171716Y-55081938D01*
X43169000Y-55054360D01*
X43169000Y-54545640D01*
X43171716Y-54518062D01*
X43177971Y-54497443D01*
X43188124Y-54478447D01*
X43201792Y-54461792D01*
X43218447Y-54448124D01*
X43237443Y-54437971D01*
X43258062Y-54431716D01*
X43285640Y-54429000D01*
X43744360Y-54429000D01*
X43771938Y-54431716D01*
G37*
G36*
X44741938Y-54431716D02*
G01*
X44762557Y-54437971D01*
X44781553Y-54448124D01*
X44798208Y-54461792D01*
X44811876Y-54478447D01*
X44822029Y-54497443D01*
X44828284Y-54518062D01*
X44831000Y-54545640D01*
X44831000Y-55054360D01*
X44828284Y-55081938D01*
X44822029Y-55102557D01*
X44811876Y-55121553D01*
X44798208Y-55138208D01*
X44781553Y-55151876D01*
X44762557Y-55162029D01*
X44741938Y-55168284D01*
X44714360Y-55171000D01*
X44255640Y-55171000D01*
X44228062Y-55168284D01*
X44207443Y-55162029D01*
X44188447Y-55151876D01*
X44171792Y-55138208D01*
X44158124Y-55121553D01*
X44147971Y-55102557D01*
X44141716Y-55081938D01*
X44139000Y-55054360D01*
X44139000Y-54545640D01*
X44141716Y-54518062D01*
X44147971Y-54497443D01*
X44158124Y-54478447D01*
X44171792Y-54461792D01*
X44188447Y-54448124D01*
X44207443Y-54437971D01*
X44228062Y-54431716D01*
X44255640Y-54429000D01*
X44714360Y-54429000D01*
X44741938Y-54431716D01*
G37*
G36*
X37781938Y-54271716D02*
G01*
X37802557Y-54277971D01*
X37821553Y-54288124D01*
X37838208Y-54301792D01*
X37851876Y-54318447D01*
X37862029Y-54337443D01*
X37868284Y-54358062D01*
X37871000Y-54385640D01*
X37871000Y-54844360D01*
X37868284Y-54871938D01*
X37862029Y-54892557D01*
X37851876Y-54911553D01*
X37838208Y-54928208D01*
X37821553Y-54941876D01*
X37802557Y-54952029D01*
X37781938Y-54958284D01*
X37754360Y-54961000D01*
X37245640Y-54961000D01*
X37218062Y-54958284D01*
X37197443Y-54952029D01*
X37178447Y-54941876D01*
X37161792Y-54928208D01*
X37148124Y-54911553D01*
X37137971Y-54892557D01*
X37131716Y-54871938D01*
X37129000Y-54844360D01*
X37129000Y-54385640D01*
X37131716Y-54358062D01*
X37137971Y-54337443D01*
X37148124Y-54318447D01*
X37161792Y-54301792D01*
X37178447Y-54288124D01*
X37197443Y-54277971D01*
X37218062Y-54271716D01*
X37245640Y-54269000D01*
X37754360Y-54269000D01*
X37781938Y-54271716D01*
G37*
G36*
X37729591Y-52578085D02*
G01*
X37763569Y-52588393D01*
X37794890Y-52605134D01*
X37822339Y-52627661D01*
X37844866Y-52655110D01*
X37861607Y-52686431D01*
X37871915Y-52720409D01*
X37876000Y-52761890D01*
X37876000Y-53438110D01*
X37871915Y-53479591D01*
X37861607Y-53513569D01*
X37844866Y-53544890D01*
X37822339Y-53572339D01*
X37794890Y-53594866D01*
X37763569Y-53611607D01*
X37729591Y-53621915D01*
X37688110Y-53626000D01*
X37086890Y-53626000D01*
X37045409Y-53621915D01*
X37011431Y-53611607D01*
X36980110Y-53594866D01*
X36952661Y-53572339D01*
X36930134Y-53544890D01*
X36913393Y-53513569D01*
X36903085Y-53479591D01*
X36899000Y-53438110D01*
X36899000Y-52761890D01*
X36903085Y-52720409D01*
X36913393Y-52686431D01*
X36930134Y-52655110D01*
X36952661Y-52627661D01*
X36980110Y-52605134D01*
X37011431Y-52588393D01*
X37045409Y-52578085D01*
X37086890Y-52574000D01*
X37688110Y-52574000D01*
X37729591Y-52578085D01*
G37*
G36*
X36154591Y-52578085D02*
G01*
X36188569Y-52588393D01*
X36219890Y-52605134D01*
X36247339Y-52627661D01*
X36269866Y-52655110D01*
X36286607Y-52686431D01*
X36296915Y-52720409D01*
X36301000Y-52761890D01*
X36301000Y-53438110D01*
X36296915Y-53479591D01*
X36286607Y-53513569D01*
X36269866Y-53544890D01*
X36247339Y-53572339D01*
X36219890Y-53594866D01*
X36188569Y-53611607D01*
X36154591Y-53621915D01*
X36113110Y-53626000D01*
X35511890Y-53626000D01*
X35470409Y-53621915D01*
X35436431Y-53611607D01*
X35405110Y-53594866D01*
X35377661Y-53572339D01*
X35355134Y-53544890D01*
X35338393Y-53513569D01*
X35328085Y-53479591D01*
X35324000Y-53438110D01*
X35324000Y-52761890D01*
X35328085Y-52720409D01*
X35338393Y-52686431D01*
X35355134Y-52655110D01*
X35377661Y-52627661D01*
X35405110Y-52605134D01*
X35436431Y-52588393D01*
X35470409Y-52578085D01*
X35511890Y-52574000D01*
X36113110Y-52574000D01*
X36154591Y-52578085D01*
G37*
G36*
X43981938Y-52141716D02*
G01*
X44002557Y-52147971D01*
X44021553Y-52158124D01*
X44038208Y-52171792D01*
X44051876Y-52188447D01*
X44062029Y-52207443D01*
X44068284Y-52228062D01*
X44071000Y-52255640D01*
X44071000Y-52714360D01*
X44068284Y-52741938D01*
X44062029Y-52762557D01*
X44051876Y-52781553D01*
X44038208Y-52798208D01*
X44021553Y-52811876D01*
X44002557Y-52822029D01*
X43981938Y-52828284D01*
X43954360Y-52831000D01*
X43445640Y-52831000D01*
X43418062Y-52828284D01*
X43397443Y-52822029D01*
X43378447Y-52811876D01*
X43361792Y-52798208D01*
X43348124Y-52781553D01*
X43337971Y-52762557D01*
X43331716Y-52741938D01*
X43329000Y-52714360D01*
X43329000Y-52255640D01*
X43331716Y-52228062D01*
X43337971Y-52207443D01*
X43348124Y-52188447D01*
X43361792Y-52171792D01*
X43378447Y-52158124D01*
X43397443Y-52147971D01*
X43418062Y-52141716D01*
X43445640Y-52139000D01*
X43954360Y-52139000D01*
X43981938Y-52141716D01*
G37*
G36*
X53551000Y-52051000D02*
G01*
X51449000Y-52051000D01*
X51449000Y-50449000D01*
X53551000Y-50449000D01*
X53551000Y-52051000D01*
G37*
G36*
X46551000Y-52051000D02*
G01*
X44449000Y-52051000D01*
X44449000Y-50449000D01*
X46551000Y-50449000D01*
X46551000Y-52051000D01*
G37*
G36*
X43981938Y-51171716D02*
G01*
X44002557Y-51177971D01*
X44021553Y-51188124D01*
X44038208Y-51201792D01*
X44051876Y-51218447D01*
X44062029Y-51237443D01*
X44068284Y-51258062D01*
X44071000Y-51285640D01*
X44071000Y-51744360D01*
X44068284Y-51771938D01*
X44062029Y-51792557D01*
X44051876Y-51811553D01*
X44038208Y-51828208D01*
X44021553Y-51841876D01*
X44002557Y-51852029D01*
X43981938Y-51858284D01*
X43954360Y-51861000D01*
X43445640Y-51861000D01*
X43418062Y-51858284D01*
X43397443Y-51852029D01*
X43378447Y-51841876D01*
X43361792Y-51828208D01*
X43348124Y-51811553D01*
X43337971Y-51792557D01*
X43331716Y-51771938D01*
X43329000Y-51744360D01*
X43329000Y-51285640D01*
X43331716Y-51258062D01*
X43337971Y-51237443D01*
X43348124Y-51218447D01*
X43361792Y-51201792D01*
X43378447Y-51188124D01*
X43397443Y-51177971D01*
X43418062Y-51171716D01*
X43445640Y-51169000D01*
X43954360Y-51169000D01*
X43981938Y-51171716D01*
G37*
G36*
X53551000Y-47551000D02*
G01*
X51449000Y-47551000D01*
X51449000Y-45949000D01*
X53551000Y-45949000D01*
X53551000Y-47551000D01*
G37*
G36*
X46551000Y-47551000D02*
G01*
X44449000Y-47551000D01*
X44449000Y-45949000D01*
X46551000Y-45949000D01*
X46551000Y-47551000D01*
G37*
G36*
X64642007Y-31883582D02*
G01*
X65042563Y-32049498D01*
X65042565Y-32049499D01*
X65403056Y-32290371D01*
X65709629Y-32596944D01*
X65950501Y-32957435D01*
X65950502Y-32957437D01*
X66116418Y-33357993D01*
X66201000Y-33783219D01*
X66201000Y-34216781D01*
X66116418Y-34642007D01*
X65950502Y-35042563D01*
X65950501Y-35042565D01*
X65709629Y-35403056D01*
X65403056Y-35709629D01*
X65042565Y-35950501D01*
X65042564Y-35950502D01*
X65042563Y-35950502D01*
X64642007Y-36116418D01*
X64216781Y-36201000D01*
X63783219Y-36201000D01*
X63357993Y-36116418D01*
X62957437Y-35950502D01*
X62957436Y-35950502D01*
X62957435Y-35950501D01*
X62596944Y-35709629D01*
X62290371Y-35403056D01*
X62049499Y-35042565D01*
X62049498Y-35042563D01*
X61883582Y-34642007D01*
X61799000Y-34216781D01*
X61799000Y-33783219D01*
X61883582Y-33357993D01*
X62049498Y-32957437D01*
X62049499Y-32957435D01*
X62290371Y-32596944D01*
X62596944Y-32290371D01*
X62957435Y-32049499D01*
X62957437Y-32049498D01*
X63357993Y-31883582D01*
X63783219Y-31799000D01*
X64216781Y-31799000D01*
X64642007Y-31883582D01*
G37*
G36*
X34642007Y-31883582D02*
G01*
X35042563Y-32049498D01*
X35042565Y-32049499D01*
X35403056Y-32290371D01*
X35709629Y-32596944D01*
X35950501Y-32957435D01*
X35950502Y-32957437D01*
X36116418Y-33357993D01*
X36201000Y-33783219D01*
X36201000Y-34216781D01*
X36116418Y-34642007D01*
X35950502Y-35042563D01*
X35950501Y-35042565D01*
X35709629Y-35403056D01*
X35403056Y-35709629D01*
X35042565Y-35950501D01*
X35042564Y-35950502D01*
X35042563Y-35950502D01*
X34642007Y-36116418D01*
X34216781Y-36201000D01*
X33783219Y-36201000D01*
X33357993Y-36116418D01*
X32957437Y-35950502D01*
X32957436Y-35950502D01*
X32957435Y-35950501D01*
X32596944Y-35709629D01*
X32290371Y-35403056D01*
X32049499Y-35042565D01*
X32049498Y-35042563D01*
X31883582Y-34642007D01*
X31799000Y-34216781D01*
X31799000Y-33783219D01*
X31883582Y-33357993D01*
X32049498Y-32957437D01*
X32049499Y-32957435D01*
X32290371Y-32596944D01*
X32596944Y-32290371D01*
X32957435Y-32049499D01*
X32957437Y-32049498D01*
X33357993Y-31883582D01*
X33783219Y-31799000D01*
X34216781Y-31799000D01*
X34642007Y-31883582D01*
G37*
M02*
