G04 #@! TF.GenerationSoftware,KiCad,Pcbnew,5.1.5+dfsg1-2build2*
G04 #@! TF.CreationDate,2020-10-16T19:58:43-06:00*
G04 #@! TF.ProjectId,remote,72656d6f-7465-42e6-9b69-6361645f7063,rev?*
G04 #@! TF.SameCoordinates,Original*
G04 #@! TF.FileFunction,Legend,Bot*
G04 #@! TF.FilePolarity,Positive*
%FSLAX46Y46*%
G04 Gerber Fmt 4.6, Leading zero omitted, Abs format (unit mm)*
G04 Created by KiCad (PCBNEW 5.1.5+dfsg1-2build2) date 2020-10-16 19:58:43*
%MOMM*%
%LPD*%
G04 APERTURE LIST*
%ADD10C,0.300000*%
%ADD11C,0.250000*%
%ADD12C,0.120000*%
%ADD13C,0.150000*%
%ADD14C,0.203200*%
G04 APERTURE END LIST*
D10*
X59000000Y-83678571D02*
X59000000Y-82178571D01*
X58357142Y-83678571D02*
X58357142Y-82892857D01*
X58428571Y-82750000D01*
X58571428Y-82678571D01*
X58785714Y-82678571D01*
X58928571Y-82750000D01*
X59000000Y-82821428D01*
X57428571Y-83678571D02*
X57571428Y-83607142D01*
X57642857Y-83535714D01*
X57714285Y-83392857D01*
X57714285Y-82964285D01*
X57642857Y-82821428D01*
X57571428Y-82750000D01*
X57428571Y-82678571D01*
X57214285Y-82678571D01*
X57071428Y-82750000D01*
X57000000Y-82821428D01*
X56928571Y-82964285D01*
X56928571Y-83392857D01*
X57000000Y-83535714D01*
X57071428Y-83607142D01*
X57214285Y-83678571D01*
X57428571Y-83678571D01*
X56285714Y-83678571D02*
X56285714Y-82678571D01*
X56285714Y-82821428D02*
X56214285Y-82750000D01*
X56071428Y-82678571D01*
X55857142Y-82678571D01*
X55714285Y-82750000D01*
X55642857Y-82892857D01*
X55642857Y-83678571D01*
X55642857Y-82892857D02*
X55571428Y-82750000D01*
X55428571Y-82678571D01*
X55214285Y-82678571D01*
X55071428Y-82750000D01*
X55000000Y-82892857D01*
X55000000Y-83678571D01*
X53714285Y-83607142D02*
X53857142Y-83678571D01*
X54142857Y-83678571D01*
X54285714Y-83607142D01*
X54357142Y-83464285D01*
X54357142Y-82892857D01*
X54285714Y-82750000D01*
X54142857Y-82678571D01*
X53857142Y-82678571D01*
X53714285Y-82750000D01*
X53642857Y-82892857D01*
X53642857Y-83035714D01*
X54357142Y-83178571D01*
X51857142Y-83678571D02*
X51857142Y-82678571D01*
X51857142Y-82964285D02*
X51785714Y-82821428D01*
X51714285Y-82750000D01*
X51571428Y-82678571D01*
X51428571Y-82678571D01*
X50357142Y-83607142D02*
X50499999Y-83678571D01*
X50785714Y-83678571D01*
X50928571Y-83607142D01*
X50999999Y-83464285D01*
X50999999Y-82892857D01*
X50928571Y-82750000D01*
X50785714Y-82678571D01*
X50499999Y-82678571D01*
X50357142Y-82750000D01*
X50285714Y-82892857D01*
X50285714Y-83035714D01*
X50999999Y-83178571D01*
X49642857Y-83678571D02*
X49642857Y-82678571D01*
X49642857Y-82821428D02*
X49571428Y-82750000D01*
X49428571Y-82678571D01*
X49214285Y-82678571D01*
X49071428Y-82750000D01*
X48999999Y-82892857D01*
X48999999Y-83678571D01*
X48999999Y-82892857D02*
X48928571Y-82750000D01*
X48785714Y-82678571D01*
X48571428Y-82678571D01*
X48428571Y-82750000D01*
X48357142Y-82892857D01*
X48357142Y-83678571D01*
X47428571Y-83678571D02*
X47571428Y-83607142D01*
X47642857Y-83535714D01*
X47714285Y-83392857D01*
X47714285Y-82964285D01*
X47642857Y-82821428D01*
X47571428Y-82750000D01*
X47428571Y-82678571D01*
X47214285Y-82678571D01*
X47071428Y-82750000D01*
X46999999Y-82821428D01*
X46928571Y-82964285D01*
X46928571Y-83392857D01*
X46999999Y-83535714D01*
X47071428Y-83607142D01*
X47214285Y-83678571D01*
X47428571Y-83678571D01*
X46499999Y-82678571D02*
X45928571Y-82678571D01*
X46285714Y-82178571D02*
X46285714Y-83464285D01*
X46214285Y-83607142D01*
X46071428Y-83678571D01*
X45928571Y-83678571D01*
X44857142Y-83607142D02*
X44999999Y-83678571D01*
X45285714Y-83678571D01*
X45428571Y-83607142D01*
X45499999Y-83464285D01*
X45499999Y-82892857D01*
X45428571Y-82750000D01*
X45285714Y-82678571D01*
X44999999Y-82678571D01*
X44857142Y-82750000D01*
X44785714Y-82892857D01*
X44785714Y-83035714D01*
X45499999Y-83178571D01*
X43142857Y-82678571D02*
X42785714Y-83678571D01*
X42428571Y-82678571D01*
X41071428Y-83678571D02*
X41928571Y-83678571D01*
X41499999Y-83678571D02*
X41499999Y-82178571D01*
X41642857Y-82392857D01*
X41785714Y-82535714D01*
X41928571Y-82607142D01*
X40428571Y-83535714D02*
X40357142Y-83607142D01*
X40428571Y-83678571D01*
X40499999Y-83607142D01*
X40428571Y-83535714D01*
X40428571Y-83678571D01*
X39428571Y-82178571D02*
X39285714Y-82178571D01*
X39142857Y-82250000D01*
X39071428Y-82321428D01*
X38999999Y-82464285D01*
X38928571Y-82750000D01*
X38928571Y-83107142D01*
X38999999Y-83392857D01*
X39071428Y-83535714D01*
X39142857Y-83607142D01*
X39285714Y-83678571D01*
X39428571Y-83678571D01*
X39571428Y-83607142D01*
X39642857Y-83535714D01*
X39714285Y-83392857D01*
X39785714Y-83107142D01*
X39785714Y-82750000D01*
X39714285Y-82464285D01*
X39642857Y-82321428D01*
X39571428Y-82250000D01*
X39428571Y-82178571D01*
D11*
X55809523Y-90704761D02*
X56952380Y-90704761D01*
X56380952Y-90704761D02*
X56380952Y-88704761D01*
X56571428Y-88990476D01*
X56761904Y-89180952D01*
X56952380Y-89276190D01*
X55142857Y-90704761D02*
X54095238Y-89371428D01*
X55142857Y-89371428D02*
X54095238Y-90704761D01*
X50666666Y-90514285D02*
X50761904Y-90609523D01*
X51047619Y-90704761D01*
X51238095Y-90704761D01*
X51523809Y-90609523D01*
X51714285Y-90419047D01*
X51809523Y-90228571D01*
X51904761Y-89847619D01*
X51904761Y-89561904D01*
X51809523Y-89180952D01*
X51714285Y-88990476D01*
X51523809Y-88800000D01*
X51238095Y-88704761D01*
X51047619Y-88704761D01*
X50761904Y-88800000D01*
X50666666Y-88895238D01*
X48666666Y-90704761D02*
X49333333Y-89752380D01*
X49809523Y-90704761D02*
X49809523Y-88704761D01*
X49047619Y-88704761D01*
X48857142Y-88800000D01*
X48761904Y-88895238D01*
X48666666Y-89085714D01*
X48666666Y-89371428D01*
X48761904Y-89561904D01*
X48857142Y-89657142D01*
X49047619Y-89752380D01*
X49809523Y-89752380D01*
X47904761Y-88895238D02*
X47809523Y-88800000D01*
X47619047Y-88704761D01*
X47142857Y-88704761D01*
X46952380Y-88800000D01*
X46857142Y-88895238D01*
X46761904Y-89085714D01*
X46761904Y-89276190D01*
X46857142Y-89561904D01*
X48000000Y-90704761D01*
X46761904Y-90704761D01*
X45047619Y-89371428D02*
X45047619Y-90704761D01*
X45523809Y-88609523D02*
X46000000Y-90038095D01*
X44761904Y-90038095D01*
X43047619Y-88704761D02*
X44000000Y-88704761D01*
X44095238Y-89657142D01*
X44000000Y-89561904D01*
X43809523Y-89466666D01*
X43333333Y-89466666D01*
X43142857Y-89561904D01*
X43047619Y-89657142D01*
X42952380Y-89847619D01*
X42952380Y-90323809D01*
X43047619Y-90514285D01*
X43142857Y-90609523D01*
X43333333Y-90704761D01*
X43809523Y-90704761D01*
X44000000Y-90609523D01*
X44095238Y-90514285D01*
X41714285Y-88704761D02*
X41523809Y-88704761D01*
X41333333Y-88800000D01*
X41238095Y-88895238D01*
X41142857Y-89085714D01*
X41047619Y-89466666D01*
X41047619Y-89942857D01*
X41142857Y-90323809D01*
X41238095Y-90514285D01*
X41333333Y-90609523D01*
X41523809Y-90704761D01*
X41714285Y-90704761D01*
X41904761Y-90609523D01*
X42000000Y-90514285D01*
X42095238Y-90323809D01*
X42190476Y-89942857D01*
X42190476Y-89466666D01*
X42095238Y-89085714D01*
X42000000Y-88895238D01*
X41904761Y-88800000D01*
X41714285Y-88704761D01*
D12*
X60400000Y-68800000D02*
X60400000Y-79000000D01*
D13*
X60004761Y-72442857D02*
X60052380Y-72585714D01*
X60052380Y-72823809D01*
X60004761Y-72919047D01*
X59957142Y-72966666D01*
X59861904Y-73014285D01*
X59766666Y-73014285D01*
X59671428Y-72966666D01*
X59623809Y-72919047D01*
X59576190Y-72823809D01*
X59528571Y-72633333D01*
X59480952Y-72538095D01*
X59433333Y-72490476D01*
X59338095Y-72442857D01*
X59242857Y-72442857D01*
X59147619Y-72490476D01*
X59100000Y-72538095D01*
X59052380Y-72633333D01*
X59052380Y-72871428D01*
X59100000Y-73014285D01*
X59052380Y-73347619D02*
X60052380Y-73585714D01*
X59338095Y-73776190D01*
X60052380Y-73966666D01*
X59052380Y-74204761D01*
X60052380Y-74585714D02*
X59052380Y-74585714D01*
X59052380Y-74823809D01*
X59100000Y-74966666D01*
X59195238Y-75061904D01*
X59290476Y-75109523D01*
X59480952Y-75157142D01*
X59623809Y-75157142D01*
X59814285Y-75109523D01*
X59909523Y-75061904D01*
X60004761Y-74966666D01*
X60052380Y-74823809D01*
X60052380Y-74585714D01*
X63600000Y-64652380D02*
X63409523Y-64652380D01*
X63314285Y-64700000D01*
X63219047Y-64795238D01*
X63171428Y-64985714D01*
X63171428Y-65319047D01*
X63219047Y-65509523D01*
X63314285Y-65604761D01*
X63409523Y-65652380D01*
X63600000Y-65652380D01*
X63695238Y-65604761D01*
X63790476Y-65509523D01*
X63838095Y-65319047D01*
X63838095Y-64985714D01*
X63790476Y-64795238D01*
X63695238Y-64700000D01*
X63600000Y-64652380D01*
X62742857Y-64652380D02*
X62742857Y-65461904D01*
X62695238Y-65557142D01*
X62647619Y-65604761D01*
X62552380Y-65652380D01*
X62361904Y-65652380D01*
X62266666Y-65604761D01*
X62219047Y-65557142D01*
X62171428Y-65461904D01*
X62171428Y-64652380D01*
X61838095Y-64652380D02*
X61266666Y-64652380D01*
X61552380Y-65652380D02*
X61552380Y-64652380D01*
X63838095Y-59652380D02*
X63219047Y-59652380D01*
X63552380Y-60033333D01*
X63409523Y-60033333D01*
X63314285Y-60080952D01*
X63266666Y-60128571D01*
X63219047Y-60223809D01*
X63219047Y-60461904D01*
X63266666Y-60557142D01*
X63314285Y-60604761D01*
X63409523Y-60652380D01*
X63695238Y-60652380D01*
X63790476Y-60604761D01*
X63838095Y-60557142D01*
X62933333Y-59652380D02*
X62600000Y-60652380D01*
X62266666Y-59652380D01*
X62028571Y-59652380D02*
X61409523Y-59652380D01*
X61742857Y-60033333D01*
X61600000Y-60033333D01*
X61504761Y-60080952D01*
X61457142Y-60128571D01*
X61409523Y-60223809D01*
X61409523Y-60461904D01*
X61457142Y-60557142D01*
X61504761Y-60604761D01*
X61600000Y-60652380D01*
X61885714Y-60652380D01*
X61980952Y-60604761D01*
X62028571Y-60557142D01*
X63361904Y-54500000D02*
X63457142Y-54452380D01*
X63600000Y-54452380D01*
X63742857Y-54500000D01*
X63838095Y-54595238D01*
X63885714Y-54690476D01*
X63933333Y-54880952D01*
X63933333Y-55023809D01*
X63885714Y-55214285D01*
X63838095Y-55309523D01*
X63742857Y-55404761D01*
X63600000Y-55452380D01*
X63504761Y-55452380D01*
X63361904Y-55404761D01*
X63314285Y-55357142D01*
X63314285Y-55023809D01*
X63504761Y-55023809D01*
X62885714Y-55452380D02*
X62885714Y-54452380D01*
X62314285Y-55452380D01*
X62314285Y-54452380D01*
X61838095Y-55452380D02*
X61838095Y-54452380D01*
X61600000Y-54452380D01*
X61457142Y-54500000D01*
X61361904Y-54595238D01*
X61314285Y-54690476D01*
X61266666Y-54880952D01*
X61266666Y-55023809D01*
X61314285Y-55214285D01*
X61361904Y-55309523D01*
X61457142Y-55404761D01*
X61600000Y-55452380D01*
X61838095Y-55452380D01*
D12*
X60400000Y-66400000D02*
X60400000Y-54000000D01*
D13*
X60004761Y-57890476D02*
X60052380Y-58033333D01*
X60052380Y-58271428D01*
X60004761Y-58366666D01*
X59957142Y-58414285D01*
X59861904Y-58461904D01*
X59766666Y-58461904D01*
X59671428Y-58414285D01*
X59623809Y-58366666D01*
X59576190Y-58271428D01*
X59528571Y-58080952D01*
X59480952Y-57985714D01*
X59433333Y-57938095D01*
X59338095Y-57890476D01*
X59242857Y-57890476D01*
X59147619Y-57938095D01*
X59100000Y-57985714D01*
X59052380Y-58080952D01*
X59052380Y-58319047D01*
X59100000Y-58461904D01*
X59528571Y-58890476D02*
X59528571Y-59223809D01*
X60052380Y-59366666D02*
X60052380Y-58890476D01*
X59052380Y-58890476D01*
X59052380Y-59366666D01*
X60052380Y-60366666D02*
X59576190Y-60033333D01*
X60052380Y-59795238D02*
X59052380Y-59795238D01*
X59052380Y-60176190D01*
X59100000Y-60271428D01*
X59147619Y-60319047D01*
X59242857Y-60366666D01*
X59385714Y-60366666D01*
X59480952Y-60319047D01*
X59528571Y-60271428D01*
X59576190Y-60176190D01*
X59576190Y-59795238D01*
X60052380Y-60795238D02*
X59052380Y-60795238D01*
X59766666Y-61223809D02*
X59766666Y-61700000D01*
X60052380Y-61128571D02*
X59052380Y-61461904D01*
X60052380Y-61795238D01*
X60052380Y-62604761D02*
X60052380Y-62128571D01*
X59052380Y-62128571D01*
X63838095Y-77252380D02*
X63219047Y-77252380D01*
X63552380Y-77633333D01*
X63409523Y-77633333D01*
X63314285Y-77680952D01*
X63266666Y-77728571D01*
X63219047Y-77823809D01*
X63219047Y-78061904D01*
X63266666Y-78157142D01*
X63314285Y-78204761D01*
X63409523Y-78252380D01*
X63695238Y-78252380D01*
X63790476Y-78204761D01*
X63838095Y-78157142D01*
X62933333Y-77252380D02*
X62600000Y-78252380D01*
X62266666Y-77252380D01*
X62028571Y-77252380D02*
X61409523Y-77252380D01*
X61742857Y-77633333D01*
X61600000Y-77633333D01*
X61504761Y-77680952D01*
X61457142Y-77728571D01*
X61409523Y-77823809D01*
X61409523Y-78061904D01*
X61457142Y-78157142D01*
X61504761Y-78204761D01*
X61600000Y-78252380D01*
X61885714Y-78252380D01*
X61980952Y-78204761D01*
X62028571Y-78157142D01*
X63161904Y-74700000D02*
X63257142Y-74652380D01*
X63400000Y-74652380D01*
X63542857Y-74700000D01*
X63638095Y-74795238D01*
X63685714Y-74890476D01*
X63733333Y-75080952D01*
X63733333Y-75223809D01*
X63685714Y-75414285D01*
X63638095Y-75509523D01*
X63542857Y-75604761D01*
X63400000Y-75652380D01*
X63304761Y-75652380D01*
X63161904Y-75604761D01*
X63114285Y-75557142D01*
X63114285Y-75223809D01*
X63304761Y-75223809D01*
X62685714Y-75652380D02*
X62685714Y-74652380D01*
X62114285Y-75652380D01*
X62114285Y-74652380D01*
X61638095Y-75652380D02*
X61638095Y-74652380D01*
X61400000Y-74652380D01*
X61257142Y-74700000D01*
X61161904Y-74795238D01*
X61114285Y-74890476D01*
X61066666Y-75080952D01*
X61066666Y-75223809D01*
X61114285Y-75414285D01*
X61161904Y-75509523D01*
X61257142Y-75604761D01*
X61400000Y-75652380D01*
X61638095Y-75652380D01*
X63723809Y-73052380D02*
X63723809Y-72052380D01*
X63057142Y-72052380D02*
X62866666Y-72052380D01*
X62771428Y-72100000D01*
X62676190Y-72195238D01*
X62628571Y-72385714D01*
X62628571Y-72719047D01*
X62676190Y-72909523D01*
X62771428Y-73004761D01*
X62866666Y-73052380D01*
X63057142Y-73052380D01*
X63152380Y-73004761D01*
X63247619Y-72909523D01*
X63295238Y-72719047D01*
X63295238Y-72385714D01*
X63247619Y-72195238D01*
X63152380Y-72100000D01*
X63057142Y-72052380D01*
X63195238Y-70357142D02*
X63242857Y-70404761D01*
X63385714Y-70452380D01*
X63480952Y-70452380D01*
X63623809Y-70404761D01*
X63719047Y-70309523D01*
X63766666Y-70214285D01*
X63814285Y-70023809D01*
X63814285Y-69880952D01*
X63766666Y-69690476D01*
X63719047Y-69595238D01*
X63623809Y-69500000D01*
X63480952Y-69452380D01*
X63385714Y-69452380D01*
X63242857Y-69500000D01*
X63195238Y-69547619D01*
X62290476Y-70452380D02*
X62766666Y-70452380D01*
X62766666Y-69452380D01*
X61957142Y-70452380D02*
X61957142Y-69452380D01*
X61385714Y-70452380D02*
X61814285Y-69880952D01*
X61385714Y-69452380D02*
X61957142Y-70023809D01*
D12*
X41728733Y-44760000D02*
X42071267Y-44760000D01*
X41728733Y-43740000D02*
X42071267Y-43740000D01*
X40490000Y-47078733D02*
X40490000Y-47421267D01*
X41510000Y-47078733D02*
X41510000Y-47421267D01*
D14*
X48497840Y-56497960D02*
X48497840Y-54498980D01*
X48497840Y-56497960D02*
X46501400Y-56497960D01*
X46501400Y-56497960D02*
X46501400Y-54498980D01*
X48497840Y-54498980D02*
X46501400Y-54498980D01*
X45001020Y-63250000D02*
X45001020Y-59252040D01*
X48998980Y-63250000D02*
X45001020Y-63250000D01*
X48998980Y-59252040D02*
X48998980Y-63250000D01*
X45001020Y-59252040D02*
X48998980Y-59252040D01*
X54998460Y-67248460D02*
X54998460Y-51251540D01*
X39001540Y-51251540D02*
X39001540Y-67248460D01*
D13*
X39000000Y-67250000D02*
X40250000Y-67250000D01*
X41750000Y-67250000D02*
X42250000Y-67250000D01*
X43750000Y-67250000D02*
X44250000Y-67250000D01*
X45750000Y-67250000D02*
X46250000Y-67250000D01*
X47750000Y-67250000D02*
X48250000Y-67250000D01*
X49750000Y-67250000D02*
X50250000Y-67250000D01*
X51750000Y-67250000D02*
X52250000Y-67250000D01*
X53750000Y-67250000D02*
X55000000Y-67250000D01*
X55000000Y-51250000D02*
X53750000Y-51250000D01*
X52250000Y-51250000D02*
X51750000Y-51250000D01*
X50250000Y-51250000D02*
X49750000Y-51250000D01*
X48250000Y-51250000D02*
X47750000Y-51250000D01*
X46250000Y-51250000D02*
X45750000Y-51250000D01*
X44250000Y-51250000D02*
X43750000Y-51250000D01*
X42250000Y-51250000D02*
X41750000Y-51250000D01*
X40250000Y-51250000D02*
X39000000Y-51250000D01*
D12*
X61850000Y-100900000D02*
X61850000Y-96700000D01*
X36150000Y-100900000D02*
X36150000Y-96700000D01*
X61850000Y-110400000D02*
X61850000Y-107100000D01*
X52950000Y-116250000D02*
X61850000Y-110400000D01*
X52950000Y-117050000D02*
X52950000Y-116250000D01*
X45050000Y-117050000D02*
X52950000Y-117050000D01*
X45050000Y-117050000D02*
X45050000Y-116250000D01*
X45050000Y-116250000D02*
X36150000Y-110400000D01*
X36150000Y-110400000D02*
X36150000Y-107100000D01*
X61850000Y-96750000D02*
G75*
G03X59150000Y-94050000I-2700000J0D01*
G01*
X36150000Y-96750000D02*
G75*
G02X38850000Y-94050000I2700000J0D01*
G01*
X39521751Y-94328249D02*
G75*
G03X38850000Y-94050000I-671751J-671751D01*
G01*
X58478249Y-94328249D02*
G75*
G02X59150000Y-94050000I671751J-671751D01*
G01*
D13*
X40500000Y-62738095D02*
X40452380Y-62642857D01*
X40452380Y-62500000D01*
X40500000Y-62357142D01*
X40595238Y-62261904D01*
X40690476Y-62214285D01*
X40880952Y-62166666D01*
X41023809Y-62166666D01*
X41214285Y-62214285D01*
X41309523Y-62261904D01*
X41404761Y-62357142D01*
X41452380Y-62500000D01*
X41452380Y-62595238D01*
X41404761Y-62738095D01*
X41357142Y-62785714D01*
X41023809Y-62785714D01*
X41023809Y-62595238D01*
X41452380Y-63214285D02*
X40452380Y-63214285D01*
X41452380Y-63785714D01*
X40452380Y-63785714D01*
X41452380Y-64261904D02*
X40452380Y-64261904D01*
X40452380Y-64500000D01*
X40500000Y-64642857D01*
X40595238Y-64738095D01*
X40690476Y-64785714D01*
X40880952Y-64833333D01*
X41023809Y-64833333D01*
X41214285Y-64785714D01*
X41309523Y-64738095D01*
X41404761Y-64642857D01*
X41452380Y-64500000D01*
X41452380Y-64261904D01*
X41166666Y-53857142D02*
X41166666Y-54333333D01*
X41452380Y-53761904D02*
X40452380Y-54095238D01*
X41452380Y-54428571D01*
X41452380Y-54761904D02*
X40452380Y-54761904D01*
X41452380Y-55333333D01*
X40452380Y-55333333D01*
X40452380Y-55666666D02*
X40452380Y-56238095D01*
X41452380Y-55952380D02*
X40452380Y-55952380D01*
M02*
