G04 #@! TF.GenerationSoftware,KiCad,Pcbnew,5.1.8-db9833491~87~ubuntu20.04.1*
G04 #@! TF.CreationDate,2020-11-19T21:04:05-07:00*
G04 #@! TF.ProjectId,remote,72656d6f-7465-42e6-9b69-6361645f7063,rev?*
G04 #@! TF.SameCoordinates,Original*
G04 #@! TF.FileFunction,Legend,Top*
G04 #@! TF.FilePolarity,Positive*
%FSLAX46Y46*%
G04 Gerber Fmt 4.6, Leading zero omitted, Abs format (unit mm)*
G04 Created by KiCad (PCBNEW 5.1.8-db9833491~87~ubuntu20.04.1) date 2020-11-19 21:04:05*
%MOMM*%
%LPD*%
G01*
G04 APERTURE LIST*
%ADD10C,0.150000*%
%ADD11C,0.120000*%
G04 APERTURE END LIST*
D10*
X38304761Y-75852380D02*
X38495238Y-75852380D01*
X38590476Y-75900000D01*
X38685714Y-75995238D01*
X38733333Y-76185714D01*
X38733333Y-76519047D01*
X38685714Y-76709523D01*
X38590476Y-76804761D01*
X38495238Y-76852380D01*
X38304761Y-76852380D01*
X38209523Y-76804761D01*
X38114285Y-76709523D01*
X38066666Y-76519047D01*
X38066666Y-76185714D01*
X38114285Y-75995238D01*
X38209523Y-75900000D01*
X38304761Y-75852380D01*
X38066666Y-73452380D02*
X38400000Y-74452380D01*
X38733333Y-73452380D01*
X38661904Y-70900000D02*
X38566666Y-70852380D01*
X38423809Y-70852380D01*
X38280952Y-70900000D01*
X38185714Y-70995238D01*
X38138095Y-71090476D01*
X38090476Y-71280952D01*
X38090476Y-71423809D01*
X38138095Y-71614285D01*
X38185714Y-71709523D01*
X38280952Y-71804761D01*
X38423809Y-71852380D01*
X38519047Y-71852380D01*
X38661904Y-71804761D01*
X38709523Y-71757142D01*
X38709523Y-71423809D01*
X38519047Y-71423809D01*
D11*
X42800000Y-89300000D02*
X53000000Y-89300000D01*
D10*
X46442857Y-88904761D02*
X46585714Y-88952380D01*
X46823809Y-88952380D01*
X46919047Y-88904761D01*
X46966666Y-88857142D01*
X47014285Y-88761904D01*
X47014285Y-88666666D01*
X46966666Y-88571428D01*
X46919047Y-88523809D01*
X46823809Y-88476190D01*
X46633333Y-88428571D01*
X46538095Y-88380952D01*
X46490476Y-88333333D01*
X46442857Y-88238095D01*
X46442857Y-88142857D01*
X46490476Y-88047619D01*
X46538095Y-88000000D01*
X46633333Y-87952380D01*
X46871428Y-87952380D01*
X47014285Y-88000000D01*
X47347619Y-87952380D02*
X47585714Y-88952380D01*
X47776190Y-88238095D01*
X47966666Y-88952380D01*
X48204761Y-87952380D01*
X48585714Y-88952380D02*
X48585714Y-87952380D01*
X48823809Y-87952380D01*
X48966666Y-88000000D01*
X49061904Y-88095238D01*
X49109523Y-88190476D01*
X49157142Y-88380952D01*
X49157142Y-88523809D01*
X49109523Y-88714285D01*
X49061904Y-88809523D01*
X48966666Y-88904761D01*
X48823809Y-88952380D01*
X48585714Y-88952380D01*
X51252380Y-92738095D02*
X51252380Y-92119047D01*
X51633333Y-92452380D01*
X51633333Y-92309523D01*
X51680952Y-92214285D01*
X51728571Y-92166666D01*
X51823809Y-92119047D01*
X52061904Y-92119047D01*
X52157142Y-92166666D01*
X52204761Y-92214285D01*
X52252380Y-92309523D01*
X52252380Y-92595238D01*
X52204761Y-92690476D01*
X52157142Y-92738095D01*
X51252380Y-91833333D02*
X52252380Y-91500000D01*
X51252380Y-91166666D01*
X51252380Y-90928571D02*
X51252380Y-90309523D01*
X51633333Y-90642857D01*
X51633333Y-90500000D01*
X51680952Y-90404761D01*
X51728571Y-90357142D01*
X51823809Y-90309523D01*
X52061904Y-90309523D01*
X52157142Y-90357142D01*
X52204761Y-90404761D01*
X52252380Y-90500000D01*
X52252380Y-90785714D01*
X52204761Y-90880952D01*
X52157142Y-90928571D01*
X48700000Y-92061904D02*
X48652380Y-92157142D01*
X48652380Y-92300000D01*
X48700000Y-92442857D01*
X48795238Y-92538095D01*
X48890476Y-92585714D01*
X49080952Y-92633333D01*
X49223809Y-92633333D01*
X49414285Y-92585714D01*
X49509523Y-92538095D01*
X49604761Y-92442857D01*
X49652380Y-92300000D01*
X49652380Y-92204761D01*
X49604761Y-92061904D01*
X49557142Y-92014285D01*
X49223809Y-92014285D01*
X49223809Y-92204761D01*
X49652380Y-91585714D02*
X48652380Y-91585714D01*
X49652380Y-91014285D01*
X48652380Y-91014285D01*
X49652380Y-90538095D02*
X48652380Y-90538095D01*
X48652380Y-90300000D01*
X48700000Y-90157142D01*
X48795238Y-90061904D01*
X48890476Y-90014285D01*
X49080952Y-89966666D01*
X49223809Y-89966666D01*
X49414285Y-90014285D01*
X49509523Y-90061904D01*
X49604761Y-90157142D01*
X49652380Y-90300000D01*
X49652380Y-90538095D01*
X47052380Y-92623809D02*
X46052380Y-92623809D01*
X46052380Y-91957142D02*
X46052380Y-91766666D01*
X46100000Y-91671428D01*
X46195238Y-91576190D01*
X46385714Y-91528571D01*
X46719047Y-91528571D01*
X46909523Y-91576190D01*
X47004761Y-91671428D01*
X47052380Y-91766666D01*
X47052380Y-91957142D01*
X47004761Y-92052380D01*
X46909523Y-92147619D01*
X46719047Y-92195238D01*
X46385714Y-92195238D01*
X46195238Y-92147619D01*
X46100000Y-92052380D01*
X46052380Y-91957142D01*
X44357142Y-92095238D02*
X44404761Y-92142857D01*
X44452380Y-92285714D01*
X44452380Y-92380952D01*
X44404761Y-92523809D01*
X44309523Y-92619047D01*
X44214285Y-92666666D01*
X44023809Y-92714285D01*
X43880952Y-92714285D01*
X43690476Y-92666666D01*
X43595238Y-92619047D01*
X43500000Y-92523809D01*
X43452380Y-92380952D01*
X43452380Y-92285714D01*
X43500000Y-92142857D01*
X43547619Y-92095238D01*
X44452380Y-91190476D02*
X44452380Y-91666666D01*
X43452380Y-91666666D01*
X44452380Y-90857142D02*
X43452380Y-90857142D01*
X44452380Y-90285714D02*
X43880952Y-90714285D01*
X43452380Y-90285714D02*
X44023809Y-90857142D01*
D11*
X35246359Y-81980000D02*
X35553641Y-81980000D01*
X35246359Y-81220000D02*
X35553641Y-81220000D01*
X53243641Y-50820000D02*
X52936359Y-50820000D01*
X53243641Y-51580000D02*
X52936359Y-51580000D01*
X52953641Y-80820000D02*
X52646359Y-80820000D01*
X52953641Y-81580000D02*
X52646359Y-81580000D01*
X53153641Y-105820000D02*
X52846359Y-105820000D01*
X53153641Y-106580000D02*
X52846359Y-106580000D01*
X35800000Y-77730000D02*
X34470000Y-77730000D01*
X34470000Y-77730000D02*
X34470000Y-76400000D01*
X34470000Y-75130000D02*
X34470000Y-69990000D01*
X37130000Y-69990000D02*
X34470000Y-69990000D01*
X37130000Y-75130000D02*
X37130000Y-69990000D01*
X37130000Y-75130000D02*
X34470000Y-75130000D01*
X55107836Y-67440000D02*
X54892164Y-67440000D01*
X55107836Y-68160000D02*
X54892164Y-68160000D01*
X41492164Y-51560000D02*
X41707836Y-51560000D01*
X41492164Y-50840000D02*
X41707836Y-50840000D01*
X59535000Y-79972936D02*
X59535000Y-80427064D01*
X58065000Y-79972936D02*
X58065000Y-80427064D01*
X52692164Y-82240000D02*
X52907836Y-82240000D01*
X52692164Y-82960000D02*
X52907836Y-82960000D01*
D10*
X51350000Y-77750000D02*
X51350000Y-71775000D01*
X58250000Y-76225000D02*
X58250000Y-71775000D01*
X44600000Y-48400000D02*
X49400000Y-48400000D01*
X49600000Y-49600000D02*
X49600000Y-52400000D01*
X49400000Y-53600000D02*
X44600000Y-53600000D01*
X44400000Y-52400000D02*
X44400000Y-49600000D01*
X44600000Y-63400000D02*
X49400000Y-63400000D01*
X49600000Y-64600000D02*
X49600000Y-67400000D01*
X49400000Y-68600000D02*
X44600000Y-68600000D01*
X44400000Y-67400000D02*
X44400000Y-64600000D01*
X44600000Y-79400000D02*
X49400000Y-79400000D01*
X49600000Y-80600000D02*
X49600000Y-83400000D01*
X49400000Y-84600000D02*
X44600000Y-84600000D01*
X44400000Y-83400000D02*
X44400000Y-80600000D01*
X49400000Y-106600000D02*
X44600000Y-106600000D01*
X44400000Y-105400000D02*
X44400000Y-102600000D01*
X44600000Y-101400000D02*
X49400000Y-101400000D01*
X49600000Y-102600000D02*
X49600000Y-105400000D01*
D11*
X42670000Y-94400000D02*
X42670000Y-93070000D01*
X42670000Y-93070000D02*
X44000000Y-93070000D01*
X45270000Y-93070000D02*
X52950000Y-93070000D01*
X52950000Y-95730000D02*
X52950000Y-93070000D01*
X45270000Y-95730000D02*
X52950000Y-95730000D01*
X45270000Y-95730000D02*
X45270000Y-93070000D01*
X34315000Y-80535000D02*
X36600000Y-80535000D01*
X34315000Y-79065000D02*
X34315000Y-80535000D01*
X36600000Y-79065000D02*
X34315000Y-79065000D01*
M02*
